<svg xmlns="http://www.w3.org/2000/svg" xmlns:xlink="http://www.w3.org/1999/xlink" width="6912" zoomAndPan="magnify" viewBox="0 0 5184 2592.000001" height="3456" preserveAspectRatio="xMidYMid meet" version="1.0"><defs><filter x="0%" y="0%" width="100%" height="100%" id="8681fce6ca"><feColorMatrix values="0 0 0 0 1 0 0 0 0 1 0 0 0 0 1 0 0 0 1 0" color-interpolation-filters="sRGB"/></filter><mask id="cf50b81035"><g filter="url(#8681fce6ca)"><rect x="-518.4" width="6220.8" fill="#000000" y="-259.2" height="3110.400001" fill-opacity="0.3"/></g></mask><clipPath id="1e9d8da4c2"><path d="M 0 0 L 948 0 L 948 1793.546875 L 0 1793.546875 Z M 0 0 " clip-rule="nonzero"/></clipPath><mask id="4757d9d03a"><g filter="url(#8681fce6ca)"><rect x="-1141.48" width="7464.96" fill="#000000" y="-570.24" height="3732.480001" fill-opacity="0.16"/></g></mask><clipPath id="1f5786b787"><path d="M 111 0.238281 L 946.855469 0.238281 L 946.855469 1492 L 111 1492 Z M 111 0.238281 " clip-rule="nonzero"/></clipPath><clipPath id="31dfc539bc"><path d="M 0 306 L 817 306 L 817 1792.542969 L 0 1792.542969 Z M 0 306 " clip-rule="nonzero"/></clipPath><clipPath id="32b245d6f6"><rect x="0" width="948" y="0" height="1794"/></clipPath><clipPath id="a8c1fde2df"><path d="M 1163 0 L 2350 0 L 2350 1793.546875 L 1163 1793.546875 Z M 1163 0 " clip-rule="nonzero"/></clipPath><mask id="f24da97f77"><g filter="url(#8681fce6ca)"><rect x="-1141.48" width="7464.96" fill="#000000" y="-570.24" height="3732.480001" fill-opacity="0.16"/></g></mask><clipPath id="9c2260e137"><path d="M 0.324219 328 L 1186.894531 328 L 1186.894531 1792.542969 L 0.324219 1792.542969 Z M 0.324219 328 " clip-rule="nonzero"/></clipPath><clipPath id="0f19bdf67d"><path d="M 0.324219 0.238281 L 1186.894531 0.238281 L 1186.894531 1465 L 0.324219 1465 Z M 0.324219 0.238281 " clip-rule="nonzero"/></clipPath><clipPath id="10033e3ecf"><rect x="0" width="1187" y="0" height="1794"/></clipPath><clipPath id="b977db734e"><path d="M 2566 0 L 3832 0 L 3832 1793.546875 L 2566 1793.546875 Z M 2566 0 " clip-rule="nonzero"/></clipPath><mask id="158ceecb8b"><g filter="url(#8681fce6ca)"><rect x="-1141.48" width="7464.96" fill="#000000" y="-570.24" height="3732.480001" fill-opacity="0.16"/></g></mask><clipPath id="f016cdb038"><path d="M 0.472656 298 L 1044 298 L 1044 1792.542969 L 0.472656 1792.542969 Z M 0.472656 298 " clip-rule="nonzero"/></clipPath><clipPath id="8c4813598d"><rect x="0" width="1266" y="0" height="1794"/></clipPath><clipPath id="e75320c16e"><path d="M 4047 0 L 5152.492188 0 L 5152.492188 1793.546875 L 4047 1793.546875 Z M 4047 0 " clip-rule="nonzero"/></clipPath><mask id="4a990505b2"><g filter="url(#8681fce6ca)"><rect x="-1141.48" width="7464.96" fill="#000000" y="-570.24" height="3732.480001" fill-opacity="0.16"/></g></mask><clipPath id="e603e1d333"><path d="M 0.320312 328 L 434 328 L 434 1792.542969 L 0.320312 1792.542969 Z M 0.320312 328 " clip-rule="nonzero"/></clipPath><clipPath id="aa22cc9429"><path d="M 0.320312 0 L 1105.417969 0 L 1105.417969 1465 L 0.320312 1465 Z M 0.320312 0 " clip-rule="nonzero"/></clipPath><clipPath id="9df9293eed"><rect x="0" width="1106" y="0" height="1794"/></clipPath><clipPath id="0148961be2"><rect x="0" width="5153" y="0" height="1794"/></clipPath></defs><g mask="url(#cf50b81035)"><g transform="matrix(1, 0, 0, 1, 1, -0.000000000000208807)"><g clip-path="url(#0148961be2)"><g clip-path="url(#1e9d8da4c2)"><g mask="url(#4757d9d03a)"><g transform="matrix(1, 0, 0, 1, 0, -0.000000000000208805)"><g clip-path="url(#32b245d6f6)"><g clip-path="url(#1f5786b787)"><path fill="#ffea83" d="M 907.421875 1480.308594 C 933.371094 1418.863281 946.546875 1350.214844 946.546875 1276.253906 C 946.546875 1213.003906 936.503906 1152.644531 916.691406 1096.84375 C 896.878906 1041.039062 866.75 988.324219 827.183594 940.179688 C 749.449219 845.648438 671.527344 771.1875 595.613281 718.882812 C 474.804688 634.886719 413.546875 559.738281 413.546875 495.535156 C 413.546875 460.121094 425 433.203125 448.554688 413.289062 C 472.574219 392.964844 506.359375 382.65625 548.960938 382.65625 C 615.972656 382.65625 705.578125 413.144531 815.292969 473.28125 L 838.9375 486.242188 L 838.9375 74.699219 L 829.355469 70.519531 C 722.664062 23.976562 613.625 0.378906 505.171875 0.378906 C 431.378906 0.378906 363.328125 12.210938 302.96875 35.554688 C 242.359375 58.980469 187.875 94.644531 141.050781 141.429688 C 130.65625 151.820312 120.804688 162.589844 111.503906 173.730469 L 139.964844 189.550781 C 147.464844 180.796875 155.34375 172.28125 163.601562 163.996094 C 251.023438 76.628906 365.933594 32.320312 505.171875 32.320312 C 605.960938 32.320312 707.453125 53.632812 807.011719 95.683594 L 807.011719 432.574219 C 759.246094 407.578125 714.984375 388.144531 675.144531 374.6875 C 628.03125 358.765625 585.589844 350.691406 548.976562 350.691406 C 498.613281 350.691406 457.890625 363.539062 427.9375 388.886719 C 397.210938 414.902344 381.621094 450.785156 381.621094 495.535156 C 381.621094 534.121094 398.695312 575.046875 432.34375 617.167969 C 464.628906 657.605469 513.453125 700.683594 577.4375 745.148438 C 650.902344 795.796875 726.648438 868.238281 802.492188 960.46875 C 876.875 1050.949219 914.589844 1157.195312 914.589844 1276.253906 C 914.589844 1349.28125 901.015625 1416.132812 874.035156 1476.355469 L 902.574219 1491.378906 C 904.234375 1487.703125 905.851562 1484.015625 907.421875 1480.308594 Z M 907.421875 1480.308594 " fill-opacity="1" fill-rule="nonzero"/></g><g clip-path="url(#31dfc539bc)"><path fill="#ffea83" d="M 768.246094 1623.054688 C 670.824219 1714.421875 545.296875 1760.746094 395.070312 1760.746094 C 295.09375 1760.746094 194.441406 1737.460938 95.75 1691.519531 L 95.75 1340.007812 C 147.40625 1368.757812 195.933594 1391.035156 240.285156 1406.445312 C 292.1875 1424.460938 340.050781 1433.597656 382.523438 1433.597656 C 434.09375 1433.597656 475.6875 1418.847656 506.152344 1389.765625 C 536.832031 1360.492188 552.386719 1321.453125 552.386719 1273.738281 C 552.386719 1237.007812 540.144531 1202.191406 515.992188 1170.265625 C 492.832031 1139.667969 454.394531 1103.894531 398.480469 1060.867188 C 269.503906 962.296875 174.894531 869.453125 117.34375 784.929688 C 60.6875 701.714844 31.941406 607.714844 31.941406 505.542969 C 31.941406 438.582031 42.144531 377.363281 62.546875 321.882812 L 34.128906 306.109375 C 11.480469 365.800781 0 432.875 0 505.542969 C 0 559.839844 7.65625 612.410156 22.75 661.765625 C 37.839844 711.121094 60.808594 758.625 90.976562 802.898438 C 120.832031 846.726562 160.289062 892.84375 208.246094 939.957031 C 255.933594 986.804688 313.421875 1036.027344 379.074219 1086.199219 C 431.914062 1126.859375 469.421875 1161.625 490.558594 1189.527344 C 510.6875 1216.140625 520.480469 1243.683594 520.480469 1273.722656 C 520.480469 1312.90625 508.589844 1343.300781 484.128906 1366.640625 C 459.464844 1390.1875 426.238281 1401.640625 382.558594 1401.640625 C 304.070312 1401.640625 204.910156 1367.007812 87.828125 1298.71875 L 63.808594 1284.726562 L 63.808594 1711.683594 L 72.863281 1716.035156 C 125.773438 1741.4375 179.683594 1760.753906 233.097656 1773.480469 C 259.625 1779.824219 286.433594 1784.605469 313.523438 1787.816406 C 340.609375 1791.027344 367.792969 1792.652344 395.070312 1792.683594 C 474.171875 1792.683594 547.492188 1780.402344 612.988281 1756.191406 C 678.714844 1731.894531 738.308594 1694.9375 790.101562 1646.347656 C 799.394531 1637.628906 808.292969 1628.671875 816.796875 1619.484375 L 787.449219 1604.042969 C 781.269531 1610.492188 774.867188 1616.832031 768.246094 1623.054688 Z M 768.246094 1623.054688 " fill-opacity="1" fill-rule="nonzero"/></g></g></g></g></g><g clip-path="url(#a8c1fde2df)"><g mask="url(#f24da97f77)"><g transform="matrix(1, 0, 0, 1, 1163, -0.000000000000208805)"><g clip-path="url(#10033e3ecf)"><g clip-path="url(#9c2260e137)"><path fill="#ffea83" d="M 1153.082031 1759.085938 L 787.535156 1759.085938 L 787.535156 1027.910156 L 399.507812 1027.910156 L 399.507812 1759.085938 L 33.960938 1759.085938 L 33.960938 328.964844 L 0.324219 328.964844 L 0.324219 1792.71875 L 433.140625 1792.71875 L 433.140625 1061.542969 L 753.902344 1061.542969 L 753.902344 1792.71875 L 1186.714844 1792.71875 L 1186.714844 1625.519531 L 1153.082031 1625.519531 Z M 1153.082031 1759.085938 " fill-opacity="1" fill-rule="nonzero"/></g><g clip-path="url(#0f19bdf67d)"><path fill="#ffea83" d="M 1186.714844 0.328125 L 753.902344 0.328125 L 753.902344 652.449219 L 433.140625 652.449219 L 433.140625 0.328125 L 0.324219 0.328125 L 0.324219 167.527344 L 33.960938 167.527344 L 33.960938 33.960938 L 399.507812 33.960938 L 399.507812 686.082031 L 787.535156 686.082031 L 787.535156 33.960938 L 1153.082031 33.960938 L 1153.082031 1464.082031 L 1186.714844 1464.082031 Z M 1186.714844 0.328125 " fill-opacity="1" fill-rule="nonzero"/></g></g></g></g></g><g clip-path="url(#b977db734e)"><g mask="url(#158ceecb8b)"><g transform="matrix(1, 0, 0, 1, 2566, -0.000000000000208807)"><g clip-path="url(#8c4813598d)"><path fill="#ffea83" d="M 456.511719 1300.359375 C 493.933594 1375.257812 549.5625 1413.238281 621.855469 1413.238281 C 698.835938 1413.238281 758.582031 1375.441406 799.445312 1300.902344 C 819.300781 1264.6875 834.300781 1211.082031 844.027344 1141.582031 C 853.625 1073.273438 858.425781 987.238281 858.425781 885.859375 C 858.425781 803.785156 853.777344 730.859375 844.617188 669.113281 C 835.363281 606.714844 821.203125 553.773438 802.523438 511.800781 C 763.542969 424.199219 703.585938 379.808594 624.335938 379.808594 C 549.140625 379.808594 492.292969 423.671875 455.449219 510.203125 C 437.847656 551.511719 424.507812 603.597656 415.785156 665.015625 C 407.1875 725.757812 402.851562 797.570312 402.851562 878.363281 C 402.851562 982.175781 407.265625 1070.035156 415.972656 1139.503906 C 424.914062 1211.097656 438.1875 1263.726562 456.511719 1300.359375 Z M 484.910156 522.695312 C 516.703125 448.0625 562.316406 411.78125 624.359375 411.78125 C 690.753906 411.78125 739.464844 448.757812 773.3125 524.816406 C 808.574219 604.050781 826.453125 725.527344 826.453125 885.859375 C 826.453125 1084.417969 807.925781 1218.882812 771.398438 1285.519531 C 736.082031 1349.929688 687.171875 1381.242188 621.855469 1381.242188 C 561.859375 1381.242188 517.132812 1350.105469 485.136719 1286.046875 C 451.738281 1219.289062 434.851562 1082.113281 434.851562 878.363281 C 434.851562 720.40625 451.648438 600.78125 484.910156 522.695312 Z M 484.910156 522.695312 " fill-opacity="1" fill-rule="nonzero"/><g clip-path="url(#f016cdb038)"><path fill="#ffea83" d="M 638.152344 1761.019531 C 442.449219 1761.019531 291.289062 1685.136719 188.855469 1535.433594 C 85.085938 1383.9375 32.472656 1161.15625 32.472656 873.324219 C 32.472656 646.378906 71.117188 460.460938 147.464844 319.195312 L 122.066406 298.851562 C 87.78125 361.042969 60.566406 431.484375 40.878906 509.242188 C 14.074219 615.179688 0.472656 737.691406 0.472656 873.324219 C 0.472656 1020.125 14.007812 1151.621094 40.695312 1264.167969 C 67.558594 1377.433594 108.523438 1474.796875 162.449219 1553.550781 C 216.796875 1632.953125 284.5 1693.390625 363.667969 1733.1875 C 442.640625 1772.890625 534.988281 1793.019531 638.152344 1793.019531 C 738.03125 1793.019531 827.835938 1772.867188 905.070312 1733.125 C 956.085938 1706.878906 1002.441406 1671.65625 1043.625 1627.953125 L 1014.28125 1612.203125 C 917.65625 1711.039062 791.542969 1761.019531 638.152344 1761.019531 Z M 638.152344 1761.019531 " fill-opacity="1" fill-rule="nonzero"/></g><path fill="#ffea83" d="M 1264.546875 890.875 C 1264.546875 749.859375 1250.84375 623.210938 1223.804688 514.449219 C 1196.605469 405.007812 1155.128906 310.523438 1100.53125 233.617188 C 1045.527344 156.140625 977.234375 97.175781 897.558594 58.347656 C 818.109375 19.644531 725.355469 0.015625 621.855469 0.015625 C 524.507812 0.015625 436.515625 19.628906 360.332031 58.308594 C 305.136719 86.304688 255.140625 124.878906 211.054688 173.308594 L 236.109375 193.394531 C 334.648438 86.242188 464.070312 32.011719 621.855469 32.011719 C 818.460938 32.011719 970.730469 106.070312 1074.445312 252.136719 C 1179.359375 399.929688 1232.550781 614.835938 1232.550781 890.875 C 1232.550781 1139.078125 1190.207031 1339.378906 1106.605469 1487.441406 L 1134.800781 1502.578125 C 1173.144531 1434.582031 1203.222656 1356.1875 1224.453125 1268.632812 C 1251.058594 1158.957031 1264.546875 1031.859375 1264.546875 890.875 Z M 1264.546875 890.875 " fill-opacity="1" fill-rule="nonzero"/></g></g></g></g><g clip-path="url(#e75320c16e)"><g mask="url(#4a990505b2)"><g transform="matrix(1, 0, 0, 1, 4047, -0.000000000000208807)"><g clip-path="url(#9df9293eed)"><path fill="#ffea83" d="M 537.425781 771.488281 C 572.503906 762.394531 601.949219 748.886719 624.945312 731.34375 C 671.746094 695.640625 695.480469 639.292969 695.480469 563.792969 C 695.480469 483.054688 672.394531 424.660156 626.859375 390.253906 C 604.472656 373.363281 575.152344 360.363281 539.703125 351.617188 C 505.273438 343.121094 463.902344 338.351562 416.746094 337.445312 L 399.605469 337.117188 L 399.605469 786.515625 L 416.753906 786.179688 C 462.664062 785.28125 503.261719 780.335938 537.425781 771.488281 Z M 433.246094 371.597656 C 512.632812 374.878906 570.898438 390.167969 606.582031 417.097656 C 643.253906 444.800781 661.839844 494.15625 661.839844 563.792969 C 661.839844 629.140625 643.101562 675.195312 604.539062 704.589844 C 567.71875 732.691406 510.140625 748.628906 433.246094 751.992188 Z M 433.246094 371.597656 " fill-opacity="1" fill-rule="nonzero"/><g clip-path="url(#e603e1d333)"><path fill="#ffea83" d="M 399.605469 1759.304688 L 33.964844 1759.304688 L 33.964844 328.824219 L 0.320312 328.824219 L 0.320312 1792.945312 L 433.246094 1792.945312 L 433.246094 1625.703125 L 399.605469 1625.703125 Z M 399.605469 1759.304688 " fill-opacity="1" fill-rule="nonzero"/></g><g clip-path="url(#aa22cc9429)"><path fill="#ffea83" d="M 1064.554688 332.179688 C 1037.40625 264.761719 996.136719 204.675781 941.878906 153.585938 C 887.625 102.492188 823.882812 63.785156 752.160156 38.304688 C 680.832031 12.953125 599.796875 0.105469 511.3125 0.105469 L 0.320312 0.105469 L 0.320312 167.34375 L 33.964844 167.34375 L 33.964844 33.746094 L 511.3125 33.746094 C 680.015625 33.746094 817.121094 82.308594 918.820312 178.074219 C 1020.238281 273.59375 1071.660156 401.589844 1071.660156 558.554688 C 1071.660156 724.136719 1019.644531 855.398438 917.054688 948.683594 C 814.027344 1042.394531 668.644531 1089.914062 484.953125 1089.914062 L 399.605469 1089.914062 L 399.605469 1464.257812 L 433.246094 1464.257812 L 433.246094 1123.554688 L 484.953125 1123.554688 C 580.738281 1123.554688 667.457031 1111.03125 742.714844 1086.320312 C 818.542969 1061.417969 884.847656 1023.488281 939.683594 973.570312 C 953.3125 961.222656 966.195312 948.132812 978.320312 934.308594 C 990.449219 920.480469 1001.75 906.007812 1012.21875 890.886719 C 1022.6875 875.765625 1032.257812 860.09375 1040.929688 843.875 C 1049.605469 827.65625 1057.320312 810.996094 1064.082031 793.890625 C 1091.433594 725.128906 1105.292969 645.945312 1105.292969 558.554688 C 1105.300781 475.476562 1091.59375 399.328125 1064.554688 332.179688 Z M 1064.554688 332.179688 " fill-opacity="1" fill-rule="nonzero"/></g></g></g></g></g></g></g></g></svg>