<svg xmlns="http://www.w3.org/2000/svg" xmlns:xlink="http://www.w3.org/1999/xlink" width="6912" zoomAndPan="magnify" viewBox="0 0 5184 2592.000001" height="3456" preserveAspectRatio="xMidYMid meet" version="1.0"><defs><filter x="0%" y="0%" width="100%" height="100%" id="434bece090"><feColorMatrix values="0 0 0 0 1 0 0 0 0 1 0 0 0 0 1 0 0 0 1 0" color-interpolation-filters="sRGB"/></filter><mask id="ccf36e4545"><g filter="url(#434bece090)"><rect x="-518.4" width="6220.8" fill="#000000" y="-259.2" height="3110.400001" fill-opacity="0.12"/></g></mask><clipPath id="a59703a234"><path d="M 0.503906 333 L 37 333 L 37 378 L 0.503906 378 Z M 0.503906 333 " clip-rule="nonzero"/></clipPath><clipPath id="acd123a09f"><rect x="0" width="1926" y="0" height="1912"/></clipPath></defs><g mask="url(#ccf36e4545)"><g transform="matrix(1, 0, 0, 1, 3257, 17)"><g clip-path="url(#acd123a09f)"><path fill="#87d8e3" d="M 1755.757812 225.382812 C 1689.773438 225.457031 1689.625 124.988281 1755.457031 124.542969 C 1821.367188 124.691406 1821.886719 224.859375 1755.757812 225.382812 " fill-opacity="1" fill-rule="nonzero"/><path fill="#87d8e3" d="M 1687.011719 154.25 C 1685.296875 219.484375 1587.890625 218.664062 1587.21875 153.277344 C 1588.113281 87.820312 1687.460938 88.714844 1687.011719 154.25 " fill-opacity="1" fill-rule="nonzero"/><path fill="#87d8e3" d="M 1853.386719 364.0625 C 1787.480469 362.945312 1788 264.941406 1853.683594 264.269531 C 1918.773438 265.089844 1918.398438 363.765625 1853.386719 364.0625 " fill-opacity="1" fill-rule="nonzero"/><path fill="#87d8e3" d="M 1734.933594 244.5625 C 1798.824219 244.636719 1798.75 341.96875 1735.15625 342.492188 C 1670.667969 341.597656 1670.144531 245.683594 1734.933594 244.5625 " fill-opacity="1" fill-rule="nonzero"/><path fill="#87d8e3" d="M 1469.808594 133.050781 C 1469.660156 68.710938 1567.664062 69.007812 1567.738281 133.050781 C 1567.140625 196.71875 1470.257812 197.09375 1469.808594 133.050781 " fill-opacity="1" fill-rule="nonzero"/><path fill="#87d8e3" d="M 1727.992188 56.542969 C 1728.363281 -7.050781 1824.875 -6.601562 1824.800781 56.917969 C 1824.203125 119.914062 1728.066406 119.691406 1727.992188 56.542969 " fill-opacity="1" fill-rule="nonzero"/><path fill="#87d8e3" d="M 1616.703125 320.023438 C 1553.628906 320.023438 1553.257812 224.933594 1616.105469 223.886719 C 1678.726562 223.738281 1679.550781 319.578125 1616.703125 320.023438 " fill-opacity="1" fill-rule="nonzero"/><path fill="#87d8e3" d="M 1401.066406 64.15625 C 1463.988281 64.457031 1463.316406 160.292969 1400.691406 160.21875 C 1337.84375 159.398438 1337.996094 64.308594 1401.066406 64.15625 " fill-opacity="1" fill-rule="nonzero"/><path fill="#87d8e3" d="M 1832.414062 480.578125 C 1769.492188 480.277344 1770.164062 384.515625 1832.785156 384.515625 C 1895.632812 385.335938 1895.484375 480.425781 1832.414062 480.578125 " fill-opacity="1" fill-rule="nonzero"/><path fill="#87d8e3" d="M 1910.785156 196.121094 C 1908.695312 208.363281 1915.710938 225.082031 1906.007812 234.414062 C 1877.570312 257.925781 1833.90625 243.292969 1825.320312 207.316406 C 1813.15625 162.234375 1871 126.332031 1906.082031 157.160156 C 1915.785156 166.789062 1908.695312 183.65625 1910.785156 196.121094 " fill-opacity="1" fill-rule="nonzero"/><path fill="#87d8e3" d="M 1761.054688 411.160156 C 1760.980469 472.738281 1667.308594 472.515625 1667.085938 411.234375 C 1667.382812 349.882812 1760.757812 349.582031 1761.054688 411.160156 " fill-opacity="1" fill-rule="nonzero"/><path fill="#87d8e3" d="M 1451.074219 251.207031 C 1451.148438 190 1544.449219 190.152344 1544.972656 251.058594 C 1544.824219 312.488281 1451.296875 313.082031 1451.074219 251.207031 " fill-opacity="1" fill-rule="nonzero"/><path fill="#87d8e3" d="M 1282.089844 138.199219 C 1220.882812 137.902344 1221.40625 44.601562 1282.3125 44.378906 C 1343.816406 44.75 1343.964844 138.199219 1282.089844 138.199219 " fill-opacity="1" fill-rule="nonzero"/><path fill="#87d8e3" d="M 1659.171875 4.296875 C 1672.234375 6.683594 1690.894531 -1.078125 1700.746094 8.699219 C 1725.378906 44.152344 1689.773438 95.804688 1647.675781 84.683594 C 1614.386719 77.964844 1597.890625 37.511719 1615.957031 9.371094 C 1625.585938 -1.675781 1645.738281 6.910156 1659.171875 4.296875 " fill-opacity="1" fill-rule="nonzero"/><path fill="#87d8e3" d="M 1641.558594 390.636719 C 1641.257812 450.796875 1549.675781 450.273438 1549.601562 390.335938 C 1550.273438 330.25 1641.40625 330.324219 1641.558594 390.636719 " fill-opacity="1" fill-rule="nonzero"/><path fill="#87d8e3" d="M 1857.117188 551.558594 C 1856.445312 611.644531 1764.640625 610.527344 1765.085938 550.589844 C 1766.429688 490.355469 1857.34375 491.398438 1857.117188 551.558594 " fill-opacity="1" fill-rule="nonzero"/><path fill="#87d8e3" d="M 1333.515625 230.53125 C 1333.738281 170.445312 1425.175781 170.667969 1425.472656 230.605469 C 1425.023438 290.617188 1333.8125 290.765625 1333.515625 230.53125 " fill-opacity="1" fill-rule="nonzero"/><path fill="#87d8e3" d="M 1117.953125 70.203125 C 1117.953125 10.042969 1209.3125 9.820312 1209.910156 69.753906 C 1209.910156 129.691406 1118.550781 130.4375 1117.953125 70.203125 " fill-opacity="1" fill-rule="nonzero"/><path fill="#87d8e3" d="M 1738.214844 529.617188 C 1738.214844 588.65625 1648.199219 588.132812 1648.347656 529.390625 C 1649.097656 470.949219 1737.917969 470.875 1738.214844 529.617188 " fill-opacity="1" fill-rule="nonzero"/><path fill="#87d8e3" d="M 1432.414062 369.4375 C 1432.714844 310.84375 1522.28125 311.515625 1522.132812 370.035156 C 1521.238281 428.550781 1432.339844 428.402344 1432.414062 369.4375 " fill-opacity="1" fill-rule="nonzero"/><path fill="#87d8e3" d="M 1261.636719 254.566406 C 1202.96875 254.566406 1203.195312 165.144531 1261.636719 164.921875 C 1320.15625 165.371094 1320.527344 254.265625 1261.636719 254.566406 " fill-opacity="1" fill-rule="nonzero"/><path fill="#87d8e3" d="M 1090.113281 49.082031 C 1090.1875 108.046875 1000.46875 107.449219 1000.542969 49.003906 C 1001.292969 -9.214844 1089.738281 -9.4375 1090.113281 49.082031 " fill-opacity="1" fill-rule="nonzero"/><path fill="#87d8e3" d="M 1402.410156 349.285156 C 1401.8125 406.609375 1314.707031 405.789062 1314.929688 348.6875 C 1315.527344 291.585938 1402.632812 291.960938 1402.410156 349.285156 " fill-opacity="1" fill-rule="nonzero"/><path fill="#87d8e3" d="M 1186.847656 188.136719 C 1187.070312 245.386719 1099.816406 245.757812 1099.367188 188.582031 C 1099.367188 131.410156 1186.324219 130.886719 1186.847656 188.136719 " fill-opacity="1" fill-rule="nonzero"/><path fill="#87d8e3" d="M 1531.164062 509.015625 C 1531.164062 451.691406 1618.417969 451.765625 1618.640625 508.867188 C 1618.417969 566.039062 1531.460938 566.265625 1531.164062 509.015625 " fill-opacity="1" fill-rule="nonzero"/><path fill="#87d8e3" d="M 1790.167969 712.558594 C 1732.84375 712.035156 1733.589844 624.855469 1790.761719 625.082031 C 1847.863281 625.753906 1847.488281 712.707031 1790.167969 712.558594 " fill-opacity="1" fill-rule="nonzero"/><path fill="#87d8e3" d="M 1067.347656 167.90625 C 1066.976562 223.886719 981.660156 222.992188 981.808594 167.386719 C 982.78125 111.628906 1067.273438 111.777344 1067.347656 167.90625 " fill-opacity="1" fill-rule="nonzero"/><path fill="#87d8e3" d="M 1413.753906 488.339844 C 1413.679688 432.359375 1498.84375 432.433594 1499.21875 488.039062 C 1498.917969 543.871094 1414.203125 544.394531 1413.753906 488.339844 " fill-opacity="1" fill-rule="nonzero"/><path fill="#87d8e3" d="M 1240.363281 284.945312 C 1296.34375 285.167969 1295.671875 370.40625 1240.066406 370.40625 C 1184.308594 369.660156 1184.160156 285.167969 1240.363281 284.945312 " fill-opacity="1" fill-rule="nonzero"/><path fill="#87d8e3" d="M 1671.785156 690.765625 C 1615.804688 690.464844 1616.550781 605.226562 1672.160156 605.300781 C 1727.917969 606.121094 1727.917969 690.617188 1671.785156 690.765625 " fill-opacity="1" fill-rule="nonzero"/><path fill="#87d8e3" d="M 1379.34375 467.140625 C 1379.644531 521.554688 1296.941406 521.703125 1296.34375 467.664062 C 1296.417969 413.550781 1378.746094 412.652344 1379.34375 467.140625 " fill-opacity="1" fill-rule="nonzero"/><path fill="#87d8e3" d="M 1728.289062 786.976562 C 1728.960938 732.488281 1811.289062 733.457031 1811.289062 787.648438 C 1810.691406 841.539062 1727.917969 841.464844 1728.289062 786.976562 " fill-opacity="1" fill-rule="nonzero"/><path fill="#87d8e3" d="M 1121.910156 348.238281 C 1067.570312 348.464844 1067.496094 265.6875 1121.535156 265.238281 C 1175.726562 265.464844 1176.398438 347.71875 1121.910156 348.238281 " fill-opacity="1" fill-rule="nonzero"/><path fill="#87d8e3" d="M 1553.480469 585.96875 C 1607.820312 585.96875 1607.519531 668.746094 1553.480469 668.96875 C 1499.292969 668.523438 1498.917969 586.269531 1553.480469 585.96875 " fill-opacity="1" fill-rule="nonzero"/><path fill="#87d8e3" d="M 864.847656 147.082031 C 864.773438 92.671875 947.402344 92.96875 947.699219 146.785156 C 947.402344 200.898438 865.296875 201.421875 864.847656 147.082031 " fill-opacity="1" fill-rule="nonzero"/><path fill="#87d8e3" d="M 1827.1875 926.40625 C 1827.488281 873.335938 1907.875 873.933594 1907.800781 926.851562 C 1907.203125 979.175781 1827.113281 979.027344 1827.1875 926.40625 " fill-opacity="1" fill-rule="nonzero"/><path fill="#87d8e3" d="M 1435.398438 646.875 C 1382.332031 646.351562 1383.300781 565.964844 1436.222656 566.265625 C 1488.542969 567.085938 1488.097656 647.175781 1435.398438 646.875 " fill-opacity="1" fill-rule="nonzero"/><path fill="#87d8e3" d="M 1651.109375 726.292969 C 1704.179688 726.292969 1703.734375 807.054688 1650.886719 806.90625 C 1598.488281 806.234375 1598.414062 726.59375 1651.109375 726.292969 " fill-opacity="1" fill-rule="nonzero"/><path fill="#87d8e3" d="M 963.671875 286.289062 C 963.449219 233.292969 1044.285156 233.441406 1044.285156 286.214844 C 1043.835938 338.683594 964.121094 338.984375 963.671875 286.289062 " fill-opacity="1" fill-rule="nonzero"/><path fill="#87d8e3" d="M 787.519531 166.414062 C 734.453125 165.894531 735.347656 85.503906 788.265625 85.804688 C 840.589844 86.625 840.140625 166.714844 787.519531 166.414062 " fill-opacity="1" fill-rule="nonzero"/><path fill="#87d8e3" d="M 1179.234375 445.792969 C 1179.757812 392.726562 1260.21875 393.695312 1259.84375 446.617188 C 1258.949219 498.863281 1178.859375 498.414062 1179.234375 445.792969 " fill-opacity="1" fill-rule="nonzero"/><path fill="#87d8e3" d="M 1589.160156 4.742188 C 1602.820312 82.742188 1478.617188 84.980469 1490.785156 4.742188 C 1523.328125 4.742188 1556.019531 4.742188 1589.160156 4.742188 " fill-opacity="1" fill-rule="nonzero"/><path fill="#87d8e3" d="M 927.097656 4.296875 C 939.117188 6.609375 957.179688 -1.003906 965.761719 8.625 C 984.050781 41.316406 948.894531 82.96875 913.363281 69.832031 C 887.914062 61.917969 876.042969 31.464844 888.285156 8.328125 C 896.945312 -0.929688 915.082031 6.609375 927.097656 4.296875 " fill-opacity="1" fill-rule="nonzero"/><path fill="#87d8e3" d="M 1910.5625 33.777344 C 1910.5625 62.964844 1910.5625 91.847656 1910.5625 120.585938 C 1830.25 144.992188 1827.1875 11.089844 1910.5625 33.777344 " fill-opacity="1" fill-rule="nonzero"/><path fill="#87d8e3" d="M 1748.667969 944.914062 C 1697.613281 944.46875 1697.835938 866.839844 1748.816406 866.46875 C 1800.316406 866.765625 1800.242188 944.914062 1748.667969 944.914062 " fill-opacity="1" fill-rule="nonzero"/><path fill="#87d8e3" d="M 924.484375 265.386719 C 924.335938 316.515625 846.488281 316.292969 846.335938 265.3125 C 846.636719 214.257812 924.335938 214.183594 924.484375 265.386719 " fill-opacity="1" fill-rule="nonzero"/><path fill="#87d8e3" d="M 1100.710938 464.378906 C 1049.734375 463.859375 1049.957031 386.15625 1101.234375 386.230469 C 1152.363281 386.679688 1151.765625 464.527344 1100.710938 464.378906 " fill-opacity="1" fill-rule="nonzero"/><path fill="#87d8e3" d="M 1317.46875 624.261719 C 1266.265625 624.484375 1265.964844 546.558594 1316.945312 546.109375 C 1368.074219 546.109375 1368.597656 623.738281 1317.46875 624.261719 " fill-opacity="1" fill-rule="nonzero"/><path fill="#87d8e3" d="M 1571.84375 745.550781 C 1571.917969 796.605469 1494.066406 797.128906 1493.695312 746 C 1493.621094 694.796875 1571.320312 694.570312 1571.84375 745.550781 " fill-opacity="1" fill-rule="nonzero"/><path fill="#87d8e3" d="M 669.066406 143.800781 C 617.9375 143.425781 618.386719 65.574219 669.441406 65.652344 C 720.417969 66.097656 720.269531 143.800781 669.066406 143.800781 " fill-opacity="1" fill-rule="nonzero"/><path fill="#87d8e3" d="M 1910.261719 844.449219 C 1882.945312 861.988281 1843.234375 839.746094 1845.773438 806.832031 C 1846.59375 776.078125 1878.765625 756.375 1906.15625 769.511719 C 1915.933594 772.046875 1909.21875 831.609375 1910.261719 844.449219 " fill-opacity="1" fill-rule="nonzero"/><path fill="#87d8e3" d="M 1845.773438 1082.777344 C 1796.136719 1082.253906 1796.734375 1007.015625 1846.148438 1007.015625 C 1895.558594 1007.539062 1895.410156 1082.777344 1845.773438 1082.777344 " fill-opacity="1" fill-rule="nonzero"/><path fill="#87d8e3" d="M 1630.585938 847.136719 C 1680.144531 847.507812 1679.699219 922.894531 1630.285156 922.894531 C 1580.726562 922.300781 1581.023438 847.210938 1630.585938 847.136719 " fill-opacity="1" fill-rule="nonzero"/><path fill="#87d8e3" d="M 550.984375 121.78125 C 501.273438 121.855469 501.273438 46.320312 550.835938 46.242188 C 600.097656 46.46875 600.171875 121.332031 550.984375 121.78125 " fill-opacity="1" fill-rule="nonzero"/><path fill="#87d8e3" d="M 804.761719 244.265625 C 804.910156 293.976562 729.375 294.199219 729.152344 244.5625 C 729.300781 195.449219 804.164062 195.078125 804.761719 244.265625 " fill-opacity="1" fill-rule="nonzero"/><path fill="#87d8e3" d="M 982.78125 366.75 C 1031.894531 367.199219 1031.894531 441.988281 982.554688 442.285156 C 932.921875 442.210938 933.144531 366.601562 982.78125 366.75 " fill-opacity="1" fill-rule="nonzero"/><path fill="#87d8e3" d="M 1198.640625 602.242188 C 1149.453125 601.941406 1149.226562 527.226562 1198.492188 526.703125 C 1248.128906 526.554688 1248.277344 602.167969 1198.640625 602.242188 " fill-opacity="1" fill-rule="nonzero"/><path fill="#87d8e3" d="M 1376.433594 725.398438 C 1376.285156 675.761719 1451.820312 675.464844 1452.042969 725.097656 C 1451.820312 774.363281 1376.957031 774.4375 1376.433594 725.398438 " fill-opacity="1" fill-rule="nonzero"/><path fill="#87d8e3" d="M 1332.320312 703.753906 C 1332.097656 751.597656 1259.175781 751.222656 1259.097656 703.527344 C 1259.621094 655.757812 1332.097656 655.757812 1332.320312 703.753906 " fill-opacity="1" fill-rule="nonzero"/><path fill="#87d8e3" d="M 1690.96875 1024.257812 C 1691.042969 976.339844 1763.816406 976.414062 1764.191406 1024.109375 C 1763.894531 1071.878906 1691.34375 1072.253906 1690.96875 1024.257812 " fill-opacity="1" fill-rule="nonzero"/><path fill="#87d8e3" d="M 1511.90625 900.804688 C 1463.988281 900.578125 1464.359375 827.730469 1512.054688 827.582031 C 1559.824219 828.101562 1559.898438 900.578125 1511.90625 900.804688 " fill-opacity="1" fill-rule="nonzero"/><path fill="#87d8e3" d="M 1080.1875 507.222656 C 1128.105469 507.296875 1127.957031 580.074219 1080.261719 580.371094 C 1032.492188 579.996094 1032.191406 507.523438 1080.1875 507.222656 " fill-opacity="1" fill-rule="nonzero"/><path fill="#87d8e3" d="M 612.039062 223.214844 C 612.265625 175.296875 685.1875 175.671875 684.964844 223.515625 C 684.292969 271.0625 612.191406 270.613281 612.039062 223.214844 " fill-opacity="1" fill-rule="nonzero"/><path fill="#87d8e3" d="M 468.730469 63.1875 C 468.65625 111.03125 395.734375 110.882812 395.808594 63.039062 C 396.328125 15.492188 468.433594 15.789062 468.730469 63.1875 " fill-opacity="1" fill-rule="nonzero"/><path fill="#87d8e3" d="M 863.804688 420.265625 C 816.40625 419.820312 816.332031 347.71875 863.878906 347.34375 C 911.796875 347.417969 911.722656 420.34375 863.804688 420.265625 " fill-opacity="1" fill-rule="nonzero"/><path fill="#87d8e3" d="M 1609.761719 1038.589844 C 1563.410156 1038.441406 1563.929688 967.980469 1609.984375 968.203125 C 1655.8125 968.949219 1655.664062 1038.289062 1609.761719 1038.589844 " fill-opacity="1" fill-rule="nonzero"/><path fill="#87d8e3" d="M 529.9375 167.3125 C 576.214844 167.3125 575.839844 237.847656 529.789062 237.695312 C 483.957031 237.023438 483.957031 167.683594 529.9375 167.3125 " fill-opacity="1" fill-rule="nonzero"/><path fill="#87d8e3" d="M 746.246094 397.578125 C 699.96875 397.425781 700.414062 326.890625 746.542969 327.117188 C 792.296875 327.863281 792.222656 397.277344 746.246094 397.578125 " fill-opacity="1" fill-rule="nonzero"/><path fill="#87d8e3" d="M 961.210938 558.128906 C 915.453125 557.457031 916.125 487.667969 961.957031 487.742188 C 1008.308594 488.488281 1007.5625 558.578125 961.210938 558.128906 " fill-opacity="1" fill-rule="nonzero"/><path fill="#87d8e3" d="M 1790.089844 1163.164062 C 1790.390625 1117.410156 1860.03125 1117.410156 1860.476562 1163.164062 C 1860.402344 1209.367188 1790.089844 1209.589844 1790.089844 1163.164062 " fill-opacity="1" fill-rule="nonzero"/><path fill="#87d8e3" d="M 1177.890625 647.695312 C 1224.242188 647.773438 1223.792969 718.308594 1177.667969 718.15625 C 1131.910156 717.484375 1131.910156 648.070312 1177.890625 647.695312 " fill-opacity="1" fill-rule="nonzero"/><path fill="#87d8e3" d="M 1393.527344 877.960938 C 1347.027344 877.738281 1347.699219 807.425781 1393.824219 807.578125 C 1439.65625 808.324219 1439.28125 877.886719 1393.527344 877.960938 " fill-opacity="1" fill-rule="nonzero"/><path fill="#87d8e3" d="M 279.59375 42.4375 C 279.667969 -3.09375 349.082031 -2.945312 349.457031 42.289062 C 349.382812 88.117188 279.742188 88.566406 279.59375 42.4375 " fill-opacity="1" fill-rule="nonzero"/><path fill="#87d8e3" d="M 1241.183594 822.132812 C 1241.261719 777.945312 1308.585938 777.796875 1308.882812 821.984375 C 1308.660156 866.246094 1241.484375 866.320312 1241.183594 822.132812 " fill-opacity="1" fill-rule="nonzero"/><path fill="#87d8e3" d="M 1740.53125 1142.710938 C 1740.382812 1186.898438 1673.054688 1186.75 1672.90625 1142.5625 C 1673.277344 1098.300781 1740.457031 1098.527344 1740.53125 1142.710938 " fill-opacity="1" fill-rule="nonzero"/><path fill="#87d8e3" d="M 1491.53125 948.871094 C 1535.71875 949.394531 1535.121094 1016.71875 1490.933594 1016.496094 C 1446.671875 1015.824219 1447.269531 948.722656 1491.53125 948.871094 " fill-opacity="1" fill-rule="nonzero"/><path fill="#87d8e3" d="M 593.976562 341.746094 C 593.976562 297.558594 661.15625 297.410156 661.527344 341.523438 C 661.527344 385.558594 594.351562 385.933594 593.976562 341.746094 " fill-opacity="1" fill-rule="nonzero"/><path fill="#87d8e3" d="M 445.292969 181.792969 C 444.996094 225.976562 377.894531 225.753906 377.746094 181.640625 C 377.96875 137.605469 445.21875 137.605469 445.292969 181.792969 " fill-opacity="1" fill-rule="nonzero"/><path fill="#87d8e3" d="M 1059.734375 695.914062 C 1015.621094 696.0625 1015.023438 629.035156 1059.210938 628.441406 C 1103.398438 628.140625 1103.847656 695.390625 1059.734375 695.914062 " fill-opacity="1" fill-rule="nonzero"/><path fill="#87d8e3" d="M 842.980469 535.289062 C 798.867188 534.765625 799.386719 467.515625 843.574219 467.8125 C 887.761719 468.484375 887.089844 535.511719 842.980469 535.289062 " fill-opacity="1" fill-rule="nonzero"/><path fill="#87d8e3" d="M 1804.199219 1314.238281 C 1762.476562 1314.535156 1762.550781 1248.777344 1804.421875 1249.449219 C 1847.042969 1249.597656 1846.820312 1314.3125 1804.199219 1314.238281 " fill-opacity="1" fill-rule="nonzero"/><path fill="#87d8e3" d="M 1910.5625 645.605469 C 1910.5625 675.6875 1910.5625 704.796875 1910.5625 734.726562 C 1849.953125 736.59375 1849.804688 644.339844 1910.5625 645.605469 " fill-opacity="1" fill-rule="nonzero"/><path fill="#87d8e3" d="M 509.335938 288.75 C 551.285156 288.003906 550.835938 354.0625 509.113281 353.242188 C 467.089844 352.71875 466.941406 288.75 509.335938 288.75 " fill-opacity="1" fill-rule="nonzero"/><path fill="#87d8e3" d="M 293.175781 193.136719 C 251.230469 194.105469 251.304688 128.125 292.953125 128.648438 C 335.050781 128.796875 335.574219 192.839844 293.175781 193.136719 " fill-opacity="1" fill-rule="nonzero"/><path fill="#87d8e3" d="M 940.757812 673.597656 C 898.882812 674.121094 899.554688 608.0625 941.28125 609.109375 C 983.378906 609.78125 983.152344 673.746094 940.757812 673.597656 " fill-opacity="1" fill-rule="nonzero"/><path fill="#87d8e3" d="M 1372.925781 993.433594 C 1330.53125 993.507812 1330.457031 929.539062 1372.476562 928.941406 C 1414.203125 927.972656 1414.875 994.027344 1372.925781 993.433594 " fill-opacity="1" fill-rule="nonzero"/><path fill="#87d8e3" d="M 1620.433594 1121.664062 C 1621.554688 1163.613281 1555.496094 1163.6875 1555.945312 1122.039062 C 1556.019531 1079.941406 1620.0625 1079.34375 1620.433594 1121.664062 " fill-opacity="1" fill-rule="nonzero"/><path fill="#87d8e3" d="M 1124.375 801.605469 C 1123.253906 759.65625 1189.234375 759.507812 1188.863281 801.082031 C 1188.863281 843.179688 1124.820312 844 1124.375 801.605469 " fill-opacity="1" fill-rule="nonzero"/><path fill="#87d8e3" d="M 724.898438 512.972656 C 682.5 512.894531 682.578125 449.003906 724.671875 448.480469 C 766.324219 447.660156 766.84375 513.71875 724.898438 512.972656 " fill-opacity="1" fill-rule="nonzero"/><path fill="#87d8e3" d="M 850.441406 4.667969 C 854.175781 64.230469 763.039062 63.933594 766.171875 4.667969 C 794.386719 4.667969 821.929688 4.667969 850.441406 4.667969 " fill-opacity="1" fill-rule="nonzero"/><path fill="#87d8e3" d="M 1068.765625 781.078125 C 1069.066406 821.085938 1005.84375 819.890625 1007.113281 780.109375 C 1008.234375 739.878906 1069.214844 740.550781 1068.765625 781.078125 " fill-opacity="1" fill-rule="nonzero"/><path fill="#87d8e3" d="M 1223.570312 939.839844 C 1223.496094 899.90625 1286.789062 901.398438 1285.148438 941.257812 C 1284.550781 981.117188 1222.152344 980.070312 1223.570312 939.839844 " fill-opacity="1" fill-rule="nonzero"/><path fill="#87d8e3" d="M 1685.519531 1291.769531 C 1644.992188 1291.023438 1646.257812 1229.894531 1686.492188 1230.117188 C 1726.125 1230.117188 1725.75 1293.113281 1685.519531 1291.769531 " fill-opacity="1" fill-rule="nonzero"/><path fill="#87d8e3" d="M 1439.058594 1100.09375 C 1439.730469 1059.488281 1500.859375 1060.683594 1500.710938 1100.839844 C 1500.859375 1140.472656 1437.863281 1140.25 1439.058594 1100.09375 " fill-opacity="1" fill-rule="nonzero"/><path fill="#87d8e3" d="M 853.277344 620.304688 C 853.726562 660.3125 790.582031 659.488281 791.625 619.707031 C 792.445312 579.476562 853.429688 579.699219 853.277344 620.304688 " fill-opacity="1" fill-rule="nonzero"/><path fill="#87d8e3" d="M 575.691406 459.828125 C 575.09375 420.117188 637.644531 420.492188 637.121094 459.976562 C 636.820312 500.28125 575.617188 500.507812 575.691406 459.828125 " fill-opacity="1" fill-rule="nonzero"/><path fill="#87d8e3" d="M 390.210938 330.773438 C 350.5 330.921875 351.546875 268.300781 391.03125 269.34375 C 431.410156 270.164062 430.886719 331.222656 390.210938 330.773438 " fill-opacity="1" fill-rule="nonzero"/><path fill="#87d8e3" d="M 174.273438 170.222656 C 134.042969 169.699219 134.640625 109.164062 174.5 108.71875 C 214.28125 108.046875 214.582031 171.265625 174.273438 170.222656 " fill-opacity="1" fill-rule="nonzero"/><path fill="#87d8e3" d="M 196.21875 4.296875 C 205.699219 6.386719 221.671875 -0.78125 227.121094 8.921875 C 234.210938 26.613281 224.433594 47.140625 205.996094 52.960938 C 179.796875 61.84375 154.269531 33.777344 165.019531 8.550781 C 170.691406 -0.628906 186.664062 6.386719 196.21875 4.296875 " fill-opacity="1" fill-rule="nonzero"/><path fill="#87d8e3" d="M 1469.136719 4.667969 C 1463.242188 54.605469 1379.941406 54.605469 1374.121094 4.667969 C 1405.769531 4.667969 1437.488281 4.667969 1469.136719 4.667969 " fill-opacity="1" fill-rule="nonzero"/><path fill="#87d8e3" d="M 1164.976562 919.6875 C 1165.722656 957.976562 1105.5625 957.453125 1106.460938 919.539062 C 1106.460938 881.84375 1165.351562 881.769531 1164.976562 919.6875 " fill-opacity="1" fill-rule="nonzero"/><path fill="#87d8e3" d="M 1538.328125 1239.519531 C 1537.957031 1201.605469 1596.921875 1201.753906 1596.847656 1239.371094 C 1597.742188 1277.289062 1537.582031 1277.8125 1538.328125 1239.519531 " fill-opacity="1" fill-rule="nonzero"/><path fill="#87d8e3" d="M 919.410156 788.394531 C 881.121094 787.050781 882.984375 729.355469 920.828125 729.875 C 958.746094 730.25 957.699219 789.960938 919.410156 788.394531 " fill-opacity="1" fill-rule="nonzero"/><path fill="#87d8e3" d="M 1784.046875 1429.40625 C 1745.679688 1430.226562 1745.679688 1370.515625 1783.820312 1370.886719 C 1821.441406 1370.515625 1821.738281 1429.78125 1784.046875 1429.40625 " fill-opacity="1" fill-rule="nonzero"/><path fill="#87d8e3" d="M 1322.769531 1079.417969 C 1322.394531 1041.722656 1381.734375 1042.023438 1381.359375 1079.640625 C 1381.734375 1117.707031 1322.019531 1117.78125 1322.769531 1079.417969 " fill-opacity="1" fill-rule="nonzero"/><path fill="#87d8e3" d="M 27.828125 118.644531 C 27.457031 80.726562 86.871094 81.472656 85.824219 119.242188 C 85.898438 156.5625 26.859375 156.1875 27.828125 118.644531 " fill-opacity="1" fill-rule="nonzero"/><path fill="#87d8e3" d="M 488.285156 410.414062 C 525.832031 409.371094 526.277344 468.410156 489.035156 468.335938 C 451.191406 469.457031 450.371094 410.042969 488.285156 410.414062 " fill-opacity="1" fill-rule="nonzero"/><path fill="#87d8e3" d="M 243.316406 279.046875 C 242.273438 241.503906 301.238281 240.90625 301.386719 278.152344 C 302.582031 315.921875 243.167969 316.964844 243.316406 279.046875 " fill-opacity="1" fill-rule="nonzero"/><path fill="#87d8e3" d="M 733.03125 599.105469 C 733.929688 636.648438 674.960938 637.023438 674.960938 599.703125 C 673.917969 561.933594 733.40625 561.1875 733.03125 599.105469 " fill-opacity="1" fill-rule="nonzero"/><path fill="#87d8e3" d="M 181.140625 257.851562 C 182.039062 293.601562 125.90625 293.378906 126.28125 258.074219 C 125.832031 222.621094 181.515625 222.023438 181.140625 257.851562 " fill-opacity="1" fill-rule="nonzero"/><path fill="#87d8e3" d="M 1017.488281 926.40625 C 981.585938 927 981.660156 871.46875 1017.113281 871.542969 C 1052.417969 870.722656 1053.167969 926.925781 1017.488281 926.40625 " fill-opacity="1" fill-rule="nonzero"/><path fill="#87d8e3" d="M 1449.058594 1246.238281 C 1413.304688 1246.910156 1413.828125 1190.78125 1449.058594 1191.378906 C 1484.589844 1191.152344 1484.8125 1246.761719 1449.058594 1246.238281 " fill-opacity="1" fill-rule="nonzero"/><path fill="#87d8e3" d="M 1206.179688 1059.117188 C 1205.285156 1023.363281 1261.414062 1023.585938 1261.039062 1058.816406 C 1261.488281 1094.269531 1205.878906 1094.941406 1206.179688 1059.117188 " fill-opacity="1" fill-rule="nonzero"/><path fill="#87d8e3" d="M 1665.515625 1406.789062 C 1629.6875 1407.613281 1629.464844 1352.078125 1664.917969 1352.003906 C 1700.300781 1350.960938 1701.195312 1407.238281 1665.515625 1406.789062 " fill-opacity="1" fill-rule="nonzero"/><path fill="#87d8e3" d="M 801.925781 765.777344 C 766.023438 766.375 766.171875 710.84375 801.628906 710.917969 C 836.933594 710.171875 837.605469 766.375 801.925781 765.777344 " fill-opacity="1" fill-rule="nonzero"/><path fill="#87d8e3" d="M 558.226562 578.804688 C 557.253906 542.976562 613.308594 543.050781 613.085938 578.28125 C 613.757812 613.734375 558 614.554688 558.226562 578.804688 " fill-opacity="1" fill-rule="nonzero"/><path fill="#87d8e3" d="M 342.738281 418.925781 C 341.84375 383.097656 397.375 382.722656 397.523438 418.253906 C 398.644531 453.558594 342.363281 454.601562 342.738281 418.925781 " fill-opacity="1" fill-rule="nonzero"/><path fill="#87d8e3" d="M 1880.628906 1512.183594 C 1916.53125 1511.363281 1915.933594 1567.640625 1880.628906 1566.820312 C 1845.398438 1566.894531 1845.175781 1511.882812 1880.628906 1512.183594 " fill-opacity="1" fill-rule="nonzero"/><path fill="#87d8e3" d="M 35.292969 262.925781 C 1.855469 263.375 2.078125 210.976562 35.367188 211.496094 C 68.734375 211.050781 68.734375 263.597656 35.292969 262.925781 " fill-opacity="1" fill-rule="nonzero"/><path fill="#87d8e3" d="M 1304.855469 1198.171875 C 1304.332031 1164.730469 1356.804688 1164.804688 1356.355469 1198.097656 C 1356.878906 1231.460938 1304.332031 1231.609375 1304.855469 1198.171875 " fill-opacity="1" fill-rule="nonzero"/><path fill="#87d8e3" d="M 1788 1518.75 C 1788.449219 1552.191406 1736.050781 1551.964844 1736.574219 1518.601562 C 1736.125 1485.3125 1788.671875 1485.3125 1788 1518.75 " fill-opacity="1" fill-rule="nonzero"/><path fill="#87d8e3" d="M 1546.6875 1383.800781 C 1513.398438 1384.25 1513.398438 1331.777344 1546.839844 1332.375 C 1580.277344 1331.925781 1580.054688 1384.472656 1546.6875 1383.800781 " fill-opacity="1" fill-rule="nonzero"/><path fill="#87d8e3" d="M 657.644531 717.933594 C 656.898438 685.015625 708.625 683.972656 708.851562 717.113281 C 710.269531 750.625 657.421875 751.222656 657.644531 717.933594 " fill-opacity="1" fill-rule="nonzero"/><path fill="#87d8e3" d="M 1140.71875 1037.992188 C 1141.390625 1070.984375 1089.664062 1071.953125 1089.515625 1038.8125 C 1088.097656 1005.226562 1140.945312 1004.777344 1140.71875 1037.992188 " fill-opacity="1" fill-rule="nonzero"/><path fill="#87d8e3" d="M 898.808594 903.265625 C 865.445312 903.640625 865.59375 851.167969 899.183594 852.0625 C 932.25 851.839844 931.652344 903.9375 898.808594 903.265625 " fill-opacity="1" fill-rule="nonzero"/><path fill="#87d8e3" d="M 492.765625 558.054688 C 492.839844 591.34375 440.367188 590.820312 441.5625 557.234375 C 441.488281 524.167969 493.660156 525.136719 492.765625 558.054688 " fill-opacity="1" fill-rule="nonzero"/><path fill="#87d8e3" d="M 251.453125 422.878906 C 218.164062 423.179688 218.460938 370.332031 252.050781 371.675781 C 285.191406 371.675781 284.371094 423.476562 251.453125 422.878906 " fill-opacity="1" fill-rule="nonzero"/><path fill="#87d8e3" d="M 1910.636719 1392.308594 C 1910.636719 1411.640625 1910.636719 1430.527344 1910.636719 1449.335938 C 1860.328125 1464.859375 1857.566406 1378.5 1910.636719 1392.308594 " fill-opacity="1" fill-rule="nonzero"/><path fill="#87d8e3" d="M 996.589844 1040.304688 C 965.835938 1040.976562 966.136719 992.609375 996.589844 993.132812 C 1027.117188 992.835938 1027.414062 1040.753906 996.589844 1040.304688 " fill-opacity="1" fill-rule="nonzero"/><path fill="#87d8e3" d="M 803.867188 856.988281 C 804.164062 887.816406 756.171875 887.292969 756.695312 856.765625 C 756.320312 826.386719 804.6875 826.238281 803.867188 856.988281 " fill-opacity="1" fill-rule="nonzero"/><path fill="#87d8e3" d="M 1428.234375 1313.789062 C 1458.988281 1313.117188 1458.6875 1361.484375 1428.308594 1360.960938 C 1397.78125 1361.335938 1397.484375 1313.414062 1428.234375 1313.789062 " fill-opacity="1" fill-rule="nonzero"/><path fill="#87d8e3" d="M 1667.382812 1497.628906 C 1667.605469 1528.304688 1619.164062 1527.335938 1620.210938 1496.882812 C 1620.359375 1466.355469 1668.277344 1466.800781 1667.382812 1497.628906 " fill-opacity="1" fill-rule="nonzero"/><path fill="#87d8e3" d="M 1836.519531 1658.179688 C 1835.695312 1627.351562 1883.542969 1626.980469 1883.691406 1657.507812 C 1884.660156 1687.886719 1836.292969 1688.855469 1836.519531 1658.179688 " fill-opacity="1" fill-rule="nonzero"/><path fill="#87d8e3" d="M 564.792969 720.472656 C 533.96875 720.917969 534.265625 672.925781 564.792969 673.296875 C 595.171875 672.777344 595.546875 721.144531 564.792969 720.472656 " fill-opacity="1" fill-rule="nonzero"/><path fill="#87d8e3" d="M 1212.148438 1200.933594 C 1181.398438 1201.679688 1181.621094 1153.238281 1212.074219 1153.757812 C 1242.605469 1153.386719 1242.976562 1201.304688 1212.148438 1200.933594 " fill-opacity="1" fill-rule="nonzero"/><path fill="#87d8e3" d="M 109.636719 376.378906 C 109.039062 345.703125 157.332031 346.222656 156.660156 376.527344 C 156.808594 406.980469 109.113281 407.128906 109.636719 376.378906 " fill-opacity="1" fill-rule="nonzero"/><path fill="#87d8e3" d="M 325.199219 536.332031 C 324.824219 505.582031 372.519531 505.953125 372.222656 536.40625 C 372.742188 566.636719 324.449219 567.011719 325.199219 536.332031 " fill-opacity="1" fill-rule="nonzero"/><path fill="#87d8e3" d="M 1910.488281 530.0625 C 1910.488281 558.128906 1910.488281 585.671875 1910.488281 613.289062 C 1875.480469 603.210938 1874.136719 541.855469 1910.488281 530.0625 " fill-opacity="1" fill-rule="nonzero"/><path fill="#87d8e3" d="M 1526.238281 1498 C 1498.023438 1498.898438 1498.023438 1454.636719 1525.863281 1454.859375 C 1553.855469 1454.335938 1554.378906 1498.226562 1526.238281 1498 " fill-opacity="1" fill-rule="nonzero"/><path fill="#87d8e3" d="M 641.074219 835.867188 C 640.777344 808.097656 684.515625 808.546875 684.144531 836.089844 C 684.441406 864.15625 640.40625 864.230469 641.074219 835.867188 " fill-opacity="1" fill-rule="nonzero"/><path fill="#87d8e3" d="M 878.359375 1017.539062 C 850.070312 1018.363281 850.292969 973.949219 878.207031 974.472656 C 905.824219 974.324219 906.273438 1017.613281 878.359375 1017.539062 " fill-opacity="1" fill-rule="nonzero"/><path fill="#87d8e3" d="M 1741.5 1658.554688 C 1713.734375 1659.074219 1713.808594 1615.410156 1741.351562 1615.558594 C 1769.339844 1614.964844 1769.863281 1659.074219 1741.5 1658.554688 " fill-opacity="1" fill-rule="nonzero"/><path fill="#87d8e3" d="M 467.761719 675.910156 C 468.730469 704.199219 424.246094 704.050781 424.769531 676.136719 C 424.542969 648.519531 467.910156 648.070312 467.761719 675.910156 " fill-opacity="1" fill-rule="nonzero"/><path fill="#87d8e3" d="M 1309.855469 1295.128906 C 1338.070312 1294.605469 1337.398438 1339.089844 1309.40625 1338.195312 C 1281.789062 1337.972656 1281.9375 1294.679688 1309.855469 1295.128906 " fill-opacity="1" fill-rule="nonzero"/><path fill="#87d8e3" d="M 252.273438 515.359375 C 253.09375 543.648438 208.609375 543.425781 209.207031 515.507812 C 209.058594 487.816406 252.421875 487.519531 252.273438 515.359375 " fill-opacity="1" fill-rule="nonzero"/><path fill="#87d8e3" d="M 1115.714844 1156.519531 C 1116.460938 1184.808594 1071.902344 1184.363281 1072.722656 1156.371094 C 1072.722656 1128.753906 1116.011719 1128.679688 1115.714844 1156.519531 " fill-opacity="1" fill-rule="nonzero"/><path fill="#87d8e3" d="M 46.640625 4.59375 C 67.464844 4.59375 87.839844 4.59375 108.21875 4.59375 C 106.574219 39.75 49.328125 40.796875 46.640625 4.59375 " fill-opacity="1" fill-rule="nonzero"/><g clip-path="url(#a59703a234)"><path fill="#87d8e3" d="M 1.332031 355.925781 C 2.527344 349.433594 -2.027344 339.355469 5.4375 335.847656 C 14.542969 331.667969 25.738281 334.355469 31.933594 342.417969 C 53.730469 371.152344 -5.757812 398.398438 1.332031 355.925781 " fill-opacity="1" fill-rule="nonzero"/></g><path fill="#87d8e3" d="M 653.617188 4.519531 C 678.023438 4.519531 701.757812 4.519531 725.496094 4.519531 C 718.925781 33.929688 663.691406 35.867188 653.617188 4.519531 " fill-opacity="1" fill-rule="nonzero"/><path fill="#87d8e3" d="M 1603.9375 1615.410156 C 1603.863281 1590.703125 1642.675781 1591.078125 1642.304688 1615.710938 C 1642.527344 1640.789062 1603.265625 1640.640625 1603.9375 1615.410156 " fill-opacity="1" fill-rule="nonzero"/><path fill="#87d8e3" d="M 1858.460938 1776.558594 C 1858.460938 1801.414062 1819.875 1800.96875 1820.023438 1776.335938 C 1819.574219 1751.480469 1859.207031 1751.40625 1858.460938 1776.558594 " fill-opacity="1" fill-rule="nonzero"/><path fill="#87d8e3" d="M 1407.78125 1474.9375 C 1382.554688 1475.609375 1382.703125 1436.050781 1407.632812 1436.570312 C 1432.265625 1436.421875 1432.636719 1474.9375 1407.78125 1474.9375 " fill-opacity="1" fill-rule="nonzero"/><path fill="#87d8e3" d="M 975.539062 1154.132812 C 950.910156 1154.355469 951.65625 1115.46875 976.136719 1116.289062 C 1000.621094 1116.363281 1000.246094 1154.878906 975.539062 1154.132812 " fill-opacity="1" fill-rule="nonzero"/><path fill="#87d8e3" d="M 544.34375 796.378906 C 568.75 796.378906 568.449219 835.195312 543.746094 834.222656 C 519.039062 834.222656 519.859375 795.710938 544.34375 796.378906 " fill-opacity="1" fill-rule="nonzero"/><path fill="#87d8e3" d="M 1191.324219 1314.683594 C 1166.621094 1315.207031 1166.992188 1276.394531 1191.398438 1276.839844 C 1215.957031 1276.691406 1216.03125 1315.207031 1191.324219 1314.683594 " fill-opacity="1" fill-rule="nonzero"/><path fill="#87d8e3" d="M 309 654.488281 C 309 629.785156 347.589844 630.605469 346.84375 655.085938 C 346.917969 679.492188 308.03125 679.121094 309 654.488281 " fill-opacity="1" fill-rule="nonzero"/><path fill="#87d8e3" d="M 778.488281 975.59375 C 778.488281 1000.296875 739.976562 999.550781 740.570312 975.070312 C 740.496094 950.664062 779.386719 950.886719 778.488281 975.59375 " fill-opacity="1" fill-rule="nonzero"/><path fill="#87d8e3" d="M 131.28125 495.65625 C 130.535156 520.136719 92.09375 518.792969 93.511719 494.085938 C 93.8125 469.53125 132.699219 471.246094 131.28125 495.65625 " fill-opacity="1" fill-rule="nonzero"/><path fill="#87d8e3" d="M 1910.488281 1272.585938 C 1910.488281 1292.515625 1910.488281 1312.445312 1910.488281 1332.375 C 1883.691406 1326.851562 1883.09375 1278.855469 1910.488281 1272.585938 " fill-opacity="1" fill-rule="nonzero"/><path fill="#87d8e3" d="M 1267.234375 4.59375 C 1291.492188 4.59375 1314.707031 4.59375 1338.144531 4.59375 C 1328.140625 22.210938 1288.730469 30.792969 1267.234375 4.59375 " fill-opacity="1" fill-rule="nonzero"/><path fill="#87d8e3" d="M 1089.292969 1274.75 C 1089.066406 1296.25 1055.332031 1295.277344 1056.449219 1273.78125 C 1056.972656 1252.808594 1090.039062 1253.703125 1089.292969 1274.75 " fill-opacity="1" fill-rule="nonzero"/><path fill="#87d8e3" d="M 1504.742188 1611.378906 C 1483.171875 1611.753906 1483.394531 1577.941406 1504.890625 1578.539062 C 1525.9375 1578.539062 1525.714844 1611.53125 1504.742188 1611.378906 " fill-opacity="1" fill-rule="nonzero"/><path fill="#87d8e3" d="M 1289.03125 1418.660156 C 1310.527344 1418.285156 1310.226562 1452.097656 1288.804688 1451.425781 C 1267.683594 1451.351562 1267.90625 1418.359375 1289.03125 1418.660156 " fill-opacity="1" fill-rule="nonzero"/><path fill="#87d8e3" d="M 425.8125 810.339844 C 404.765625 810.9375 403.941406 777.945312 425.066406 777.570312 C 446.5625 776.675781 447.234375 810.414062 425.8125 810.339844 " fill-opacity="1" fill-rule="nonzero"/><path fill="#87d8e3" d="M 1704.40625 1755.136719 C 1703.882812 1733.640625 1737.695312 1733.492188 1737.246094 1754.988281 C 1737.394531 1776.035156 1704.40625 1776.261719 1704.40625 1755.136719 " fill-opacity="1" fill-rule="nonzero"/><path fill="#87d8e3" d="M 857.535156 1130.917969 C 836.035156 1131.367188 836.035156 1097.628906 857.457031 1098.078125 C 878.507812 1098.003906 878.65625 1130.992188 857.535156 1130.917969 " fill-opacity="1" fill-rule="nonzero"/><path fill="#87d8e3" d="M 657.496094 954.542969 C 657.871094 976.039062 624.058594 975.742188 624.730469 954.320312 C 624.804688 933.195312 657.796875 933.496094 657.496094 954.542969 " fill-opacity="1" fill-rule="nonzero"/><path fill="#87d8e3" d="M 209.28125 650.457031 C 188.230469 650.683594 188.082031 617.617188 209.132812 617.691406 C 230.628906 617.09375 230.851562 650.90625 209.28125 650.457031 " fill-opacity="1" fill-rule="nonzero"/><path fill="#87d8e3" d="M 1818.679688 1908.671875 C 1800.316406 1909.269531 1800.542969 1880.460938 1818.453125 1880.609375 C 1836.519531 1880.460938 1837.113281 1908.671875 1818.679688 1908.671875 " fill-opacity="1" fill-rule="nonzero"/><path fill="#87d8e3" d="M 1170.574219 1401.042969 C 1188.117188 1400.519531 1187.667969 1428.0625 1170.574219 1427.765625 C 1153.332031 1427.765625 1152.960938 1400.820312 1170.574219 1401.042969 " fill-opacity="1" fill-rule="nonzero"/><path fill="#87d8e3" d="M 1589.085938 1734.015625 C 1588.710938 1716.546875 1616.253906 1717.21875 1615.804688 1734.3125 C 1615.65625 1751.480469 1588.710938 1751.628906 1589.085938 1734.015625 " fill-opacity="1" fill-rule="nonzero"/><path fill="#87d8e3" d="M 954.9375 1240.417969 C 972.480469 1239.820312 972.179688 1267.363281 955.164062 1267.136719 C 937.921875 1267.289062 937.398438 1240.34375 954.9375 1240.417969 " fill-opacity="1" fill-rule="nonzero"/><path fill="#87d8e3" d="M 1386.511719 1587.496094 C 1369.042969 1587.570312 1370.089844 1560.027344 1387.109375 1560.773438 C 1404.351562 1561.222656 1404.125 1588.09375 1386.511719 1587.496094 " fill-opacity="1" fill-rule="nonzero"/><path fill="#87d8e3" d="M 752.214844 1093.597656 C 752.664062 1110.320312 725.867188 1111.289062 725.71875 1094.269531 C 724.898438 1076.730469 751.917969 1076.28125 752.214844 1093.597656 " fill-opacity="1" fill-rule="nonzero"/><path fill="#87d8e3" d="M 523.21875 946.332031 C 506.125 946.558594 506.351562 919.835938 523.144531 919.835938 C 540.386719 919.613281 540.757812 946.707031 523.21875 946.332031 " fill-opacity="1" fill-rule="nonzero"/><path fill="#87d8e3" d="M 294.074219 773.316406 C 293.847656 756.148438 320.71875 756.449219 320.121094 773.539062 C 320.046875 790.1875 293.847656 790.035156 294.074219 773.316406 " fill-opacity="1" fill-rule="nonzero"/><path fill="#87d8e3" d="M 91.273438 600.75 C 107.992188 600.226562 108.21875 625.679688 91.871094 626.125 C 75.675781 626.796875 74.777344 600.597656 91.273438 600.75 " fill-opacity="1" fill-rule="nonzero"/><path fill="#87d8e3" d="M 1910.410156 427.730469 C 1910.410156 444.972656 1910.410156 461.917969 1910.410156 479.007812 C 1898.992188 467.960938 1899.589844 438.03125 1910.410156 427.730469 " fill-opacity="1" fill-rule="nonzero"/><path fill="#87d8e3" d="M 1474.363281 1713.636719 C 1473.988281 1701.769531 1492.574219 1700.648438 1493.171875 1712.816406 C 1494.214844 1725.355469 1474.511719 1725.804688 1474.363281 1713.636719 " fill-opacity="1" fill-rule="nonzero"/><path fill="#87d8e3" d="M 1700 1882.847656 C 1688.207031 1882.996094 1687.757812 1863.890625 1699.851562 1864.039062 C 1712.464844 1863.589844 1712.316406 1882.921875 1700 1882.847656 " fill-opacity="1" fill-rule="nonzero"/><path fill="#87d8e3" d="M 404.765625 921.925781 C 392.449219 921.777344 392.597656 902.59375 405.210938 903.117188 C 417.304688 903.117188 416.558594 922.226562 404.765625 921.925781 " fill-opacity="1" fill-rule="nonzero"/><path fill="#87d8e3" d="M 1061.601562 1392.980469 C 1061.453125 1405.296875 1042.269531 1405.148438 1042.792969 1392.535156 C 1042.867188 1380.441406 1061.898438 1381.1875 1061.601562 1392.980469 " fill-opacity="1" fill-rule="nonzero"/><path fill="#87d8e3" d="M 620.25 1082.476562 C 608.011719 1082.402344 608.085938 1063.144531 620.773438 1063.742188 C 632.867188 1063.742188 632.042969 1082.851562 620.25 1082.476562 " fill-opacity="1" fill-rule="nonzero"/><path fill="#87d8e3" d="M 1268.503906 1563.011719 C 1256.710938 1563.3125 1255.515625 1544.726562 1267.757812 1544.203125 C 1280.296875 1543.085938 1280.671875 1562.789062 1268.503906 1563.011719 " fill-opacity="1" fill-rule="nonzero"/><path fill="#87d8e3" d="M 179.351562 752.492188 C 179.199219 739.878906 198.53125 740.476562 198.160156 752.789062 C 197.933594 764.507812 178.902344 764.582031 179.351562 752.492188 " fill-opacity="1" fill-rule="nonzero"/><path fill="#87d8e3" d="M 836.335938 1242.28125 C 824.242188 1242.359375 824.765625 1223.324219 836.484375 1223.472656 C 848.875 1223.398438 848.949219 1242.65625 836.335938 1242.28125 " fill-opacity="1" fill-rule="nonzero"/><path fill="#87d8e3" d="M 1.632812 488.9375 C 1.632812 478.710938 1.632812 469.457031 1.632812 459.527344 C 14.097656 465.574219 13.871094 482.367188 1.632812 488.9375 " fill-opacity="1" fill-rule="nonzero"/><path fill="#87d8e3" d="M 1581.769531 1858.589844 C 1574.378906 1858.886719 1573.632812 1846.796875 1581.398438 1846.796875 C 1589.234375 1846.496094 1589.308594 1858.140625 1581.769531 1858.589844 " fill-opacity="1" fill-rule="nonzero"/><path fill="#87d8e3" d="M 717.957031 1218.023438 C 710.191406 1218.023438 710.863281 1205.933594 718.253906 1206.230469 C 725.792969 1206.605469 725.792969 1218.25 717.957031 1218.023438 " fill-opacity="1" fill-rule="nonzero"/><path fill="#87d8e3" d="M 933.515625 1378.128906 C 926.054688 1377.980469 926.054688 1365.886719 933.816406 1366.335938 C 941.652344 1366.484375 940.980469 1378.128906 933.515625 1378.128906 " fill-opacity="1" fill-rule="nonzero"/><path fill="#87d8e3" d="M 1365.089844 1698.484375 C 1357.25 1698.113281 1358.148438 1686.46875 1365.609375 1686.691406 C 1373.074219 1686.917969 1372.777344 1699.007812 1365.089844 1698.484375 " fill-opacity="1" fill-rule="nonzero"/><path fill="#87d8e3" d="M 1143.855469 1532.039062 C 1144.152344 1524.574219 1155.648438 1524.199219 1155.648438 1532.039062 C 1155.871094 1539.800781 1143.78125 1539.5 1143.855469 1532.039062 " fill-opacity="1" fill-rule="nonzero"/><path fill="#87d8e3" d="M 292.207031 891.921875 C 291.90625 899.757812 280.265625 899.011719 280.414062 891.472656 C 280.5625 884.007812 292.65625 884.234375 292.207031 891.921875 " fill-opacity="1" fill-rule="nonzero"/><path fill="#87d8e3" d="M 76.121094 731.445312 C 76.570312 738.90625 64.476562 739.730469 64.328125 731.964844 C 63.957031 724.203125 75.601562 723.980469 76.121094 731.445312 " fill-opacity="1" fill-rule="nonzero"/><path fill="#87d8e3" d="M 502.171875 1057.398438 C 494.332031 1057.847656 494.109375 1046.203125 501.574219 1045.605469 C 509.035156 1045.15625 509.933594 1057.25 502.171875 1057.398438 " fill-opacity="1" fill-rule="nonzero"/><path fill="#87d8e3" d="M 1910.410156 1194.511719 C 1906.980469 1187.644531 1907.203125 1180.777344 1910.410156 1173.914062 C 1910.410156 1180.777344 1910.410156 1187.644531 1910.410156 1194.511719 " fill-opacity="1" fill-rule="nonzero"/><path fill="#87d8e3" d="M 387.375 1029.707031 C 387.894531 1036.199219 379.609375 1036.351562 379.3125 1031.050781 C 379.238281 1025.378906 385.207031 1026.570312 387.375 1029.707031 " fill-opacity="1" fill-rule="nonzero"/><path fill="#87d8e3" d="M 1250.890625 1671.390625 C 1250.738281 1677.0625 1242.082031 1676.167969 1242.828125 1670.867188 C 1243.050781 1665.867188 1251.335938 1666.316406 1250.890625 1671.390625 " fill-opacity="1" fill-rule="nonzero"/><path fill="#87d8e3" d="M 599.5 1196.675781 C 596.367188 1192.496094 593.082031 1187.871094 599.425781 1186.824219 C 606.367188 1187.570312 603.234375 1192.574219 599.5 1196.675781 " fill-opacity="1" fill-rule="nonzero"/><path fill="#87d8e3" d="M 168.304688 876.769531 C 164.347656 872.886719 160.988281 868.109375 167.855469 866.992188 C 174.273438 867.664062 171.214844 872.515625 168.304688 876.769531 " fill-opacity="1" fill-rule="nonzero"/><path fill="#87d8e3" d="M 821.035156 1350.960938 C 817.152344 1354.914062 812.300781 1358.273438 811.183594 1351.40625 C 811.929688 1344.988281 816.707031 1348.046875 821.035156 1350.960938 " fill-opacity="1" fill-rule="nonzero"/><path fill="#87d8e3" d="M 1030.25 1515.316406 C 1027.042969 1513.078125 1025.847656 1507.183594 1031.519531 1507.257812 C 1036.894531 1507.480469 1036.671875 1515.765625 1030.25 1515.316406 " fill-opacity="1" fill-rule="nonzero"/><path fill="#87d8e3" d="M 1468.988281 1831.421875 C 1465.105469 1835.375 1460.253906 1838.734375 1459.136719 1831.867188 C 1459.882812 1825.375 1464.660156 1828.507812 1468.988281 1831.421875 " fill-opacity="1" fill-rule="nonzero"/></g></g></g></svg>