<svg xmlns="http://www.w3.org/2000/svg" xmlns:xlink="http://www.w3.org/1999/xlink" width="6912" zoomAndPan="magnify" viewBox="0 0 5184 2592.000001" height="3456" preserveAspectRatio="xMidYMid meet" version="1.0"><defs><filter x="0%" y="0%" width="100%" height="100%" id="ded406adc3"><feColorMatrix values="0 0 0 0 1 0 0 0 0 1 0 0 0 0 1 0 0 0 1 0" color-interpolation-filters="sRGB"/></filter><mask id="728c4eb9c0"><g filter="url(#ded406adc3)"><rect x="-518.4" width="6220.8" fill="#000000" y="-259.2" height="3110.400001" fill-opacity="0.2"/></g></mask><clipPath id="c28b8d8628"><path d="M 5.65625 5.65625 L 2574 5.65625 L 2574 2574 L 5.65625 2574 Z M 5.65625 5.65625 " clip-rule="nonzero"/></clipPath><clipPath id="295a4372f1"><rect x="0" width="2579" y="0" height="2574"/></clipPath><mask id="ef5e9f847b"><g filter="url(#ded406adc3)"><rect x="-518.4" width="6220.8" fill="#000000" y="-259.2" height="3110.400001" fill-opacity="0.2"/></g></mask><clipPath id="87e4550254"><path d="M 5 5.65625 L 2573.507812 5.65625 L 2573.507812 2574 L 5 2574 Z M 5 5.65625 " clip-rule="nonzero"/></clipPath><clipPath id="b40faa3878"><rect x="0" width="2578" y="0" height="2574"/></clipPath></defs><g mask="url(#728c4eb9c0)"><g transform="matrix(1, 0, 0, 1, 18, 17)"><g clip-path="url(#295a4372f1)"><g clip-path="url(#c28b8d8628)"><path fill="#ffffff" d="M 70.210938 5.375 L 70.1875 5.375 L 70.1875 70.1875 L 5.375 70.1875 L 5.375 81.414062 L 70.1875 81.414062 L 70.1875 256.921875 L 5.375 256.921875 L 5.375 268.148438 L 70.1875 268.148438 L 70.1875 443.65625 L 5.375 443.65625 L 5.375 454.859375 L 70.1875 454.859375 L 70.1875 630.371094 L 5.375 630.371094 L 5.375 641.59375 L 70.1875 641.59375 L 70.1875 817.125 L 5.375 817.125 L 5.375 828.308594 L 70.1875 828.308594 L 70.1875 1003.839844 L 5.375 1003.839844 L 5.375 1015.066406 L 70.1875 1015.066406 L 70.1875 1190.574219 L 5.375 1190.574219 L 5.375 1201.753906 L 70.1875 1201.753906 L 70.1875 1377.332031 L 5.375 1377.332031 L 5.375 1388.511719 L 70.1875 1388.511719 L 70.1875 1564.019531 L 5.375 1564.019531 L 5.375 1575.222656 L 70.1875 1575.222656 L 70.1875 1750.777344 L 5.375 1750.777344 L 5.375 1761.960938 L 70.1875 1761.960938 L 70.1875 1937.492188 L 5.375 1937.492188 L 5.375 1948.671875 L 70.1875 1948.671875 L 70.1875 2124.226562 L 5.375 2124.226562 L 5.375 2135.429688 L 70.1875 2135.429688 L 70.1875 2310.9375 L 5.375 2310.9375 L 5.375 2322.140625 L 70.1875 2322.140625 L 70.1875 2497.695312 L 5.375 2497.695312 L 5.375 2508.898438 L 70.1875 2508.898438 L 70.1875 2573.710938 L 81.414062 2573.710938 L 81.414062 2508.898438 L 256.945312 2508.898438 L 256.945312 2573.710938 L 268.148438 2573.710938 L 268.148438 2508.898438 L 443.679688 2508.898438 L 443.679688 2573.710938 L 454.859375 2573.710938 L 454.859375 2508.898438 L 630.414062 2508.898438 L 630.414062 2573.710938 L 641.59375 2573.710938 L 641.59375 2508.898438 L 817.125 2508.898438 L 817.125 2573.710938 L 828.308594 2573.710938 L 828.308594 2508.898438 L 1003.859375 2508.898438 L 1003.859375 2573.710938 L 1015.0625 2573.710938 L 1015.0625 2508.898438 L 1190.574219 2508.898438 L 1190.574219 2573.710938 L 1201.753906 2573.710938 L 1201.753906 2508.898438 L 1377.328125 2508.898438 L 1377.328125 2573.710938 L 1388.511719 2573.710938 L 1388.511719 2508.898438 L 1564.019531 2508.898438 L 1564.019531 2573.710938 L 1575.269531 2573.710938 L 1575.269531 2508.898438 L 1750.777344 2508.898438 L 1750.777344 2573.710938 L 1761.957031 2573.710938 L 1761.957031 2508.898438 L 1937.488281 2508.898438 L 1937.488281 2573.710938 L 1948.714844 2573.710938 L 1948.714844 2508.898438 L 2124.222656 2508.898438 L 2124.222656 2573.710938 L 2135.425781 2573.710938 L 2135.425781 2508.898438 L 2310.9375 2508.898438 L 2310.9375 2573.710938 L 2322.164062 2573.710938 L 2322.164062 2508.898438 L 2497.671875 2508.898438 L 2497.671875 2573.710938 L 2508.898438 2573.710938 L 2508.898438 2508.898438 L 2573.707031 2508.898438 L 2573.707031 2497.695312 L 2508.898438 2497.695312 L 2508.898438 2322.140625 L 2573.707031 2322.140625 L 2573.707031 2310.9375 L 2508.898438 2310.9375 L 2508.898438 2135.429688 L 2573.707031 2135.429688 L 2573.707031 2124.226562 L 2508.898438 2124.226562 L 2508.898438 1948.671875 L 2573.707031 1948.671875 L 2573.707031 1937.492188 L 2508.898438 1937.492188 L 2508.898438 1761.960938 L 2573.707031 1761.960938 L 2573.707031 1750.777344 L 2508.898438 1750.777344 L 2508.898438 1575.222656 L 2573.707031 1575.222656 L 2573.707031 1564.019531 L 2508.898438 1564.019531 L 2508.898438 1388.511719 L 2573.707031 1388.511719 L 2573.707031 1377.332031 L 2508.898438 1377.332031 L 2508.898438 1201.753906 L 2573.707031 1201.753906 L 2573.707031 1190.574219 L 2508.898438 1190.574219 L 2508.898438 1015.066406 L 2573.707031 1015.066406 L 2573.707031 1003.839844 L 2508.898438 1003.839844 L 2508.898438 828.308594 L 2573.707031 828.308594 L 2573.707031 817.125 L 2508.898438 817.125 L 2508.898438 641.59375 L 2573.707031 641.59375 L 2573.707031 630.371094 L 2508.898438 630.371094 L 2508.898438 454.859375 L 2573.707031 454.859375 L 2573.707031 443.65625 L 2508.898438 443.65625 L 2508.898438 268.148438 L 2573.707031 268.148438 L 2573.707031 256.921875 L 2508.898438 256.921875 L 2508.898438 81.414062 L 2573.707031 81.414062 L 2573.707031 70.1875 L 2508.898438 70.1875 L 2508.898438 5.375 L 2497.671875 5.375 L 2497.671875 70.1875 L 2322.164062 70.1875 L 2322.164062 5.375 L 2310.9375 5.375 L 2310.9375 70.1875 L 2135.425781 70.1875 L 2135.425781 5.375 L 2124.222656 5.375 L 2124.222656 70.1875 L 1948.714844 70.1875 L 1948.714844 5.375 L 1937.488281 5.375 L 1937.488281 70.1875 L 1761.957031 70.1875 L 1761.957031 5.375 L 1750.777344 5.375 L 1750.777344 70.1875 L 1575.269531 70.1875 L 1575.269531 5.375 L 1564.019531 5.375 L 1564.019531 70.1875 L 1388.511719 70.1875 L 1388.511719 5.375 L 1377.328125 5.375 L 1377.328125 70.1875 L 1201.753906 70.1875 L 1201.753906 5.375 L 1190.574219 5.375 L 1190.574219 70.1875 L 1015.0625 70.1875 L 1015.0625 5.375 L 1003.859375 5.375 L 1003.859375 70.1875 L 828.308594 70.1875 L 828.308594 5.375 L 817.125 5.375 L 817.125 70.1875 L 641.59375 70.1875 L 641.59375 5.375 L 630.414062 5.375 L 630.414062 70.1875 L 454.859375 70.1875 L 454.859375 5.375 L 443.679688 5.375 L 443.679688 70.1875 L 268.148438 70.1875 L 268.148438 5.375 L 256.945312 5.375 L 256.945312 70.1875 L 81.414062 70.1875 L 81.414062 5.375 Z M 81.414062 81.414062 L 256.945312 81.414062 L 256.945312 256.921875 L 81.414062 256.921875 Z M 268.148438 81.414062 L 443.679688 81.414062 L 443.679688 256.921875 L 268.148438 256.921875 Z M 454.859375 81.414062 L 630.414062 81.414062 L 630.414062 256.921875 L 454.859375 256.921875 Z M 641.59375 81.414062 L 817.125 81.414062 L 817.125 256.921875 L 641.59375 256.921875 Z M 828.308594 81.414062 L 1003.859375 81.414062 L 1003.859375 256.921875 L 828.308594 256.921875 Z M 1015.0625 81.414062 L 1190.574219 81.414062 L 1190.574219 256.921875 L 1015.0625 256.921875 Z M 1201.753906 81.414062 L 1377.328125 81.414062 L 1377.328125 256.921875 L 1201.753906 256.921875 Z M 1388.511719 81.414062 L 1564.019531 81.414062 L 1564.019531 256.921875 L 1388.511719 256.921875 Z M 1575.269531 81.414062 L 1750.777344 81.414062 L 1750.777344 256.921875 L 1575.269531 256.921875 Z M 1761.957031 81.414062 L 1937.488281 81.414062 L 1937.488281 256.921875 L 1761.957031 256.921875 Z M 1948.714844 81.414062 L 2124.222656 81.414062 L 2124.222656 256.921875 L 1948.714844 256.921875 Z M 2135.425781 81.414062 L 2310.9375 81.414062 L 2310.9375 256.921875 L 2135.425781 256.921875 Z M 2322.164062 81.414062 L 2497.671875 81.414062 L 2497.671875 256.921875 L 2322.164062 256.921875 Z M 81.414062 268.148438 L 256.945312 268.148438 L 256.945312 443.65625 L 81.414062 443.65625 Z M 268.148438 268.148438 L 443.679688 268.148438 L 443.679688 443.65625 L 268.148438 443.65625 Z M 454.859375 268.148438 L 630.414062 268.148438 L 630.414062 443.65625 L 454.859375 443.65625 Z M 641.59375 268.148438 L 817.125 268.148438 L 817.125 443.65625 L 641.59375 443.65625 Z M 828.308594 268.148438 L 1003.859375 268.148438 L 1003.859375 443.65625 L 828.308594 443.65625 Z M 1015.0625 268.148438 L 1190.574219 268.148438 L 1190.574219 443.65625 L 1015.0625 443.65625 Z M 1201.753906 268.148438 L 1377.328125 268.148438 L 1377.328125 443.65625 L 1201.753906 443.65625 Z M 1388.511719 268.148438 L 1564.019531 268.148438 L 1564.019531 443.65625 L 1388.511719 443.65625 Z M 1575.269531 268.148438 L 1750.777344 268.148438 L 1750.777344 443.65625 L 1575.269531 443.65625 Z M 1761.957031 268.148438 L 1937.488281 268.148438 L 1937.488281 443.65625 L 1761.957031 443.65625 Z M 1948.714844 268.148438 L 2124.222656 268.148438 L 2124.222656 443.65625 L 1948.714844 443.65625 Z M 2135.425781 268.148438 L 2310.9375 268.148438 L 2310.9375 443.65625 L 2135.425781 443.65625 Z M 2322.164062 268.148438 L 2497.671875 268.148438 L 2497.671875 443.65625 L 2322.164062 443.65625 Z M 81.414062 454.859375 L 256.945312 454.859375 L 256.945312 630.371094 L 81.414062 630.371094 Z M 268.148438 454.859375 L 443.679688 454.859375 L 443.679688 630.371094 L 268.148438 630.371094 Z M 454.859375 454.859375 L 630.414062 454.859375 L 630.414062 630.371094 L 454.859375 630.371094 Z M 641.59375 454.859375 L 817.125 454.859375 L 817.125 630.371094 L 641.59375 630.371094 Z M 828.308594 454.859375 L 1003.859375 454.859375 L 1003.859375 630.371094 L 828.308594 630.371094 Z M 1015.0625 454.859375 L 1190.574219 454.859375 L 1190.574219 630.371094 L 1015.0625 630.371094 Z M 1201.753906 454.859375 L 1377.328125 454.859375 L 1377.328125 630.371094 L 1201.753906 630.371094 Z M 1388.511719 454.859375 L 1564.019531 454.859375 L 1564.019531 630.371094 L 1388.511719 630.371094 Z M 1575.269531 454.859375 L 1750.777344 454.859375 L 1750.777344 630.371094 L 1575.269531 630.371094 Z M 1761.957031 454.859375 L 1937.488281 454.859375 L 1937.488281 630.371094 L 1761.957031 630.371094 Z M 1948.714844 454.859375 L 2124.222656 454.859375 L 2124.222656 630.371094 L 1948.714844 630.371094 Z M 2135.425781 454.859375 L 2310.9375 454.859375 L 2310.9375 630.371094 L 2135.425781 630.371094 Z M 2322.164062 454.859375 L 2497.671875 454.859375 L 2497.671875 630.371094 L 2322.164062 630.371094 Z M 81.414062 641.59375 L 256.945312 641.59375 L 256.945312 817.125 L 81.414062 817.125 Z M 268.148438 641.59375 L 443.679688 641.59375 L 443.679688 817.125 L 268.148438 817.125 Z M 454.859375 641.59375 L 630.414062 641.59375 L 630.414062 817.125 L 454.859375 817.125 Z M 641.59375 641.59375 L 817.125 641.59375 L 817.125 817.125 L 641.59375 817.125 Z M 828.308594 641.59375 L 1003.859375 641.59375 L 1003.859375 817.125 L 828.308594 817.125 Z M 1015.0625 641.59375 L 1190.574219 641.59375 L 1190.574219 817.125 L 1015.0625 817.125 Z M 1201.753906 641.59375 L 1377.328125 641.59375 L 1377.328125 817.125 L 1201.753906 817.125 Z M 1388.511719 641.59375 L 1564.019531 641.59375 L 1564.019531 817.125 L 1388.511719 817.125 Z M 1575.269531 641.59375 L 1750.777344 641.59375 L 1750.777344 817.125 L 1575.269531 817.125 Z M 1761.957031 641.59375 L 1937.488281 641.59375 L 1937.488281 817.125 L 1761.957031 817.125 Z M 1948.714844 641.59375 L 2124.222656 641.59375 L 2124.222656 817.125 L 1948.714844 817.125 Z M 2135.425781 641.59375 L 2310.9375 641.59375 L 2310.9375 817.125 L 2135.425781 817.125 Z M 2322.164062 641.59375 L 2497.671875 641.59375 L 2497.671875 817.125 L 2322.164062 817.125 Z M 81.414062 828.308594 L 256.945312 828.308594 L 256.945312 1003.839844 L 81.414062 1003.839844 Z M 268.148438 828.308594 L 443.679688 828.308594 L 443.679688 1003.839844 L 268.148438 1003.839844 Z M 454.859375 828.308594 L 630.414062 828.308594 L 630.414062 1003.839844 L 454.859375 1003.839844 Z M 641.59375 828.308594 L 817.125 828.308594 L 817.125 1003.839844 L 641.59375 1003.839844 Z M 828.308594 828.308594 L 1003.859375 828.308594 L 1003.859375 1003.839844 L 828.308594 1003.839844 Z M 1015.0625 828.308594 L 1190.574219 828.308594 L 1190.574219 1003.839844 L 1015.0625 1003.839844 Z M 1201.753906 828.308594 L 1377.328125 828.308594 L 1377.328125 1003.839844 L 1201.753906 1003.839844 Z M 1388.511719 828.308594 L 1564.019531 828.308594 L 1564.019531 1003.839844 L 1388.511719 1003.839844 Z M 1575.269531 828.308594 L 1750.777344 828.308594 L 1750.777344 1003.839844 L 1575.269531 1003.839844 Z M 1761.957031 828.308594 L 1937.488281 828.308594 L 1937.488281 1003.839844 L 1761.957031 1003.839844 Z M 1948.714844 828.308594 L 2124.222656 828.308594 L 2124.222656 1003.839844 L 1948.714844 1003.839844 Z M 2135.425781 828.308594 L 2310.9375 828.308594 L 2310.9375 1003.839844 L 2135.425781 1003.839844 Z M 2322.164062 828.308594 L 2497.671875 828.308594 L 2497.671875 1003.839844 L 2322.164062 1003.839844 Z M 81.414062 1015.066406 L 256.945312 1015.066406 L 256.945312 1190.574219 L 81.414062 1190.574219 Z M 268.148438 1015.066406 L 443.679688 1015.066406 L 443.679688 1190.574219 L 268.148438 1190.574219 Z M 454.859375 1015.066406 L 630.414062 1015.066406 L 630.414062 1190.574219 L 454.859375 1190.574219 Z M 641.59375 1015.066406 L 817.125 1015.066406 L 817.125 1190.574219 L 641.59375 1190.574219 Z M 828.308594 1015.066406 L 1003.859375 1015.066406 L 1003.859375 1190.574219 L 828.308594 1190.574219 Z M 1015.0625 1015.066406 L 1190.574219 1015.066406 L 1190.574219 1190.574219 L 1015.0625 1190.574219 Z M 1201.753906 1015.066406 L 1377.328125 1015.066406 L 1377.328125 1190.574219 L 1201.753906 1190.574219 Z M 1388.511719 1015.066406 L 1564.019531 1015.066406 L 1564.019531 1190.574219 L 1388.511719 1190.574219 Z M 1575.269531 1015.066406 L 1750.777344 1015.066406 L 1750.777344 1190.574219 L 1575.269531 1190.574219 Z M 1761.957031 1015.066406 L 1937.488281 1015.066406 L 1937.488281 1190.574219 L 1761.957031 1190.574219 Z M 1948.714844 1015.066406 L 2124.222656 1015.066406 L 2124.222656 1190.574219 L 1948.714844 1190.574219 Z M 2135.425781 1015.066406 L 2310.9375 1015.066406 L 2310.9375 1190.574219 L 2135.425781 1190.574219 Z M 2322.164062 1015.066406 L 2497.671875 1015.066406 L 2497.671875 1190.574219 L 2322.164062 1190.574219 Z M 81.414062 1201.753906 L 256.945312 1201.753906 L 256.945312 1377.332031 L 81.414062 1377.332031 Z M 268.148438 1201.753906 L 443.679688 1201.753906 L 443.679688 1377.332031 L 268.148438 1377.332031 Z M 454.859375 1201.753906 L 630.414062 1201.753906 L 630.414062 1377.332031 L 454.859375 1377.332031 Z M 641.59375 1201.753906 L 817.125 1201.753906 L 817.125 1377.332031 L 641.59375 1377.332031 Z M 828.308594 1201.753906 L 1003.859375 1201.753906 L 1003.859375 1377.332031 L 828.308594 1377.332031 Z M 1015.0625 1201.753906 L 1190.574219 1201.753906 L 1190.574219 1377.332031 L 1015.0625 1377.332031 Z M 1201.753906 1201.753906 L 1377.328125 1201.753906 L 1377.328125 1377.332031 L 1201.753906 1377.332031 Z M 1388.511719 1201.753906 L 1564.019531 1201.753906 L 1564.019531 1377.332031 L 1388.511719 1377.332031 Z M 1575.269531 1201.753906 L 1750.777344 1201.753906 L 1750.777344 1377.332031 L 1575.269531 1377.332031 Z M 1761.957031 1201.753906 L 1937.488281 1201.753906 L 1937.488281 1377.332031 L 1761.957031 1377.332031 Z M 1948.714844 1201.753906 L 2124.222656 1201.753906 L 2124.222656 1377.332031 L 1948.714844 1377.332031 Z M 2135.425781 1201.753906 L 2310.9375 1201.753906 L 2310.9375 1377.332031 L 2135.425781 1377.332031 Z M 2322.164062 1201.753906 L 2497.671875 1201.753906 L 2497.671875 1377.332031 L 2322.164062 1377.332031 Z M 81.414062 1388.511719 L 256.945312 1388.511719 L 256.945312 1564.019531 L 81.414062 1564.019531 Z M 268.148438 1388.511719 L 443.679688 1388.511719 L 443.679688 1564.019531 L 268.148438 1564.019531 Z M 454.859375 1388.511719 L 630.414062 1388.511719 L 630.414062 1564.019531 L 454.859375 1564.019531 Z M 641.59375 1388.511719 L 817.125 1388.511719 L 817.125 1564.019531 L 641.59375 1564.019531 Z M 828.308594 1388.511719 L 1003.859375 1388.511719 L 1003.859375 1564.019531 L 828.308594 1564.019531 Z M 1015.0625 1388.511719 L 1190.574219 1388.511719 L 1190.574219 1564.019531 L 1015.0625 1564.019531 Z M 1201.753906 1388.511719 L 1377.328125 1388.511719 L 1377.328125 1564.019531 L 1201.753906 1564.019531 Z M 1388.511719 1388.511719 L 1564.019531 1388.511719 L 1564.019531 1564.019531 L 1388.511719 1564.019531 Z M 1575.269531 1388.511719 L 1750.777344 1388.511719 L 1750.777344 1564.019531 L 1575.269531 1564.019531 Z M 1761.957031 1388.511719 L 1937.488281 1388.511719 L 1937.488281 1564.019531 L 1761.957031 1564.019531 Z M 1948.714844 1388.511719 L 2124.222656 1388.511719 L 2124.222656 1564.019531 L 1948.714844 1564.019531 Z M 2135.425781 1388.511719 L 2310.9375 1388.511719 L 2310.9375 1564.019531 L 2135.425781 1564.019531 Z M 2322.164062 1388.511719 L 2497.671875 1388.511719 L 2497.671875 1564.019531 L 2322.164062 1564.019531 Z M 81.414062 1575.222656 L 256.945312 1575.222656 L 256.945312 1750.777344 L 81.414062 1750.777344 Z M 268.148438 1575.222656 L 443.679688 1575.222656 L 443.679688 1750.777344 L 268.148438 1750.777344 Z M 454.859375 1575.222656 L 630.414062 1575.222656 L 630.414062 1750.777344 L 454.859375 1750.777344 Z M 641.59375 1575.222656 L 817.125 1575.222656 L 817.125 1750.777344 L 641.59375 1750.777344 Z M 828.308594 1575.222656 L 1003.859375 1575.222656 L 1003.859375 1750.777344 L 828.308594 1750.777344 Z M 1015.0625 1575.222656 L 1190.574219 1575.222656 L 1190.574219 1750.777344 L 1015.0625 1750.777344 Z M 1201.753906 1575.222656 L 1377.328125 1575.222656 L 1377.328125 1750.777344 L 1201.753906 1750.777344 Z M 1388.511719 1575.222656 L 1564.019531 1575.222656 L 1564.019531 1750.777344 L 1388.511719 1750.777344 Z M 1575.269531 1575.222656 L 1750.777344 1575.222656 L 1750.777344 1750.777344 L 1575.269531 1750.777344 Z M 1761.957031 1575.222656 L 1937.488281 1575.222656 L 1937.488281 1750.777344 L 1761.957031 1750.777344 Z M 1948.714844 1575.222656 L 2124.222656 1575.222656 L 2124.222656 1750.777344 L 1948.714844 1750.777344 Z M 2135.425781 1575.222656 L 2310.9375 1575.222656 L 2310.9375 1750.777344 L 2135.425781 1750.777344 Z M 2322.164062 1575.222656 L 2497.671875 1575.222656 L 2497.671875 1750.777344 L 2322.164062 1750.777344 Z M 81.414062 1761.960938 L 256.945312 1761.960938 L 256.945312 1937.492188 L 81.414062 1937.492188 Z M 268.148438 1761.960938 L 443.679688 1761.960938 L 443.679688 1937.492188 L 268.148438 1937.492188 Z M 454.859375 1761.960938 L 630.414062 1761.960938 L 630.414062 1937.492188 L 454.859375 1937.492188 Z M 641.59375 1761.960938 L 817.125 1761.960938 L 817.125 1937.492188 L 641.59375 1937.492188 Z M 828.308594 1761.960938 L 1003.859375 1761.960938 L 1003.859375 1937.492188 L 828.308594 1937.492188 Z M 1015.0625 1761.960938 L 1190.574219 1761.960938 L 1190.574219 1937.492188 L 1015.0625 1937.492188 Z M 1201.753906 1761.960938 L 1377.328125 1761.960938 L 1377.328125 1937.492188 L 1201.753906 1937.492188 Z M 1388.511719 1761.960938 L 1564.019531 1761.960938 L 1564.019531 1937.492188 L 1388.511719 1937.492188 Z M 1575.269531 1761.960938 L 1750.777344 1761.960938 L 1750.777344 1937.492188 L 1575.269531 1937.492188 Z M 1761.957031 1761.960938 L 1937.488281 1761.960938 L 1937.488281 1937.492188 L 1761.957031 1937.492188 Z M 1948.714844 1761.960938 L 2124.222656 1761.960938 L 2124.222656 1937.492188 L 1948.714844 1937.492188 Z M 2135.425781 1761.960938 L 2310.9375 1761.960938 L 2310.9375 1937.492188 L 2135.425781 1937.492188 Z M 2322.164062 1761.960938 L 2497.671875 1761.960938 L 2497.671875 1937.492188 L 2322.164062 1937.492188 Z M 81.414062 1948.671875 L 256.945312 1948.671875 L 256.945312 2124.226562 L 81.414062 2124.226562 Z M 268.148438 1948.671875 L 443.679688 1948.671875 L 443.679688 2124.226562 L 268.148438 2124.226562 Z M 454.859375 1948.671875 L 630.414062 1948.671875 L 630.414062 2124.226562 L 454.859375 2124.226562 Z M 641.59375 1948.671875 L 817.125 1948.671875 L 817.125 2124.226562 L 641.59375 2124.226562 Z M 828.308594 1948.671875 L 1003.859375 1948.671875 L 1003.859375 2124.226562 L 828.308594 2124.226562 Z M 1015.0625 1948.671875 L 1190.574219 1948.671875 L 1190.574219 2124.226562 L 1015.0625 2124.226562 Z M 1201.753906 1948.671875 L 1377.328125 1948.671875 L 1377.328125 2124.226562 L 1201.753906 2124.226562 Z M 1388.511719 1948.671875 L 1564.019531 1948.671875 L 1564.019531 2124.226562 L 1388.511719 2124.226562 Z M 1575.269531 1948.671875 L 1750.777344 1948.671875 L 1750.777344 2124.226562 L 1575.269531 2124.226562 Z M 1761.957031 1948.671875 L 1937.488281 1948.671875 L 1937.488281 2124.226562 L 1761.957031 2124.226562 Z M 1948.714844 1948.671875 L 2124.222656 1948.671875 L 2124.222656 2124.226562 L 1948.714844 2124.226562 Z M 2135.425781 1948.671875 L 2310.9375 1948.671875 L 2310.9375 2124.226562 L 2135.425781 2124.226562 Z M 2322.164062 1948.671875 L 2497.671875 1948.671875 L 2497.671875 2124.226562 L 2322.164062 2124.226562 Z M 81.414062 2135.429688 L 256.945312 2135.429688 L 256.945312 2310.9375 L 81.414062 2310.9375 Z M 268.148438 2135.429688 L 443.679688 2135.429688 L 443.679688 2310.9375 L 268.148438 2310.9375 Z M 454.859375 2135.429688 L 630.414062 2135.429688 L 630.414062 2310.9375 L 454.859375 2310.9375 Z M 641.59375 2135.429688 L 817.125 2135.429688 L 817.125 2310.9375 L 641.59375 2310.9375 Z M 828.308594 2135.429688 L 1003.859375 2135.429688 L 1003.859375 2310.9375 L 828.308594 2310.9375 Z M 1015.0625 2135.429688 L 1190.574219 2135.429688 L 1190.574219 2310.9375 L 1015.0625 2310.9375 Z M 1201.753906 2135.429688 L 1377.328125 2135.429688 L 1377.328125 2310.9375 L 1201.753906 2310.9375 Z M 1388.511719 2135.429688 L 1564.019531 2135.429688 L 1564.019531 2310.9375 L 1388.511719 2310.9375 Z M 1575.269531 2135.429688 L 1750.777344 2135.429688 L 1750.777344 2310.9375 L 1575.269531 2310.9375 Z M 1761.957031 2135.429688 L 1937.488281 2135.429688 L 1937.488281 2310.9375 L 1761.957031 2310.9375 Z M 1948.714844 2135.429688 L 2124.222656 2135.429688 L 2124.222656 2310.9375 L 1948.714844 2310.9375 Z M 2135.425781 2135.429688 L 2310.9375 2135.429688 L 2310.9375 2310.9375 L 2135.425781 2310.9375 Z M 2322.164062 2135.429688 L 2497.671875 2135.429688 L 2497.671875 2310.9375 L 2322.164062 2310.9375 Z M 81.414062 2322.140625 L 256.945312 2322.140625 L 256.945312 2497.695312 L 81.414062 2497.695312 Z M 268.148438 2322.140625 L 443.679688 2322.140625 L 443.679688 2497.695312 L 268.148438 2497.695312 Z M 454.859375 2322.140625 L 630.414062 2322.140625 L 630.414062 2497.695312 L 454.859375 2497.695312 Z M 641.59375 2322.140625 L 817.125 2322.140625 L 817.125 2497.695312 L 641.59375 2497.695312 Z M 828.308594 2322.140625 L 1003.859375 2322.140625 L 1003.859375 2497.695312 L 828.308594 2497.695312 Z M 1015.0625 2322.140625 L 1190.574219 2322.140625 L 1190.574219 2497.695312 L 1015.0625 2497.695312 Z M 1201.753906 2322.140625 L 1377.328125 2322.140625 L 1377.328125 2497.695312 L 1201.753906 2497.695312 Z M 1388.511719 2322.140625 L 1564.019531 2322.140625 L 1564.019531 2497.695312 L 1388.511719 2497.695312 Z M 1575.269531 2322.140625 L 1750.777344 2322.140625 L 1750.777344 2497.695312 L 1575.269531 2497.695312 Z M 1761.957031 2322.140625 L 1937.488281 2322.140625 L 1937.488281 2497.695312 L 1761.957031 2497.695312 Z M 1948.714844 2322.140625 L 2124.222656 2322.140625 L 2124.222656 2497.695312 L 1948.714844 2497.695312 Z M 2135.425781 2322.140625 L 2310.9375 2322.140625 L 2310.9375 2497.695312 L 2135.425781 2497.695312 Z M 2322.164062 2322.140625 L 2497.671875 2322.140625 L 2497.671875 2497.695312 L 2322.164062 2497.695312 Z M 2322.164062 2322.140625 " fill-opacity="1" fill-rule="nonzero"/></g></g></g></g><g mask="url(#ef5e9f847b)"><g transform="matrix(1, 0, 0, 1, 2587, 17)"><g clip-path="url(#b40faa3878)"><g clip-path="url(#87e4550254)"><path fill="#ffffff" d="M 69.554688 5.375 L 69.53125 5.375 L 69.53125 70.1875 L 4.71875 70.1875 L 4.71875 81.414062 L 69.53125 81.414062 L 69.53125 256.921875 L 4.71875 256.921875 L 4.71875 268.148438 L 69.53125 268.148438 L 69.53125 443.65625 L 4.71875 443.65625 L 4.71875 454.859375 L 69.53125 454.859375 L 69.53125 630.371094 L 4.71875 630.371094 L 4.71875 641.59375 L 69.53125 641.59375 L 69.53125 817.125 L 4.71875 817.125 L 4.71875 828.308594 L 69.53125 828.308594 L 69.53125 1003.839844 L 4.71875 1003.839844 L 4.71875 1015.066406 L 69.53125 1015.066406 L 69.53125 1190.574219 L 4.71875 1190.574219 L 4.71875 1201.753906 L 69.53125 1201.753906 L 69.53125 1377.332031 L 4.71875 1377.332031 L 4.71875 1388.511719 L 69.53125 1388.511719 L 69.53125 1564.019531 L 4.71875 1564.019531 L 4.71875 1575.222656 L 69.53125 1575.222656 L 69.53125 1750.777344 L 4.71875 1750.777344 L 4.71875 1761.960938 L 69.53125 1761.960938 L 69.53125 1937.492188 L 4.71875 1937.492188 L 4.71875 1948.671875 L 69.53125 1948.671875 L 69.53125 2124.226562 L 4.71875 2124.226562 L 4.71875 2135.429688 L 69.53125 2135.429688 L 69.53125 2310.9375 L 4.71875 2310.9375 L 4.71875 2322.140625 L 69.53125 2322.140625 L 69.53125 2497.695312 L 4.71875 2497.695312 L 4.71875 2508.898438 L 69.53125 2508.898438 L 69.53125 2573.710938 L 80.757812 2573.710938 L 80.757812 2508.898438 L 256.289062 2508.898438 L 256.289062 2573.710938 L 267.492188 2573.710938 L 267.492188 2508.898438 L 443.023438 2508.898438 L 443.023438 2573.710938 L 454.203125 2573.710938 L 454.203125 2508.898438 L 629.757812 2508.898438 L 629.757812 2573.710938 L 640.9375 2573.710938 L 640.9375 2508.898438 L 816.46875 2508.898438 L 816.46875 2573.710938 L 827.652344 2573.710938 L 827.652344 2508.898438 L 1003.203125 2508.898438 L 1003.203125 2573.710938 L 1014.40625 2573.710938 L 1014.40625 2508.898438 L 1189.917969 2508.898438 L 1189.917969 2573.710938 L 1201.097656 2573.710938 L 1201.097656 2508.898438 L 1376.675781 2508.898438 L 1376.675781 2573.710938 L 1387.855469 2573.710938 L 1387.855469 2508.898438 L 1563.363281 2508.898438 L 1563.363281 2573.710938 L 1574.613281 2573.710938 L 1574.613281 2508.898438 L 1750.121094 2508.898438 L 1750.121094 2573.710938 L 1761.300781 2573.710938 L 1761.300781 2508.898438 L 1936.832031 2508.898438 L 1936.832031 2573.710938 L 1948.058594 2573.710938 L 1948.058594 2508.898438 L 2123.570312 2508.898438 L 2123.570312 2573.710938 L 2134.773438 2573.710938 L 2134.773438 2508.898438 L 2310.28125 2508.898438 L 2310.28125 2573.710938 L 2321.507812 2573.710938 L 2321.507812 2508.898438 L 2497.015625 2508.898438 L 2497.015625 2573.710938 L 2508.242188 2573.710938 L 2508.242188 2508.898438 L 2573.054688 2508.898438 L 2573.054688 2497.695312 L 2508.242188 2497.695312 L 2508.242188 2322.140625 L 2573.054688 2322.140625 L 2573.054688 2310.9375 L 2508.242188 2310.9375 L 2508.242188 2135.429688 L 2573.054688 2135.429688 L 2573.054688 2124.226562 L 2508.242188 2124.226562 L 2508.242188 1948.671875 L 2573.054688 1948.671875 L 2573.054688 1937.492188 L 2508.242188 1937.492188 L 2508.242188 1761.960938 L 2573.054688 1761.960938 L 2573.054688 1750.777344 L 2508.242188 1750.777344 L 2508.242188 1575.222656 L 2573.054688 1575.222656 L 2573.054688 1564.019531 L 2508.242188 1564.019531 L 2508.242188 1388.511719 L 2573.054688 1388.511719 L 2573.054688 1377.332031 L 2508.242188 1377.332031 L 2508.242188 1201.753906 L 2573.054688 1201.753906 L 2573.054688 1190.574219 L 2508.242188 1190.574219 L 2508.242188 1015.066406 L 2573.054688 1015.066406 L 2573.054688 1003.839844 L 2508.242188 1003.839844 L 2508.242188 828.308594 L 2573.054688 828.308594 L 2573.054688 817.125 L 2508.242188 817.125 L 2508.242188 641.59375 L 2573.054688 641.59375 L 2573.054688 630.371094 L 2508.242188 630.371094 L 2508.242188 454.859375 L 2573.054688 454.859375 L 2573.054688 443.65625 L 2508.242188 443.65625 L 2508.242188 268.148438 L 2573.054688 268.148438 L 2573.054688 256.921875 L 2508.242188 256.921875 L 2508.242188 81.414062 L 2573.054688 81.414062 L 2573.054688 70.1875 L 2508.242188 70.1875 L 2508.242188 5.375 L 2497.015625 5.375 L 2497.015625 70.1875 L 2321.507812 70.1875 L 2321.507812 5.375 L 2310.28125 5.375 L 2310.28125 70.1875 L 2134.773438 70.1875 L 2134.773438 5.375 L 2123.570312 5.375 L 2123.570312 70.1875 L 1948.058594 70.1875 L 1948.058594 5.375 L 1936.832031 5.375 L 1936.832031 70.1875 L 1761.300781 70.1875 L 1761.300781 5.375 L 1750.121094 5.375 L 1750.121094 70.1875 L 1574.613281 70.1875 L 1574.613281 5.375 L 1563.363281 5.375 L 1563.363281 70.1875 L 1387.855469 70.1875 L 1387.855469 5.375 L 1376.675781 5.375 L 1376.675781 70.1875 L 1201.097656 70.1875 L 1201.097656 5.375 L 1189.917969 5.375 L 1189.917969 70.1875 L 1014.40625 70.1875 L 1014.40625 5.375 L 1003.203125 5.375 L 1003.203125 70.1875 L 827.652344 70.1875 L 827.652344 5.375 L 816.46875 5.375 L 816.46875 70.1875 L 640.9375 70.1875 L 640.9375 5.375 L 629.757812 5.375 L 629.757812 70.1875 L 454.203125 70.1875 L 454.203125 5.375 L 443.023438 5.375 L 443.023438 70.1875 L 267.492188 70.1875 L 267.492188 5.375 L 256.289062 5.375 L 256.289062 70.1875 L 80.757812 70.1875 L 80.757812 5.375 Z M 80.757812 81.414062 L 256.289062 81.414062 L 256.289062 256.921875 L 80.757812 256.921875 Z M 267.492188 81.414062 L 443.023438 81.414062 L 443.023438 256.921875 L 267.492188 256.921875 Z M 454.203125 81.414062 L 629.757812 81.414062 L 629.757812 256.921875 L 454.203125 256.921875 Z M 640.9375 81.414062 L 816.46875 81.414062 L 816.46875 256.921875 L 640.9375 256.921875 Z M 827.652344 81.414062 L 1003.203125 81.414062 L 1003.203125 256.921875 L 827.652344 256.921875 Z M 1014.40625 81.414062 L 1189.917969 81.414062 L 1189.917969 256.921875 L 1014.40625 256.921875 Z M 1201.097656 81.414062 L 1376.675781 81.414062 L 1376.675781 256.921875 L 1201.097656 256.921875 Z M 1387.855469 81.414062 L 1563.363281 81.414062 L 1563.363281 256.921875 L 1387.855469 256.921875 Z M 1574.613281 81.414062 L 1750.121094 81.414062 L 1750.121094 256.921875 L 1574.613281 256.921875 Z M 1761.300781 81.414062 L 1936.832031 81.414062 L 1936.832031 256.921875 L 1761.300781 256.921875 Z M 1948.058594 81.414062 L 2123.570312 81.414062 L 2123.570312 256.921875 L 1948.058594 256.921875 Z M 2134.773438 81.414062 L 2310.28125 81.414062 L 2310.28125 256.921875 L 2134.773438 256.921875 Z M 2321.507812 81.414062 L 2497.015625 81.414062 L 2497.015625 256.921875 L 2321.507812 256.921875 Z M 80.757812 268.148438 L 256.289062 268.148438 L 256.289062 443.65625 L 80.757812 443.65625 Z M 267.492188 268.148438 L 443.023438 268.148438 L 443.023438 443.65625 L 267.492188 443.65625 Z M 454.203125 268.148438 L 629.757812 268.148438 L 629.757812 443.65625 L 454.203125 443.65625 Z M 640.9375 268.148438 L 816.46875 268.148438 L 816.46875 443.65625 L 640.9375 443.65625 Z M 827.652344 268.148438 L 1003.203125 268.148438 L 1003.203125 443.65625 L 827.652344 443.65625 Z M 1014.40625 268.148438 L 1189.917969 268.148438 L 1189.917969 443.65625 L 1014.40625 443.65625 Z M 1201.097656 268.148438 L 1376.675781 268.148438 L 1376.675781 443.65625 L 1201.097656 443.65625 Z M 1387.855469 268.148438 L 1563.363281 268.148438 L 1563.363281 443.65625 L 1387.855469 443.65625 Z M 1574.613281 268.148438 L 1750.121094 268.148438 L 1750.121094 443.65625 L 1574.613281 443.65625 Z M 1761.300781 268.148438 L 1936.832031 268.148438 L 1936.832031 443.65625 L 1761.300781 443.65625 Z M 1948.058594 268.148438 L 2123.570312 268.148438 L 2123.570312 443.65625 L 1948.058594 443.65625 Z M 2134.773438 268.148438 L 2310.28125 268.148438 L 2310.28125 443.65625 L 2134.773438 443.65625 Z M 2321.507812 268.148438 L 2497.015625 268.148438 L 2497.015625 443.65625 L 2321.507812 443.65625 Z M 80.757812 454.859375 L 256.289062 454.859375 L 256.289062 630.371094 L 80.757812 630.371094 Z M 267.492188 454.859375 L 443.023438 454.859375 L 443.023438 630.371094 L 267.492188 630.371094 Z M 454.203125 454.859375 L 629.757812 454.859375 L 629.757812 630.371094 L 454.203125 630.371094 Z M 640.9375 454.859375 L 816.46875 454.859375 L 816.46875 630.371094 L 640.9375 630.371094 Z M 827.652344 454.859375 L 1003.203125 454.859375 L 1003.203125 630.371094 L 827.652344 630.371094 Z M 1014.40625 454.859375 L 1189.917969 454.859375 L 1189.917969 630.371094 L 1014.40625 630.371094 Z M 1201.097656 454.859375 L 1376.675781 454.859375 L 1376.675781 630.371094 L 1201.097656 630.371094 Z M 1387.855469 454.859375 L 1563.363281 454.859375 L 1563.363281 630.371094 L 1387.855469 630.371094 Z M 1574.613281 454.859375 L 1750.121094 454.859375 L 1750.121094 630.371094 L 1574.613281 630.371094 Z M 1761.300781 454.859375 L 1936.832031 454.859375 L 1936.832031 630.371094 L 1761.300781 630.371094 Z M 1948.058594 454.859375 L 2123.570312 454.859375 L 2123.570312 630.371094 L 1948.058594 630.371094 Z M 2134.773438 454.859375 L 2310.28125 454.859375 L 2310.28125 630.371094 L 2134.773438 630.371094 Z M 2321.507812 454.859375 L 2497.015625 454.859375 L 2497.015625 630.371094 L 2321.507812 630.371094 Z M 80.757812 641.59375 L 256.289062 641.59375 L 256.289062 817.125 L 80.757812 817.125 Z M 267.492188 641.59375 L 443.023438 641.59375 L 443.023438 817.125 L 267.492188 817.125 Z M 454.203125 641.59375 L 629.757812 641.59375 L 629.757812 817.125 L 454.203125 817.125 Z M 640.9375 641.59375 L 816.46875 641.59375 L 816.46875 817.125 L 640.9375 817.125 Z M 827.652344 641.59375 L 1003.203125 641.59375 L 1003.203125 817.125 L 827.652344 817.125 Z M 1014.40625 641.59375 L 1189.917969 641.59375 L 1189.917969 817.125 L 1014.40625 817.125 Z M 1201.097656 641.59375 L 1376.675781 641.59375 L 1376.675781 817.125 L 1201.097656 817.125 Z M 1387.855469 641.59375 L 1563.363281 641.59375 L 1563.363281 817.125 L 1387.855469 817.125 Z M 1574.613281 641.59375 L 1750.121094 641.59375 L 1750.121094 817.125 L 1574.613281 817.125 Z M 1761.300781 641.59375 L 1936.832031 641.59375 L 1936.832031 817.125 L 1761.300781 817.125 Z M 1948.058594 641.59375 L 2123.570312 641.59375 L 2123.570312 817.125 L 1948.058594 817.125 Z M 2134.773438 641.59375 L 2310.28125 641.59375 L 2310.28125 817.125 L 2134.773438 817.125 Z M 2321.507812 641.59375 L 2497.015625 641.59375 L 2497.015625 817.125 L 2321.507812 817.125 Z M 80.757812 828.308594 L 256.289062 828.308594 L 256.289062 1003.839844 L 80.757812 1003.839844 Z M 267.492188 828.308594 L 443.023438 828.308594 L 443.023438 1003.839844 L 267.492188 1003.839844 Z M 454.203125 828.308594 L 629.757812 828.308594 L 629.757812 1003.839844 L 454.203125 1003.839844 Z M 640.9375 828.308594 L 816.46875 828.308594 L 816.46875 1003.839844 L 640.9375 1003.839844 Z M 827.652344 828.308594 L 1003.203125 828.308594 L 1003.203125 1003.839844 L 827.652344 1003.839844 Z M 1014.40625 828.308594 L 1189.917969 828.308594 L 1189.917969 1003.839844 L 1014.40625 1003.839844 Z M 1201.097656 828.308594 L 1376.675781 828.308594 L 1376.675781 1003.839844 L 1201.097656 1003.839844 Z M 1387.855469 828.308594 L 1563.363281 828.308594 L 1563.363281 1003.839844 L 1387.855469 1003.839844 Z M 1574.613281 828.308594 L 1750.121094 828.308594 L 1750.121094 1003.839844 L 1574.613281 1003.839844 Z M 1761.300781 828.308594 L 1936.832031 828.308594 L 1936.832031 1003.839844 L 1761.300781 1003.839844 Z M 1948.058594 828.308594 L 2123.570312 828.308594 L 2123.570312 1003.839844 L 1948.058594 1003.839844 Z M 2134.773438 828.308594 L 2310.28125 828.308594 L 2310.28125 1003.839844 L 2134.773438 1003.839844 Z M 2321.507812 828.308594 L 2497.015625 828.308594 L 2497.015625 1003.839844 L 2321.507812 1003.839844 Z M 80.757812 1015.066406 L 256.289062 1015.066406 L 256.289062 1190.574219 L 80.757812 1190.574219 Z M 267.492188 1015.066406 L 443.023438 1015.066406 L 443.023438 1190.574219 L 267.492188 1190.574219 Z M 454.203125 1015.066406 L 629.757812 1015.066406 L 629.757812 1190.574219 L 454.203125 1190.574219 Z M 640.9375 1015.066406 L 816.46875 1015.066406 L 816.46875 1190.574219 L 640.9375 1190.574219 Z M 827.652344 1015.066406 L 1003.203125 1015.066406 L 1003.203125 1190.574219 L 827.652344 1190.574219 Z M 1014.40625 1015.066406 L 1189.917969 1015.066406 L 1189.917969 1190.574219 L 1014.40625 1190.574219 Z M 1201.097656 1015.066406 L 1376.675781 1015.066406 L 1376.675781 1190.574219 L 1201.097656 1190.574219 Z M 1387.855469 1015.066406 L 1563.363281 1015.066406 L 1563.363281 1190.574219 L 1387.855469 1190.574219 Z M 1574.613281 1015.066406 L 1750.121094 1015.066406 L 1750.121094 1190.574219 L 1574.613281 1190.574219 Z M 1761.300781 1015.066406 L 1936.832031 1015.066406 L 1936.832031 1190.574219 L 1761.300781 1190.574219 Z M 1948.058594 1015.066406 L 2123.570312 1015.066406 L 2123.570312 1190.574219 L 1948.058594 1190.574219 Z M 2134.773438 1015.066406 L 2310.28125 1015.066406 L 2310.28125 1190.574219 L 2134.773438 1190.574219 Z M 2321.507812 1015.066406 L 2497.015625 1015.066406 L 2497.015625 1190.574219 L 2321.507812 1190.574219 Z M 80.757812 1201.753906 L 256.289062 1201.753906 L 256.289062 1377.332031 L 80.757812 1377.332031 Z M 267.492188 1201.753906 L 443.023438 1201.753906 L 443.023438 1377.332031 L 267.492188 1377.332031 Z M 454.203125 1201.753906 L 629.757812 1201.753906 L 629.757812 1377.332031 L 454.203125 1377.332031 Z M 640.9375 1201.753906 L 816.46875 1201.753906 L 816.46875 1377.332031 L 640.9375 1377.332031 Z M 827.652344 1201.753906 L 1003.203125 1201.753906 L 1003.203125 1377.332031 L 827.652344 1377.332031 Z M 1014.40625 1201.753906 L 1189.917969 1201.753906 L 1189.917969 1377.332031 L 1014.40625 1377.332031 Z M 1201.097656 1201.753906 L 1376.675781 1201.753906 L 1376.675781 1377.332031 L 1201.097656 1377.332031 Z M 1387.855469 1201.753906 L 1563.363281 1201.753906 L 1563.363281 1377.332031 L 1387.855469 1377.332031 Z M 1574.613281 1201.753906 L 1750.121094 1201.753906 L 1750.121094 1377.332031 L 1574.613281 1377.332031 Z M 1761.300781 1201.753906 L 1936.832031 1201.753906 L 1936.832031 1377.332031 L 1761.300781 1377.332031 Z M 1948.058594 1201.753906 L 2123.570312 1201.753906 L 2123.570312 1377.332031 L 1948.058594 1377.332031 Z M 2134.773438 1201.753906 L 2310.28125 1201.753906 L 2310.28125 1377.332031 L 2134.773438 1377.332031 Z M 2321.507812 1201.753906 L 2497.015625 1201.753906 L 2497.015625 1377.332031 L 2321.507812 1377.332031 Z M 80.757812 1388.511719 L 256.289062 1388.511719 L 256.289062 1564.019531 L 80.757812 1564.019531 Z M 267.492188 1388.511719 L 443.023438 1388.511719 L 443.023438 1564.019531 L 267.492188 1564.019531 Z M 454.203125 1388.511719 L 629.757812 1388.511719 L 629.757812 1564.019531 L 454.203125 1564.019531 Z M 640.9375 1388.511719 L 816.46875 1388.511719 L 816.46875 1564.019531 L 640.9375 1564.019531 Z M 827.652344 1388.511719 L 1003.203125 1388.511719 L 1003.203125 1564.019531 L 827.652344 1564.019531 Z M 1014.40625 1388.511719 L 1189.917969 1388.511719 L 1189.917969 1564.019531 L 1014.40625 1564.019531 Z M 1201.097656 1388.511719 L 1376.675781 1388.511719 L 1376.675781 1564.019531 L 1201.097656 1564.019531 Z M 1387.855469 1388.511719 L 1563.363281 1388.511719 L 1563.363281 1564.019531 L 1387.855469 1564.019531 Z M 1574.613281 1388.511719 L 1750.121094 1388.511719 L 1750.121094 1564.019531 L 1574.613281 1564.019531 Z M 1761.300781 1388.511719 L 1936.832031 1388.511719 L 1936.832031 1564.019531 L 1761.300781 1564.019531 Z M 1948.058594 1388.511719 L 2123.570312 1388.511719 L 2123.570312 1564.019531 L 1948.058594 1564.019531 Z M 2134.773438 1388.511719 L 2310.28125 1388.511719 L 2310.28125 1564.019531 L 2134.773438 1564.019531 Z M 2321.507812 1388.511719 L 2497.015625 1388.511719 L 2497.015625 1564.019531 L 2321.507812 1564.019531 Z M 80.757812 1575.222656 L 256.289062 1575.222656 L 256.289062 1750.777344 L 80.757812 1750.777344 Z M 267.492188 1575.222656 L 443.023438 1575.222656 L 443.023438 1750.777344 L 267.492188 1750.777344 Z M 454.203125 1575.222656 L 629.757812 1575.222656 L 629.757812 1750.777344 L 454.203125 1750.777344 Z M 640.9375 1575.222656 L 816.46875 1575.222656 L 816.46875 1750.777344 L 640.9375 1750.777344 Z M 827.652344 1575.222656 L 1003.203125 1575.222656 L 1003.203125 1750.777344 L 827.652344 1750.777344 Z M 1014.40625 1575.222656 L 1189.917969 1575.222656 L 1189.917969 1750.777344 L 1014.40625 1750.777344 Z M 1201.097656 1575.222656 L 1376.675781 1575.222656 L 1376.675781 1750.777344 L 1201.097656 1750.777344 Z M 1387.855469 1575.222656 L 1563.363281 1575.222656 L 1563.363281 1750.777344 L 1387.855469 1750.777344 Z M 1574.613281 1575.222656 L 1750.121094 1575.222656 L 1750.121094 1750.777344 L 1574.613281 1750.777344 Z M 1761.300781 1575.222656 L 1936.832031 1575.222656 L 1936.832031 1750.777344 L 1761.300781 1750.777344 Z M 1948.058594 1575.222656 L 2123.570312 1575.222656 L 2123.570312 1750.777344 L 1948.058594 1750.777344 Z M 2134.773438 1575.222656 L 2310.28125 1575.222656 L 2310.28125 1750.777344 L 2134.773438 1750.777344 Z M 2321.507812 1575.222656 L 2497.015625 1575.222656 L 2497.015625 1750.777344 L 2321.507812 1750.777344 Z M 80.757812 1761.960938 L 256.289062 1761.960938 L 256.289062 1937.492188 L 80.757812 1937.492188 Z M 267.492188 1761.960938 L 443.023438 1761.960938 L 443.023438 1937.492188 L 267.492188 1937.492188 Z M 454.203125 1761.960938 L 629.757812 1761.960938 L 629.757812 1937.492188 L 454.203125 1937.492188 Z M 640.9375 1761.960938 L 816.46875 1761.960938 L 816.46875 1937.492188 L 640.9375 1937.492188 Z M 827.652344 1761.960938 L 1003.203125 1761.960938 L 1003.203125 1937.492188 L 827.652344 1937.492188 Z M 1014.40625 1761.960938 L 1189.917969 1761.960938 L 1189.917969 1937.492188 L 1014.40625 1937.492188 Z M 1201.097656 1761.960938 L 1376.675781 1761.960938 L 1376.675781 1937.492188 L 1201.097656 1937.492188 Z M 1387.855469 1761.960938 L 1563.363281 1761.960938 L 1563.363281 1937.492188 L 1387.855469 1937.492188 Z M 1574.613281 1761.960938 L 1750.121094 1761.960938 L 1750.121094 1937.492188 L 1574.613281 1937.492188 Z M 1761.300781 1761.960938 L 1936.832031 1761.960938 L 1936.832031 1937.492188 L 1761.300781 1937.492188 Z M 1948.058594 1761.960938 L 2123.570312 1761.960938 L 2123.570312 1937.492188 L 1948.058594 1937.492188 Z M 2134.773438 1761.960938 L 2310.28125 1761.960938 L 2310.28125 1937.492188 L 2134.773438 1937.492188 Z M 2321.507812 1761.960938 L 2497.015625 1761.960938 L 2497.015625 1937.492188 L 2321.507812 1937.492188 Z M 80.757812 1948.671875 L 256.289062 1948.671875 L 256.289062 2124.226562 L 80.757812 2124.226562 Z M 267.492188 1948.671875 L 443.023438 1948.671875 L 443.023438 2124.226562 L 267.492188 2124.226562 Z M 454.203125 1948.671875 L 629.757812 1948.671875 L 629.757812 2124.226562 L 454.203125 2124.226562 Z M 640.9375 1948.671875 L 816.46875 1948.671875 L 816.46875 2124.226562 L 640.9375 2124.226562 Z M 827.652344 1948.671875 L 1003.203125 1948.671875 L 1003.203125 2124.226562 L 827.652344 2124.226562 Z M 1014.40625 1948.671875 L 1189.917969 1948.671875 L 1189.917969 2124.226562 L 1014.40625 2124.226562 Z M 1201.097656 1948.671875 L 1376.675781 1948.671875 L 1376.675781 2124.226562 L 1201.097656 2124.226562 Z M 1387.855469 1948.671875 L 1563.363281 1948.671875 L 1563.363281 2124.226562 L 1387.855469 2124.226562 Z M 1574.613281 1948.671875 L 1750.121094 1948.671875 L 1750.121094 2124.226562 L 1574.613281 2124.226562 Z M 1761.300781 1948.671875 L 1936.832031 1948.671875 L 1936.832031 2124.226562 L 1761.300781 2124.226562 Z M 1948.058594 1948.671875 L 2123.570312 1948.671875 L 2123.570312 2124.226562 L 1948.058594 2124.226562 Z M 2134.773438 1948.671875 L 2310.28125 1948.671875 L 2310.28125 2124.226562 L 2134.773438 2124.226562 Z M 2321.507812 1948.671875 L 2497.015625 1948.671875 L 2497.015625 2124.226562 L 2321.507812 2124.226562 Z M 80.757812 2135.429688 L 256.289062 2135.429688 L 256.289062 2310.9375 L 80.757812 2310.9375 Z M 267.492188 2135.429688 L 443.023438 2135.429688 L 443.023438 2310.9375 L 267.492188 2310.9375 Z M 454.203125 2135.429688 L 629.757812 2135.429688 L 629.757812 2310.9375 L 454.203125 2310.9375 Z M 640.9375 2135.429688 L 816.46875 2135.429688 L 816.46875 2310.9375 L 640.9375 2310.9375 Z M 827.652344 2135.429688 L 1003.203125 2135.429688 L 1003.203125 2310.9375 L 827.652344 2310.9375 Z M 1014.40625 2135.429688 L 1189.917969 2135.429688 L 1189.917969 2310.9375 L 1014.40625 2310.9375 Z M 1201.097656 2135.429688 L 1376.675781 2135.429688 L 1376.675781 2310.9375 L 1201.097656 2310.9375 Z M 1387.855469 2135.429688 L 1563.363281 2135.429688 L 1563.363281 2310.9375 L 1387.855469 2310.9375 Z M 1574.613281 2135.429688 L 1750.121094 2135.429688 L 1750.121094 2310.9375 L 1574.613281 2310.9375 Z M 1761.300781 2135.429688 L 1936.832031 2135.429688 L 1936.832031 2310.9375 L 1761.300781 2310.9375 Z M 1948.058594 2135.429688 L 2123.570312 2135.429688 L 2123.570312 2310.9375 L 1948.058594 2310.9375 Z M 2134.773438 2135.429688 L 2310.28125 2135.429688 L 2310.28125 2310.9375 L 2134.773438 2310.9375 Z M 2321.507812 2135.429688 L 2497.015625 2135.429688 L 2497.015625 2310.9375 L 2321.507812 2310.9375 Z M 80.757812 2322.140625 L 256.289062 2322.140625 L 256.289062 2497.695312 L 80.757812 2497.695312 Z M 267.492188 2322.140625 L 443.023438 2322.140625 L 443.023438 2497.695312 L 267.492188 2497.695312 Z M 454.203125 2322.140625 L 629.757812 2322.140625 L 629.757812 2497.695312 L 454.203125 2497.695312 Z M 640.9375 2322.140625 L 816.46875 2322.140625 L 816.46875 2497.695312 L 640.9375 2497.695312 Z M 827.652344 2322.140625 L 1003.203125 2322.140625 L 1003.203125 2497.695312 L 827.652344 2497.695312 Z M 1014.40625 2322.140625 L 1189.917969 2322.140625 L 1189.917969 2497.695312 L 1014.40625 2497.695312 Z M 1201.097656 2322.140625 L 1376.675781 2322.140625 L 1376.675781 2497.695312 L 1201.097656 2497.695312 Z M 1387.855469 2322.140625 L 1563.363281 2322.140625 L 1563.363281 2497.695312 L 1387.855469 2497.695312 Z M 1574.613281 2322.140625 L 1750.121094 2322.140625 L 1750.121094 2497.695312 L 1574.613281 2497.695312 Z M 1761.300781 2322.140625 L 1936.832031 2322.140625 L 1936.832031 2497.695312 L 1761.300781 2497.695312 Z M 1948.058594 2322.140625 L 2123.570312 2322.140625 L 2123.570312 2497.695312 L 1948.058594 2497.695312 Z M 2134.773438 2322.140625 L 2310.28125 2322.140625 L 2310.28125 2497.695312 L 2134.773438 2497.695312 Z M 2321.507812 2322.140625 L 2497.015625 2322.140625 L 2497.015625 2497.695312 L 2321.507812 2497.695312 Z M 2321.507812 2322.140625 " fill-opacity="1" fill-rule="nonzero"/></g></g></g></g></svg>