<svg xmlns="http://www.w3.org/2000/svg" xmlns:xlink="http://www.w3.org/1999/xlink" width="6912" zoomAndPan="magnify" viewBox="0 0 5184 2592.000001" height="3456" preserveAspectRatio="xMidYMid meet" version="1.0"><defs><clipPath id="136bc681ed"><path d="M 1758.460938 403.089844 L 3425.625 403.089844 L 3425.625 1964.828125 L 1758.460938 1964.828125 Z M 1758.460938 403.089844 " clip-rule="nonzero"/></clipPath><clipPath id="9bf4a501b5"><path d="M 2871.738281 1953.507812 L 2875.789062 1953.507812 L 2875.789062 1951.960938 C 2874.457031 1952.476562 2873.070312 1952.992188 2871.738281 1953.507812 Z M 3181.441406 647.296875 C 3024.015625 489.855469 2814.742188 403.089844 2592.074219 403.089844 C 2369.421875 403.089844 2160.070312 489.855469 2002.648438 647.296875 C 1845.222656 804.71875 1758.460938 1014.105469 1758.460938 1236.777344 C 1758.460938 1459.449219 1845.222656 1668.753906 2002.648438 1826.191406 C 2057.742188 1881.375 2119.222656 1927.789062 2185.417969 1964.828125 C 2188.714844 1942.488281 2196.351562 1921.628906 2207.449219 1903.039062 C 1977.59375 1769.996094 1822.964844 1521.464844 1822.964844 1236.777344 C 1822.964844 811.921875 2167.261719 467.597656 2592.074219 467.597656 C 3016.828125 467.597656 3361.121094 811.921875 3361.121094 1236.777344 C 3361.121094 1521.464844 3206.496094 1769.996094 2976.636719 1903.039062 C 2987.734375 1921.628906 2995.375 1942.488281 2998.671875 1964.828125 C 3064.863281 1927.789062 3126.28125 1881.375 3181.441406 1826.191406 C 3338.945312 1668.753906 3425.625 1459.449219 3425.625 1236.777344 C 3425.625 1014.105469 3338.945312 804.71875 3181.441406 647.296875 Z M 3181.441406 647.296875 " clip-rule="nonzero"/></clipPath><clipPath id="bf56385a91"><path d="M 2871.738281 1953.507812 L 2875.789062 1953.507812 L 2875.789062 1951.960938 C 2874.457031 1952.476562 2873.070312 1952.992188 2871.738281 1953.507812 Z M 3181.441406 647.296875 C 3024.015625 489.855469 2814.742188 403.089844 2592.074219 403.089844 C 2369.421875 403.089844 2160.070312 489.855469 2002.648438 647.296875 C 1845.222656 804.71875 1758.460938 1014.105469 1758.460938 1236.777344 C 1758.460938 1459.449219 1845.222656 1668.753906 2002.648438 1826.191406 C 2057.742188 1881.375 2119.222656 1927.789062 2185.417969 1964.828125 C 2188.714844 1942.488281 2196.351562 1921.628906 2207.449219 1903.039062 C 1977.59375 1769.996094 1822.964844 1521.464844 1822.964844 1236.777344 C 1822.964844 811.921875 2167.261719 467.597656 2592.074219 467.597656 C 3016.828125 467.597656 3361.121094 811.921875 3361.121094 1236.777344 C 3361.121094 1521.464844 3206.496094 1769.996094 2976.636719 1903.039062 C 2987.734375 1921.628906 2995.375 1942.488281 2998.671875 1964.828125 C 3064.863281 1927.789062 3126.28125 1881.375 3181.441406 1826.191406 C 3338.945312 1668.753906 3425.625 1459.449219 3425.625 1236.777344 C 3425.625 1014.105469 3338.945312 804.71875 3181.441406 647.296875 " clip-rule="nonzero"/></clipPath><linearGradient x1="0.016996" gradientTransform="matrix(0, 1841.763944, -1841.601406, 0, 2592.043483, 371.786064)" y1="0" x2="0.864955" gradientUnits="userSpaceOnUse" y2="0" id="06ec2e6a8c"><stop stop-opacity="1" stop-color="rgb(92.89856%, 8.999634%, 34.899902%)" offset="0"/><stop stop-opacity="1" stop-color="rgb(92.89856%, 8.999634%, 34.896851%)" offset="0.03125"/><stop stop-opacity="1" stop-color="rgb(92.89856%, 8.999634%, 34.698486%)" offset="0.046875"/><stop stop-opacity="1" stop-color="rgb(92.89856%, 9.19342%, 34.500122%)" offset="0.0625"/><stop stop-opacity="1" stop-color="rgb(92.89856%, 9.393311%, 34.49707%)" offset="0.078125"/><stop stop-opacity="1" stop-color="rgb(92.89856%, 9.399414%, 34.301758%)" offset="0.09375"/><stop stop-opacity="1" stop-color="rgb(92.89856%, 9.399414%, 34.101868%)" offset="0.125"/><stop stop-opacity="1" stop-color="rgb(92.89856%, 9.204102%, 33.903503%)" offset="0.140625"/><stop stop-opacity="1" stop-color="rgb(92.89856%, 9.004211%, 33.69751%)" offset="0.15625"/><stop stop-opacity="1" stop-color="rgb(92.89856%, 8.999634%, 33.493042%)" offset="0.1875"/><stop stop-opacity="1" stop-color="rgb(92.89856%, 8.999634%, 33.201599%)" offset="0.195313"/><stop stop-opacity="1" stop-color="rgb(92.89856%, 9.00116%, 33.001709%)" offset="0.203125"/><stop stop-opacity="1" stop-color="rgb(92.89856%, 9.199524%, 32.899475%)" offset="0.210938"/><stop stop-opacity="1" stop-color="rgb(92.89856%, 9.396362%, 32.899475%)" offset="0.21875"/><stop stop-opacity="1" stop-color="rgb(92.89856%, 9.399414%, 32.899475%)" offset="0.226563"/><stop stop-opacity="1" stop-color="rgb(92.89856%, 9.399414%, 32.699585%)" offset="0.230469"/><stop stop-opacity="1" stop-color="rgb(92.89856%, 9.399414%, 32.499695%)" offset="0.234375"/><stop stop-opacity="1" stop-color="rgb(92.89856%, 9.399414%, 32.499695%)" offset="0.25"/><stop stop-opacity="1" stop-color="rgb(92.89856%, 9.399414%, 32.499695%)" offset="0.265625"/><stop stop-opacity="1" stop-color="rgb(92.89856%, 9.300232%, 32.499695%)" offset="0.273437"/><stop stop-opacity="1" stop-color="rgb(92.89856%, 9.100342%, 32.496643%)" offset="0.28125"/><stop stop-opacity="1" stop-color="rgb(92.89856%, 8.999634%, 32.347107%)" offset="0.3125"/><stop stop-opacity="1" stop-color="rgb(92.89856%, 8.999634%, 32.197571%)" offset="0.328125"/><stop stop-opacity="1" stop-color="rgb(92.89856%, 8.999634%, 32.000732%)" offset="0.34375"/><stop stop-opacity="1" stop-color="rgb(92.89856%, 8.898926%, 31.802368%)" offset="0.351562"/><stop stop-opacity="1" stop-color="rgb(92.89856%, 8.699036%, 31.794739%)" offset="0.359375"/><stop stop-opacity="1" stop-color="rgb(92.89856%, 8.599854%, 31.594849%)" offset="0.375"/><stop stop-opacity="1" stop-color="rgb(92.89856%, 8.599854%, 31.211853%)" offset="0.4375"/><stop stop-opacity="1" stop-color="rgb(92.89856%, 8.398438%, 31.011963%)" offset="0.441406"/><stop stop-opacity="1" stop-color="rgb(92.89856%, 8.198547%, 30.999756%)" offset="0.445312"/><stop stop-opacity="1" stop-color="rgb(92.89856%, 8.198547%, 30.99823%)" offset="0.453125"/><stop stop-opacity="1" stop-color="rgb(92.89856%, 8.198547%, 30.801392%)" offset="0.46875"/><stop stop-opacity="1" stop-color="rgb(92.89856%, 8.198547%, 30.603027%)" offset="0.5"/><stop stop-opacity="1" stop-color="rgb(92.89856%, 8.39386%, 30.404663%)" offset="0.515625"/><stop stop-opacity="1" stop-color="rgb(92.89856%, 8.59375%, 30.201721%)" offset="0.53125"/><stop stop-opacity="1" stop-color="rgb(92.89856%, 8.599854%, 29.998779%)" offset="0.546875"/><stop stop-opacity="1" stop-color="rgb(92.89856%, 8.406067%, 29.800415%)" offset="0.5625"/><stop stop-opacity="1" stop-color="rgb(92.89856%, 8.204651%, 29.79126%)" offset="0.570312"/><stop stop-opacity="1" stop-color="rgb(92.89856%, 8.198547%, 29.59137%)" offset="0.578125"/><stop stop-opacity="1" stop-color="rgb(92.89856%, 8.198547%, 29.399109%)" offset="0.59375"/><stop stop-opacity="1" stop-color="rgb(92.89856%, 8.198547%, 29.394531%)" offset="0.609375"/><stop stop-opacity="1" stop-color="rgb(92.89856%, 8.198547%, 29.194641%)" offset="0.625"/><stop stop-opacity="1" stop-color="rgb(92.89856%, 8.198547%, 28.999329%)" offset="0.640625"/><stop stop-opacity="1" stop-color="rgb(92.89856%, 8.198547%, 28.900146%)" offset="0.648437"/><stop stop-opacity="1" stop-color="rgb(92.89856%, 8.198547%, 28.700256%)" offset="0.65625"/><stop stop-opacity="1" stop-color="rgb(92.89856%, 8.004761%, 28.599548%)" offset="0.6875"/><stop stop-opacity="1" stop-color="rgb(92.89856%, 7.804871%, 28.501892%)" offset="0.695312"/><stop stop-opacity="1" stop-color="rgb(92.89856%, 7.798767%, 28.302002%)" offset="0.703125"/><stop stop-opacity="1" stop-color="rgb(92.89856%, 7.798767%, 28.199768%)" offset="0.71875"/><stop stop-opacity="1" stop-color="rgb(92.89856%, 7.795715%, 28.19519%)" offset="0.734375"/><stop stop-opacity="1" stop-color="rgb(92.89856%, 7.646179%, 27.9953%)" offset="0.75"/><stop stop-opacity="1" stop-color="rgb(92.895508%, 7.499695%, 27.796936%)" offset="0.78125"/><stop stop-opacity="1" stop-color="rgb(92.698669%, 7.499695%, 27.648926%)" offset="0.796875"/><stop stop-opacity="1" stop-color="rgb(92.500305%, 7.499695%, 27.500916%)" offset="0.8125"/><stop stop-opacity="1" stop-color="rgb(92.349243%, 7.499695%, 27.497864%)" offset="0.828125"/><stop stop-opacity="1" stop-color="rgb(92.199707%, 7.499695%, 27.302551%)" offset="0.84375"/><stop stop-opacity="1" stop-color="rgb(92.098999%, 7.574463%, 27.102661%)" offset="0.851562"/><stop stop-opacity="1" stop-color="rgb(91.899109%, 7.723999%, 27.099609%)" offset="0.859375"/><stop stop-opacity="1" stop-color="rgb(91.799927%, 7.798767%, 27.099609%)" offset="0.875"/><stop stop-opacity="1" stop-color="rgb(91.604614%, 7.798767%, 26.904297%)" offset="0.890625"/><stop stop-opacity="1" stop-color="rgb(91.394043%, 7.798767%, 26.704407%)" offset="0.898437"/><stop stop-opacity="1" stop-color="rgb(91.189575%, 7.798767%, 26.693726%)" offset="0.90625"/><stop stop-opacity="1" stop-color="rgb(90.803528%, 7.798767%, 26.493835%)" offset="0.921875"/><stop stop-opacity="1" stop-color="rgb(90.603638%, 7.991028%, 26.298523%)" offset="0.9375"/><stop stop-opacity="1" stop-color="rgb(90.501404%, 8.190918%, 26.298523%)" offset="0.945312"/><stop stop-opacity="1" stop-color="rgb(90.301514%, 8.198547%, 26.296997%)" offset="0.953125"/><stop stop-opacity="1" stop-color="rgb(90.19928%, 8.198547%, 26.101685%)" offset="0.96875"/><stop stop-opacity="1" stop-color="rgb(90.098572%, 8.198547%, 25.901794%)" offset="0.976563"/><stop stop-opacity="1" stop-color="rgb(89.898682%, 8.198547%, 25.898743%)" offset="0.984375"/><stop stop-opacity="1" stop-color="rgb(89.7995%, 8.198547%, 25.898743%)" offset="1"/></linearGradient><clipPath id="6a6dd2fa1f"><path d="M 2235.140625 1871.515625 L 2948.945312 1871.515625 L 2948.945312 2188.160156 L 2235.140625 2188.160156 Z M 2235.140625 1871.515625 " clip-rule="nonzero"/></clipPath><clipPath id="37367bb7bf"><path d="M 2875.789062 1953.507812 L 2790.941406 1953.507812 L 2790.941406 2016.101562 L 2867.042969 2016.101562 L 2867.042969 2041.898438 L 2790.941406 2041.898438 L 2790.941406 2105.960938 L 2875.789062 2105.960938 L 2875.789062 2133.140625 L 2757.589844 2133.140625 L 2757.589844 1926.632812 L 2875.789062 1926.632812 Z M 2691.765625 1999.570312 L 2667.371094 2067.023438 L 2643.503906 2133.140625 L 2600.824219 2133.140625 L 2578.195312 2070.253906 L 2554.765625 2005.003906 L 2526.558594 1926.632812 L 2562.773438 1926.632812 L 2590.386719 2005.96875 L 2612.726562 2070.175781 L 2622.195312 2097.433594 L 2631.957031 2069.433594 L 2655.035156 2003.316406 L 2681.84375 1926.632812 L 2718.140625 1926.632812 Z M 2487.03125 2133.140625 L 2453.691406 2133.140625 L 2453.691406 1926.632812 L 2487.03125 1926.632812 Z M 2413.054688 2133.140625 L 2308.3125 2133.140625 L 2308.3125 1926.632812 L 2341.667969 1926.632812 L 2341.667969 2107.132812 L 2413.054688 2107.132812 Z M 2931.09375 1927.273438 C 2910.15625 1893.773438 2873.070312 1871.515625 2830.679688 1871.515625 L 2353.40625 1871.515625 C 2311.015625 1871.515625 2273.929688 1893.773438 2252.992188 1927.273438 C 2241.671875 1945.433594 2235.140625 1966.886719 2235.140625 1989.804688 L 2235.140625 2069.882812 C 2235.140625 2135.261719 2288.113281 2188.160156 2353.40625 2188.160156 L 2830.679688 2188.160156 C 2895.972656 2188.160156 2948.945312 2135.261719 2948.945312 2069.882812 L 2948.945312 1989.804688 C 2948.945312 1966.886719 2942.417969 1945.433594 2931.09375 1927.273438 Z M 2931.09375 1927.273438 " clip-rule="nonzero"/></clipPath><clipPath id="1f385842a7"><path d="M 2875.789062 1953.507812 L 2790.941406 1953.507812 L 2790.941406 2016.101562 L 2867.042969 2016.101562 L 2867.042969 2041.898438 L 2790.941406 2041.898438 L 2790.941406 2105.960938 L 2875.789062 2105.960938 L 2875.789062 2133.140625 L 2757.589844 2133.140625 L 2757.589844 1926.632812 L 2875.789062 1926.632812 Z M 2691.765625 1999.570312 L 2667.371094 2067.023438 L 2643.503906 2133.140625 L 2600.824219 2133.140625 L 2578.195312 2070.253906 L 2554.765625 2005.003906 L 2526.558594 1926.632812 L 2562.773438 1926.632812 L 2590.386719 2005.96875 L 2612.726562 2070.175781 L 2622.195312 2097.433594 L 2631.957031 2069.433594 L 2655.035156 2003.316406 L 2681.84375 1926.632812 L 2718.140625 1926.632812 Z M 2487.03125 2133.140625 L 2453.691406 2133.140625 L 2453.691406 1926.632812 L 2487.03125 1926.632812 Z M 2413.054688 2133.140625 L 2308.3125 2133.140625 L 2308.3125 1926.632812 L 2341.667969 1926.632812 L 2341.667969 2107.132812 L 2413.054688 2107.132812 Z M 2931.09375 1927.273438 C 2910.15625 1893.773438 2873.070312 1871.515625 2830.679688 1871.515625 L 2353.40625 1871.515625 C 2311.015625 1871.515625 2273.929688 1893.773438 2252.992188 1927.273438 C 2241.671875 1945.433594 2235.140625 1966.886719 2235.140625 1989.804688 L 2235.140625 2069.882812 C 2235.140625 2135.261719 2288.113281 2188.160156 2353.40625 2188.160156 L 2830.679688 2188.160156 C 2895.972656 2188.160156 2948.945312 2135.261719 2948.945312 2069.882812 L 2948.945312 1989.804688 C 2948.945312 1966.886719 2942.417969 1945.433594 2931.09375 1927.273438 " clip-rule="nonzero"/></clipPath><linearGradient x1="0.814289" gradientTransform="matrix(0, 1841.763944, -1841.601406, 0, 2592.043483, 371.786064)" y1="0" x2="0.986214" gradientUnits="userSpaceOnUse" y2="0" id="4a8dd676f2"><stop stop-opacity="1" stop-color="rgb(90.588379%, 8.198547%, 26.298523%)" offset="0"/><stop stop-opacity="1" stop-color="rgb(90.393066%, 8.198547%, 26.295471%)" offset="0.0625"/><stop stop-opacity="1" stop-color="rgb(90.19928%, 8.198547%, 26.191711%)" offset="0.09375"/><stop stop-opacity="1" stop-color="rgb(90.193176%, 8.198547%, 25.994873%)" offset="0.125"/><stop stop-opacity="1" stop-color="rgb(89.993286%, 8.198547%, 25.898743%)" offset="0.25"/><stop stop-opacity="1" stop-color="rgb(89.794922%, 8.198547%, 25.898743%)" offset="0.375"/><stop stop-opacity="1" stop-color="rgb(89.595032%, 8.201599%, 25.895691%)" offset="0.4375"/><stop stop-opacity="1" stop-color="rgb(89.399719%, 8.306885%, 25.791931%)" offset="0.46875"/><stop stop-opacity="1" stop-color="rgb(89.395142%, 8.503723%, 25.595093%)" offset="0.5"/><stop stop-opacity="1" stop-color="rgb(89.195251%, 8.599854%, 25.498962%)" offset="0.5625"/><stop stop-opacity="1" stop-color="rgb(88.996887%, 8.599854%, 25.495911%)" offset="0.625"/><stop stop-opacity="1" stop-color="rgb(88.894653%, 8.599854%, 25.393677%)" offset="0.6875"/><stop stop-opacity="1" stop-color="rgb(88.696289%, 8.599854%, 25.196838%)" offset="0.75"/><stop stop-opacity="1" stop-color="rgb(88.595581%, 8.599854%, 25.099182%)" offset="0.8125"/><stop stop-opacity="1" stop-color="rgb(88.493347%, 8.599854%, 25.099182%)" offset="0.84375"/><stop stop-opacity="1" stop-color="rgb(88.294983%, 8.599854%, 25.099182%)" offset="0.875"/><stop stop-opacity="1" stop-color="rgb(88.198853%, 8.599854%, 25.09613%)" offset="0.9375"/><stop stop-opacity="1" stop-color="rgb(88.198853%, 8.599854%, 24.993896%)" offset="0.96875"/><stop stop-opacity="1" stop-color="rgb(88.198853%, 8.599854%, 24.795532%)" offset="1"/></linearGradient><clipPath id="85f4324496"><path d="M 2871.738281 1951.960938 L 2875.789062 1951.960938 L 2875.789062 1953.507812 L 2871.738281 1953.507812 Z M 2871.738281 1951.960938 " clip-rule="nonzero"/></clipPath><clipPath id="fa0bfc13d9"><path d="M 2875.789062 1951.960938 L 2875.789062 1953.507812 L 2871.738281 1953.507812 C 2873.070312 1952.992188 2874.457031 1952.476562 2875.789062 1951.960938 Z M 2875.789062 1951.960938 " clip-rule="nonzero"/></clipPath><clipPath id="f885663d10"><path d="M 2875.789062 1951.960938 L 2875.789062 1953.507812 L 2871.738281 1953.507812 C 2873.070312 1952.992188 2874.457031 1952.476562 2875.789062 1951.960938 " clip-rule="nonzero"/></clipPath></defs><g clip-path="url(#136bc681ed)"><g clip-path="url(#9bf4a501b5)"><g clip-path="url(#bf56385a91)"><path fill="url(#06ec2e6a8c)" d="M 3425.625 403.089844 L 1758.460938 403.089844 L 1758.460938 1964.828125 L 3425.625 1964.828125 Z M 3425.625 403.089844 " fill-rule="nonzero"/></g></g></g><g clip-path="url(#6a6dd2fa1f)"><g clip-path="url(#37367bb7bf)"><g clip-path="url(#1f385842a7)"><path fill="url(#4a8dd676f2)" d="M 2948.945312 1871.515625 L 2235.140625 1871.515625 L 2235.140625 2188.160156 L 2948.945312 2188.160156 Z M 2948.945312 1871.515625 " fill-rule="nonzero"/></g></g></g><g clip-path="url(#85f4324496)"><g clip-path="url(#fa0bfc13d9)"><g clip-path="url(#f885663d10)"><path fill="#e51542" d="M 2875.789062 1951.960938 L 2871.738281 1951.960938 L 2871.738281 1953.507812 L 2875.789062 1953.507812 Z M 2875.789062 1951.960938 " fill-opacity="1" fill-rule="nonzero"/></g></g></g><path fill="#ffffff" d="M 2413.054688 2107.132812 L 2413.054688 2133.140625 L 2308.3125 2133.140625 L 2308.3125 1926.632812 L 2341.667969 1926.632812 L 2341.667969 2107.132812 L 2413.054688 2107.132812 " fill-opacity="1" fill-rule="nonzero"/><path fill="#ffffff" d="M 2487.03125 1926.632812 L 2487.03125 2133.140625 L 2453.691406 2133.140625 L 2453.691406 1926.632812 L 2487.03125 1926.632812 " fill-opacity="1" fill-rule="nonzero"/><path fill="#ffffff" d="M 2681.84375 1926.632812 L 2718.140625 1926.632812 L 2691.765625 1999.570312 L 2667.371094 2067.023438 L 2643.503906 2133.140625 L 2600.824219 2133.140625 L 2578.195312 2070.253906 L 2554.765625 2005.003906 L 2526.558594 1926.632812 L 2562.773438 1926.632812 L 2590.386719 2005.96875 L 2612.722656 2070.175781 L 2622.195312 2097.433594 L 2631.957031 2069.433594 L 2655.035156 2003.316406 L 2681.84375 1926.632812 " fill-opacity="1" fill-rule="nonzero"/><path fill="#ffffff" d="M 2871.738281 1953.507812 L 2875.789062 1953.507812 L 2875.789062 1951.960938 C 2874.457031 1952.476562 2873.070312 1952.992188 2871.738281 1953.507812 " fill-opacity="1" fill-rule="nonzero"/><path fill="#ffffff" d="M 2790.941406 1953.507812 L 2790.941406 2016.101562 L 2867.042969 2016.101562 L 2867.042969 2041.898438 L 2790.941406 2041.898438 L 2790.941406 2105.960938 L 2875.789062 2105.960938 L 2875.789062 2133.140625 L 2757.589844 2133.140625 L 2757.589844 1926.632812 L 2875.789062 1926.632812 L 2875.789062 1951.960938 C 2874.457031 1952.476562 2873.070312 1952.992188 2871.738281 1953.507812 L 2790.941406 1953.507812 " fill-opacity="1" fill-rule="nonzero"/></svg>