<svg xmlns="http://www.w3.org/2000/svg" xmlns:xlink="http://www.w3.org/1999/xlink" width="6912" zoomAndPan="magnify" viewBox="0 0 5184 2592.000001" height="3456" preserveAspectRatio="xMidYMid meet" version="1.0"><defs><g/></defs><g fill="#ffffff" fill-opacity="1"><g transform="translate(1933.442164, 309.630631)"><g><path d="M 41.453125 2.199219 C 62.5625 2.199219 77.515625 -11.765625 79.824219 -32.765625 L 53.328125 -35.515625 C 52.117188 -27.597656 47.609375 -22.539062 41.5625 -22.539062 C 34.636719 -22.539062 30.238281 -29.136719 30.238281 -39.582031 C 30.238281 -50.359375 33.867188 -57.175781 39.691406 -57.175781 C 44.53125 -57.175781 48.050781 -52.335938 48.929688 -44.75 L 75.097656 -47.5 C 73.777344 -68.171875 59.8125 -81.363281 39.253906 -81.363281 C 16.273438 -81.363281 1.648438 -65.09375 1.648438 -39.582031 C 1.648438 -14.402344 17.152344 2.199219 41.453125 2.199219 Z M 41.453125 2.199219 "/></g></g></g><g fill="#ffffff" fill-opacity="1"><g transform="translate(2017.114182, 309.630631)"><g><path d="M 42.332031 2.199219 C 66.851562 2.199219 83.015625 -14.292969 83.015625 -39.582031 C 83.015625 -64.871094 66.851562 -81.363281 42.332031 -81.363281 C 17.8125 -81.363281 1.648438 -64.871094 1.648438 -39.582031 C 1.648438 -14.292969 17.8125 2.199219 42.332031 2.199219 Z M 42.332031 -21.992188 C 34.746094 -21.992188 30.238281 -28.585938 30.238281 -39.582031 C 30.238281 -50.578125 34.746094 -57.175781 42.332031 -57.175781 C 49.917969 -57.175781 54.425781 -50.578125 54.425781 -39.582031 C 54.425781 -28.585938 49.917969 -21.992188 42.332031 -21.992188 Z M 42.332031 -21.992188 "/></g></g></g><g fill="#ffffff" fill-opacity="1"><g transform="translate(2105.074248, 309.630631)"><g><path d="M 42.332031 2.199219 C 66.851562 2.199219 83.015625 -14.292969 83.015625 -39.582031 C 83.015625 -64.871094 66.851562 -81.363281 42.332031 -81.363281 C 17.8125 -81.363281 1.648438 -64.871094 1.648438 -39.582031 C 1.648438 -14.292969 17.8125 2.199219 42.332031 2.199219 Z M 42.332031 -21.992188 C 34.746094 -21.992188 30.238281 -28.585938 30.238281 -39.582031 C 30.238281 -50.578125 34.746094 -57.175781 42.332031 -57.175781 C 49.917969 -57.175781 54.425781 -50.578125 54.425781 -39.582031 C 54.425781 -28.585938 49.917969 -21.992188 42.332031 -21.992188 Z M 42.332031 -21.992188 "/></g></g></g><g fill="#ffffff" fill-opacity="1"><g transform="translate(2193.034309, 309.630631)"><g><path d="M 3.296875 0 L 52.777344 0 L 52.777344 -24.191406 L 31.886719 -24.191406 L 31.886719 -79.164062 L 3.296875 -79.164062 Z M 3.296875 0 "/></g></g></g><g fill="#ffffff" fill-opacity="1"><g transform="translate(2251.307936, 309.630631)"><g><path d="M 3.296875 0 L 52.777344 0 L 52.777344 -21.992188 L 30.785156 -21.992188 L 30.785156 -30.785156 L 47.28125 -30.785156 L 47.28125 -49.480469 L 30.785156 -49.480469 L 30.785156 -57.175781 L 51.675781 -57.175781 L 51.675781 -79.164062 L 3.296875 -79.164062 Z M 3.296875 0 "/></g></g></g><g fill="#ffffff" fill-opacity="1"><g transform="translate(2309.031796, 309.630631)"><g><path d="M 3.296875 0 L 35.625 0 C 60.804688 0 74.769531 -14.183594 74.769531 -39.582031 C 74.769531 -64.980469 61.023438 -79.164062 36.175781 -79.164062 L 3.296875 -79.164062 Z M 30.785156 -21.992188 L 30.785156 -57.175781 L 35.074219 -57.175781 C 42.222656 -57.175781 46.179688 -50.90625 46.179688 -39.582031 C 46.179688 -28.257812 42.222656 -21.992188 35.074219 -21.992188 Z M 30.785156 -21.992188 "/></g></g></g><g fill="#ffffff" fill-opacity="1"><g transform="translate(2388.745645, 309.630631)"><g><path d="M 18.691406 0 L 47.28125 0 L 47.28125 -54.976562 L 63.773438 -54.976562 L 63.773438 -79.164062 L 2.199219 -79.164062 L 2.199219 -54.976562 L 18.691406 -54.976562 Z M 18.691406 0 "/></g></g></g><g fill="#ffffff" fill-opacity="1"><g transform="translate(2458.014221, 309.630631)"><g><path d="M 37.933594 2.199219 C 60.144531 2.199219 72.570312 -8.246094 72.570312 -26.9375 L 72.570312 -79.164062 L 43.980469 -79.164062 L 43.980469 -30.238281 C 43.980469 -24.960938 41.78125 -21.992188 37.933594 -21.992188 C 34.085938 -21.992188 31.886719 -24.960938 31.886719 -30.238281 L 31.886719 -79.164062 L 3.296875 -79.164062 L 3.296875 -26.9375 C 3.296875 -8.246094 15.722656 2.199219 37.933594 2.199219 Z M 37.933594 2.199219 "/></g></g></g><g fill="#ffffff" fill-opacity="1"><g transform="translate(2537.178302, 309.630631)"><g><path d="M 56.84375 1.648438 C 63.003906 1.648438 70.589844 -0.769531 75.207031 -4.179688 L 71.910156 -16.710938 C 70.699219 -16.054688 69.488281 -15.722656 68.28125 -15.722656 C 67.070312 -15.722656 65.863281 -16.601562 65.640625 -18.800781 L 65.09375 -23.199219 C 64.542969 -27.597656 63.113281 -31.007812 58.496094 -32.4375 L 58.496094 -32.546875 C 66.082031 -35.292969 70.371094 -42.441406 70.371094 -52.449219 C 70.371094 -69.601562 58.164062 -79.164062 36.175781 -79.164062 L 3.296875 -79.164062 L 3.296875 0 L 31.886719 0 L 31.886719 -26.386719 L 33.867188 -26.386719 C 35.734375 -26.386719 37.382812 -24.960938 37.605469 -23.199219 L 39.03125 -13.742188 C 40.351562 -4.726562 46.949219 1.648438 56.84375 1.648438 Z M 31.886719 -43.980469 L 31.886719 -59.375 L 35.074219 -59.375 C 39.363281 -59.375 41.78125 -56.625 41.78125 -51.675781 C 41.78125 -46.730469 39.363281 -43.980469 35.074219 -43.980469 Z M 31.886719 -43.980469 "/></g></g></g><g fill="#ffffff" fill-opacity="1"><g transform="translate(2615.68268, 309.630631)"><g><path d="M 3.296875 0 L 52.777344 0 L 52.777344 -21.992188 L 30.785156 -21.992188 L 30.785156 -30.785156 L 47.28125 -30.785156 L 47.28125 -49.480469 L 30.785156 -49.480469 L 30.785156 -57.175781 L 51.675781 -57.175781 L 51.675781 -79.164062 L 3.296875 -79.164062 Z M 3.296875 0 "/></g></g></g><g fill="#ffffff" fill-opacity="1"><g transform="translate(2673.406562, 309.630631)"><g><path d="M 3.296875 0 L 35.625 0 C 60.804688 0 74.769531 -14.183594 74.769531 -39.582031 C 74.769531 -64.980469 61.023438 -79.164062 36.175781 -79.164062 L 3.296875 -79.164062 Z M 30.785156 -21.992188 L 30.785156 -57.175781 L 35.074219 -57.175781 C 42.222656 -57.175781 46.179688 -50.90625 46.179688 -39.582031 C 46.179688 -28.257812 42.222656 -21.992188 35.074219 -21.992188 Z M 30.785156 -21.992188 "/></g></g></g><g fill="#ffffff" fill-opacity="1"><g transform="translate(2760.075441, 309.630631)"><g><path d="M 6.597656 0 L 15.503906 0 L 15.503906 -31.445312 L 30.566406 -31.445312 C 44.3125 -31.445312 54.207031 -40.902344 54.207031 -54.425781 C 54.207031 -67.949219 44.421875 -77.515625 30.566406 -77.515625 L 6.597656 -77.515625 Z M 15.503906 -39.691406 L 15.503906 -69.378906 L 29.355469 -69.378906 C 38.703125 -69.378906 45.082031 -63.222656 45.082031 -54.425781 C 45.082031 -45.742188 38.484375 -39.691406 29.355469 -39.691406 Z M 15.503906 -39.691406 "/></g></g></g><g fill="#ffffff" fill-opacity="1"><g transform="translate(2819.778405, 309.630631)"><g><path d="M 50.25 1.980469 C 54.425781 1.980469 58.273438 -0.109375 60.914062 -4.179688 L 56.296875 -9.566406 C 54.644531 -6.707031 53.21875 -5.71875 52.007812 -5.71875 C 50.136719 -5.71875 49.367188 -7.476562 48.820312 -10.226562 L 45.410156 -24.300781 C 44.3125 -28.699219 42.332031 -32.214844 38.484375 -34.414062 L 38.484375 -34.523438 C 49.257812 -36.835938 55.636719 -45.628906 55.636719 -54.867188 C 55.636719 -68.390625 45.851562 -77.515625 31.777344 -77.515625 L 6.597656 -77.515625 L 6.597656 0 L 15.722656 0 L 15.722656 -33.425781 L 25.730469 -33.425781 C 30.785156 -33.425781 34.746094 -29.46875 36.175781 -23.53125 L 40.460938 -6.816406 C 41.78125 -1.648438 44.640625 1.980469 50.25 1.980469 Z M 15.722656 -41.5625 L 15.722656 -69.378906 L 31.007812 -69.378906 C 40.242188 -69.378906 46.398438 -64.210938 46.398438 -55.195312 C 46.398438 -47.058594 40.132812 -41.5625 31.007812 -41.5625 Z M 15.722656 -41.5625 "/></g></g></g><g fill="#ffffff" fill-opacity="1"><g transform="translate(2883.98931, 309.630631)"><g><path d="M 6.597656 0 L 47.28125 0 L 47.28125 -8.136719 L 15.503906 -8.136719 L 15.503906 -36.285156 L 41.78125 -36.285156 L 41.78125 -43.980469 L 15.503906 -43.980469 L 15.503906 -69.378906 L 46.179688 -69.378906 L 46.179688 -77.515625 L 6.597656 -77.515625 Z M 6.597656 0 "/></g></g></g><g fill="#ffffff" fill-opacity="1"><g transform="translate(2937.315197, 309.630631)"><g><path d="M 29.355469 1.980469 C 45.191406 1.980469 53.875 -7.695312 53.875 -19.792969 C 53.875 -30.457031 48.710938 -36.613281 37.054688 -41.121094 L 25.730469 -45.519531 C 18.03125 -48.488281 14.734375 -52.449219 14.734375 -58.824219 C 14.734375 -65.863281 19.460938 -71.359375 27.160156 -71.359375 C 35.292969 -71.359375 40.792969 -64.542969 40.792969 -53.988281 L 49.589844 -55.964844 C 49.589844 -69.929688 41.230469 -79.496094 27.160156 -79.496094 C 13.085938 -79.496094 5.609375 -70.148438 5.609375 -58.605469 C 5.609375 -48.269531 10.335938 -42 21.332031 -37.714844 L 32.875 -33.316406 C 41.121094 -29.90625 44.640625 -25.730469 44.640625 -19.570312 C 44.640625 -11.984375 38.921875 -6.15625 29.6875 -6.15625 C 19.023438 -6.15625 11.324219 -14.292969 11.324219 -26.828125 L 2.199219 -24.847656 C 2.199219 -8.90625 12.644531 1.980469 29.355469 1.980469 Z M 29.355469 1.980469 "/></g></g></g><g fill="#ffffff" fill-opacity="1"><g transform="translate(2996.688315, 309.630631)"><g><path d="M 6.597656 0 L 47.28125 0 L 47.28125 -8.136719 L 15.503906 -8.136719 L 15.503906 -36.285156 L 41.78125 -36.285156 L 41.78125 -43.980469 L 15.503906 -43.980469 L 15.503906 -69.378906 L 46.179688 -69.378906 L 46.179688 -77.515625 L 6.597656 -77.515625 Z M 6.597656 0 "/></g></g></g><g fill="#ffffff" fill-opacity="1"><g transform="translate(3050.01419, 309.630631)"><g><path d="M 6.597656 0 L 15.722656 0 L 15.722656 -65.640625 L 15.941406 -65.640625 L 41.121094 0 L 54.644531 0 L 54.644531 -77.515625 L 45.410156 -77.515625 L 45.410156 -11.875 L 45.191406 -11.875 L 20.121094 -77.515625 L 6.597656 -77.515625 Z M 6.597656 0 "/></g></g></g><g fill="#ffffff" fill-opacity="1"><g transform="translate(3114.554954, 309.630631)"><g><path d="M 20.339844 0 L 29.578125 0 L 29.578125 -69.378906 L 48.820312 -69.378906 L 48.820312 -77.515625 L 1.097656 -77.515625 L 1.097656 -69.378906 L 20.339844 -69.378906 Z M 20.339844 0 "/></g></g></g><g fill="#ffffff" fill-opacity="1"><g transform="translate(3167.770871, 309.630631)"><g><path d="M 29.355469 1.980469 C 45.191406 1.980469 53.875 -7.695312 53.875 -19.792969 C 53.875 -30.457031 48.710938 -36.613281 37.054688 -41.121094 L 25.730469 -45.519531 C 18.03125 -48.488281 14.734375 -52.449219 14.734375 -58.824219 C 14.734375 -65.863281 19.460938 -71.359375 27.160156 -71.359375 C 35.292969 -71.359375 40.792969 -64.542969 40.792969 -53.988281 L 49.589844 -55.964844 C 49.589844 -69.929688 41.230469 -79.496094 27.160156 -79.496094 C 13.085938 -79.496094 5.609375 -70.148438 5.609375 -58.605469 C 5.609375 -48.269531 10.335938 -42 21.332031 -37.714844 L 32.875 -33.316406 C 41.121094 -29.90625 44.640625 -25.730469 44.640625 -19.570312 C 44.640625 -11.984375 38.921875 -6.15625 29.6875 -6.15625 C 19.023438 -6.15625 11.324219 -14.292969 11.324219 -26.828125 L 2.199219 -24.847656 C 2.199219 -8.90625 12.644531 1.980469 29.355469 1.980469 Z M 29.355469 1.980469 "/></g></g></g><g fill="#ffffff" fill-opacity="1"><g transform="translate(588.344088, 1379.468537)"><g><path d="M 6.882812 0 L 93.789062 0 L 93.789062 -22.402344 L 38.324219 -22.402344 L 38.324219 -39.539062 L 87.042969 -39.539062 L 87.042969 -58.835938 L 38.324219 -58.835938 L 38.324219 -74.222656 L 92.4375 -74.222656 L 92.4375 -96.621094 L 6.882812 -96.621094 Z M 6.882812 0 "/></g></g></g><g fill="#ffffff" fill-opacity="1"><g transform="translate(684.966845, 1379.468537)"><g><path d="M 41.160156 0 L 78.136719 0 L 119.292969 -96.621094 L 85.558594 -96.621094 L 59.78125 -27.257812 L 59.511719 -27.257812 L 33.738281 -96.621094 L 0.136719 -96.621094 Z M 41.160156 0 "/></g></g></g><g fill="#ffffff" fill-opacity="1"><g transform="translate(804.395812, 1379.468537)"><g><path d="M 6.882812 0 L 93.789062 0 L 93.789062 -22.402344 L 38.324219 -22.402344 L 38.324219 -39.539062 L 87.042969 -39.539062 L 87.042969 -58.835938 L 38.324219 -58.835938 L 38.324219 -74.222656 L 92.4375 -74.222656 L 92.4375 -96.621094 L 6.882812 -96.621094 Z M 6.882812 0 "/></g></g></g><g fill="#ffffff" fill-opacity="1"><g transform="translate(901.01858, 1379.468537)"><g><path d="M 96.488281 2.429688 C 105.125 2.429688 114.4375 -0.539062 119.5625 -4.859375 L 114.4375 -18.621094 C 112.816406 -17.003906 110.253906 -15.789062 107.957031 -15.789062 C 104.71875 -15.789062 102.558594 -17.8125 101.210938 -20.511719 L 96.757812 -29.554688 C 94.734375 -34.007812 92.167969 -36.976562 88.121094 -38.460938 L 88.121094 -38.59375 C 103.640625 -42.375 112.679688 -52.226562 112.679688 -65.71875 C 112.679688 -85.421875 98.105469 -96.621094 73.007812 -96.621094 L 6.882812 -96.621094 L 6.882812 0 L 39.40625 0 L 39.40625 -33.0625 L 54.25 -33.0625 C 60.1875 -33.0625 64.503906 -29.6875 67.339844 -24.289062 L 71.792969 -14.167969 C 76.109375 -4.992188 83.800781 2.429688 96.488281 2.429688 Z M 39.40625 -52.496094 L 39.40625 -75.707031 L 65.316406 -75.707031 C 74.492188 -75.707031 80.160156 -71.386719 80.160156 -64.101562 C 80.160156 -56.8125 74.492188 -52.496094 65.179688 -52.496094 Z M 39.40625 -52.496094 "/></g></g></g><g fill="#ffffff" fill-opacity="1"><g transform="translate(1021.122293, 1379.468537)"><g><path d="M 40.214844 0 L 72.738281 0 L 72.738281 -33.0625 L 112.140625 -96.621094 L 77.730469 -96.621094 L 56.679688 -57.21875 L 56.542969 -57.21875 L 34.140625 -96.621094 L 0.136719 -96.621094 L 40.214844 -33.0625 Z M 40.214844 0 "/></g></g></g><g fill="#ffffff" fill-opacity="1"><g transform="translate(552.861681, 1530.160393)"><g><path d="M 6.882812 0 L 39.40625 0 L 39.40625 -33.332031 L 84.207031 -33.332031 L 84.207031 -54.382812 L 39.40625 -54.382812 L 39.40625 -71.65625 L 92.304688 -71.65625 L 92.304688 -96.621094 L 6.882812 -96.621094 Z M 6.882812 0 "/></g></g></g><g fill="#ffffff" fill-opacity="1"><g transform="translate(647.595163, 1530.160393)"><g><path d="M 96.488281 2.429688 C 105.125 2.429688 114.4375 -0.539062 119.5625 -4.859375 L 114.4375 -18.621094 C 112.816406 -17.003906 110.253906 -15.789062 107.957031 -15.789062 C 104.71875 -15.789062 102.558594 -17.8125 101.210938 -20.511719 L 96.757812 -29.554688 C 94.734375 -34.007812 92.167969 -36.976562 88.121094 -38.460938 L 88.121094 -38.59375 C 103.640625 -42.375 112.679688 -52.226562 112.679688 -65.71875 C 112.679688 -85.421875 98.105469 -96.621094 73.007812 -96.621094 L 6.882812 -96.621094 L 6.882812 0 L 39.40625 0 L 39.40625 -33.0625 L 54.25 -33.0625 C 60.1875 -33.0625 64.503906 -29.6875 67.339844 -24.289062 L 71.792969 -14.167969 C 76.109375 -4.992188 83.800781 2.429688 96.488281 2.429688 Z M 39.40625 -52.496094 L 39.40625 -75.707031 L 65.316406 -75.707031 C 74.492188 -75.707031 80.160156 -71.386719 80.160156 -64.101562 C 80.160156 -56.8125 74.492188 -52.496094 65.179688 -52.496094 Z M 39.40625 -52.496094 "/></g></g></g><g fill="#ffffff" fill-opacity="1"><g transform="translate(767.698876, 1530.160393)"><g><path d="M 6.882812 0 L 39.40625 0 L 39.40625 -96.621094 L 6.882812 -96.621094 Z M 6.882812 0 "/></g></g></g><g fill="#ffffff" fill-opacity="1"><g transform="translate(813.986033, 1530.160393)"><g><path d="M 6.882812 0 L 62.347656 0 C 98.242188 0 118.214844 -17.273438 118.214844 -48.3125 C 118.214844 -79.347656 98.242188 -96.621094 62.347656 -96.621094 L 6.882812 -96.621094 Z M 38.460938 -23.480469 L 38.460938 -73.140625 L 59.78125 -73.140625 C 76.785156 -73.140625 86.097656 -64.371094 86.097656 -48.3125 C 86.097656 -32.386719 76.785156 -23.480469 59.78125 -23.480469 Z M 38.460938 -23.480469 "/></g></g></g><g fill="#ffffff" fill-opacity="1"><g transform="translate(936.248894, 1530.160393)"><g><path d="M 0.136719 0 L 33.871094 0 L 40.078125 -16.734375 L 80.023438 -16.734375 L 86.230469 0 L 120.105469 0 L 79.753906 -96.621094 L 41.023438 -96.621094 Z M 45.746094 -36.570312 L 60.050781 -74.761719 L 60.320312 -74.761719 L 74.492188 -36.570312 Z M 45.746094 -36.570312 "/></g></g></g><g fill="#ffffff" fill-opacity="1"><g transform="translate(1056.622493, 1530.160393)"><g><path d="M 40.214844 0 L 72.738281 0 L 72.738281 -33.0625 L 112.140625 -96.621094 L 77.730469 -96.621094 L 56.679688 -57.21875 L 56.542969 -57.21875 L 34.140625 -96.621094 L 0.136719 -96.621094 L 40.214844 -33.0625 Z M 40.214844 0 "/></g></g></g><g fill="#ffffff" fill-opacity="1"><g transform="translate(3895.383705, 1379.468537)"><g><path d="M 55.867188 3.105469 C 87.042969 3.105469 108.09375 -9.582031 108.09375 -30.5 C 108.09375 -47.773438 95.8125 -56.8125 67.609375 -60.1875 L 52.359375 -62.074219 C 41.5625 -63.425781 36.976562 -65.855469 36.976562 -69.902344 C 36.976562 -75.164062 44.398438 -78.539062 55.195312 -78.675781 C 66.53125 -78.675781 77.59375 -74.085938 83.398438 -66.53125 L 101.210938 -79.621094 C 94.058594 -92.035156 76.109375 -99.863281 55.328125 -99.863281 C 26.046875 -99.863281 5.398438 -87.851562 5.261719 -67.472656 C 5.261719 -50.742188 17.003906 -41.96875 44.128906 -38.324219 L 59.242188 -36.300781 C 71.386719 -34.679688 76.652344 -31.984375 76.652344 -27.53125 C 76.652344 -22.132812 69.226562 -18.621094 57.621094 -18.621094 C 42.914062 -18.621094 28.472656 -24.832031 21.996094 -34.140625 L 2.96875 -21.050781 C 10.527344 -5.398438 31.984375 3.105469 55.867188 3.105469 Z M 55.867188 3.105469 "/></g></g></g><g fill="#ffffff" fill-opacity="1"><g transform="translate(4005.636209, 1379.468537)"><g><path d="M 34.140625 0 L 66.664062 0 L 66.664062 -71.65625 L 98.917969 -71.65625 L 98.917969 -96.621094 L 1.753906 -96.621094 L 1.753906 -71.65625 L 34.140625 -71.65625 Z M 34.140625 0 "/></g></g></g><g fill="#ffffff" fill-opacity="1"><g transform="translate(4106.307387, 1379.468537)"><g><path d="M 0.136719 0 L 33.871094 0 L 40.078125 -16.734375 L 80.023438 -16.734375 L 86.230469 0 L 120.105469 0 L 79.753906 -96.621094 L 41.023438 -96.621094 Z M 45.746094 -36.570312 L 60.050781 -74.761719 L 60.320312 -74.761719 L 74.492188 -36.570312 Z M 45.746094 -36.570312 "/></g></g></g><g fill="#ffffff" fill-opacity="1"><g transform="translate(4226.680986, 1379.468537)"><g><path d="M 96.488281 2.429688 C 105.125 2.429688 114.4375 -0.539062 119.5625 -4.859375 L 114.4375 -18.621094 C 112.816406 -17.003906 110.253906 -15.789062 107.957031 -15.789062 C 104.71875 -15.789062 102.558594 -17.8125 101.210938 -20.511719 L 96.757812 -29.554688 C 94.734375 -34.007812 92.167969 -36.976562 88.121094 -38.460938 L 88.121094 -38.59375 C 103.640625 -42.375 112.679688 -52.226562 112.679688 -65.71875 C 112.679688 -85.421875 98.105469 -96.621094 73.007812 -96.621094 L 6.882812 -96.621094 L 6.882812 0 L 39.40625 0 L 39.40625 -33.0625 L 54.25 -33.0625 C 60.1875 -33.0625 64.503906 -29.6875 67.339844 -24.289062 L 71.792969 -14.167969 C 76.109375 -4.992188 83.800781 2.429688 96.488281 2.429688 Z M 39.40625 -52.496094 L 39.40625 -75.707031 L 65.316406 -75.707031 C 74.492188 -75.707031 80.160156 -71.386719 80.160156 -64.101562 C 80.160156 -56.8125 74.492188 -52.496094 65.179688 -52.496094 Z M 39.40625 -52.496094 "/></g></g></g><g fill="#ffffff" fill-opacity="1"><g transform="translate(4346.784699, 1379.468537)"><g><path d="M 34.140625 0 L 66.664062 0 L 66.664062 -71.65625 L 98.917969 -71.65625 L 98.917969 -96.621094 L 1.753906 -96.621094 L 1.753906 -71.65625 L 34.140625 -71.65625 Z M 34.140625 0 "/></g></g></g><g fill="#ffffff" fill-opacity="1"><g transform="translate(4447.455878, 1379.468537)"><g><path d="M 55.867188 3.105469 C 87.042969 3.105469 108.09375 -9.582031 108.09375 -30.5 C 108.09375 -47.773438 95.8125 -56.8125 67.609375 -60.1875 L 52.359375 -62.074219 C 41.5625 -63.425781 36.976562 -65.855469 36.976562 -69.902344 C 36.976562 -75.164062 44.398438 -78.539062 55.195312 -78.675781 C 66.53125 -78.675781 77.59375 -74.085938 83.398438 -66.53125 L 101.210938 -79.621094 C 94.058594 -92.035156 76.109375 -99.863281 55.328125 -99.863281 C 26.046875 -99.863281 5.398438 -87.851562 5.261719 -67.472656 C 5.261719 -50.742188 17.003906 -41.96875 44.128906 -38.324219 L 59.242188 -36.300781 C 71.386719 -34.679688 76.652344 -31.984375 76.652344 -27.53125 C 76.652344 -22.132812 69.226562 -18.621094 57.621094 -18.621094 C 42.914062 -18.621094 28.472656 -24.832031 21.996094 -34.140625 L 2.96875 -21.050781 C 10.527344 -5.398438 31.984375 3.105469 55.867188 3.105469 Z M 55.867188 3.105469 "/></g></g></g><g fill="#ffffff" fill-opacity="1"><g transform="translate(4557.708382, 1379.468537)"><g/></g></g><g fill="#ffffff" fill-opacity="1"><g transform="translate(4586.587254, 1379.468537)"><g><path d="M 0.136719 0 L 33.871094 0 L 40.078125 -16.734375 L 80.023438 -16.734375 L 86.230469 0 L 120.105469 0 L 79.753906 -96.621094 L 41.023438 -96.621094 Z M 45.746094 -36.570312 L 60.050781 -74.761719 L 60.320312 -74.761719 L 74.492188 -36.570312 Z M 45.746094 -36.570312 "/></g></g></g><g fill="#ffffff" fill-opacity="1"><g transform="translate(4706.960853, 1379.468537)"><g><path d="M 34.140625 0 L 66.664062 0 L 66.664062 -71.65625 L 98.917969 -71.65625 L 98.917969 -96.621094 L 1.753906 -96.621094 L 1.753906 -71.65625 L 34.140625 -71.65625 Z M 34.140625 0 "/></g></g></g><g fill="#ffffff" fill-opacity="1"><g transform="translate(4807.641091, 1379.468537)"><g/></g></g><g fill="#ffffff" fill-opacity="1"><g transform="translate(3971.760485, 1530.160393)"><g><path d="M 3.375 0 L 86.230469 0 L 86.230469 -21.996094 L 64.773438 -21.996094 L 64.773438 -96.621094 L 34.277344 -96.621094 C 27.933594 -86.90625 17.8125 -80.699219 4.046875 -77.59375 L 12.011719 -53.4375 C 21.1875 -56.410156 28.070312 -60.457031 32.523438 -67.203125 L 32.65625 -67.203125 L 32.65625 -21.996094 L 3.375 -21.996094 Z M 3.375 0 "/></g></g></g><g fill="#ffffff" fill-opacity="1"><g transform="translate(4059.341721, 1530.160393)"><g><path d="M 58.703125 2.292969 C 90.683594 2.292969 112.546875 -18.082031 112.546875 -48.3125 C 112.546875 -78.539062 90.683594 -99.050781 58.703125 -99.050781 C 26.585938 -99.050781 4.722656 -78.539062 4.722656 -48.3125 C 4.722656 -18.082031 26.585938 2.292969 58.703125 2.292969 Z M 58.703125 -21.996094 C 45.613281 -21.996094 36.707031 -32.523438 36.707031 -48.3125 C 36.707031 -64.101562 45.613281 -74.625 58.703125 -74.625 C 71.65625 -74.625 80.5625 -64.101562 80.5625 -48.3125 C 80.5625 -32.523438 71.65625 -21.996094 58.703125 -21.996094 Z M 58.703125 -21.996094 "/></g></g></g><g fill="#ffffff" fill-opacity="1"><g transform="translate(4176.611529, 1530.160393)"><g/></g></g><g fill="#ffffff" fill-opacity="1"><g transform="translate(4205.490401, 1530.160393)"><g><path d="M 6.882812 0 L 39.40625 0 L 39.40625 -29.6875 L 70.171875 -29.6875 C 95.679688 -29.6875 111.0625 -42.105469 111.0625 -62.886719 C 111.0625 -83.9375 95.949219 -96.621094 70.578125 -96.621094 L 6.882812 -96.621094 Z M 39.40625 -50.066406 L 39.40625 -76.246094 L 61.804688 -76.246094 C 72.332031 -76.246094 78.539062 -71.386719 78.539062 -63.15625 C 78.539062 -54.921875 72.332031 -50.066406 61.804688 -50.066406 Z M 39.40625 -50.066406 "/></g></g></g><g fill="#ffffff" fill-opacity="1"><g transform="translate(4319.251545, 1530.160393)"><g><path d="M 6.882812 0 L 36.839844 0 L 36.839844 -60.726562 L 37.109375 -60.726562 L 64.910156 0 L 91.089844 0 L 118.347656 -60.726562 L 118.621094 -60.726562 L 118.621094 0 L 148.578125 0 L 148.578125 -96.621094 L 106.878906 -96.621094 L 77.863281 -32.253906 L 77.59375 -32.253906 L 48.582031 -96.621094 L 6.882812 -96.621094 Z M 6.882812 0 "/></g></g></g><g fill="#ffffff" fill-opacity="1"><g transform="translate(4474.711599, 1530.160393)"><g/></g></g><g fill="#ffffff" fill-opacity="1"><g transform="translate(4503.590471, 1530.160393)"><g><path d="M 65.71875 2.832031 C 98.105469 2.832031 121.046875 -13.089844 124.828125 -38.191406 L 94.734375 -42.777344 C 92.304688 -30.09375 81.375 -22.132812 66.394531 -22.132812 C 48.175781 -22.132812 36.570312 -32.386719 36.570312 -48.3125 C 36.570312 -64.371094 46.960938 -74.492188 63.019531 -74.492188 C 75.300781 -74.492188 84.074219 -67.742188 86.90625 -57.082031 L 116.460938 -63.832031 C 111.738281 -85.691406 90.683594 -99.589844 62.617188 -99.589844 C 26.71875 -99.589844 4.046875 -79.621094 4.046875 -48.3125 C 4.046875 -16.597656 28.070312 2.832031 65.71875 2.832031 Z M 65.71875 2.832031 "/></g></g></g><g fill="#ffffff" fill-opacity="1"><g transform="translate(4630.576527, 1530.160393)"><g><path d="M 34.140625 0 L 66.664062 0 L 66.664062 -71.65625 L 98.917969 -71.65625 L 98.917969 -96.621094 L 1.753906 -96.621094 L 1.753906 -71.65625 L 34.140625 -71.65625 Z M 34.140625 0 "/></g></g></g></svg>