<svg xmlns="http://www.w3.org/2000/svg" xmlns:xlink="http://www.w3.org/1999/xlink" width="6912" zoomAndPan="magnify" viewBox="0 0 5184 2592.000001" height="3456" preserveAspectRatio="xMidYMid meet" version="1.0"><defs><g/></defs><g fill="#ddf1ff" fill-opacity="1"><g transform="translate(0.999613, 1952.117294)"><g><path d="M 7.046875 0 L 43.09375 -336.9375 L 107.34375 -336.9375 L 79.140625 -107.734375 L 153.96875 -336.9375 L 218.21875 -336.9375 L 99.125 0 Z M 7.046875 0 "/></g></g></g><g fill="#ddf1ff" fill-opacity="1"><g transform="translate(184.743518, 1952.117294)"><g><path d="M 5.09375 0 L 67.78125 -271.890625 L 27.8125 -271.890625 L 42.703125 -336.546875 L 190.015625 -336.546875 L 175.125 -271.890625 L 135.171875 -271.890625 L 72.484375 0 Z M 5.09375 0 "/></g></g></g><g fill="#ddf1ff" fill-opacity="1"><g transform="translate(339.887705, 1952.117294)"><g><path d="M 54.0625 3.140625 C 26.375 3.140625 7.632812 -4.691406 -2.15625 -20.359375 C -11.945312 -36.035156 -13.316406 -59.285156 -6.265625 -90.109375 L 50.53125 -336.546875 L 115.96875 -336.546875 L 59.546875 -92.859375 C 57.203125 -82.148438 56.351562 -73.789062 57 -67.78125 C 57.65625 -61.769531 61.378906 -58.765625 68.171875 -58.765625 C 74.960938 -58.765625 80.117188 -61.703125 83.640625 -67.578125 C 87.171875 -73.453125 90.109375 -81.878906 92.453125 -92.859375 L 148.875 -336.546875 L 214.296875 -336.546875 L 157.5 -90.109375 C 150.445312 -59.285156 138.363281 -36.035156 121.25 -20.359375 C 104.144531 -4.691406 81.75 3.140625 54.0625 3.140625 Z M 54.0625 3.140625 "/></g></g></g><g fill="#ddf1ff" fill-opacity="1"><g transform="translate(525.590542, 1952.117294)"><g><path d="M 54.0625 -336.546875 L 145.34375 -336.546875 C 169.894531 -336.546875 186.347656 -330.535156 194.703125 -318.515625 C 203.066406 -306.503906 204.113281 -286.914062 197.84375 -259.75 L 194.328125 -244.859375 C 187.015625 -212.734375 171.082031 -193.535156 146.53125 -187.265625 C 159.84375 -183.609375 167.804688 -175.117188 170.421875 -161.796875 C 173.035156 -148.484375 171.859375 -130.859375 166.890625 -108.921875 C 158.535156 -73.128906 146.914062 -46.023438 132.03125 -27.609375 C 117.144531 -9.203125 95.726562 0 67.78125 0 L -23.515625 0 Z M 104.609375 -210 C 110.347656 -210 114.71875 -212.148438 117.71875 -216.453125 C 120.726562 -220.765625 123.148438 -226.835938 124.984375 -234.671875 L 132.8125 -268.375 C 135.425781 -279.34375 131.898438 -284.828125 122.234375 -284.828125 L 108.125 -284.828125 L 90.890625 -210 Z M 62.6875 -59.15625 C 80.1875 -59.15625 90.765625 -67.515625 94.421875 -84.234375 L 104.21875 -126.15625 C 106.5625 -136.34375 106.816406 -144.046875 104.984375 -149.265625 C 103.160156 -154.492188 98.460938 -157.109375 90.890625 -157.109375 L 78.359375 -157.109375 L 56.03125 -59.546875 Z M 62.6875 -59.15625 "/></g></g></g><g fill="#ddf1ff" fill-opacity="1"><g transform="translate(713.252261, 1952.117294)"><g><path d="M -23.515625 0 L 54.0625 -336.546875 L 188.84375 -336.546875 L 173.953125 -271.5 L 107.734375 -271.5 L 92.453125 -206.078125 L 155.921875 -206.078125 L 141.4375 -142.609375 L 77.96875 -142.609375 L 59.9375 -65.421875 L 130.46875 -65.421875 L 115.578125 0 Z M -23.515625 0 "/></g></g></g><g fill="#ddf1ff" fill-opacity="1"><g transform="translate(874.664832, 1952.117294)"><g><path d="M 54.0625 -336.546875 L 157.5 -336.546875 C 173.945312 -336.546875 185.828125 -332.820312 193.140625 -325.375 C 200.453125 -317.925781 204.109375 -307.476562 204.109375 -294.03125 C 204.109375 -280.582031 201.757812 -263.410156 197.0625 -242.515625 C 192.625 -223.441406 186.679688 -208.550781 179.234375 -197.84375 C 171.796875 -187.132812 161.414062 -179.691406 148.09375 -175.515625 C 157.757812 -173.429688 163.960938 -168.335938 166.703125 -160.234375 C 169.441406 -152.140625 169.242188 -141.171875 166.109375 -127.328125 L 135.953125 0 L 70.125 0 L 100.296875 -131.640625 C 102.648438 -141.046875 102.257812 -147.050781 99.125 -149.65625 C 95.988281 -152.269531 89.585938 -153.578125 79.921875 -153.578125 L 44.65625 0 L -23.515625 0 Z M 110.09375 -211.953125 C 119.488281 -211.953125 126.539062 -222.140625 131.25 -242.515625 C 133.332031 -251.390625 134.4375 -258.046875 134.5625 -262.484375 C 134.695312 -266.929688 133.914062 -270.003906 132.21875 -271.703125 C 130.519531 -273.398438 127.710938 -274.25 123.796875 -274.25 L 108.125 -274.25 L 94.03125 -211.953125 Z M 110.09375 -211.953125 "/></g></g></g><g fill="#7fd150" fill-opacity="1"><g transform="translate(1061.548609, 1952.117294)"><g/></g></g><g fill="#fdf9c8" fill-opacity="1"><g transform="translate(1153.22988, 1952.117294)"><g><path d="M 7.046875 0 L 43.09375 -336.9375 L 107.34375 -336.9375 L 79.140625 -107.734375 L 153.96875 -336.9375 L 218.21875 -336.9375 L 99.125 0 Z M 7.046875 0 "/></g></g></g><g fill="#fdf9c8" fill-opacity="1"><g transform="translate(1336.973785, 1952.117294)"><g><path d="M -26.640625 0 L 50.9375 -336.546875 L 115.96875 -336.546875 L 38.390625 0 Z M -26.640625 0 "/></g></g></g><g fill="#fdf9c8" fill-opacity="1"><g transform="translate(1425.907387, 1952.117294)"><g><path d="M 7.046875 0 L 43.09375 -336.9375 L 107.34375 -336.9375 L 79.140625 -107.734375 L 153.96875 -336.9375 L 218.21875 -336.9375 L 99.125 0 Z M 7.046875 0 "/></g></g></g><g fill="#fdf9c8" fill-opacity="1"><g transform="translate(1609.651292, 1952.117294)"><g><path d="M -26.640625 0 L 50.9375 -336.546875 L 115.96875 -336.546875 L 38.390625 0 Z M -26.640625 0 "/></g></g></g><g fill="#7fd150" fill-opacity="1"><g transform="translate(1698.590058, 1952.117294)"><g/></g></g><g fill="#ddf1ff" fill-opacity="1"><g transform="translate(1790.271329, 1952.117294)"><g><path d="M 7.046875 0 L 43.09375 -336.9375 L 107.34375 -336.9375 L 79.140625 -107.734375 L 153.96875 -336.9375 L 218.21875 -336.9375 L 99.125 0 Z M 7.046875 0 "/></g></g></g><g fill="#ddf1ff" fill-opacity="1"><g transform="translate(1974.015234, 1952.117294)"><g><path d="M 5.09375 0 L 67.78125 -271.890625 L 27.8125 -271.890625 L 42.703125 -336.546875 L 190.015625 -336.546875 L 175.125 -271.890625 L 135.171875 -271.890625 L 72.484375 0 Z M 5.09375 0 "/></g></g></g><g fill="#ddf1ff" fill-opacity="1"><g transform="translate(2129.15942, 1952.117294)"><g><path d="M 54.0625 3.140625 C 26.375 3.140625 7.632812 -4.691406 -2.15625 -20.359375 C -11.945312 -36.035156 -13.316406 -59.285156 -6.265625 -90.109375 L 50.53125 -336.546875 L 115.96875 -336.546875 L 59.546875 -92.859375 C 57.203125 -82.148438 56.351562 -73.789062 57 -67.78125 C 57.65625 -61.769531 61.378906 -58.765625 68.171875 -58.765625 C 74.960938 -58.765625 80.117188 -61.703125 83.640625 -67.578125 C 87.171875 -73.453125 90.109375 -81.878906 92.453125 -92.859375 L 148.875 -336.546875 L 214.296875 -336.546875 L 157.5 -90.109375 C 150.445312 -59.285156 138.363281 -36.035156 121.25 -20.359375 C 104.144531 -4.691406 81.75 3.140625 54.0625 3.140625 Z M 54.0625 3.140625 "/></g></g></g><g fill="#ddf1ff" fill-opacity="1"><g transform="translate(2314.862257, 1952.117294)"><g><path d="M 54.0625 -336.546875 L 145.34375 -336.546875 C 169.894531 -336.546875 186.347656 -330.535156 194.703125 -318.515625 C 203.066406 -306.503906 204.113281 -286.914062 197.84375 -259.75 L 194.328125 -244.859375 C 187.015625 -212.734375 171.082031 -193.535156 146.53125 -187.265625 C 159.84375 -183.609375 167.804688 -175.117188 170.421875 -161.796875 C 173.035156 -148.484375 171.859375 -130.859375 166.890625 -108.921875 C 158.535156 -73.128906 146.914062 -46.023438 132.03125 -27.609375 C 117.144531 -9.203125 95.726562 0 67.78125 0 L -23.515625 0 Z M 104.609375 -210 C 110.347656 -210 114.71875 -212.148438 117.71875 -216.453125 C 120.726562 -220.765625 123.148438 -226.835938 124.984375 -234.671875 L 132.8125 -268.375 C 135.425781 -279.34375 131.898438 -284.828125 122.234375 -284.828125 L 108.125 -284.828125 L 90.890625 -210 Z M 62.6875 -59.15625 C 80.1875 -59.15625 90.765625 -67.515625 94.421875 -84.234375 L 104.21875 -126.15625 C 106.5625 -136.34375 106.816406 -144.046875 104.984375 -149.265625 C 103.160156 -154.492188 98.460938 -157.109375 90.890625 -157.109375 L 78.359375 -157.109375 L 56.03125 -59.546875 Z M 62.6875 -59.15625 "/></g></g></g><g fill="#ddf1ff" fill-opacity="1"><g transform="translate(2502.523976, 1952.117294)"><g><path d="M -23.515625 0 L 54.0625 -336.546875 L 188.84375 -336.546875 L 173.953125 -271.5 L 107.734375 -271.5 L 92.453125 -206.078125 L 155.921875 -206.078125 L 141.4375 -142.609375 L 77.96875 -142.609375 L 59.9375 -65.421875 L 130.46875 -65.421875 L 115.578125 0 Z M -23.515625 0 "/></g></g></g><g fill="#fdf9c8" fill-opacity="1"><g transform="translate(2763.786376, 1951.857454)"><g><path d="M 7.046875 0 L 43.0625 -336.703125 L 107.28125 -336.703125 L 79.09375 -107.671875 L 153.859375 -336.703125 L 218.078125 -336.703125 L 99.046875 0 Z M 7.046875 0 "/></g></g></g><g fill="#fdf9c8" fill-opacity="1"><g transform="translate(2947.408825, 1951.857454)"><g><path d="M -26.625 0 L 50.890625 -336.3125 L 115.890625 -336.3125 L 38.375 0 Z M -26.625 0 "/></g></g></g><g fill="#fdf9c8" fill-opacity="1"><g transform="translate(3036.283642, 1951.857454)"><g><path d="M 7.046875 0 L 43.0625 -336.703125 L 107.28125 -336.703125 L 79.09375 -107.671875 L 153.859375 -336.703125 L 218.078125 -336.703125 L 99.046875 0 Z M 7.046875 0 "/></g></g></g><g fill="#fdf9c8" fill-opacity="1"><g transform="translate(3219.906092, 1951.857454)"><g><path d="M -26.625 0 L 50.890625 -336.3125 L 115.890625 -336.3125 L 38.375 0 Z M -26.625 0 "/></g></g></g><g fill="#078f73" fill-opacity="1"><g transform="translate(3308.786076, 1951.857454)"><g/></g></g><g fill="#ddf1ff" fill-opacity="1"><g transform="translate(3400.406745, 1951.857454)"><g><path d="M 7.046875 0 L 43.0625 -336.703125 L 107.28125 -336.703125 L 79.09375 -107.671875 L 153.859375 -336.703125 L 218.078125 -336.703125 L 99.046875 0 Z M 7.046875 0 "/></g></g></g><g fill="#ddf1ff" fill-opacity="1"><g transform="translate(3584.029195, 1951.857454)"><g><path d="M 5.09375 0 L 67.734375 -271.71875 L 27.796875 -271.71875 L 42.671875 -336.3125 L 189.890625 -336.3125 L 175 -271.71875 L 135.078125 -271.71875 L 72.4375 0 Z M 5.09375 0 "/></g></g></g><g fill="#ddf1ff" fill-opacity="1"><g transform="translate(3739.07083, 1951.857454)"><g><path d="M 54.03125 3.125 C 26.363281 3.125 7.632812 -4.703125 -2.15625 -20.359375 C -11.945312 -36.015625 -13.316406 -59.242188 -6.265625 -90.046875 L 50.5 -336.3125 L 115.890625 -336.3125 L 59.515625 -92.796875 C 57.160156 -82.085938 56.304688 -73.734375 56.953125 -67.734375 C 57.609375 -61.734375 61.332031 -58.734375 68.125 -58.734375 C 74.90625 -58.734375 80.054688 -61.664062 83.578125 -67.53125 C 87.109375 -73.40625 90.046875 -81.828125 92.390625 -92.796875 L 148.78125 -336.3125 L 214.15625 -336.3125 L 157.390625 -90.046875 C 150.335938 -59.242188 138.265625 -36.015625 121.171875 -20.359375 C 104.078125 -4.703125 81.695312 3.125 54.03125 3.125 Z M 54.03125 3.125 "/></g></g></g><g fill="#ddf1ff" fill-opacity="1"><g transform="translate(3924.650917, 1951.857454)"><g><path d="M 54.03125 -336.3125 L 145.25 -336.3125 C 169.78125 -336.3125 186.222656 -330.304688 194.578125 -318.296875 C 202.929688 -306.296875 203.976562 -286.722656 197.71875 -259.578125 L 194.1875 -244.703125 C 186.882812 -212.597656 170.960938 -193.410156 146.421875 -187.140625 C 159.734375 -183.484375 167.691406 -175 170.296875 -161.6875 C 172.910156 -148.382812 171.738281 -130.769531 166.78125 -108.84375 C 158.425781 -73.082031 146.8125 -46 131.9375 -27.59375 C 117.0625 -9.195312 95.660156 0 67.734375 0 L -23.484375 0 Z M 104.53125 -209.859375 C 110.269531 -209.859375 114.640625 -212.007812 117.640625 -216.3125 C 120.648438 -220.613281 123.066406 -226.679688 124.890625 -234.515625 L 132.71875 -268.1875 C 135.332031 -279.144531 131.8125 -284.625 122.15625 -284.625 L 108.0625 -284.625 L 90.828125 -209.859375 Z M 62.640625 -59.125 C 80.128906 -59.125 90.703125 -67.472656 94.359375 -84.171875 L 104.140625 -126.0625 C 106.492188 -136.25 106.753906 -143.953125 104.921875 -149.171875 C 103.097656 -154.390625 98.398438 -157 90.828125 -157 L 78.296875 -157 L 55.984375 -59.515625 Z M 62.640625 -59.125 "/></g></g></g><g fill="#ddf1ff" fill-opacity="1"><g transform="translate(4112.188591, 1951.857454)"><g><path d="M -23.484375 0 L 54.03125 -336.3125 L 188.703125 -336.3125 L 173.828125 -271.328125 L 107.671875 -271.328125 L 92.390625 -205.9375 L 155.828125 -205.9375 L 141.34375 -142.515625 L 77.90625 -142.515625 L 59.90625 -65.390625 L 130.375 -65.390625 L 115.5 0 Z M -23.484375 0 "/></g></g></g><g fill="#ddf1ff" fill-opacity="1"><g transform="translate(4273.494468, 1951.857454)"><g><path d="M 54.03125 -336.3125 L 157.390625 -336.3125 C 173.828125 -336.3125 185.703125 -332.59375 193.015625 -325.15625 C 200.328125 -317.71875 203.984375 -307.273438 203.984375 -293.828125 C 203.984375 -280.390625 201.632812 -263.226562 196.9375 -242.34375 C 192.5 -223.289062 186.554688 -208.410156 179.109375 -197.703125 C 171.671875 -187.003906 161.296875 -179.570312 147.984375 -175.40625 C 157.648438 -173.3125 163.851562 -168.21875 166.59375 -160.125 C 169.332031 -152.039062 169.132812 -141.082031 166 -127.25 L 135.859375 0 L 70.078125 0 L 100.234375 -131.546875 C 102.578125 -140.941406 102.179688 -146.941406 99.046875 -149.546875 C 95.921875 -152.160156 89.53125 -153.46875 79.875 -153.46875 L 44.625 0 L -23.484375 0 Z M 110.015625 -211.8125 C 119.410156 -211.8125 126.457031 -221.988281 131.15625 -242.34375 C 133.238281 -251.21875 134.347656 -257.875 134.484375 -262.3125 C 134.617188 -266.75 133.835938 -269.816406 132.140625 -271.515625 C 130.441406 -273.210938 127.632812 -274.0625 123.71875 -274.0625 L 108.0625 -274.0625 L 93.96875 -211.8125 Z M 110.015625 -211.8125 "/></g></g></g><g fill="#078f73" fill-opacity="1"><g transform="translate(4460.254713, 1951.857454)"><g/></g></g><g fill="#fdf9c8" fill-opacity="1"><g transform="translate(4551.875382, 1951.857454)"><g><path d="M 7.046875 0 L 43.0625 -336.703125 L 107.28125 -336.703125 L 79.09375 -107.671875 L 153.859375 -336.703125 L 218.078125 -336.703125 L 99.046875 0 Z M 7.046875 0 "/></g></g></g><g fill="#fdf9c8" fill-opacity="1"><g transform="translate(4735.497832, 1951.857454)"><g><path d="M -26.625 0 L 50.890625 -336.3125 L 115.890625 -336.3125 L 38.375 0 Z M -26.625 0 "/></g></g></g><g fill="#fdf9c8" fill-opacity="1"><g transform="translate(4824.372649, 1951.857454)"><g><path d="M 7.046875 0 L 43.0625 -336.703125 L 107.28125 -336.703125 L 79.09375 -107.671875 L 153.859375 -336.703125 L 218.078125 -336.703125 L 99.046875 0 Z M 7.046875 0 "/></g></g></g><g fill="#fdf9c8" fill-opacity="1"><g transform="translate(5007.995098, 1951.857454)"><g><path d="M -26.625 0 L 50.890625 -336.3125 L 115.890625 -336.3125 L 38.375 0 Z M -26.625 0 "/></g></g></g><g fill="#078f73" fill-opacity="1"><g transform="translate(5096.875113, 1951.857454)"><g/></g></g></svg>