<svg xmlns="http://www.w3.org/2000/svg" xmlns:xlink="http://www.w3.org/1999/xlink" width="1920" zoomAndPan="magnify" viewBox="0 0 1440 359.999987" height="480" preserveAspectRatio="xMidYMid meet" version="1.0"><defs><clipPath id="4180e8f49c"><path d="M 471 0 L 1440 0 L 1440 360 L 471 360 Z M 471 0 " clip-rule="nonzero"/></clipPath><clipPath id="79fa177b6b"><path d="M 448.410156 78.953125 L 1442.777344 -0.015625 L 1471.457031 361.097656 L 477.089844 440.066406 Z M 448.410156 78.953125 " clip-rule="nonzero"/></clipPath><clipPath id="386987e9e1"><path d="M 448.410156 78.953125 L 1442.777344 -0.015625 L 1471.457031 361.097656 L 477.089844 440.066406 Z M 448.410156 78.953125 " clip-rule="nonzero"/></clipPath></defs><g clip-path="url(#4180e8f49c)"><g clip-path="url(#79fa177b6b)"><g clip-path="url(#386987e9e1)"><path fill="#313ED4" d="M 472.859375 368.339844 L 471.6875 367.945312 C 491.480469 297.125 552.125 231.859375 633.640625 193.449219 C 697.085938 163.480469 772.503906 148.855469 870.644531 147.414062 C 910.195312 146.882812 950.386719 148.253906 989.28125 149.726562 C 1029.972656 151.21875 1072.132812 152.757812 1113.613281 151.910156 C 1161.449219 151.042969 1223.527344 146.925781 1279.828125 123.394531 C 1339.925781 98.414062 1387.136719 52.792969 1432.859375 8.914062 C 1435.730469 6.078125 1438.765625 3.230469 1441.796875 0.382812 L 1442.683594 1.289062 C 1439.652344 4.140625 1436.78125 6.972656 1433.746094 9.820312 C 1387.875 53.875 1340.660156 99.496094 1280.417969 124.648438 C 1223.96875 148.359375 1161.714844 152.324219 1113.730469 153.367188 C 1072.25 154.214844 1030.089844 152.675781 989.398438 151.183594 C 950.5 149.710938 910.308594 148.339844 870.921875 148.859375 C 772.945312 150.285156 697.847656 164.886719 634.390625 194.691406 C 552.863281 232.941406 492.515625 297.855469 472.859375 368.339844 Z M 495.304688 326.800781 C 504.785156 312.851562 515.480469 299.78125 527.398438 287.753906 C 562.191406 251.914062 601.882812 222.367188 642.167969 202.382812 C 706.3125 170.894531 785.152344 154.207031 876.476562 153.144531 C 882.988281 153.117188 889.503906 153.085938 896.195312 153.207031 C 927.179688 153.515625 958.476562 155.757812 988.804688 158.074219 C 1013.0625 159.894531 1037.972656 161.664062 1062.640625 162.476562 C 1082.898438 163.148438 1100.835938 163.351562 1117.117188 163.199219 C 1153.90625 162.722656 1183.671875 160.03125 1211.113281 154.757812 C 1235.519531 150.210938 1259.519531 142.601562 1282.34375 132.480469 C 1305.933594 121.808594 1329.691406 107.050781 1354.671875 87.144531 C 1376.902344 69.570312 1398.292969 49.625 1418.921875 30.386719 C 1426.816406 23.082031 1434.859375 15.597656 1442.914062 8.277344 L 1442.027344 7.371094 C 1433.972656 14.691406 1425.929688 22.175781 1418.035156 29.480469 C 1376.933594 67.941406 1334.289062 107.5 1281.765625 131.386719 C 1259.105469 141.496094 1235.257812 148.929688 1210.851562 153.472656 C 1183.570312 158.738281 1153.800781 161.425781 1117.175781 161.890625 C 1100.734375 162.054688 1082.957031 161.839844 1062.699219 161.167969 C 1038.03125 160.355469 1013.125 158.585938 988.863281 156.765625 C 958.535156 154.449219 927.074219 152.222656 896.09375 151.914062 C 889.5625 151.777344 882.886719 151.820312 876.371094 151.847656 C 784.898438 153.085938 705.882812 169.625 641.59375 201.289062 C 601.144531 221.285156 561.289062 250.84375 526.511719 286.847656 C 514.59375 298.875 503.75 312.117188 494.269531 326.070312 C 484.488281 340.371094 477.089844 355.945312 472.046875 372.476562 L 473.21875 372.875 C 478.109375 356.519531 485.671875 340.925781 495.304688 326.800781 Z M 498.035156 332.449219 C 508.988281 318.546875 521.105469 306.992188 532.664062 296.625 C 563.824219 268.40625 605.347656 233.171875 650.273438 210.050781 C 715.554688 176.515625 795.898438 158.238281 882.515625 157.390625 C 889.03125 157.359375 895.546875 157.332031 902.074219 157.464844 C 931.9375 158.027344 962.191406 161.492188 991.449219 164.707031 C 1016.109375 167.472656 1041.59375 170.335938 1066.773438 171.433594 C 1086.730469 172.457031 1104.523438 172.835938 1121.128906 172.65625 C 1157.117188 172.40625 1187.679688 169.488281 1214.601562 163.769531 C 1238.804688 158.75 1262.28125 150.695312 1284.566406 139.960938 C 1330.851562 117.546875 1369.121094 82.410156 1406.175781 48.347656 C 1418.167969 37.292969 1430.785156 25.863281 1443.277344 14.929688 L 1442.550781 14.011719 C 1429.898438 24.953125 1417.445312 36.371094 1405.449219 47.425781 C 1368.382812 81.328125 1330.277344 116.453125 1284.152344 138.855469 C 1262.027344 149.574219 1238.539062 157.46875 1214.496094 162.472656 C 1187.578125 168.195312 1157.015625 171.109375 1121.1875 171.347656 C 1104.582031 171.527344 1086.941406 170.972656 1066.992188 170.113281 C 1041.976562 169.003906 1016.492188 166.140625 991.832031 163.371094 C 962.574219 160.15625 932.320312 156.695312 902.457031 156.132812 C 895.929688 156 889.414062 156.027344 882.898438 156.054688 C 795.957031 156.929688 715.453125 175.21875 650.007812 208.769531 C 604.917969 231.902344 563.410156 267.296875 532.25 295.515625 C 520.703125 306.046875 508.585938 317.597656 497.632812 331.503906 C 485.5 346.96875 477.390625 361.789062 472.878906 376.8125 L 474.050781 377.207031 C 478.089844 362.386719 486.050781 347.742188 498.035156 332.449219 Z M 500.925781 338.085938 C 512.34375 325.9375 525.375 315.613281 537.929688 305.492188 C 544.832031 300.054688 551.558594 294.472656 558.917969 288.671875 C 590.460938 263.195312 622.894531 236.664062 658.378906 217.71875 C 725.585938 181.746094 805.191406 162.390625 888.40625 161.808594 C 894.921875 161.78125 901.449219 161.914062 907.976562 162.046875 C 937.042969 162.835938 966.726562 167.320312 995.265625 171.734375 C 1020.003906 175.472656 1045.402344 179.324219 1070.609375 180.742188 C 1090.257812 181.953125 1107.910156 182.667969 1124.691406 182.640625 C 1160.382812 182.738281 1190.933594 179.660156 1217.800781 173.289062 C 1241.804688 167.796875 1264.917969 159.28125 1286.667969 147.941406 C 1327.5 126.613281 1362.152344 95.183594 1395.574219 64.667969 C 1411.0625 50.402344 1427.171875 35.761719 1443.695312 22.230469 L 1442.96875 21.308594 C 1426.445312 34.84375 1410.335938 49.480469 1394.6875 63.761719 C 1361.429688 94.265625 1326.9375 125.679688 1286.089844 146.847656 C 1264.34375 158.1875 1241.390625 166.691406 1217.550781 172.167969 C 1190.667969 178.378906 1160.28125 181.441406 1124.601562 181.507812 C 1107.984375 181.523438 1090.167969 180.820312 1070.679688 179.597656 C 1045.636719 178.164062 1020.078125 174.328125 995.5 170.578125 C 966.972656 166.324219 937.289062 161.839844 908.050781 160.902344 C 901.519531 160.769531 894.992188 160.636719 888.476562 160.664062 C 804.9375 161.269531 725.171875 180.640625 657.816406 216.785156 C 622.34375 235.894531 589.734375 262.273438 558.207031 287.914062 C 551.019531 293.863281 544.117188 299.296875 537.21875 304.734375 C 524.5 314.867188 511.46875 325.191406 500.0625 337.503906 C 486.398438 352.113281 477.4375 366.511719 472.765625 381.546875 L 473.9375 381.941406 C 478.609375 366.90625 487.40625 352.519531 500.925781 338.085938 Z M 503.828125 343.882812 C 513.710938 334.953125 524.371094 327.589844 535.648438 319.847656 C 538.109375 318.023438 540.75 316.347656 543.371094 314.511719 C 557.734375 304.570312 571.996094 293.335938 587.179688 281.378906 C 612.480469 261.445312 638.714844 240.949219 666.480469 225.382812 C 734.503906 187.394531 815.441406 166.300781 894.445312 166.054688 C 900.960938 166.027344 907.488281 166.160156 913.867188 166.46875 C 942.636719 167.605469 971.75 173.113281 1000.042969 178.527344 C 1024.359375 183.113281 1049.671875 187.945312 1074.429688 189.890625 C 1094.589844 191.382812 1112.257812 192.261719 1128.242188 192.460938 C 1163.78125 192.734375 1194.160156 189.503906 1221 182.8125 C 1244.644531 176.859375 1267.542969 167.710938 1288.753906 155.761719 C 1325.265625 135.425781 1356.550781 106.707031 1386.765625 78.890625 C 1405.148438 62.113281 1424.128906 44.640625 1444.085938 29.203125 L 1443.359375 28.285156 C 1423.402344 43.71875 1404.410156 61.03125 1386.042969 77.972656 C 1355.8125 105.625 1324.527344 134.34375 1288.339844 154.652344 C 1267.128906 166.601562 1244.378906 175.578125 1220.898438 181.515625 C 1194.21875 188.199219 1164.003906 191.410156 1128.460938 191.136719 C 1112.476562 190.941406 1094.824219 190.226562 1074.664062 188.730469 C 1049.90625 186.785156 1024.753906 181.941406 1000.277344 177.367188 C 971.984375 171.957031 942.871094 166.445312 913.941406 165.320312 C 907.5625 165.015625 900.871094 164.894531 894.519531 164.910156 C 815.351562 165.167969 734.105469 186.449219 665.917969 224.449219 C 638.152344 240.015625 611.917969 260.511719 586.453125 280.457031 C 571.257812 292.253906 557 303.488281 542.648438 313.589844 C 540.023438 315.429688 537.398438 317.265625 534.925781 318.929688 C 523.644531 326.667969 513 334.195312 502.941406 342.976562 C 487.726562 356.570312 478.082031 370.53125 473.277344 385.90625 L 474.449219 386.300781 C 479.121094 371.265625 488.765625 357.300781 503.828125 343.882812 Z M 506.398438 349.546875 C 515.460938 342.632812 525.128906 337.140625 535.242188 331.125 C 539.445312 328.671875 543.960938 326.03125 548.316406 323.40625 C 567.582031 311.609375 586.292969 296.925781 606.25 281.492188 C 628.035156 264.445312 650.589844 246.847656 674.113281 233.25 C 743.738281 192.851562 823.933594 170.679688 900.011719 170.5 C 906.203125 170.5 912.570312 170.644531 919.449219 171.078125 C 947.753906 172.574219 976.300781 179.109375 1003.859375 185.554688 C 1028.089844 191.125 1053.320312 196.941406 1077.941406 199.222656 C 1098.464844 201.179688 1115.484375 202.109375 1131.46875 202.304688 C 1166.859375 202.753906 1197.074219 199.539062 1223.863281 192.199219 C 1247.304688 185.773438 1269.679688 176.175781 1290.515625 163.605469 C 1323.183594 144.066406 1351.71875 117.683594 1379.335938 92.027344 C 1399.96875 72.792969 1421.210938 53.019531 1444.164062 36.367188 L 1443.441406 35.449219 C 1420.484375 52.097656 1399.257812 72.035156 1378.449219 91.121094 C 1350.996094 116.761719 1322.457031 143.144531 1289.941406 162.507812 C 1269.269531 175.066406 1246.894531 184.667969 1223.601562 190.914062 C 1196.972656 198.242188 1166.917969 201.445312 1131.6875 200.984375 C 1115.703125 200.789062 1098.671875 199.695312 1078.164062 197.902344 C 1053.539062 195.621094 1028.472656 189.792969 1004.242188 184.222656 C 976.519531 177.785156 947.976562 171.253906 919.507812 169.769531 C 912.628906 169.335938 906.261719 169.191406 900.070312 169.195312 C 823.820312 169.21875 743.3125 191.582031 673.699219 232.140625 C 650.027344 245.917969 627.472656 263.511719 605.6875 280.558594 C 585.90625 296.144531 567.03125 310.839844 547.914062 322.460938 C 543.410156 325.261719 539.042969 327.726562 534.839844 330.179688 C 524.714844 336.035156 515.0625 341.6875 505.835938 348.613281 C 489.234375 361.175781 478.753906 374.878906 473.621094 390.277344 L 474.792969 390.671875 C 479.617188 375.460938 490.109375 361.917969 506.398438 349.546875 Z M 509.289062 355.183594 C 517.820312 349.78125 526.617188 345.660156 535.875 341.175781 C 541.6875 338.433594 547.648438 335.515625 553.742188 332.261719 C 576.882812 319.996094 598.65625 302.789062 621.96875 284.480469 C 641.4375 269.085938 661.53125 253.3125 682.367188 240.742188 C 753.269531 197.960938 832.714844 174.542969 906.054688 174.746094 C 912.40625 174.730469 918.945312 175.027344 925.328125 175.335938 C 953.160156 177.035156 981.308594 184.738281 1008.460938 192.195312 C 1032.605469 198.75 1057.425781 205.578125 1081.914062 208.195312 C 1102.621094 210.460938 1119.65625 211.554688 1135.328125 211.9375 C 1170.585938 212.722656 1200.773438 209.183594 1227.214844 201.546875 C 1250.457031 194.648438 1272.453125 184.429688 1292.753906 171.246094 C 1322.058594 152.464844 1347.984375 128.082031 1372.976562 104.265625 C 1395.558594 82.917969 1418.886719 60.699219 1444.542969 43.179688 L 1443.804688 42.097656 C 1418 59.789062 1394.660156 81.847656 1372.089844 103.355469 C 1347.082031 127.011719 1321.332031 151.542969 1292.175781 170.152344 C 1272.042969 183.320312 1250.027344 193.378906 1226.949219 200.261719 C 1200.519531 208.0625 1170.480469 211.425781 1135.386719 210.628906 C 1119.714844 210.246094 1102.84375 209.140625 1082.132812 206.875 C 1057.648438 204.257812 1032.828125 197.429688 1008.84375 190.863281 C 981.53125 183.417969 953.382812 175.714844 925.386719 174.027344 C 918.992188 173.554688 912.464844 173.421875 905.949219 173.453125 C 832.449219 173.261719 752.691406 196.867188 681.628906 239.660156 C 660.628906 252.242188 640.550781 268.175781 621.082031 283.574219 C 597.929688 301.867188 576.160156 319.078125 553.167969 331.167969 C 547.070312 334.421875 541.113281 337.339844 535.300781 340.082031 C 526.042969 344.5625 517.246094 348.683594 508.714844 354.085938 C 490.863281 365.28125 479.238281 378.914062 473.96875 394.648438 L 475.140625 395.042969 C 480.285156 379.808594 491.765625 366.351562 509.289062 355.183594 Z M 512.03125 360.992188 C 520.316406 356.585938 528.707031 353.476562 537.71875 349.992188 C 544.675781 347.320312 551.792969 344.636719 559.023438 341.292969 C 585.277344 329.269531 609.324219 309.925781 635.074219 289.46875 C 652.839844 275.183594 671.390625 260.515625 690.320312 248.582031 C 762.5 203.417969 841.207031 178.917969 911.945312 179.167969 C 918.136719 179.164062 924.515625 179.472656 931.230469 179.917969 C 958.765625 181.964844 986.34375 190.695312 1013.25 199.148438 C 1037.148438 206.699219 1061.722656 214.523438 1085.910156 217.492188 C 1106.308594 219.945312 1123.203125 221.375 1139.039062 221.746094 C 1174.472656 222.679688 1204.496094 219.152344 1230.5625 210.890625 C 1253.441406 203.535156 1275.078125 192.855469 1294.839844 179.066406 C 1321.269531 161 1344.867188 138.105469 1367.5625 116.097656 C 1391.609375 92.683594 1416.5625 68.378906 1444.773438 50.167969 L 1444.035156 49.085938 C 1415.664062 67.308594 1390.710938 91.613281 1366.5 115.042969 C 1343.820312 137.210938 1320.367188 159.929688 1293.941406 177.996094 C 1274.328125 191.613281 1252.691406 202.292969 1229.976562 209.636719 C 1203.910156 217.898438 1174.207031 221.398438 1138.773438 220.464844 C 1122.941406 220.089844 1106.042969 218.664062 1085.808594 216.195312 C 1061.621094 213.230469 1037.046875 205.40625 1013.308594 197.839844 C 986.402344 189.386719 958.652344 180.507812 931.113281 178.460938 C 924.398438 178.015625 918.019531 177.707031 911.828125 177.710938 C 840.917969 177.3125 762.074219 202.148438 689.570312 247.339844 C 670.476562 259.28125 652.089844 273.941406 634.160156 288.238281 C 608.574219 308.679688 584.527344 328.023438 558.421875 339.875 C 551.191406 343.21875 544.074219 345.902344 537.117188 348.574219 C 528.105469 352.058594 519.714844 355.167969 511.429688 359.574219 C 498.292969 366.484375 481.03125 378.933594 474.140625 398.871094 L 475.3125 399.265625 C 482.253906 379.976562 499.042969 367.726562 512.03125 360.992188 Z M 514.761719 366.640625 C 522.949219 363.058594 531.226562 360.609375 540.152344 358.109375 C 547.960938 355.859375 556.074219 353.421875 564.289062 350.164062 C 593.363281 338.730469 620.765625 316.511719 647.082031 295.03125 C 663.605469 281.5 680.75 267.589844 698.425781 256.25 C 771.730469 208.878906 849.675781 182.972656 917.820312 183.425781 C 924.1875 183.570312 930.566406 183.878906 936.960938 184.351562 C 964.023438 186.601562 991.367188 196.484375 1017.714844 206.125 C 1041.203125 214.6875 1065.695312 223.496094 1089.582031 226.8125 C 1107.054688 229.335938 1124.785156 231.023438 1142.441406 231.742188 C 1177.574219 233.023438 1207.265625 229.363281 1233.601562 220.425781 C 1256.28125 212.597656 1277.554688 201.457031 1296.777344 187.058594 C 1320.65625 169.683594 1342.253906 148.253906 1362.917969 127.386719 C 1388.28125 102.070312 1414.375 75.71875 1444.867188 57.496094 L 1444.289062 56.398438 C 1413.8125 74.789062 1387.554688 101.152344 1362.191406 126.464844 C 1341.515625 147.171875 1319.929688 168.765625 1296.203125 185.964844 C 1277.128906 200.1875 1255.867188 211.488281 1233.335938 219.144531 C 1207.308594 227.890625 1177.621094 231.554688 1142.660156 230.417969 C 1125.007812 229.703125 1107.277344 228.015625 1089.804688 225.492188 C 1065.914062 222.175781 1041.585938 213.355469 1018.109375 204.953125 C 991.601562 195.328125 964.257812 185.441406 937.03125 183.203125 C 930.640625 182.734375 924.261719 182.425781 917.730469 182.292969 C 849.414062 181.691406 771.144531 207.621094 697.523438 255.179688 C 679.863281 266.683594 662.71875 280.59375 646.195312 294.125 C 619.878906 315.605469 592.636719 337.808594 563.714844 349.066406 C 555.5 352.328125 547.53125 354.589844 539.738281 357 C 530.988281 359.652344 522.550781 362.113281 514.1875 365.546875 C 488.664062 376.535156 478.511719 392.332031 474.691406 403.714844 L 475.863281 404.109375 C 482.738281 384.011719 500.898438 372.632812 514.761719 366.640625 Z M 517.652344 372.277344 C 525.90625 369.503906 534.234375 367.703125 542.890625 365.875 C 551.542969 364.046875 560.519531 362.195312 569.554688 359.03125 C 601.308594 348.527344 630.203125 324.5625 658.324219 301.144531 C 673.914062 288.175781 689.960938 274.84375 706.515625 263.753906 C 801.820312 199.96875 877.382812 187.125 923.863281 187.671875 C 930.226562 187.816406 936.605469 188.125 942.851562 188.769531 C 969.617188 191.371094 996.550781 202.265625 1022.488281 212.914062 C 1045.722656 222.3125 1069.800781 232.132812 1093.554688 235.785156 C 1110.890625 238.644531 1128.632812 240.496094 1146.125 241.222656 C 1181.109375 242.683594 1210.789062 238.859375 1236.777344 229.625 C 1258.011719 222.074219 1278.289062 210.6875 1298.839844 194.554688 C 1320.488281 177.84375 1340.058594 157.550781 1359.03125 137.957031 C 1385.386719 110.773438 1412.636719 82.539062 1445.230469 64.144531 L 1444.65625 63.050781 C 1411.898438 81.457031 1384.648438 109.691406 1358.144531 137.050781 C 1339.171875 156.644531 1319.601562 176.9375 1298.117188 193.632812 C 1277.550781 209.605469 1257.433594 220.980469 1236.363281 228.519531 C 1210.375 237.75 1180.859375 241.5625 1146.035156 240.089844 C 1128.53125 239.199219 1110.785156 237.351562 1093.464844 234.652344 C 1069.871094 230.984375 1045.792969 221.167969 1022.5625 211.769531 C 996.460938 201.132812 969.351562 190.085938 942.4375 187.664062 C 936.03125 187.03125 929.652344 186.722656 923.285156 186.578125 C 838.648438 185.640625 758.0625 227.558594 705.304688 262.871094 C 688.75 273.960938 672.703125 287.292969 657.113281 300.265625 C 629.300781 323.492188 600.410156 347.457031 568.820312 357.949219 C 559.769531 360.949219 550.792969 362.804688 542.3125 364.78125 C 533.496094 366.621094 525.332031 368.410156 516.914062 371.195312 C 504.542969 375.4375 482.71875 385.804688 474.550781 408.125 L 475.722656 408.523438 C 484.089844 386.675781 505.605469 376.492188 517.652344 372.277344 Z M 520.542969 377.914062 C 528.996094 375.613281 537.378906 374.460938 546.082031 373.277344 C 555.4375 372.046875 565.101562 370.628906 574.984375 367.886719 C 609.269531 358.484375 639.640625 332.609375 668.953125 307.796875 C 683.757812 295.214844 698.863281 282.285156 714.621094 271.417969 C 767.910156 234.597656 848.515625 190.886719 929.738281 191.929688 C 935.769531 191.941406 942.160156 192.410156 948.726562 193.027344 C 975.019531 195.828125 1001.558594 207.898438 1027.25 219.542969 C 1050.238281 229.9375 1074.070312 240.753906 1097.523438 244.757812 C 1114.875 247.78125 1132.480469 249.964844 1149.988281 250.855469 C 1184.835938 252.652344 1214.5 248.667969 1240.273438 238.796875 C 1260.996094 230.960938 1281.0625 218.941406 1301.238281 202.183594 C 1320.808594 185.964844 1338.835938 166.773438 1356.105469 148.292969 C 1383.289062 119.25 1411.207031 89.171875 1445.945312 71.09375 L 1445.371094 70 C 1410.644531 88.238281 1382.402344 118.34375 1355.230469 147.546875 C 1337.960938 166.027344 1319.933594 185.21875 1300.363281 201.4375 C 1280.351562 218.179688 1260.433594 230.027344 1239.710938 237.867188 C 1213.9375 247.734375 1184.582031 251.53125 1149.910156 249.886719 C 1132.390625 248.832031 1114.796875 246.808594 1097.609375 243.773438 C 1074.316406 239.757812 1050.496094 229.101562 1027.671875 218.695312 C 1001.980469 207.050781 975.28125 194.992188 948.8125 192.042969 C 942.246094 191.425781 935.855469 190.957031 929.664062 190.957031 C 848.101562 189.777344 767.183594 233.679688 713.746094 270.675781 C 698.152344 281.527344 682.886719 294.46875 668.078125 307.050781 C 638.925781 331.851562 608.707031 357.550781 574.582031 366.941406 C 564.699219 369.683594 555.183594 370.925781 545.84375 372.320312 C 536.976562 373.511719 528.757812 374.65625 520.144531 376.96875 C 509.613281 379.761719 484.097656 388.792969 475.25 412.796875 L 476.421875 413.191406 C 485.132812 389.523438 510.175781 380.691406 520.542969 377.914062 Z M 523.125 383.738281 C 531.792969 382.070312 540.210938 381.402344 549.128906 380.859375 C 559.167969 380.0625 569.542969 379.398438 579.953125 377.105469 C 616.78125 368.96875 648.320312 341.371094 678.800781 314.835938 C 692.820312 302.640625 707.304688 290.085938 722.101562 279.460938 C 800.582031 223.367188 872.183594 195.523438 935.15625 196.550781 C 941.523438 196.695312 947.753906 197.179688 954.160156 197.8125 C 980.152344 200.960938 1006.285156 214.039062 1031.730469 226.683594 C 1054.46875 238.074219 1077.890625 249.902344 1101.050781 254.253906 C 1118.261719 257.613281 1135.871094 259.800781 1153.238281 261.027344 C 1188.101562 262.984375 1217.425781 258.863281 1243.164062 248.507812 C 1263.375 240.386719 1282.914062 227.917969 1303.027344 210.351562 C 1320.855469 194.761719 1337.328125 176.507812 1353.191406 158.789062 C 1380.882812 127.914062 1409.480469 96.152344 1445.875 78.433594 L 1445.300781 77.339844 C 1408.59375 95.242188 1379.847656 127.179688 1352.15625 158.058594 C 1336.292969 175.773438 1319.980469 194.015625 1302.152344 209.605469 C 1282.363281 227.144531 1262.824219 239.613281 1242.761719 247.5625 C 1217.1875 257.902344 1188.011719 261.851562 1153.3125 259.878906 C 1135.953125 258.816406 1118.332031 256.464844 1101.285156 253.09375 C 1078.289062 248.730469 1054.875 237.066406 1032.300781 225.660156 C 1006.84375 212.855469 980.710938 199.777344 954.394531 196.652344 C 948.136719 195.847656 941.597656 195.550781 935.390625 195.390625 C 872.253906 194.378906 800.332031 222.25 721.699219 278.515625 C 706.742188 289.152344 692.273438 301.871094 678.25 314.066406 C 647.769531 340.601562 616.382812 368.023438 579.875 376.136719 C 569.46875 378.429688 559.105469 379.25 549.214844 379.875 C 540.632812 380.554688 531.714844 381.101562 523.046875 382.765625 C 499.777344 387.222656 482.230469 400.183594 475.769531 417.316406 L 476.941406 417.710938 C 483.089844 400.765625 500.339844 388.15625 523.125 383.738281 Z M 526.015625 389.375 C 534.882812 388.179688 543.839844 388.121094 552.636719 388.074219 C 563.226562 388.046875 574.285156 387.820312 585.382812 385.964844 C 624.433594 379.113281 657.148438 349.957031 688.808594 321.863281 C 702.195312 309.882812 716.203125 297.527344 730.367188 287.113281 C 809.640625 228.679688 880.664062 199.738281 941.371094 200.945312 C 947.578125 201.105469 953.96875 201.574219 960.226562 202.382812 C 985.90625 205.71875 1011.644531 219.96875 1036.691406 233.785156 C 1059.183594 246.171875 1082.363281 258.996094 1105.222656 263.699219 C 1122.296875 267.394531 1139.757812 269.753906 1157.289062 270.96875 C 1191.511719 273.140625 1221.636719 268.792969 1246.863281 258.152344 C 1266.722656 249.734375 1285.890625 236.640625 1305.613281 218.292969 C 1321.847656 203.15625 1336.925781 185.824219 1351.386719 168.871094 C 1379.433594 136.339844 1408.539062 102.742188 1446.765625 85.53125 L 1446.191406 84.4375 C 1407.652344 101.835938 1378.546875 135.429688 1350.347656 168.140625 C 1335.878906 184.929688 1320.808594 202.421875 1304.726562 217.386719 C 1285.164062 235.722656 1265.988281 248.652344 1246.449219 257.046875 C 1221.546875 267.660156 1191.585938 271.992188 1157.519531 269.8125 C 1140.152344 268.582031 1122.691406 266.222656 1105.617188 262.527344 C 1082.917969 257.8125 1059.753906 245.152344 1037.425781 232.75 C 1012.375 218.933594 986.480469 204.695312 960.621094 201.210938 C 954.363281 200.402344 947.972656 199.933594 941.605469 199.785156 C 880.574219 198.605469 809.402344 227.71875 729.964844 286.167969 C 715.652344 296.753906 701.808594 309.097656 688.257812 321.089844 C 656.746094 349.011719 624.179688 377.992188 585.453125 384.816406 C 574.371094 386.835938 563.457031 386.890625 552.871094 386.914062 C 544.074219 386.960938 534.957031 387.035156 526.089844 388.226562 C 489.8125 393.0625 478.839844 414.953125 476.265625 421.511719 L 477.4375 421.910156 C 479.691406 415.375 490.375 393.996094 526.015625 389.375 Z M 528.421875 395.050781 C 528.585938 395.035156 528.746094 395.023438 528.910156 395.011719 C 537.976562 394.289062 547.308594 394.851562 556.304688 395.277344 C 567.59375 395.847656 579.203125 396.394531 590.808594 394.820312 C 632.253906 389.410156 665.988281 358.707031 698.667969 329.0625 C 711.582031 317.285156 724.957031 305.140625 738.632812 294.769531 C 819.605469 233.101562 888 203.878906 947.414062 205.191406 C 953.617188 205.351562 960.007812 205.820312 966.277344 206.789062 C 991.648438 210.3125 1017.152344 225.722656 1041.792969 240.546875 C 1063.875 253.949219 1086.632812 267.621094 1109.355469 272.660156 C 1126.28125 276.527344 1143.765625 279.214844 1161.148438 280.601562 C 1195.398438 283.097656 1225.347656 278.601562 1250.199219 267.339844 C 1269.710938 258.621094 1288.054688 245.433594 1307.6875 225.949219 C 1322.488281 211.25 1336.164062 194.683594 1349.554688 178.632812 C 1377.945312 144.277344 1407.234375 108.875 1447.144531 92.34375 L 1446.730469 91.238281 C 1406.507812 107.957031 1377.058594 143.371094 1348.679688 177.886719 C 1335.453125 193.925781 1321.613281 210.503906 1306.976562 225.191406 C 1287.339844 244.675781 1269.148438 257.6875 1249.796875 266.394531 C 1225.097656 277.480469 1195.308594 281.964844 1161.234375 279.617188 C 1143.851562 278.230469 1126.539062 275.691406 1109.601562 271.660156 C 1087.203125 266.597656 1064.445312 252.925781 1042.539062 239.675781 C 1017.882812 224.6875 992.21875 209.289062 966.6875 205.777344 C 960.417969 204.808594 954.027344 204.339844 947.660156 204.195312 C 887.910156 202.746094 819.367188 232.140625 738.082031 293.996094 C 724.40625 304.371094 711.042969 316.675781 697.96875 328.464844 C 665.441406 357.933594 631.855469 388.464844 590.90625 393.996094 C 579.300781 395.570312 567.6875 395.027344 556.5625 394.445312 C 547.566406 394.015625 538.25 393.617188 529.007812 394.1875 C 528.84375 394.199219 528.683594 394.214844 528.519531 394.226562 C 508.765625 395.796875 484.894531 405.023438 476.640625 426.210938 L 477.8125 426.605469 C 485.59375 405.621094 508.992188 396.59375 528.421875 395.050781 Z M 531.640625 400.660156 C 541.070312 400.398438 550.761719 401.421875 560.121094 402.308594 C 571.785156 403.5 583.933594 404.652344 596.078125 403.6875 C 639.757812 399.730469 674.507812 367.480469 708.039062 336.300781 C 720.480469 324.722656 733.382812 312.78125 746.574219 302.445312 C 798.734375 261.644531 876.722656 207.546875 953.304688 209.609375 C 959.507812 209.769531 965.898438 210.242188 972.007812 211.222656 C 997.082031 215.097656 1022.175781 231.515625 1046.242188 247.363281 C 1068.082031 261.761719 1090.589844 276.429688 1112.851562 281.832031 C 1129.804688 286.023438 1147.140625 288.882812 1164.375 290.449219 C 1198.476562 293.117188 1228.25 288.472656 1253.074219 276.886719 C 1272.375 267.535156 1290.355469 253.886719 1309.4375 233.632812 C 1322.96875 219.359375 1335.5625 203.53125 1347.695312 188.066406 C 1376.121094 152.082031 1405.441406 115.046875 1447.035156 99.195312 L 1446.621094 98.089844 C 1404.703125 113.964844 1375.234375 151.171875 1346.820312 187.320312 C 1334.6875 202.785156 1322.097656 218.613281 1308.550781 232.722656 C 1289.453125 252.816406 1271.636719 266.453125 1252.488281 275.628906 C 1227.824219 287.203125 1198.199219 291.671875 1164.433594 289.140625 C 1147.214844 287.738281 1129.878906 284.878906 1113.085938 280.671875 C 1091 275.421875 1068.476562 260.589844 1046.8125 246.339844 C 1022.40625 230.355469 997.300781 213.773438 972.066406 209.914062 C 965.796875 208.945312 959.566406 208.460938 953.199219 208.316406 C 876.296875 206.277344 797.996094 260.5625 745.6875 301.539062 C 732.496094 311.875 719.59375 323.816406 707.003906 335.570312 C 673.621094 366.574219 639.019531 398.648438 595.675781 402.742188 C 583.707031 403.855469 571.546875 402.542969 559.882812 401.347656 C 550.523438 400.464844 540.828125 399.441406 531.238281 399.714844 C 511.394531 400.148438 485.179688 408.585938 476.5 430.621094 L 477.671875 431.015625 C 486.375 409.304688 512.132812 401.230469 531.640625 400.660156 Z M 534.367188 406.308594 C 544.160156 406.507812 554.054688 408.003906 563.625 409.523438 C 575.828125 411.324219 588.527344 413.25 601.34375 412.558594 C 647.257812 410.050781 682.863281 376.265625 717.414062 343.542969 C 729.542969 332.152344 741.960938 320.246094 754.667969 309.949219 C 811.472656 264.054688 886.160156 211.523438 959.167969 213.707031 C 965.375 213.867188 971.617188 214.511719 977.722656 215.492188 C 1002.324219 219.566406 1027.019531 237.160156 1050.84375 254.003906 C 1072.421875 269.238281 1094.699219 285.066406 1116.664062 290.816406 C 1133.480469 295.347656 1150.664062 298.382812 1168.058594 299.933594 C 1202.175781 302.761719 1231.789062 298.128906 1256.398438 285.910156 C 1275.210938 276.59375 1292.816406 262.324219 1311.675781 241.273438 C 1323.949219 227.589844 1335.597656 212.164062 1346.648438 197.4375 C 1375.105469 159.820312 1404.449219 120.992188 1447.589844 106.160156 L 1447.175781 105.050781 C 1403.722656 120.070312 1374.234375 159.074219 1345.785156 196.855469 C 1334.574219 211.59375 1323.074219 226.847656 1310.8125 240.691406 C 1292.105469 261.566406 1274.5 275.835938 1255.847656 285.140625 C 1231.5625 297.332031 1202.113281 301.953125 1168.15625 299.109375 C 1150.925781 297.546875 1133.738281 294.511719 1117.082031 289.96875 C 1095.292969 284.367188 1073.019531 268.539062 1051.617188 253.457031 C 1027.617188 236.460938 1002.921875 218.867188 977.980469 214.65625 C 971.714844 213.6875 965.472656 213.042969 959.265625 212.886719 C 885.773438 210.738281 810.921875 263.28125 753.96875 309.355469 C 741.261719 319.652344 728.683594 331.566406 716.714844 342.945312 C 683.085938 374.945312 648.222656 407.859375 604.019531 411.367188 C 603.210938 411.433594 602.238281 411.507812 601.429688 411.574219 C 588.773438 412.253906 576.074219 410.328125 563.875 408.527344 C 554.300781 407.007812 544.40625 405.511719 534.453125 405.324219 C 513.722656 404.851562 486.285156 412.246094 477.171875 434.964844 L 478.34375 435.359375 C 487.171875 413.152344 513.960938 405.8125 534.367188 406.308594 Z M 537.097656 411.957031 C 547.253906 412.617188 557.511719 414.574219 567.28125 416.566406 C 580.03125 419.136719 593.269531 421.671875 606.449219 421.441406 C 654.605469 420.546875 691.230469 385.214844 726.476562 350.96875 C 738.121094 339.617188 750.226562 327.902344 762.460938 317.804688 C 829.554688 261.964844 908.261719 206.671875 983.464844 220.089844 C 1007.769531 224.511719 1032.21875 243.101562 1055.644531 261.117188 C 1076.8125 277.359375 1098.84375 294.1875 1120.511719 300.285156 C 1176.832031 316.019531 1223.46875 314.433594 1259.449219 295.609375 C 1295.429688 276.78125 1320.96875 241.351562 1345.613281 206.96875 C 1373.941406 167.734375 1403.144531 127.125 1447.667969 113.324219 L 1447.253906 112.214844 C 1402.417969 126.203125 1373.054688 166.824219 1344.578125 206.238281 C 1319.921875 240.457031 1294.53125 275.714844 1258.699219 294.363281 C 1223.03125 313 1176.554688 314.574219 1120.570312 298.980469 C 1099.078125 293.027344 1077.222656 276.351562 1056.214844 260.097656 C 1032.613281 241.929688 1008.152344 223.179688 983.523438 218.78125 C 907.824219 205.238281 828.804688 260.722656 761.558594 316.734375 C 749.339844 326.992188 737.234375 338.710938 725.589844 350.0625 C 690.496094 384.132812 654.191406 419.441406 606.359375 420.308594 C 593.339844 420.527344 580.105469 417.992188 567.355469 415.421875 C 557.421875 413.4375 547.164062 411.484375 537.007812 410.824219 C 513.746094 409.25 486.210938 417.464844 477.183594 439.199219 L 478.355469 439.597656 C 487.273438 418.519531 514.335938 410.507812 537.097656 411.957031 Z M 537.097656 411.957031 " fill-opacity="1" fill-rule="nonzero"/></g></g></g></svg>