<svg xmlns="http://www.w3.org/2000/svg" xmlns:xlink="http://www.w3.org/1999/xlink" width="1920" zoomAndPan="magnify" viewBox="0 0 1440 359.999987" height="480" preserveAspectRatio="xMidYMid meet" version="1.0"><defs><clipPath id="08463740b5"><path d="M 0 0 L 1095.75 0 L 1095.75 271 L 0 271 Z M 0 0 " clip-rule="nonzero"/></clipPath></defs><g clip-path="url(#08463740b5)"><path fill="#1a1674" d="M 1.605469 191.921875 L 0.355469 191.386719 C 28.203125 115.519531 100.324219 49.292969 192.96875 14.304688 C 265.089844 -13.007812 348.988281 -22.46875 456.628906 -15.503906 C 500.007812 -12.648438 543.921875 -7.652344 586.40625 -2.652344 C 630.855469 2.523438 676.910156 7.878906 722.433594 10.558594 C 774.914062 13.769531 843.285156 14.664062 907.011719 -6.222656 C 975.023438 -28.359375 1030.71875 -74.234375 1084.628906 -118.328125 C 1088.023438 -121.183594 1091.59375 -124.039062 1095.164062 -126.894531 L 1096.054688 -125.824219 C 1092.484375 -122.96875 1089.09375 -120.113281 1085.523438 -117.257812 C 1031.433594 -72.984375 975.738281 -27.109375 907.546875 -4.792969 C 843.640625 16.269531 775.09375 15.199219 722.433594 12.164062 C 676.910156 9.484375 630.855469 4.128906 586.40625 -1.046875 C 543.921875 -6.042969 500.007812 -11.042969 456.808594 -13.898438 C 349.34375 -20.859375 265.800781 -11.398438 193.683594 15.734375 C 101.035156 50.542969 29.277344 116.414062 1.605469 191.921875 Z M 29.8125 148.367188 C 41.414062 133.90625 54.265625 120.519531 68.371094 108.378906 C 109.605469 72.144531 155.660156 43.222656 201.539062 24.835938 C 274.550781 -4.082031 362.375 -15.503906 462.519531 -8.722656 C 469.660156 -8.1875 476.800781 -7.652344 484.121094 -6.9375 C 518.039062 -3.902344 552.132812 1.273438 585.15625 6.453125 C 611.578125 10.558594 638.710938 14.664062 665.664062 17.699219 C 687.800781 20.195312 707.4375 21.980469 725.289062 23.230469 C 765.632812 25.910156 798.476562 25.550781 829.003906 22.160156 C 856.136719 19.304688 883.089844 13.054688 908.976562 3.953125 C 935.753906 -5.6875 963.0625 -19.789062 992.160156 -39.425781 C 1018.046875 -56.742188 1043.214844 -76.734375 1067.492188 -96.015625 C 1076.777344 -103.332031 1086.238281 -110.832031 1095.699219 -118.148438 L 1094.804688 -119.21875 C 1085.34375 -111.902344 1075.882812 -104.402344 1066.601562 -97.085938 C 1018.222656 -58.527344 968.0625 -18.898438 908.441406 2.703125 C 882.734375 11.804688 855.957031 17.875 828.824219 20.730469 C 798.476562 24.125 765.632812 24.480469 725.46875 21.804688 C 707.4375 20.554688 687.980469 18.769531 665.84375 16.269531 C 638.890625 13.234375 611.753906 9.128906 585.335938 5.023438 C 552.3125 -0.152344 518.039062 -5.332031 484.121094 -8.363281 C 476.980469 -9.078125 469.660156 -9.613281 462.519531 -10.148438 C 362.199219 -16.753906 274.191406 -5.507812 201.003906 23.589844 C 154.945312 41.976562 108.714844 70.894531 67.476562 107.308594 C 53.375 119.449219 40.34375 133.015625 28.738281 147.472656 C 16.78125 162.289062 7.320312 178.714844 0.355469 196.386719 L 1.605469 196.921875 C 8.390625 179.429688 18.03125 163.003906 29.8125 148.367188 Z M 32.308594 154.792969 C 45.519531 140.511719 59.800781 128.910156 73.367188 118.554688 C 109.960938 90.351562 158.515625 55.363281 209.75 33.941406 C 284.1875 2.882812 373.800781 -10.148438 468.769531 -3.546875 C 475.910156 -3.011719 483.050781 -2.472656 490.191406 -1.761719 C 522.855469 1.453125 555.703125 7.878906 587.476562 13.949219 C 614.253906 19.125 641.925781 24.480469 669.414062 27.871094 C 691.191406 30.730469 710.652344 32.691406 728.859375 33.941406 C 768.308594 36.796875 802.046875 36.261719 832.039062 32.335938 C 858.992188 28.945312 885.414062 22.160156 910.761719 12.34375 C 963.421875 -8.1875 1008.40625 -43.351562 1051.960938 -77.449219 C 1066.066406 -88.515625 1080.882812 -99.941406 1095.519531 -110.832031 L 1094.804688 -111.902344 C 1079.988281 -101.011719 1065.351562 -89.585938 1051.25 -78.519531 C 1007.691406 -44.601562 962.886719 -9.4375 910.402344 11.09375 C 885.234375 20.910156 858.8125 27.515625 832.039062 30.90625 C 802.046875 34.835938 768.308594 35.371094 729.035156 32.515625 C 710.828125 31.265625 691.550781 29.121094 669.769531 26.445312 C 642.460938 23.054688 614.789062 17.699219 588.011719 12.519531 C 556.238281 6.453125 523.394531 0.0234375 490.726562 -3.1875 C 483.585938 -3.902344 476.445312 -4.4375 469.304688 -4.972656 C 373.980469 -11.578125 284.1875 1.453125 209.570312 32.515625 C 158.160156 53.933594 109.605469 89.101562 73.011719 117.304688 C 59.445312 127.839844 45.164062 139.441406 31.953125 153.722656 C 17.316406 169.609375 7.140625 185.140625 0.890625 201.207031 L 2.140625 201.742188 C 7.855469 185.855469 17.851562 170.503906 32.308594 154.792969 Z M 34.988281 161.21875 C 48.554688 148.902344 63.726562 138.726562 78.367188 128.730469 C 86.398438 123.375 94.253906 117.84375 102.820312 112.128906 C 139.59375 86.960938 177.441406 60.71875 217.960938 43.046875 C 294.722656 9.484375 383.621094 -4.792969 474.839844 1.808594 C 481.976562 2.34375 489.117188 3.058594 496.257812 3.773438 C 528.035156 7.164062 560.167969 14.664062 591.046875 21.980469 C 617.824219 28.230469 645.316406 34.65625 672.804688 38.40625 C 694.226562 41.4375 713.507812 43.761719 731.894531 45.1875 C 770.988281 48.402344 804.726562 47.6875 834.714844 43.046875 C 861.492188 39.117188 887.554688 31.800781 912.367188 21.269531 C 958.957031 1.453125 999.660156 -29.964844 1038.929688 -60.488281 C 1057.140625 -74.769531 1076.0625 -89.410156 1095.339844 -102.796875 L 1094.625 -103.867188 C 1075.347656 -90.480469 1056.425781 -75.84375 1038.039062 -61.5625 C 998.945312 -31.035156 958.421875 0.382812 911.832031 20.019531 C 887.019531 30.550781 861.132812 37.871094 834.535156 41.796875 C 804.546875 46.257812 770.988281 46.972656 731.894531 43.9375 C 713.683594 42.511719 694.226562 40.191406 672.984375 37.15625 C 645.671875 33.40625 618.003906 26.980469 591.40625 20.730469 C 560.523438 13.589844 528.390625 6.09375 496.4375 2.523438 C 489.296875 1.808594 482.15625 1.097656 475.015625 0.558594 C 383.441406 -6.042969 294.363281 8.238281 217.425781 41.976562 C 176.902344 59.824219 138.882812 85.886719 102.109375 111.238281 C 93.71875 117.128906 85.683594 122.484375 77.652344 127.839844 C 62.835938 137.835938 47.664062 148.011719 34.09375 160.507812 C 17.851562 175.324219 6.785156 190.316406 0.355469 206.382812 L 1.605469 206.917969 C 8.03125 190.851562 18.921875 175.859375 34.988281 161.21875 Z M 37.664062 167.824219 C 49.269531 158.898438 61.585938 151.757812 74.617188 144.261719 C 77.472656 142.476562 80.507812 140.871094 83.542969 139.085938 C 100.144531 129.445312 116.746094 118.378906 134.417969 106.597656 C 163.871094 86.960938 194.398438 66.789062 226.171875 52.148438 C 304.003906 16.449219 394.507812 0.382812 481.085938 6.988281 C 488.226562 7.523438 495.367188 8.238281 502.328125 9.128906 C 533.746094 12.878906 565.164062 21.445312 595.691406 29.835938 C 621.929688 36.976562 649.242188 44.472656 676.199219 48.757812 C 698.15625 52.148438 717.433594 54.648438 734.929688 56.253906 C 773.84375 59.648438 807.402344 58.753906 837.394531 53.757812 C 863.8125 49.292969 889.695312 41.261719 913.972656 30.015625 C 955.746094 10.914062 992.519531 -17.824219 1028.042969 -45.671875 C 1049.640625 -62.453125 1071.957031 -79.949219 1095.160156 -95.121094 L 1094.449219 -96.191406 C 1071.242188 -81.019531 1048.929688 -63.703125 1027.328125 -46.746094 C 991.804688 -19.074219 955.03125 9.664062 913.617188 28.765625 C 889.339844 40.011719 863.632812 47.867188 837.394531 52.328125 C 807.582031 57.328125 774.199219 58.21875 735.285156 54.828125 C 717.789062 53.222656 698.511719 50.902344 676.554688 47.507812 C 649.601562 43.222656 622.464844 35.726562 596.046875 28.585938 C 565.519531 20.195312 534.101562 11.628906 502.507812 7.878906 C 495.546875 6.988281 488.226562 6.273438 481.265625 5.738281 C 394.507812 -0.867188 303.644531 15.375 225.636719 51.078125 C 193.863281 65.714844 163.335938 85.886719 133.703125 105.523438 C 116.03125 117.128906 99.429688 128.195312 82.828125 138.011719 C 79.792969 139.796875 76.757812 141.582031 73.902344 143.191406 C 60.871094 150.6875 48.554688 158.007812 36.773438 166.753906 C 18.921875 180.320312 7.140625 194.78125 0.535156 211.203125 L 1.785156 211.738281 C 8.210938 195.671875 19.992188 181.214844 37.664062 167.824219 Z M 39.988281 174.25 C 50.519531 167.46875 61.585938 162.289062 73.1875 156.578125 C 78.007812 154.257812 83.1875 151.757812 88.183594 149.257812 C 110.320312 138.011719 132.097656 123.554688 155.304688 108.378906 C 180.652344 91.601562 206.894531 74.285156 233.847656 61.433594 C 313.644531 23.230469 403.433594 5.914062 486.796875 12.34375 C 493.582031 12.878906 500.542969 13.589844 508.039062 14.664062 C 538.921875 18.769531 569.628906 28.40625 599.261719 37.871094 C 625.324219 46.082031 652.457031 54.648438 679.234375 59.289062 C 701.546875 63.21875 720.113281 65.71875 737.605469 67.324219 C 776.34375 70.894531 809.722656 70 839.714844 64.289062 C 865.953125 59.289062 891.304688 50.722656 915.222656 38.761719 C 952.710938 20.195312 986.269531 -6.222656 1018.757812 -31.929688 C 1043.035156 -51.207031 1068.027344 -71.023438 1094.625 -87.265625 L 1093.914062 -88.335938 C 1067.3125 -72.09375 1042.324219 -52.101562 1017.867188 -33 C 985.558594 -7.292969 951.996094 19.125 914.6875 37.511719 C 890.945312 49.472656 865.597656 58.039062 839.535156 62.859375 C 809.722656 68.574219 776.519531 69.464844 737.960938 65.894531 C 720.46875 64.289062 701.902344 61.609375 679.589844 57.863281 C 652.8125 53.222656 625.859375 44.652344 599.796875 36.441406 C 569.984375 26.980469 539.28125 17.339844 508.21875 13.234375 C 500.722656 12.164062 493.761719 11.449219 486.976562 10.914062 C 403.433594 4.308594 313.285156 21.804688 233.492188 60.183594 C 206.359375 73.214844 180.117188 90.53125 154.769531 107.308594 C 131.742188 122.660156 109.785156 137.121094 87.828125 148.1875 C 82.648438 150.867188 77.652344 153.1875 72.832031 155.507812 C 61.230469 161.042969 50.160156 166.398438 39.449219 173.179688 C 20.171875 185.496094 7.496094 199.601562 0.535156 216.023438 L 1.785156 216.558594 C 8.390625 200.3125 21.0625 186.390625 39.988281 174.25 Z M 42.664062 180.675781 C 52.480469 175.5 62.480469 171.753906 73.011719 167.644531 C 79.617188 165.148438 86.398438 162.46875 93.359375 159.433594 C 119.78125 148.011719 145.128906 131.050781 172.261719 113.023438 C 194.933594 97.847656 218.320312 82.316406 242.238281 70.359375 C 323.640625 29.65625 412.714844 10.914062 493.046875 17.519531 C 500.007812 18.054688 507.148438 18.945312 514.109375 19.839844 C 544.457031 24.125 574.625 35.011719 603.722656 45.546875 C 629.605469 54.828125 656.203125 64.46875 682.800781 69.464844 C 705.296875 73.75 723.859375 76.425781 740.996094 78.210938 C 779.554688 82.140625 812.9375 80.890625 842.570312 74.820312 C 868.632812 69.285156 893.625 60.003906 917.007812 47.332031 C 950.746094 29.300781 981.273438 4.84375 1010.726562 -19.074219 C 1037.324219 -40.496094 1064.816406 -62.8125 1094.449219 -79.769531 L 1093.734375 -81.019531 C 1063.921875 -63.882812 1036.433594 -41.746094 1009.835938 -20.148438 C 980.378906 3.59375 950.03125 28.230469 916.472656 46.082031 C 893.265625 58.753906 868.273438 67.859375 842.390625 73.394531 C 812.757812 79.640625 779.554688 80.710938 741.175781 76.785156 C 724.039062 75 705.652344 72.320312 683.160156 68.039062 C 656.5625 63.039062 629.964844 53.398438 604.257812 44.117188 C 574.980469 33.585938 544.8125 22.695312 514.289062 18.410156 C 507.328125 17.339844 500.1875 16.625 493.046875 16.089844 C 412.539062 9.484375 323.105469 28.40625 241.523438 69.109375 C 217.425781 81.070312 194.039062 96.777344 171.371094 111.949219 C 144.414062 129.980469 119.066406 146.9375 92.824219 158.183594 C 85.863281 161.21875 79.082031 163.898438 72.476562 166.398438 C 61.941406 170.503906 51.945312 174.25 42.128906 179.429688 C 21.601562 190.136719 7.675781 204.0625 0.535156 220.84375 L 1.785156 221.378906 C 8.746094 205.132812 22.492188 191.386719 42.664062 180.675781 Z M 45.164062 187.28125 C 54.625 183.175781 64.085938 180.5 74.261719 177.464844 C 82.113281 175.144531 90.148438 172.824219 98.359375 169.789062 C 128.171875 158.898438 156.195312 139.796875 186.1875 119.628906 C 206.894531 105.523438 228.492188 91.066406 250.273438 79.640625 C 333.277344 36.441406 421.640625 16.449219 499.117188 22.875 C 505.898438 23.410156 512.859375 24.300781 520.179688 25.375 C 550.167969 30.015625 579.625 41.976562 608.363281 53.578125 C 633.890625 63.933594 660.132812 74.640625 686.371094 79.996094 C 708.507812 84.460938 726.894531 87.496094 744.210938 89.28125 C 782.945312 93.386719 816.148438 92.136719 845.425781 85.351562 C 871.132812 79.285156 895.765625 69.464844 918.613281 56.078125 C 949.140625 38.582031 976.988281 15.554688 1003.765625 -6.578125 C 1032.148438 -30.144531 1061.601562 -54.597656 1094.089844 -72.09375 L 1093.375 -73.34375 C 1060.710938 -55.847656 1031.253906 -31.394531 1002.695312 -7.828125 C 975.917969 14.484375 948.246094 37.332031 917.722656 54.828125 C 895.050781 68.039062 870.417969 77.855469 844.890625 83.925781 C 815.613281 90.707031 782.769531 91.957031 744.03125 87.851562 C 726.714844 86.066406 708.328125 83.03125 686.371094 78.570312 C 660.132812 73.214844 633.890625 62.503906 608.542969 52.148438 C 579.800781 40.546875 550.167969 28.40625 520.179688 23.765625 C 512.859375 22.695312 505.898438 21.804688 499.117188 21.269531 C 421.464844 14.664062 332.921875 35.011719 249.558594 78.210938 C 227.601562 89.636719 206.179688 104.097656 185.292969 118.199219 C 155.484375 138.371094 127.457031 157.472656 97.824219 168.183594 C 89.613281 171.214844 81.578125 173.535156 73.726562 175.859375 C 63.550781 178.890625 54.089844 181.570312 44.628906 185.675781 C 29.632812 192.101562 9.640625 204.242188 0.355469 225.484375 L 1.605469 226.019531 C 10.890625 205.492188 30.347656 193.53125 45.164062 187.28125 Z M 47.664062 193.707031 C 56.945312 190.496094 66.226562 188.53125 76.222656 186.570312 C 84.972656 184.785156 94.074219 182.820312 103.359375 179.964844 C 136.203125 169.96875 168.15625 148.011719 198.859375 126.765625 C 218.140625 113.378906 238.132812 99.632812 258.484375 88.746094 C 342.917969 43.222656 430.566406 21.625 505.183594 28.050781 C 512.148438 28.765625 519.109375 29.65625 526.070312 30.730469 C 555.523438 35.546875 584.621094 48.757812 612.648438 61.609375 C 637.640625 73.035156 663.703125 84.816406 689.585938 90.53125 C 708.507812 94.8125 727.789062 98.207031 747.066406 100.527344 C 785.445312 104.988281 818.292969 103.5625 847.925781 96.0625 C 873.453125 89.457031 897.730469 79.105469 920.042969 65.003906 C 947.710938 48.042969 973.238281 26.445312 997.695312 5.378906 C 1027.683594 -20.148438 1058.566406 -46.746094 1093.554688 -64.058594 L 1093.019531 -65.308594 C 1058.03125 -47.816406 1026.972656 -21.21875 996.980469 4.308594 C 972.527344 25.195312 947 46.972656 919.507812 63.753906 C 897.371094 77.675781 873.09375 88.210938 847.746094 94.636719 C 818.472656 101.953125 785.625 103.382812 747.421875 99.097656 C 728.144531 96.777344 708.867188 93.386719 689.941406 89.101562 C 664.058594 83.390625 638.175781 71.609375 613.183594 60.363281 C 584.980469 47.507812 555.882812 34.300781 526.25 29.480469 C 519.289062 28.40625 512.324219 27.515625 505.183594 26.800781 C 430.390625 20.195312 342.382812 41.796875 257.589844 87.496094 C 237.242188 98.5625 217.246094 112.308594 197.96875 125.695312 C 167.265625 146.9375 135.488281 168.894531 102.820312 178.714844 C 93.539062 181.570312 84.613281 183.355469 75.867188 185.320312 C 66.050781 187.460938 56.589844 189.425781 47.125 192.460938 C 18.207031 202.277344 5.710938 218.699219 0.535156 230.839844 L 1.785156 231.375 C 11.066406 209.953125 31.953125 199.0625 47.664062 193.707031 Z M 50.339844 200.136719 C 59.621094 197.816406 68.90625 196.566406 78.542969 195.316406 C 88.183594 194.066406 98.179688 192.816406 108.355469 190.136719 C 144.058594 181.390625 177.796875 157.648438 210.640625 134.445312 C 228.851562 121.589844 247.59375 108.378906 266.695312 97.671875 C 376.65625 36.085938 460.558594 28.585938 511.433594 33.226562 C 518.394531 33.941406 525.355469 34.835938 532.140625 36.085938 C 561.238281 41.261719 589.800781 55.542969 617.289062 69.464844 C 641.925781 81.78125 667.449219 94.636719 693.15625 100.703125 C 711.898438 105.347656 731.179688 108.917969 750.28125 111.238281 C 788.480469 115.878906 821.328125 114.273438 850.601562 106.417969 C 874.523438 99.992188 897.730469 89.28125 921.648438 73.394531 C 946.820312 56.96875 970.027344 36.441406 992.519531 16.625 C 1023.757812 -10.863281 1056.070312 -39.425781 1093.378906 -56.742188 L 1092.839844 -57.992188 C 1055.355469 -40.675781 1023.042969 -12.113281 991.625 15.554688 C 969.132812 35.371094 945.925781 55.898438 920.9375 72.320312 C 897.015625 88.03125 873.988281 98.742188 850.246094 105.167969 C 820.96875 113.023438 788.300781 114.628906 750.28125 109.988281 C 731.179688 107.488281 711.898438 103.917969 693.15625 99.457031 C 667.628906 93.386719 642.101562 80.53125 617.46875 68.214844 C 589.800781 54.292969 561.058594 39.832031 531.78125 34.835938 C 524.820312 33.585938 517.859375 32.691406 510.898438 31.976562 C 418.25 23.589844 326.316406 62.503906 265.445312 96.597656 C 246.34375 107.308594 227.601562 120.519531 209.394531 133.371094 C 176.902344 156.398438 143.164062 180.140625 107.640625 188.890625 C 97.46875 191.386719 87.46875 192.636719 78.007812 194.066406 C 68.191406 195.316406 59.085938 196.566406 49.625 198.886719 C 35.703125 202.457031 10.890625 211.917969 0 235.660156 L 1.25 236.195312 C 12.316406 212.988281 36.773438 203.707031 50.339844 200.136719 Z M 53.019531 206.5625 C 62.480469 204.777344 71.761719 204.242188 81.402344 203.707031 C 91.753906 203.167969 102.464844 202.457031 113.53125 200.3125 C 151.914062 192.996094 187.4375 167.289062 221.710938 142.65625 C 239.027344 130.160156 256.699219 117.304688 274.90625 106.773438 C 336.492188 71.070312 428.605469 30.191406 517.503906 38.40625 C 524.105469 38.941406 531.070312 40.011719 538.210938 41.261719 C 566.769531 46.617188 594.796875 62.148438 621.929688 77.140625 C 646.207031 90.53125 671.378906 104.453125 696.726562 110.878906 C 715.46875 115.699219 734.570312 119.625 753.671875 122.125 C 791.695312 127.125 824.539062 125.339844 853.636719 116.769531 C 877.023438 109.988281 900.050781 98.5625 923.613281 81.960938 C 946.460938 65.894531 967.882812 46.4375 988.414062 27.695312 C 1020.722656 -1.761719 1053.925781 -32.285156 1093.554688 -49.066406 L 1093.019531 -50.316406 C 1053.390625 -33.355469 1019.832031 -2.832031 987.519531 26.800781 C 966.992188 45.546875 945.570312 65.003906 922.722656 81.070312 C 899.335938 97.671875 876.488281 108.917969 853.101562 115.699219 C 824.003906 124.269531 791.515625 125.875 753.671875 121.054688 C 734.570312 118.378906 715.46875 114.628906 696.90625 109.808594 C 671.734375 103.382812 646.566406 89.636719 622.464844 76.25 C 595.332031 61.253906 567.128906 45.722656 538.386719 40.191406 C 531.246094 38.941406 524.285156 37.867188 517.503906 37.332031 C 428.246094 28.945312 335.777344 70 274.015625 105.882812 C 255.984375 116.414062 238.132812 129.265625 220.816406 141.761719 C 186.722656 166.398438 151.378906 191.921875 113.175781 199.242188 C 102.109375 201.382812 91.574219 201.921875 81.222656 202.632812 C 71.402344 203.167969 62.300781 203.707031 52.660156 205.492188 C 40.878906 207.632812 12.140625 215.308594 0.355469 240.835938 L 1.605469 241.371094 C 13.210938 216.199219 41.414062 208.703125 53.019531 206.5625 Z M 55.339844 213.167969 C 64.976562 212.09375 74.261719 212.09375 84.078125 212.273438 C 95.144531 212.273438 106.570312 212.453125 118.175781 210.847656 C 159.230469 205.132812 196.183594 177.644531 231.886719 151.222656 C 248.308594 139.085938 265.265625 126.589844 282.402344 116.234375 C 373.265625 61.609375 454.128906 37.332031 523.035156 43.9375 C 529.996094 44.652344 536.78125 45.722656 543.742188 46.972656 C 571.949219 52.683594 599.4375 69.285156 626.214844 85.351562 C 650.136719 99.8125 674.769531 114.808594 699.761719 121.589844 C 718.328125 126.765625 737.425781 130.695312 756.347656 133.550781 C 794.371094 138.726562 826.859375 136.765625 855.957031 127.660156 C 878.808594 120.519531 901.300781 108.558594 924.863281 91.066406 C 945.75 75.535156 965.386719 56.96875 984.308594 38.941406 C 1017.332031 7.523438 1051.425781 -24.789062 1092.839844 -41.03125 L 1092.304688 -42.28125 C 1050.535156 -25.859375 1016.261719 6.628906 983.234375 38.046875 C 964.3125 56.078125 944.855469 74.640625 923.96875 90.171875 C 900.765625 107.667969 878.273438 119.625 855.601562 126.589844 C 826.683594 135.691406 794.371094 137.476562 756.527344 132.300781 C 737.605469 129.625 718.503906 125.519531 700.117188 120.339844 C 675.304688 113.558594 650.671875 98.742188 626.929688 84.28125 C 600.152344 68.039062 572.660156 51.4375 544.101562 45.722656 C 537.316406 44.296875 530.175781 43.402344 523.394531 42.6875 C 454.308594 36.085938 373.085938 60.363281 282.046875 115.164062 C 264.730469 125.519531 247.773438 138.191406 231.351562 150.332031 C 195.648438 176.75 158.875 204.0625 118.175781 209.773438 C 106.570312 211.382812 95.144531 211.382812 84.257812 211.203125 C 74.796875 211.203125 64.976562 211.023438 55.339844 212.09375 C 29.453125 214.953125 9.105469 227.625 0.535156 245.832031 L 1.785156 246.371094 C 9.996094 228.339844 29.988281 216.023438 55.339844 213.167969 Z M 58.015625 219.59375 C 67.835938 219.058594 77.652344 219.769531 87.292969 220.484375 C 98.894531 221.378906 111.035156 222.09375 123.351562 221.019531 C 166.730469 216.914062 205.109375 187.816406 242.238281 159.792969 C 257.949219 147.832031 274.371094 135.515625 290.792969 125.339844 C 382.726562 68.214844 463.054688 42.6875 529.460938 49.292969 C 536.246094 50.007812 543.207031 51.078125 549.992188 52.507812 C 577.839844 58.398438 604.792969 76.25 631.035156 93.5625 C 654.597656 109.09375 678.875 125.160156 703.511719 132.300781 C 721.898438 137.835938 740.820312 141.941406 759.917969 144.796875 C 797.226562 150.152344 830.609375 148.011719 859.171875 138.550781 C 881.664062 131.050781 903.800781 118.378906 927.003906 99.992188 C 946.105469 84.816406 964.136719 67.144531 981.449219 49.828125 C 1015.011719 16.625 1049.820312 -17.648438 1093.199219 -33.179688 L 1092.664062 -34.425781 C 1048.929688 -18.71875 1014.117188 15.554688 980.378906 48.9375 C 963.0625 66.074219 945.035156 83.925781 926.113281 98.917969 C 903.085938 117.304688 880.949219 129.800781 858.8125 137.300781 C 830.609375 146.761719 797.40625 148.902344 760.277344 143.546875 C 741.355469 140.691406 722.433594 136.585938 704.046875 131.050781 C 679.589844 123.910156 655.3125 108.023438 631.925781 92.492188 C 605.6875 75.179688 578.550781 57.328125 550.527344 51.257812 C 543.742188 49.828125 536.78125 48.757812 529.820312 48.042969 C 463.054688 41.4375 382.546875 67.144531 290.4375 124.269531 C 273.835938 134.621094 257.589844 146.9375 241.703125 158.898438 C 204.75 186.746094 166.550781 215.664062 123.527344 219.769531 C 111.210938 221.019531 99.25 220.128906 87.648438 219.234375 C 78.007812 218.523438 68.011719 217.808594 58.195312 218.34375 C 18.03125 220.484375 4.105469 243.511719 0.714844 250.476562 L 1.964844 251.011719 C 5 244.046875 18.566406 221.554688 58.015625 219.59375 Z M 60.15625 226.019531 C 60.335938 226.019531 60.515625 226.019531 60.695312 226.019531 C 70.691406 226.019531 80.867188 227.449219 90.683594 228.695312 C 103 230.304688 115.675781 231.910156 128.527344 231.195312 C 174.40625 228.875 214.035156 198.171875 252.414062 168.539062 C 267.585938 156.757812 283.296875 144.617188 299.183594 134.441406 C 393.257812 73.929688 470.730469 47.867188 535.710938 54.46875 C 542.492188 55.183594 549.457031 56.253906 556.238281 57.863281 C 583.730469 63.933594 610.328125 83.03125 636.03125 101.417969 C 659.0625 118.019531 682.804688 134.980469 707.257812 142.476562 C 725.46875 148.1875 744.390625 152.652344 763.3125 155.6875 C 800.621094 161.398438 833.824219 159.078125 862.027344 148.902344 C 884.164062 141.046875 905.40625 128.195312 928.613281 108.558594 C 946.105469 93.742188 962.527344 76.785156 978.59375 60.363281 C 1012.691406 25.195312 1047.855469 -11.042969 1093.019531 -25.679688 L 1092.664062 -26.929688 C 1047.144531 -12.113281 1011.796875 24.125 977.703125 59.46875 C 961.816406 75.890625 945.214844 92.851562 927.898438 107.667969 C 904.691406 127.304688 883.628906 139.976562 861.671875 147.832031 C 833.644531 157.828125 800.621094 160.148438 763.488281 154.613281 C 744.566406 151.582031 725.824219 147.296875 707.617188 141.40625 C 683.515625 133.90625 659.773438 116.949219 636.925781 100.527344 C 611.21875 81.960938 584.441406 62.859375 556.773438 56.792969 C 549.992188 55.183594 543.027344 54.113281 536.066406 53.398438 C 470.730469 46.617188 393.078125 72.855469 298.648438 133.550781 C 282.761719 143.726562 267.050781 156.042969 251.699219 167.824219 C 213.5 197.277344 174.046875 227.804688 128.707031 230.304688 C 115.851562 231.015625 103.179688 229.410156 91.039062 227.804688 C 81.222656 226.554688 71.046875 225.304688 60.871094 225.125 C 60.695312 225.125 60.515625 225.125 60.335938 225.125 C 38.558594 225.125 11.601562 233.160156 0.714844 255.652344 L 1.964844 256.1875 C 12.316406 233.875 38.738281 226.019531 60.15625 226.019531 Z M 63.191406 232.445312 C 73.546875 232.980469 84.078125 234.945312 94.253906 236.730469 C 106.929688 239.050781 120.136719 241.371094 133.527344 241.371094 C 181.722656 240.835938 222.601562 208.523438 262.054688 177.285156 C 276.691406 165.683594 291.863281 153.722656 307.214844 143.546875 C 367.910156 103.382812 458.058594 50.902344 541.78125 59.824219 C 548.5625 60.539062 555.523438 61.609375 562.128906 63.21875 C 589.261719 69.644531 615.324219 89.816406 640.316406 109.273438 C 662.988281 126.945312 686.371094 144.976562 710.292969 152.828125 C 728.5 158.898438 747.246094 163.539062 765.988281 166.753906 C 803.117188 172.644531 836.144531 170.144531 864.347656 159.613281 C 886.304688 151.042969 907.191406 137.65625 929.863281 117.128906 C 945.925781 102.667969 961.101562 86.425781 975.738281 70.535156 C 1010.011719 33.585938 1045.359375 -4.4375 1092.304688 -18.183594 L 1091.949219 -19.433594 C 1044.644531 -5.6875 1009.121094 32.515625 974.847656 69.644531 C 960.207031 85.53125 945.035156 101.777344 928.96875 116.058594 C 906.296875 136.40625 885.589844 149.796875 863.8125 158.183594 C 835.785156 168.71875 802.941406 171.039062 766.167969 165.324219 C 747.421875 162.289062 728.679688 157.648438 710.648438 151.582031 C 686.910156 143.90625 663.523438 125.695312 641.03125 108.203125 C 615.683594 88.566406 589.621094 68.214844 562.308594 61.789062 C 555.523438 60.183594 548.742188 59.113281 541.78125 58.398438 C 457.699219 49.472656 367.195312 102.132812 306.324219 142.476562 C 290.972656 152.652344 275.796875 164.613281 260.980469 176.394531 C 221.710938 207.453125 181.007812 239.585938 133.167969 240.300781 C 119.960938 240.480469 106.75 237.980469 94.074219 235.660156 C 83.898438 233.875 73.367188 231.910156 62.835938 231.375 C 41.058594 230.125 11.601562 237.085938 0.179688 260.472656 L 1.429688 261.007812 C 12.851562 237.980469 41.773438 231.375 63.191406 232.445312 Z M 65.691406 238.871094 C 76.402344 239.941406 87.113281 242.441406 97.464844 244.941406 C 110.675781 247.976562 124.421875 251.1875 138.523438 251.546875 C 189.042969 252.796875 230.992188 218.878906 271.691406 186.03125 C 285.972656 174.609375 300.613281 162.648438 315.429688 152.472656 C 381.65625 107.132812 468.054688 56.078125 547.847656 64.824219 C 554.632812 65.539062 561.414062 66.789062 568.019531 68.394531 C 594.617188 75 620.144531 96.421875 644.78125 116.949219 C 667.09375 135.515625 690.121094 154.792969 713.683594 163.003906 C 731.714844 169.429688 750.28125 174.25 769.203125 177.464844 C 806.332031 183.535156 839.179688 181.035156 867.203125 169.789062 C 888.625 161.21875 909.152344 147.117188 931.644531 125.695312 C 946.285156 111.773438 960.386719 95.886719 973.773438 80.710938 C 1008.226562 41.976562 1043.75 1.988281 1092.304688 -10.507812 L 1091.949219 -11.757812 C 1043.035156 0.917969 1007.335938 41.082031 972.882812 79.996094 C 959.316406 95.171875 945.390625 110.878906 930.753906 124.980469 C 908.441406 146.226562 887.910156 160.328125 866.667969 168.894531 C 839 180.140625 806.332031 182.640625 769.378906 176.570312 C 750.636719 173.359375 732.070312 168.539062 714.21875 162.113281 C 690.835938 154.078125 667.808594 134.800781 645.671875 116.414062 C 620.859375 95.707031 595.332031 74.285156 568.378906 67.5 C 561.59375 65.894531 554.8125 64.644531 548.027344 63.933594 C 467.699219 55.183594 381.121094 106.238281 314.714844 151.757812 C 299.898438 161.933594 285.082031 173.894531 270.980469 185.320312 C 231.351562 217.449219 190.292969 250.476562 141.558594 250.476562 C 140.667969 250.476562 139.59375 250.476562 138.703125 250.476562 C 124.777344 250.117188 111.035156 246.90625 97.824219 243.871094 C 87.46875 241.371094 76.757812 238.871094 65.871094 237.800781 C 43.199219 235.480469 12.496094 241.191406 0.535156 265.292969 L 1.785156 265.828125 C 13.386719 242.265625 43.378906 236.550781 65.691406 238.871094 Z M 68.191406 245.296875 C 79.257812 246.90625 90.328125 249.941406 100.859375 252.972656 C 114.605469 256.902344 128.882812 260.828125 143.34375 261.722656 C 196.183594 264.933594 239.382812 229.410156 280.976562 194.957031 C 294.722656 183.535156 309 171.753906 323.28125 161.753906 C 401.648438 106.417969 492.6875 52.683594 573.910156 73.929688 C 600.152344 80.890625 625.324219 103.382812 649.421875 125.160156 C 671.199219 144.796875 693.871094 165.148438 717.078125 173.714844 C 777.414062 195.851562 828.644531 198.171875 869.703125 180.675781 C 910.761719 163.183594 941.820312 126.589844 971.8125 91.066406 C 1006.265625 50.542969 1041.789062 8.59375 1091.769531 -2.652344 L 1091.414062 -3.902344 C 1041.074219 7.523438 1005.371094 49.472656 970.738281 90.171875 C 940.75 125.519531 909.867188 161.933594 868.988281 179.25 C 828.289062 196.566406 777.234375 194.246094 717.253906 172.289062 C 694.226562 163.898438 671.734375 143.726562 650.136719 124.089844 C 625.859375 102.132812 600.6875 79.460938 574.089844 72.5 C 492.332031 51.078125 400.933594 104.988281 322.390625 160.503906 C 308.109375 170.679688 293.828125 182.460938 280.082031 193.886719 C 238.667969 228.160156 195.824219 263.683594 143.34375 260.472656 C 129.0625 259.578125 114.78125 255.652344 101.035156 251.726562 C 90.328125 248.691406 79.257812 245.65625 68.191406 244.046875 C 42.84375 240.300781 11.960938 246.90625 0.179688 269.933594 L 1.429688 270.46875 C 13.03125 248.15625 43.378906 241.726562 68.191406 245.296875 Z M 68.191406 245.296875 " fill-opacity="1" fill-rule="nonzero"/></g></svg>