<svg xmlns="http://www.w3.org/2000/svg" xmlns:xlink="http://www.w3.org/1999/xlink" width="6912" zoomAndPan="magnify" viewBox="0 0 5184 2592.000001" height="3456" preserveAspectRatio="xMidYMid meet" version="1.0"><defs><clipPath id="9e56405414"><path d="M 363 2119 L 663 2119 L 663 2432 L 363 2432 Z M 363 2119 " clip-rule="nonzero"/></clipPath><clipPath id="5b7f826cfd"><path d="M 250.644531 2112.507812 L 711.875 2038.882812 L 775.691406 2438.664062 L 314.460938 2512.289062 Z M 250.644531 2112.507812 " clip-rule="nonzero"/></clipPath><clipPath id="8130976cee"><path d="M 250.644531 2112.507812 L 711.875 2038.882812 L 775.691406 2438.664062 L 314.460938 2512.289062 Z M 250.644531 2112.507812 " clip-rule="nonzero"/></clipPath><clipPath id="eddacd7f46"><path d="M 491 2254 L 535 2254 L 535 2297 L 491 2297 Z M 491 2254 " clip-rule="nonzero"/></clipPath><clipPath id="5acd348f91"><path d="M 250.644531 2112.507812 L 711.875 2038.882812 L 775.691406 2438.664062 L 314.460938 2512.289062 Z M 250.644531 2112.507812 " clip-rule="nonzero"/></clipPath><clipPath id="8a724655e8"><path d="M 250.644531 2112.507812 L 711.875 2038.882812 L 775.691406 2438.664062 L 314.460938 2512.289062 Z M 250.644531 2112.507812 " clip-rule="nonzero"/></clipPath></defs><g clip-path="url(#9e56405414)"><g clip-path="url(#5b7f826cfd)"><g clip-path="url(#8130976cee)"><path fill="#ffffff" d="M 522.363281 2251.171875 C 596.5 2057.332031 365.945312 2094.136719 496.746094 2255.257812 C 365.949219 2094.136719 282.542969 2312.203125 487.480469 2279.488281 C 282.542969 2312.203125 429.691406 2493.464844 503.828125 2299.628906 C 429.691406 2493.464844 660.246094 2456.664062 529.445312 2295.539062 C 660.242188 2456.664062 743.648438 2238.597656 538.710938 2271.308594 C 743.648438 2238.597656 596.5 2057.335938 522.363281 2251.171875 Z M 522.363281 2251.171875 " fill-opacity="1" fill-rule="nonzero"/></g></g></g><g clip-path="url(#eddacd7f46)"><g clip-path="url(#5acd348f91)"><g clip-path="url(#8a724655e8)"><path fill="#d34a24" d="M 534.054688 2272.054688 C 534.164062 2272.742188 534.238281 2273.429688 534.28125 2274.125 C 534.324219 2274.816406 534.332031 2275.511719 534.304688 2276.207031 C 534.277344 2276.902344 534.21875 2277.59375 534.125 2278.28125 C 534.027344 2278.96875 533.902344 2279.652344 533.738281 2280.328125 C 533.578125 2281.003906 533.382812 2281.671875 533.15625 2282.328125 C 532.929688 2282.984375 532.671875 2283.628906 532.382812 2284.261719 C 532.089844 2284.894531 531.769531 2285.507812 531.417969 2286.109375 C 531.070312 2286.710938 530.691406 2287.289062 530.28125 2287.855469 C 529.875 2288.417969 529.4375 2288.957031 528.976562 2289.476562 C 528.515625 2290 528.03125 2290.496094 527.523438 2290.96875 C 527.011719 2291.441406 526.480469 2291.886719 525.925781 2292.304688 C 525.371094 2292.726562 524.800781 2293.117188 524.207031 2293.480469 C 523.613281 2293.847656 523.007812 2294.179688 522.382812 2294.484375 C 521.757812 2294.789062 521.117188 2295.0625 520.464844 2295.300781 C 519.8125 2295.542969 519.152344 2295.753906 518.480469 2295.929688 C 517.808594 2296.105469 517.128906 2296.25 516.441406 2296.359375 C 515.753906 2296.46875 515.066406 2296.542969 514.371094 2296.585938 C 513.675781 2296.625 512.984375 2296.632812 512.289062 2296.609375 C 511.59375 2296.582031 510.902344 2296.519531 510.214844 2296.425781 C 509.523438 2296.332031 508.84375 2296.203125 508.167969 2296.042969 C 507.492188 2295.882812 506.824219 2295.6875 506.167969 2295.460938 C 505.507812 2295.234375 504.867188 2294.976562 504.234375 2294.683594 C 503.601562 2294.394531 502.984375 2294.074219 502.386719 2293.722656 C 501.785156 2293.371094 501.203125 2292.992188 500.640625 2292.585938 C 500.078125 2292.175781 499.539062 2291.742188 499.015625 2291.28125 C 498.496094 2290.820312 498 2290.335938 497.527344 2289.824219 C 497.054688 2289.316406 496.609375 2288.785156 496.1875 2288.230469 C 495.769531 2287.675781 495.378906 2287.101562 495.011719 2286.511719 C 494.648438 2285.917969 494.316406 2285.308594 494.011719 2284.683594 C 493.707031 2284.058594 493.433594 2283.421875 493.191406 2282.769531 C 492.953125 2282.117188 492.742188 2281.457031 492.566406 2280.78125 C 492.390625 2280.109375 492.246094 2279.429688 492.136719 2278.746094 C 492.027344 2278.058594 491.953125 2277.367188 491.910156 2276.675781 C 491.867188 2275.980469 491.859375 2275.285156 491.886719 2274.59375 C 491.914062 2273.898438 491.972656 2273.207031 492.070312 2272.515625 C 492.164062 2271.828125 492.289062 2271.144531 492.453125 2270.46875 C 492.613281 2269.792969 492.808594 2269.128906 493.035156 2268.46875 C 493.261719 2267.8125 493.519531 2267.167969 493.8125 2266.539062 C 494.101562 2265.90625 494.421875 2265.289062 494.773438 2264.691406 C 495.125 2264.089844 495.503906 2263.507812 495.910156 2262.945312 C 496.316406 2262.382812 496.753906 2261.839844 497.214844 2261.320312 C 497.675781 2260.800781 498.160156 2260.304688 498.671875 2259.832031 C 499.179688 2259.359375 499.710938 2258.914062 500.265625 2258.492188 C 500.820312 2258.074219 501.390625 2257.679688 501.984375 2257.316406 C 502.578125 2256.953125 503.183594 2256.617188 503.808594 2256.3125 C 504.433594 2256.011719 505.074219 2255.738281 505.726562 2255.496094 C 506.378906 2255.253906 507.039062 2255.046875 507.710938 2254.871094 C 508.382812 2254.691406 509.0625 2254.550781 509.75 2254.441406 C 510.4375 2254.332031 511.125 2254.253906 511.820312 2254.214844 C 512.515625 2254.171875 513.207031 2254.164062 513.902344 2254.191406 C 514.597656 2254.21875 515.289062 2254.277344 515.976562 2254.371094 C 516.667969 2254.464844 517.347656 2254.59375 518.027344 2254.757812 C 518.703125 2254.917969 519.367188 2255.113281 520.023438 2255.339844 C 520.683594 2255.566406 521.328125 2255.824219 521.957031 2256.113281 C 522.589844 2256.40625 523.207031 2256.726562 523.804688 2257.074219 C 524.40625 2257.425781 524.988281 2257.804688 525.550781 2258.214844 C 526.113281 2258.621094 526.65625 2259.054688 527.175781 2259.515625 C 527.695312 2259.976562 528.191406 2260.464844 528.664062 2260.972656 C 529.136719 2261.484375 529.582031 2262.015625 530.003906 2262.570312 C 530.421875 2263.121094 530.816406 2263.695312 531.179688 2264.289062 C 531.542969 2264.878906 531.875 2265.488281 532.179688 2266.113281 C 532.484375 2266.738281 532.757812 2267.378906 533 2268.027344 C 533.242188 2268.679688 533.449219 2269.34375 533.625 2270.015625 C 533.800781 2270.6875 533.945312 2271.367188 534.054688 2272.054688 Z M 534.054688 2272.054688 " fill-opacity="1" fill-rule="nonzero"/></g></g></g></svg>