<svg xmlns="http://www.w3.org/2000/svg" xmlns:xlink="http://www.w3.org/1999/xlink" width="6912" zoomAndPan="magnify" viewBox="0 0 5184 2592.000001" height="3456" preserveAspectRatio="xMidYMid meet" version="1.0"><path fill="#fef9ef" d="M 4775.785156 1782.886719 C 4786.820312 1750.34375 4823.886719 1691.203125 4861.242188 1735.628906 C 4877.085938 1754.589844 4875.953125 1779.488281 4867.183594 1800.996094 C 4849.640625 1844.289062 4810.023438 1883.339844 4782.007812 1920.125 C 4780.878906 1921.539062 4778.332031 1922.671875 4776.914062 1920.691406 C 4750.316406 1887.019531 4727.679688 1850.796875 4710.417969 1811.183594 C 4701.644531 1790.808594 4676.179688 1744.683594 4691.460938 1721.480469 C 4720.320312 1677.621094 4776.351562 1750.34375 4782.007812 1778.074219 C 4782.859375 1782.320312 4776.351562 1784.019531 4775.5 1779.773438 C 4773.519531 1764.492188 4767.011719 1750.910156 4755.976562 1739.308594 C 4739.28125 1717.519531 4718.90625 1717.238281 4694.003906 1738.742188 C 4691.175781 1754.871094 4705.042969 1781.1875 4710.984375 1795.902344 C 4722.300781 1824.480469 4740.414062 1874.566406 4764.75 1894.375 C 4791.628906 1916.445312 4800.96875 1884.1875 4815.398438 1864.945312 C 4824.453125 1853.0625 4833.792969 1841.460938 4842.28125 1829.292969 C 4855.863281 1810.050781 4875.671875 1782.035156 4864.917969 1756.851562 C 4828.417969 1731.667969 4804.363281 1731.953125 4792.761719 1757.417969 C 4788.234375 1766.191406 4784.554688 1775.246094 4781.726562 1784.867188 C 4780.59375 1788.546875 4774.367188 1786.847656 4775.785156 1782.886719 Z M 4775.785156 1782.886719 " fill-opacity="1" fill-rule="nonzero"/><path fill="#fef9ef" d="M 4581.949219 2001.054688 C 4575.722656 1992.28125 4565.539062 1984.925781 4556.199219 1979.832031 C 4551.105469 1977.570312 4546.011719 1975.585938 4540.917969 1973.324219 C 4536.957031 1981.246094 4532.996094 1989.171875 4529.035156 1997.09375 C 4527.902344 2009.828125 4547.710938 2031.332031 4554.785156 2041.519531 C 4564.121094 2054.820312 4573.742188 2068.117188 4583.363281 2081.703125 C 4587.890625 2088.210938 4592.136719 2096.132812 4597.511719 2101.792969 C 4607.984375 2112.828125 4607.132812 2116.507812 4620.152344 2104.621094 C 4641.375 2085.378906 4659.484375 2045.480469 4666.558594 2018.882812 C 4668.820312 2010.675781 4671.085938 2000.488281 4669.105469 1992 C 4665.992188 1977.570312 4640.523438 1963.421875 4626.660156 1966.53125 C 4609.964844 1970.210938 4595.25 1986.90625 4587.609375 2001.339844 C 4585.628906 2005.015625 4579.96875 2001.902344 4581.949219 1997.941406 C 4596.664062 1969.363281 4650.710938 1932.859375 4671.933594 1974.738281 C 4695.988281 2021.996094 4639.394531 2093.304688 4611.097656 2125.5625 C 4609.679688 2127.257812 4607.132812 2126.410156 4606.003906 2124.996094 C 4584.78125 2095 4562.707031 2065.289062 4542.050781 2035.011719 C 4531.863281 2020.015625 4515.734375 1997.660156 4521.675781 1978.132812 C 4531.582031 1946.441406 4577.421875 1984.078125 4587.890625 1998.226562 C 4590.15625 2001.339844 4584.496094 2004.449219 4581.949219 2001.054688 Z M 4581.949219 2001.054688 " fill-opacity="1" fill-rule="nonzero"/><path fill="#fef9ef" d="M 4553.371094 1765.625 C 4570.066406 1788.261719 4582.515625 1813.164062 4590.15625 1840.328125 C 4591.289062 1844.289062 4585.0625 1846.269531 4583.648438 1842.027344 C 4576.007812 1815.425781 4563.839844 1791.09375 4547.425781 1769.019531 C 4545.164062 1765.625 4550.824219 1762.230469 4553.371094 1765.625 Z M 4553.371094 1765.625 " fill-opacity="1" fill-rule="nonzero"/><path fill="#fef9ef" d="M 4596.097656 1796.183594 C 4574.875 1797.035156 4555.351562 1804.109375 4538.65625 1817.40625 C 4535.261719 1819.953125 4530.734375 1815.425781 4533.84375 1812.597656 C 4551.957031 1798.167969 4572.894531 1790.242188 4596.097656 1789.675781 C 4600.34375 1789.394531 4600.34375 1795.902344 4596.097656 1796.183594 Z M 4596.097656 1796.183594 " fill-opacity="1" fill-rule="nonzero"/><path fill="#fef9ef" d="M 4429.148438 1883.90625 C 4428.296875 1889.566406 4435.089844 1893.808594 4439.617188 1890.414062 C 4439.050781 1891.261719 4438.484375 1892.394531 4437.917969 1893.242188 C 4438.203125 1886.453125 4438.765625 1879.945312 4439.050781 1873.152344 C 4439.332031 1868.910156 4445.839844 1868.910156 4445.558594 1873.152344 C 4445.277344 1876.546875 4445.277344 1879.945312 4444.992188 1883.058594 C 4444.710938 1886.167969 4445.277344 1890.132812 4444.425781 1892.960938 C 4443.578125 1896.640625 4439.617188 1898.054688 4436.222656 1898.054688 C 4428.863281 1898.054688 4421.222656 1891.546875 4422.355469 1883.621094 C 4422.921875 1879.945312 4429.710938 1879.945312 4429.148438 1883.90625 Z M 4429.148438 1883.90625 " fill-opacity="1" fill-rule="nonzero"/><path fill="#fef9ef" d="M 4780.3125 2037.273438 C 4775.5 2037.558594 4771.257812 2042.652344 4772.953125 2047.460938 C 4774.367188 2051.988281 4779.460938 2053.6875 4783.707031 2052.273438 C 4783.140625 2052.839844 4782.292969 2053.40625 4781.726562 2053.6875 C 4783.707031 2050.574219 4782.859375 2045.765625 4779.179688 2044.347656 C 4775.21875 2042.933594 4776.914062 2036.425781 4780.878906 2037.839844 C 4786.535156 2040.105469 4790.214844 2045.765625 4789.367188 2051.988281 C 4788.234375 2059.347656 4781.160156 2060.761719 4774.933594 2057.933594 C 4760.785156 2051.707031 4765.597656 2031.332031 4780.3125 2030.484375 C 4784.839844 2030.484375 4784.554688 2036.992188 4780.3125 2037.273438 Z M 4780.3125 2037.273438 " fill-opacity="1" fill-rule="nonzero"/><path fill="#fef9ef" d="M 4868.597656 1957.761719 C 4886.140625 1978.984375 4903.402344 2000.207031 4920.945312 2021.429688 C 4923.492188 2024.824219 4918.964844 2029.351562 4916.136719 2026.238281 C 4898.59375 2005.015625 4881.332031 1983.792969 4863.789062 1962.570312 C 4861.242188 1959.175781 4865.769531 1954.363281 4868.597656 1957.761719 Z M 4868.597656 1957.761719 " fill-opacity="1" fill-rule="nonzero"/><path fill="#fef9ef" d="M 4927.457031 1973.042969 C 4909.628906 1988.886719 4892.085938 2004.449219 4874.257812 2020.296875 C 4871.144531 2023.125 4866.335938 2018.597656 4869.445312 2015.488281 C 4887.273438 1999.640625 4904.816406 1984.078125 4922.644531 1968.230469 C 4926.039062 1965.402344 4930.851562 1970.210938 4927.457031 1973.042969 Z M 4927.457031 1973.042969 " fill-opacity="1" fill-rule="nonzero"/><path fill="#fef9ef" d="M 4615.90625 1653.003906 C 4619.585938 1655.550781 4627.789062 1659.511719 4631.753906 1655.265625 C 4633.449219 1653.285156 4633.449219 1647.910156 4630.054688 1647.910156 C 4625.808594 1648.191406 4625.808594 1641.402344 4630.054688 1641.402344 C 4638.261719 1641.117188 4641.375 1650.738281 4638.261719 1657.246094 C 4633.449219 1667.433594 4619.867188 1663.472656 4612.511719 1658.945312 C 4609.113281 1656.398438 4612.226562 1650.457031 4615.90625 1653.003906 Z M 4615.90625 1653.003906 " fill-opacity="1" fill-rule="nonzero"/><path fill="#fef9ef" d="M 4792.761719 2166.027344 C 4825.585938 2137.730469 4884.726562 2131.785156 4889.253906 2188.378906 C 4893.5 2242.992188 4822.472656 2294.492188 4780.59375 2317.132812 C 4778.898438 2317.980469 4777.199219 2317.414062 4776.066406 2316 C 4753.429688 2283.175781 4737.582031 2247.804688 4726.832031 2209.601562 C 4720.886719 2187.816406 4706.738281 2149.613281 4719.757812 2127.257812 C 4747.203125 2080.570312 4794.175781 2136.878906 4804.082031 2166.027344 C 4805.496094 2169.988281 4798.988281 2171.683594 4797.574219 2167.722656 C 4794.742188 2158.953125 4790.78125 2150.746094 4785.6875 2143.386719 C 4771.820312 2116.789062 4750.597656 2118.769531 4721.738281 2149.046875 C 4719.191406 2162.066406 4726.546875 2181.871094 4729.941406 2195.171875 C 4737.867188 2226.582031 4747.769531 2272.988281 4770.972656 2296.476562 C 4793.894531 2319.960938 4827.566406 2275.535156 4845.675781 2257.992188 C 4860.390625 2243.558594 4876.519531 2227.148438 4881.332031 2206.492188 C 4894.347656 2151.027344 4833.507812 2140.277344 4797.574219 2171.121094 C 4794.460938 2173.382812 4789.648438 2168.855469 4792.761719 2166.027344 Z M 4792.761719 2166.027344 " fill-opacity="1" fill-rule="nonzero"/></svg>