<svg xmlns="http://www.w3.org/2000/svg" xmlns:xlink="http://www.w3.org/1999/xlink" width="6912" zoomAndPan="magnify" viewBox="0 0 5184 2592.000001" height="3456" preserveAspectRatio="xMidYMid meet" version="1.0"><defs><clipPath id="c590de423a"><path d="M 3664.304688 2117.683594 L 4044.933594 2117.683594 L 4044.933594 2335.046875 L 3664.304688 2335.046875 Z M 3664.304688 2117.683594 " clip-rule="nonzero"/></clipPath></defs><path fill="#5186cd" d="M 3828.917969 2192.433594 C 3828.464844 2191.953125 3828.09375 2191.636719 3827.441406 2191.722656 C 3827.46875 2192.378906 3827.695312 2192.832031 3828.917969 2192.433594 " fill-opacity="1" fill-rule="nonzero"/><g clip-path="url(#c590de423a)"><path fill="#5186cd" d="M 4021.953125 2270.117188 C 4021.15625 2276.578125 4020.414062 2282.386719 4020.414062 2282.386719 L 4044.964844 2283.808594 C 4044.964844 2283.808594 4043.769531 2278.769531 4043.625 2275.640625 C 4043.3125 2269.746094 4043.285156 2263 4043.570312 2256.996094 C 4044.222656 2242.734375 4046.953125 2232.316406 4037.398438 2219.703125 C 4043.542969 2218.425781 4039.757812 2211.847656 4038.988281 2208.605469 C 4037.339844 2205.957031 4036.515625 2203.195312 4036.515625 2200.035156 C 4034.296875 2199.125 4032.078125 2198.101562 4030.058594 2196.988281 C 4033.757812 2195.453125 4031.28125 2186.171875 4025.335938 2177.859375 C 4019.5625 2169.464844 4010.34375 2162.972656 4007.757812 2161.691406 C 4007.246094 2162.945312 4006.304688 2163.714844 4004.996094 2164.113281 C 4004.230469 2163.402344 4004.085938 2162.546875 4004.65625 2161.578125 C 4004.003906 2157.707031 4001.414062 2156.625 3998.027344 2158.449219 C 3993.25 2154.832031 3992.679688 2149.59375 3985.511719 2153.523438 C 3985.371094 2151.503906 3982.441406 2149.90625 3978.855469 2149.339844 C 3975.300781 2148.570312 3971.316406 2148.882812 3969.269531 2148.65625 C 3960.421875 2148.03125 3952.175781 2152.214844 3946.457031 2158.078125 C 3944.179688 2157.535156 3946.910156 2154.945312 3944.4375 2154.207031 C 3943.695312 2156.398438 3940.398438 2158.53125 3937.210938 2160.894531 C 3933.96875 2163.203125 3930.640625 2165.5625 3929.160156 2166.988281 C 3923.015625 2172.878906 3923.160156 2171.882812 3924.210938 2179.371094 C 3922.703125 2177.71875 3920.914062 2177.179688 3918.863281 2177.804688 C 3919.519531 2179.085938 3919.917969 2180.421875 3920.03125 2181.789062 C 3916.558594 2180.335938 3915.761719 2183.46875 3913.542969 2186.03125 L 3910.1875 2187.082031 C 3910.699219 2189.105469 3910.613281 2190.984375 3910.101562 2192.777344 C 3908.566406 2194.484375 3904.726562 2196.023438 3903.558594 2197.503906 C 3901.425781 2200.09375 3903.757812 2201.742188 3902.964844 2203.082031 C 3900.148438 2208.035156 3893.972656 2211.648438 3892.410156 2217.429688 C 3894.230469 2218.394531 3895.652344 2219.734375 3896.675781 2221.414062 C 3894.828125 2222.550781 3892.722656 2222.894531 3890.363281 2222.464844 C 3890.277344 2223.519531 3890.503906 2224.574219 3891.074219 2225.570312 C 3888.285156 2226.820312 3886.292969 2228.757812 3885.097656 2231.402344 C 3881.65625 2235.988281 3881.542969 2236.925781 3884.160156 2240.457031 C 3883.648438 2245.238281 3876.339844 2244.953125 3874.574219 2248.652344 C 3873.578125 2251.359375 3873.578125 2254.175781 3874.601562 2257.136719 C 3873.011719 2256.738281 3871.730469 2256.964844 3870.734375 2257.875 C 3869.054688 2261.292969 3867.347656 2259.300781 3868.175781 2264.339844 C 3869 2269.320312 3869.964844 2264.824219 3872.582031 2267.101562 C 3871.785156 2268.097656 3871.730469 2269.207031 3872.414062 2270.457031 C 3874.203125 2270.089844 3875.65625 2269.292969 3876.792969 2268.039062 C 3876.253906 2276.152344 3873.578125 2269.890625 3868.515625 2270.714844 C 3865.8125 2271.570312 3863.222656 2272.59375 3860.75 2273.847656 C 3857.5625 2274.214844 3857.25 2275.722656 3859.894531 2278.316406 C 3860.152344 2277.917969 3855.972656 2286.484375 3856.285156 2283.496094 C 3855.828125 2287.625 3857.960938 2286.027344 3859.613281 2290.78125 C 3856.796875 2289.246094 3851.304688 2285.828125 3850.480469 2289.929688 C 3852.015625 2290.382812 3853.410156 2291.152344 3854.664062 2292.234375 C 3853.070312 2295.566406 3849.996094 2296.25 3848.574219 2300.460938 C 3840.582031 2297.386719 3846.839844 2300.859375 3844.707031 2303.734375 C 3842.003906 2307.320312 3837.339844 2308.261719 3834.523438 2309.027344 C 3833.46875 2309.34375 3831.535156 2309.625 3829.714844 2309.742188 C 3827.867188 2309.855469 3826.246094 2309.824219 3825.335938 2310.394531 C 3824.253906 2311.105469 3823.117188 2312.957031 3821.863281 2313.898438 C 3820.753906 2314.835938 3819.191406 2314.777344 3819.476562 2312.046875 C 3819.164062 2312.132812 3822.917969 2314.695312 3822.972656 2309.96875 C 3822.917969 2309.769531 3821.808594 2309.484375 3821.011719 2309.085938 C 3820.214844 2308.773438 3819.277344 2307.71875 3819.277344 2307.691406 L 3818.964844 2307.832031 C 3818.992188 2308.03125 3816.460938 2306.039062 3815.605469 2303.335938 C 3814.128906 2298.554688 3812.902344 2292.175781 3812.960938 2286.742188 C 3812.988281 2273.332031 3817 2265.589844 3811.765625 2251.8125 C 3817.9375 2252.640625 3816.546875 2246.0625 3817.425781 2243.132812 C 3817.085938 2240.34375 3817.683594 2237.808594 3819.277344 2235.476562 C 3817.855469 2233.710938 3816.628906 2231.832031 3815.605469 2229.867188 C 3823.257812 2231.632812 3828.519531 2199.496094 3828.550781 2194.171875 C 3827.210938 2194.171875 3826.101562 2193.714844 3825.222656 2192.777344 C 3825.5625 2191.867188 3826.273438 2191.46875 3827.382812 2191.609375 C 3830.570312 2189.789062 3830.738281 2187.597656 3827.839844 2185.148438 C 3829.742188 2180.023438 3834.75 2179.113281 3829.574219 2173.449219 C 3833.8125 2172.792969 3833.269531 2162.917969 3833.839844 2159.558594 C 3834.609375 2156 3834.324219 2152.328125 3833.785156 2148.769531 C 3833.128906 2145.183594 3832.078125 2141.285156 3829.429688 2136.300781 C 3830.113281 2133.285156 3832.644531 2138.152344 3833.554688 2134.90625 C 3831.421875 2132.828125 3828.917969 2127.308594 3824.113281 2123.40625 C 3819.476562 2119.335938 3813.019531 2117.714844 3809.660156 2117.683594 C 3805.933594 2117.542969 3804.199219 2117.886719 3802.75 2118.085938 C 3801.296875 2118.339844 3800.386719 2118.652344 3799.621094 2119.109375 C 3798.113281 2120.019531 3797.257812 2121.558594 3795.722656 2125.144531 C 3795.238281 2122.921875 3793.902344 2121.585938 3791.882812 2121.1875 C 3791.824219 2122.636719 3791.511719 2124.003906 3790.945312 2125.257812 C 3788.667969 2122.324219 3786.449219 2124.632812 3783.148438 2125.65625 C 3781.984375 2125.371094 3780.789062 2125.085938 3779.679688 2124.914062 C 3779.082031 2126.964844 3778.113281 2128.644531 3776.75 2129.953125 C 3774.558594 2130.75 3770.292969 2130.210938 3768.472656 2131.007812 C 3765.316406 2132.515625 3766.59375 2135.019531 3765.257812 2135.933594 C 3760.28125 2139.007812 3752.855469 2140.34375 3748.816406 2145.410156 C 3750.179688 2146.976562 3750.976562 2148.710938 3751.375 2150.675781 C 3749.214844 2151.1875 3747.082031 2150.90625 3744.949219 2149.765625 C 3744.464844 2150.789062 3744.351562 2151.902344 3744.519531 2153.066406 C 3741.421875 2153.496094 3738.660156 2154.777344 3736.785156 2157.253906 C 3732.0625 2161.125 3731.691406 2162.0625 3733.398438 2166.105469 C 3731.75 2170.773438 3724.664062 2169.265625 3722.046875 2172.792969 C 3720.457031 2175.355469 3720.113281 2178.34375 3720.683594 2181.449219 C 3719.148438 2180.851562 3717.808594 2180.964844 3716.699219 2181.761719 C 3714.480469 2185.089844 3712.976562 2182.871094 3713.289062 2188.136719 C 3713.601562 2193.289062 3715.023438 2188.761719 3717.414062 2191.296875 C 3716.53125 2192.234375 3716.359375 2193.375 3716.957031 2194.683594 C 3718.75 2194.457031 3720.285156 2193.746094 3721.507812 2192.605469 C 3720.285156 2200.660156 3718.152344 2194.171875 3713.003906 2194.65625 C 3710.214844 2195.339844 3707.457031 2196.222656 3704.925781 2197.445312 C 3701.710938 2197.730469 3701.3125 2199.296875 3703.816406 2202 C 3704.070312 2201.601562 3699.464844 2210.253906 3699.917969 2207.238281 C 3699.40625 2211.449219 3701.539062 2209.828125 3703.132812 2214.667969 C 3700.34375 2213.101562 3694.910156 2209.601562 3693.917969 2213.925781 C 3695.480469 2214.382812 3696.902344 2215.121094 3698.15625 2216.203125 C 3696.476562 2219.648438 3693.347656 2220.644531 3692.152344 2225.511719 C 3683.617188 2223.832031 3690.273438 2226.335938 3688.425781 2230.09375 C 3686.148438 2235.019531 3681.769531 2238.433594 3678.898438 2242.902344 C 3676.792969 2246.207031 3671.300781 2254.289062 3671.132812 2258.277344 C 3670.847656 2262.828125 3676.480469 2266.445312 3670.136719 2269.234375 C 3669.992188 2269.519531 3674.175781 2262.203125 3668.914062 2263.398438 C 3668.316406 2263.769531 3664.304688 2275.609375 3664.304688 2275.609375 L 3685.980469 2285.316406 C 3685.980469 2285.316406 3688.996094 2277.945312 3691.015625 2273.761719 C 3691.640625 2272.507812 3697.613281 2261.351562 3693.402344 2262.773438 C 3695.9375 2259.839844 3702.675781 2244.101562 3703.273438 2243.074219 C 3706.859375 2235.445312 3711.382812 2226.792969 3716.046875 2219.933594 C 3720.425781 2213.585938 3725.574219 2207.722656 3730.15625 2201.574219 C 3735.503906 2194.484375 3737.722656 2189.503906 3744.351562 2184.835938 C 3751.320312 2179.65625 3756.183594 2171.230469 3762.753906 2165.734375 C 3770.546875 2159.730469 3778.199219 2153.863281 3786.675781 2149.054688 C 3790.746094 2146.320312 3795.152344 2144.472656 3799.449219 2142.308594 C 3801.695312 2141.140625 3803.402344 2140.542969 3805.195312 2140.03125 C 3806.046875 2139.773438 3806.875 2139.605469 3807.527344 2139.519531 C 3807.839844 2139.460938 3808.183594 2139.40625 3808.523438 2139.433594 C 3809.945312 2139.375 3811.167969 2140.65625 3811.28125 2142.109375 C 3811.851562 2144.871094 3811.28125 2150.621094 3810.742188 2155.429688 C 3807.953125 2175.527344 3806.53125 2196.304688 3801.582031 2217.429688 C 3796.632812 2238.433594 3797.316406 2262.316406 3793.417969 2284.664062 C 3792.90625 2287.679688 3792.679688 2295.621094 3793.304688 2302.910156 C 3793.503906 2306.46875 3794.160156 2310.453125 3795.070312 2313.640625 C 3795.980469 2316.828125 3797.058594 2319.078125 3797.058594 2319.078125 L 3798.140625 2318.507812 C 3798.140625 2318.507812 3799.476562 2321.382812 3802.523438 2324.742188 C 3805.480469 2328.128906 3810.144531 2331.144531 3813.644531 2332.542969 C 3814.726562 2333.222656 3820.898438 2335.332031 3825.535156 2335.019531 C 3829.601562 2334.847656 3832.191406 2333.878906 3830.226562 2332.542969 C 3832.558594 2332.710938 3837.566406 2332.113281 3842.488281 2329.835938 C 3850.109375 2326.421875 3854.976562 2320.726562 3855.628906 2320.101562 C 3862.882812 2312.53125 3867.917969 2302.9375 3872.582031 2295.933594 C 3876.964844 2289.332031 3882.027344 2283.039062 3886.207031 2276.152344 C 3891.042969 2268.238281 3892.78125 2262.886719 3898.609375 2256.597656 C 3904.925781 2249.792969 3907.714844 2239.546875 3912.492188 2231.6875 C 3918.097656 2222.464844 3923.015625 2213.300781 3928.050781 2204.648438 C 3933.058594 2195.964844 3938.433594 2188.050781 3945.003906 2181.929688 C 3951.578125 2175.980469 3959.542969 2171.882812 3967.820312 2172.140625 C 3975.984375 2172.167969 3983.976562 2174.273438 3991.796875 2178.34375 C 3999.480469 2182.585938 4006.734375 2188.90625 4011.484375 2196.90625 C 4020.8125 2211.792969 4029.035156 2233.710938 4024.199219 2254.003906 C 4023.601562 2256.679688 4022.804688 2263.683594 4021.953125 2270.117188 " fill-opacity="1" fill-rule="nonzero"/></g><path fill="#5186cd" d="M 4006.078125 2160.554688 C 4005.394531 2160.726562 4004.941406 2160.925781 4004.769531 2161.578125 C 4005.453125 2161.863281 4006.023438 2161.863281 4006.078125 2160.554688 " fill-opacity="1" fill-rule="nonzero"/></svg>