<svg xmlns="http://www.w3.org/2000/svg" xmlns:xlink="http://www.w3.org/1999/xlink" width="6912" zoomAndPan="magnify" viewBox="0 0 5184 2592.000001" height="3456" preserveAspectRatio="xMidYMid meet" version="1.0"><defs><g/></defs><path stroke-linecap="butt" transform="matrix(4.125797, 0, 0, 4.125797, 1731.920612, 321.864972)" fill="none" stroke-linejoin="miter" d="M 28.802508 10.227728 C 24.907427 10.227728 19.267418 12.845594 19.267418 19.500558 C 19.267418 25.1898 23.687018 29.291281 28.625458 29.291281 C 31.385342 29.291281 34.435889 27.957258 36.032172 25.686863 C 36.791495 24.6151 35.017216 23.565114 34.379082 24.523262 C 33.010028 26.26819 30.924257 27.283146 28.682266 27.283146 C 24.701974 27.283146 21.331413 23.913531 21.331413 19.528962 C 21.331413 13.802795 25.744386 12.206513 28.859315 12.206513 C 30.803068 12.206513 32.577347 12.752809 34.145226 14.413473 C 34.960409 15.285463 36.499884 14.094405 35.627894 13.100279 C 33.768404 11.128122 31.442149 10.227728 28.802508 10.227728 Z M 53.639566 21.557926 C 53.547728 16.300419 49.914907 14.00162 45.991422 14.00162 C 42.27339 14.00162 38.584709 16.676293 38.584709 21.592957 C 38.584709 25.977527 41.550045 29.291281 46.140068 29.291281 C 48.027961 29.319684 49.971714 28.794217 51.312364 27.545406 C 52.447561 26.381805 50.93649 25.1898 49.914907 26.119545 C 48.787284 26.992482 47.38888 27.34658 46.055804 27.34658 C 43.146328 27.34658 41.110736 25.282585 40.733915 22.898576 L 52.213705 22.898576 C 53.40571 22.898576 53.639566 22.203634 53.639566 21.557926 Z M 40.648704 21.125244 C 40.911911 17.634441 43.408588 15.981352 46.140068 15.981352 C 48.580884 15.981352 51.312364 17.634441 51.603028 21.125244 Z M 59.238863 28.014065 L 59.238863 10.575199 C 59.238863 10.021329 58.771151 9.588647 58.188877 9.588647 C 57.550742 9.588647 57.118061 10.021329 57.118061 10.575199 L 57.118061 28.014065 C 57.118061 28.566989 57.550742 28.99967 58.188877 28.99967 C 58.771151 28.99967 59.238863 28.566989 59.238863 28.014065 Z M 77.487232 21.557926 C 77.394447 16.300419 73.762573 14.00162 69.839088 14.00162 C 66.121057 14.00162 62.432375 16.676293 62.432375 21.592957 C 62.432375 25.977527 65.397711 29.291281 69.987734 29.291281 C 71.87468 29.319684 73.81938 28.794217 75.16003 27.545406 C 76.295228 26.381805 74.784156 25.1898 73.762573 26.119545 C 72.634003 26.992482 71.236546 27.34658 69.902523 27.34658 C 66.993994 27.34658 64.957456 25.282585 64.581581 22.898576 L 76.061371 22.898576 C 77.252429 22.898576 77.487232 22.203634 77.487232 21.557926 Z M 64.49637 21.125244 C 64.75863 17.634441 67.256254 15.981352 69.987734 15.981352 C 72.42855 15.981352 75.16003 17.634441 75.450694 21.125244 Z M 95.466714 21.529522 C 95.466714 17.286971 92.472974 14.00162 88.024969 14.00162 C 86.080269 14.00162 84.186696 14.846154 83.313758 16.38563 L 83.313758 10.575199 C 83.313758 9.907714 82.795866 9.560243 82.270399 9.560243 C 81.717476 9.560243 81.192009 9.907714 81.192009 10.575199 L 81.192009 27.985662 C 81.192009 28.623796 81.603861 28.99967 82.270399 28.99967 C 82.937884 28.99967 83.256951 28.623796 83.256951 27.985662 L 83.256951 26.793657 C 84.25013 28.595392 86.279095 29.291281 88.024969 29.291281 C 92.061122 29.291281 95.466714 26.559801 95.466714 21.529522 Z M 93.345911 21.415908 C 93.345911 24.757119 91.224162 27.283146 87.968162 27.283146 C 85.434561 27.197935 83.313758 25.573249 83.313758 22.813365 L 83.313758 20.514567 C 83.313758 17.960136 85.293489 16.12337 87.939759 16.009755 C 91.92005 16.009755 93.345911 19.088706 93.345911 21.415908 Z M 101.122818 16.477468 L 101.122818 15.313867 C 101.122818 14.647329 100.625755 14.292284 100.136266 14.292284 C 99.611746 14.292284 99.057876 14.675733 99.057876 15.313867 L 99.057876 27.985662 C 99.057876 28.595392 99.498132 28.99967 100.136266 28.99967 C 100.690137 28.99967 101.179625 28.595392 101.179625 27.985662 L 101.179625 21.330697 C 101.179625 18.393764 102.456841 16.009755 105.450581 16.009755 C 106.117119 16.009755 106.557374 15.662284 106.557374 15.023203 C 106.557374 14.356665 106.117119 14.00162 105.450581 14.00162 C 103.797491 14.00162 102.052563 14.527087 101.122818 16.477468 Z M 115.58688 14.00162 C 111.46457 14.00162 108.030575 16.591082 108.030575 21.557926 C 108.030575 26.381805 111.259118 29.291281 115.473266 29.291281 C 117.190737 29.291281 119.339943 28.38994 120.184477 26.700872 L 120.184477 27.957258 C 120.184477 28.595392 120.560351 28.99967 121.226889 28.99967 C 121.86597 28.99967 122.305279 28.595392 122.305279 27.957258 L 122.305279 15.34227 C 122.305279 14.73254 121.86597 14.292284 121.226889 14.292284 C 120.560351 14.292284 120.184477 14.73254 120.184477 15.34227 L 120.184477 16.300419 C 119.13449 14.583894 117.246598 14.00162 115.58688 14.00162 Z M 115.501669 27.283146 C 113.614723 27.283146 110.152324 25.800478 110.152324 21.557926 C 110.152324 18.599217 112.046844 15.952948 115.558477 16.009755 C 118.176342 16.12337 120.184477 17.634441 120.184477 20.514567 L 120.184477 22.813365 C 120.184477 25.630056 118.062728 27.197935 115.501669 27.283146 Z M 133.224572 14.292284 L 130.052836 14.292284 L 130.052836 10.837459 C 130.052836 9.468405 127.960437 9.440001 127.960437 10.837459 L 127.960437 14.292284 L 126.044141 14.292284 C 124.766925 14.292284 124.675087 16.066562 126.044141 16.066562 L 127.960437 16.066562 L 127.960437 23.969392 C 127.960437 26.73685 128.804024 29.291281 132.2882 29.291281 C 133.074979 29.291281 133.799271 29.20607 134.530191 28.794217 C 135.834863 28.070872 134.877662 26.353401 133.657253 27.055917 C 133.36659 27.226339 132.727509 27.374984 132.2882 27.374984 C 130.315096 27.374984 130.052836 25.630056 130.052836 23.969392 L 130.052836 16.066562 L 133.224572 16.066562 C 134.530191 16.066562 134.530191 14.292284 133.224572 14.292284 Z M 139.930663 10.752248 L 139.930663 10.603602 C 139.930663 9.936118 139.376792 9.588647 138.852273 9.588647 C 138.298402 9.588647 137.752106 9.936118 137.752106 10.603602 L 137.752106 10.752248 C 137.752106 11.419733 138.298402 11.7388 138.823869 11.7388 C 139.376792 11.7388 139.930663 11.419733 139.930663 10.752248 Z M 137.78051 15.25706 L 137.78051 28.042469 C 137.78051 28.680603 138.298402 28.99967 138.852273 28.99967 C 139.376792 28.99967 139.902259 28.680603 139.902259 28.042469 L 139.902259 15.222029 C 139.902259 14.612298 139.376792 14.292284 138.852273 14.292284 C 138.326806 14.292284 137.78051 14.612298 137.78051 15.25706 Z M 155.992901 20.514567 L 155.992901 27.985662 C 155.992901 28.623796 156.433157 28.99967 157.071291 28.99967 C 157.738776 28.99967 158.11465 28.623796 158.11465 27.985662 L 158.11465 20.514567 C 158.11465 16.328822 154.893681 14.00162 151.52312 14.00162 C 149.252726 14.00162 147.018309 14.902961 145.968322 17.023764 L 145.968322 15.34227 C 145.968322 14.647329 145.45043 14.292284 144.924963 14.292284 C 144.400443 14.292284 143.874977 14.647329 143.874977 15.313867 L 143.874977 27.985662 C 143.874977 28.623796 144.315232 28.99967 144.98177 28.99967 C 145.649255 28.99967 146.031757 28.623796 146.031757 27.985662 L 146.031757 21.472715 C 146.031757 18.308554 148.671399 15.981352 151.494717 15.981352 C 153.843695 15.981352 155.992901 17.839894 155.992901 20.514567 Z M 176.069515 28.304729 L 176.069515 15.34227 C 176.069515 14.704136 175.629259 14.292284 174.991125 14.292284 C 174.32364 14.292284 173.947766 14.704136 173.947766 15.34227 L 173.947766 16.272015 C 172.989618 14.675733 170.954026 14.00162 169.179748 14.00162 C 165.342421 14.00162 161.801438 16.910149 161.801438 21.791782 C 161.801438 24.813926 163.426124 27.602213 166.214411 28.73741 C 167.144156 29.113285 168.108932 29.291281 169.123887 29.291281 C 170.925623 29.291281 172.933757 28.652199 174.004573 26.73685 L 174.004573 28.304729 C 174.004573 31.298469 171.535353 32.632491 168.889084 32.632491 C 167.264398 32.632491 166.072393 32.28502 164.767721 31.178227 C 163.660927 30.248482 162.120505 31.46889 163.340913 32.689298 C 164.908792 34.171967 166.683071 34.697433 168.889084 34.697433 C 172.869376 34.697433 176.069515 32.518877 176.069515 28.304729 Z M 169.179748 16.038159 C 171.648968 16.038159 173.947766 17.492423 173.947766 20.514567 L 173.947766 22.813365 C 173.947766 25.339392 171.968035 27.169531 169.32934 27.283146 C 165.810133 27.34658 163.923187 24.728715 163.923187 21.763379 C 163.923187 18.506432 166.129201 16.038159 169.179748 16.038159 Z M 188.782022 11.767203 L 188.782022 27.92128 C 188.782022 28.623796 189.307488 28.99967 189.832008 28.99967 C 190.357475 28.99967 190.875367 28.623796 190.875367 27.892876 L 190.875367 21.444311 L 201.481273 21.444311 C 202.644874 21.444311 202.644874 19.641629 201.481273 19.641629 L 190.875367 19.641629 L 190.875367 12.348531 L 202.035144 12.348531 C 203.255552 12.348531 203.255552 10.518392 202.035144 10.518392 L 190.065865 10.518392 C 189.363349 10.518392 188.782022 11.099719 188.782022 11.767203 Z M 213.103081 29.291281 C 217.487651 29.291281 220.687791 26.00593 220.687791 21.592957 C 220.687791 17.435616 217.516055 14.00162 213.103081 14.00162 C 208.740288 14.00162 205.511745 17.230163 205.511745 21.444311 C 205.511745 25.772074 208.478028 29.291281 213.103081 29.291281 Z M 213.06805 15.981352 C 215.79953 15.981352 218.566041 17.81149 218.566041 21.734975 C 218.566041 24.643504 216.352454 27.283146 213.103081 27.283146 C 209.847082 27.283146 207.668525 24.785522 207.668525 21.678168 C 207.668525 17.896701 210.279763 15.981352 213.06805 15.981352 Z M 222.974281 25.715267 C 223.556555 28.623796 227.27364 29.291281 229.686052 29.291281 C 232.098465 29.291281 236.28421 28.333132 236.28421 24.671908 C 236.28421 21.040033 232.878617 20.748423 229.686052 20.45776 C 227.35885 20.28071 225.209644 20.309114 225.209644 18.450572 C 225.209644 16.647889 227.734725 15.924544 229.423792 15.924544 C 230.729411 15.924544 233.169281 16.038159 233.808362 17.72628 C 234.190864 18.826446 236.192371 18.28015 235.787147 16.966957 C 234.773138 14.356665 231.658209 14.00162 229.423792 14.00162 C 226.635505 14.00162 223.087895 15.313867 223.087895 18.422168 C 223.087895 21.997235 226.457509 22.260442 229.600842 22.551105 C 231.948873 22.721527 234.16246 22.813365 234.16246 24.671908 C 234.16246 26.672468 231.111913 27.403388 229.686052 27.403388 C 227.564303 27.403388 225.294855 26.645011 225.003245 25.339392 C 224.748559 23.885128 222.62681 24.494859 222.974281 25.715267 Z M 246.041795 14.292284 L 242.871005 14.292284 L 242.871005 10.837459 C 242.871005 9.468405 240.77766 9.440001 240.77766 10.837459 L 240.77766 14.292284 L 238.86231 14.292284 C 237.585095 14.292284 237.493256 16.066562 238.86231 16.066562 L 240.77766 16.066562 L 240.77766 23.969392 C 240.77766 26.73685 241.622194 29.291281 245.105422 29.291281 C 245.893149 29.291281 246.616494 29.20607 247.347414 28.794217 C 248.653033 28.070872 247.694884 26.353401 246.474476 27.055917 C 246.183813 27.226339 245.545678 27.374984 245.105422 27.374984 C 243.133265 27.374984 242.871005 25.630056 242.871005 23.969392 L 242.871005 16.066562 L 246.041795 16.066562 C 247.347414 16.066562 247.347414 14.292284 246.041795 14.292284 Z M 265.099666 21.557926 C 265.007828 16.300419 261.375007 14.00162 257.452469 14.00162 C 253.734437 14.00162 250.044809 16.676293 250.044809 21.592957 C 250.044809 25.977527 253.011092 29.291281 257.601115 29.291281 C 259.488061 29.319684 261.431814 28.794217 262.773411 27.545406 C 263.908608 26.381805 262.39659 25.1898 261.375007 26.119545 C 260.247384 26.992482 258.849926 27.34658 257.515904 27.34658 C 254.607375 27.34658 252.570836 25.282585 252.194962 22.898576 L 263.673805 22.898576 C 264.86581 22.898576 265.099666 22.203634 265.099666 21.557926 Z M 252.109751 21.125244 C 252.372011 17.634441 254.869635 15.981352 257.601115 15.981352 C 260.041931 15.981352 262.773411 17.634441 263.064075 21.125244 Z M 270.785121 16.477468 L 270.785121 15.313867 C 270.785121 14.647329 270.288058 14.292284 269.798569 14.292284 C 269.274049 14.292284 268.720179 14.675733 268.720179 15.313867 L 268.720179 27.985662 C 268.720179 28.595392 269.160435 28.99967 269.798569 28.99967 C 270.352439 28.99967 270.841928 28.595392 270.841928 27.985662 L 270.841928 21.330697 C 270.841928 18.393764 272.119144 16.009755 275.112884 16.009755 C 275.779421 16.009755 276.219677 15.662284 276.219677 15.023203 C 276.219677 14.356665 275.779421 14.00162 275.112884 14.00162 C 273.459794 14.00162 271.713919 14.527087 270.785121 16.477468 Z M 295.335303 10.227728 C 291.440222 10.227728 285.800213 12.845594 285.800213 19.500558 C 285.800213 25.1898 290.220761 29.291281 295.158254 29.291281 C 297.918137 29.291281 300.968685 27.957258 302.564967 25.686863 C 303.32429 24.6151 301.550958 23.565114 300.911877 24.523262 C 299.542824 26.26819 297.457052 27.283146 295.215061 27.283146 C 291.234769 27.283146 287.865155 23.913531 287.865155 19.528962 C 287.865155 13.802795 292.278128 12.206513 295.39211 12.206513 C 297.335864 12.206513 299.110142 12.752809 300.678021 14.413473 C 301.494151 15.285463 303.033627 14.094405 302.160689 13.100279 C 300.302147 11.128122 297.974945 10.227728 295.335303 10.227728 Z M 318.015581 20.514567 L 318.015581 27.957258 C 318.015581 28.595392 318.455837 28.99967 319.093971 28.99967 C 319.761456 28.99967 320.13733 28.595392 320.13733 27.957258 L 320.13733 20.514567 C 320.13733 16.328822 316.916362 14.00162 313.546747 14.00162 C 311.361563 14.00162 309.097796 14.846154 308.055384 16.881746 L 308.055384 10.518392 C 308.055384 9.907714 307.501514 9.588647 306.976994 9.588647 C 306.423123 9.588647 305.898603 9.907714 305.898603 10.518392 L 305.898603 27.957258 C 305.898603 28.595392 306.337913 28.99967 307.005397 28.99967 C 307.671935 28.99967 308.055384 28.595392 308.055384 27.957258 L 308.055384 20.947248 C 308.055384 17.960136 310.694079 15.981352 313.518344 15.981352 C 315.866375 15.981352 318.015581 17.839894 318.015581 20.514567 Z M 326.555598 10.752248 L 326.555598 10.603602 C 326.555598 9.936118 326.002675 9.588647 325.477208 9.588647 C 324.924284 9.588647 324.377988 9.936118 324.377988 10.603602 L 324.377988 10.752248 C 324.377988 11.419733 324.924284 11.7388 325.448804 11.7388 C 326.002675 11.7388 326.555598 11.419733 326.555598 10.752248 Z M 324.406392 15.25706 L 324.406392 28.042469 C 324.406392 28.680603 324.924284 28.99967 325.477208 28.99967 C 326.002675 28.99967 326.527195 28.680603 326.527195 28.042469 L 326.527195 15.222029 C 326.527195 14.612298 326.002675 14.292284 325.477208 14.292284 C 324.952688 14.292284 324.406392 14.612298 324.406392 15.25706 Z M 332.395379 28.014065 L 332.395379 10.575199 C 332.395379 10.021329 331.92672 9.588647 331.345393 9.588647 C 330.706311 9.588647 330.27363 10.021329 330.27363 10.575199 L 330.27363 28.014065 C 330.27363 28.566989 330.706311 28.99967 331.345393 28.99967 C 331.92672 28.99967 332.395379 28.566989 332.395379 28.014065 Z M 342.966254 14.037598 C 337.332872 14.037598 335.531137 18.627621 335.531137 21.529522 C 335.531137 26.559801 338.929155 29.291281 342.966254 29.291281 C 344.711182 29.291281 346.74772 28.595392 347.734272 26.793657 L 347.734272 27.985662 C 347.734272 28.623796 348.053339 28.99967 348.719877 28.99967 C 349.387362 28.99967 349.798268 28.623796 349.798268 27.985662 L 349.798268 10.603602 C 349.798268 9.936118 349.273748 9.588647 348.748281 9.588647 C 348.201985 9.588647 347.677465 9.936118 347.677465 10.603602 L 347.677465 16.38563 C 346.804528 14.846154 344.917582 14.037598 342.966254 14.037598 Z M 343.143303 27.283146 C 341.022501 27.283146 337.65194 25.949123 337.65194 21.444311 C 337.65194 19.557365 338.723702 16.038159 343.058092 16.038159 C 345.697734 16.158401 347.677465 17.960136 347.677465 20.514567 L 347.677465 22.813365 C 347.677465 25.544845 345.640927 27.141128 343.143303 27.283146 Z M 356.269555 16.477468 L 356.269555 15.313867 C 356.269555 14.647329 355.772492 14.292284 355.283004 14.292284 C 354.758484 14.292284 354.204613 14.675733 354.204613 15.313867 L 354.204613 27.985662 C 354.204613 28.595392 354.644869 28.99967 355.283004 28.99967 C 355.836874 28.99967 356.326363 28.595392 356.326363 27.985662 L 356.326363 21.330697 C 356.326363 18.393764 357.603578 16.009755 360.597318 16.009755 C 361.263856 16.009755 361.704112 15.662284 361.704112 15.023203 C 361.704112 14.356665 361.263856 14.00162 360.597318 14.00162 C 358.944228 14.00162 357.1993 14.527087 356.269555 16.477468 Z M 378.353358 21.557926 C 378.261519 16.300419 374.628698 14.00162 370.705214 14.00162 C 366.988129 14.00162 363.298501 16.676293 363.298501 21.592957 C 363.298501 25.977527 366.263837 29.291281 370.853859 29.291281 C 372.741752 29.319684 374.685506 28.794217 376.026156 27.545406 C 377.161353 26.381805 375.650281 25.1898 374.628698 26.119545 C 373.501075 26.992482 372.102671 27.34658 370.769595 27.34658 C 367.86012 27.34658 365.824528 25.282585 365.447707 22.898576 L 376.927497 22.898576 C 378.119501 22.898576 378.353358 22.203634 378.353358 21.557926 Z M 365.363443 21.125244 C 365.625703 17.634441 368.122379 15.981352 370.853859 15.981352 C 373.294676 15.981352 376.026156 17.634441 376.316819 21.125244 Z M 394.177006 20.514567 L 394.177006 27.985662 C 394.177006 28.623796 394.616315 28.99967 395.255396 28.99967 C 395.921934 28.99967 396.297808 28.623796 396.297808 27.985662 L 396.297808 20.514567 C 396.297808 16.328822 393.076839 14.00162 389.707225 14.00162 C 387.43683 14.00162 385.201467 14.902961 384.15148 17.023764 L 384.15148 15.34227 C 384.15148 14.647329 383.633588 14.292284 383.109068 14.292284 C 382.583601 14.292284 382.059081 14.647329 382.059081 15.313867 L 382.059081 27.985662 C 382.059081 28.623796 382.49839 28.99967 383.165875 28.99967 C 383.832413 28.99967 384.215862 28.623796 384.215862 27.985662 L 384.215862 21.472715 C 384.215862 18.308554 386.854556 15.981352 389.678822 15.981352 C 392.026853 15.981352 394.177006 17.839894 394.177006 20.514567 Z M 394.177006 20.514567 " stroke="#7f7a70" stroke-width="2.1795" stroke-opacity="1" stroke-miterlimit="4"/><g fill="#fef9ef" fill-opacity="1"><g transform="translate(1806.378352, 441.513079)"><g><path d="M 44.363281 -77.453125 C 28.296875 -77.453125 5.035156 -66.660156 5.035156 -39.207031 C 5.035156 -15.707031 23.257812 1.199219 43.640625 1.199219 C 55.03125 1.199219 67.621094 -4.316406 74.214844 -13.667969 C 77.332031 -18.105469 70.019531 -22.421875 67.382812 -18.464844 C 61.746094 -11.269531 53.113281 -7.074219 43.882812 -7.074219 C 27.457031 -7.074219 13.546875 -20.980469 13.546875 -39.085938 C 13.546875 -62.707031 31.773438 -69.300781 44.601562 -69.300781 C 52.632812 -69.300781 59.949219 -67.023438 66.421875 -60.1875 C 69.777344 -56.589844 76.132812 -61.507812 72.535156 -65.582031 C 64.863281 -73.734375 55.273438 -77.453125 44.363281 -77.453125 Z M 44.363281 -77.453125 "/></g></g></g><g fill="#fef9ef" fill-opacity="1"><g transform="translate(1886.312327, 441.513079)"><g><path d="M 66.902344 -30.691406 C 66.542969 -52.394531 51.554688 -61.867188 35.371094 -61.867188 C 20.023438 -61.867188 4.796875 -50.835938 4.796875 -30.574219 C 4.796875 -12.46875 17.023438 1.199219 35.96875 1.199219 C 43.761719 1.320312 51.796875 -0.839844 57.308594 -5.996094 C 61.984375 -10.789062 55.75 -15.707031 51.554688 -11.871094 C 46.878906 -8.273438 41.125 -6.835938 35.609375 -6.835938 C 23.621094 -6.835938 15.226562 -15.347656 13.667969 -25.179688 L 61.027344 -25.179688 C 65.941406 -25.179688 66.902344 -28.054688 66.902344 -30.691406 Z M 13.308594 -32.492188 C 14.386719 -46.878906 24.699219 -53.714844 35.96875 -53.714844 C 46.039062 -53.714844 57.308594 -46.878906 58.507812 -32.492188 Z M 13.308594 -32.492188 "/></g></g></g><g fill="#fef9ef" fill-opacity="1"><g transform="translate(1960.493947, 441.513079)"><g><path d="M 15.828125 -4.078125 L 15.828125 -76.015625 C 15.828125 -78.292969 13.90625 -80.089844 11.511719 -80.089844 C 8.871094 -80.089844 7.074219 -78.292969 7.074219 -76.015625 L 7.074219 -4.078125 C 7.074219 -1.796875 8.871094 0 11.511719 0 C 13.90625 0 15.828125 -1.796875 15.828125 -4.078125 Z M 15.828125 -4.078125 "/></g></g></g><g fill="#fef9ef" fill-opacity="1"><g transform="translate(1984.701841, 441.513079)"><g><path d="M 66.902344 -30.691406 C 66.542969 -52.394531 51.554688 -61.867188 35.371094 -61.867188 C 20.023438 -61.867188 4.796875 -50.835938 4.796875 -30.574219 C 4.796875 -12.46875 17.023438 1.199219 35.96875 1.199219 C 43.761719 1.320312 51.796875 -0.839844 57.308594 -5.996094 C 61.984375 -10.789062 55.75 -15.707031 51.554688 -11.871094 C 46.878906 -8.273438 41.125 -6.835938 35.609375 -6.835938 C 23.621094 -6.835938 15.226562 -15.347656 13.667969 -25.179688 L 61.027344 -25.179688 C 65.941406 -25.179688 66.902344 -28.054688 66.902344 -30.691406 Z M 13.308594 -32.492188 C 14.386719 -46.878906 24.699219 -53.714844 35.96875 -53.714844 C 46.039062 -53.714844 57.308594 -46.878906 58.507812 -32.492188 Z M 13.308594 -32.492188 "/></g></g></g><g fill="#fef9ef" fill-opacity="1"><g transform="translate(2058.883461, 441.513079)"><g><path d="M 66.902344 -30.8125 C 66.902344 -48.316406 54.550781 -61.867188 36.207031 -61.867188 C 28.175781 -61.867188 20.382812 -58.390625 16.785156 -52.035156 L 16.785156 -76.015625 C 16.785156 -78.769531 14.628906 -80.210938 12.46875 -80.210938 C 10.191406 -80.210938 8.03125 -78.769531 8.03125 -76.015625 L 8.03125 -4.195312 C 8.03125 -1.558594 9.710938 0 12.46875 0 C 15.226562 0 16.546875 -1.558594 16.546875 -4.195312 L 16.546875 -9.113281 C 20.621094 -1.679688 29.015625 1.199219 36.207031 1.199219 C 52.875 1.199219 66.902344 -10.070312 66.902344 -30.8125 Z M 58.148438 -31.292969 C 58.148438 -17.503906 49.398438 -7.074219 35.96875 -7.074219 C 25.539062 -7.433594 16.785156 -14.148438 16.785156 -25.539062 L 16.785156 -35.007812 C 16.785156 -45.558594 24.9375 -53.113281 35.847656 -53.59375 C 52.273438 -53.59375 58.148438 -40.882812 58.148438 -31.292969 Z M 58.148438 -31.292969 "/></g></g></g><g fill="#fef9ef" fill-opacity="1"><g transform="translate(2132.945277, 441.513079)"><g><path d="M 16.1875 -51.675781 L 16.1875 -56.472656 C 16.1875 -59.226562 14.148438 -60.667969 12.109375 -60.667969 C 9.953125 -60.667969 7.671875 -59.109375 7.671875 -56.472656 L 7.671875 -4.195312 C 7.671875 -1.679688 9.472656 0 12.109375 0 C 14.386719 0 16.425781 -1.679688 16.425781 -4.195312 L 16.425781 -31.652344 C 16.425781 -43.761719 21.699219 -53.59375 34.050781 -53.59375 C 36.808594 -53.59375 38.605469 -55.03125 38.605469 -57.667969 C 38.605469 -60.425781 36.808594 -61.867188 34.050781 -61.867188 C 27.214844 -61.867188 20.023438 -59.707031 16.1875 -51.675781 Z M 16.1875 -51.675781 "/></g></g></g><g fill="#fef9ef" fill-opacity="1"><g transform="translate(2173.3317, 441.513079)"><g><path d="M 35.488281 -61.867188 C 18.464844 -61.867188 4.316406 -51.195312 4.316406 -30.691406 C 4.316406 -10.789062 17.625 1.199219 35.007812 1.199219 C 42.082031 1.199219 50.957031 -2.519531 54.433594 -9.472656 L 54.433594 -4.316406 C 54.433594 -1.679688 55.992188 0 58.75 0 C 61.386719 0 63.183594 -1.679688 63.183594 -4.316406 L 63.183594 -56.351562 C 63.183594 -58.867188 61.386719 -60.667969 58.75 -60.667969 C 55.992188 -60.667969 54.433594 -58.867188 54.433594 -56.351562 L 54.433594 -52.394531 C 50.117188 -59.46875 42.324219 -61.867188 35.488281 -61.867188 Z M 35.128906 -7.074219 C 27.335938 -7.074219 13.070312 -13.1875 13.070312 -30.691406 C 13.070312 -42.921875 20.863281 -53.832031 35.371094 -53.59375 C 46.160156 -53.113281 54.433594 -46.878906 54.433594 -35.007812 L 54.433594 -25.539062 C 54.433594 -13.90625 45.679688 -7.433594 35.128906 -7.074219 Z M 35.128906 -7.074219 "/></g></g></g><g fill="#fef9ef" fill-opacity="1"><g transform="translate(2247.153786, 441.513079)"><g><path d="M 34.410156 -60.667969 L 21.339844 -60.667969 L 21.339844 -74.933594 C 21.339844 -80.570312 12.707031 -80.691406 12.707031 -74.933594 L 12.707031 -60.667969 L 4.796875 -60.667969 C -0.480469 -60.667969 -0.839844 -53.355469 4.796875 -53.355469 L 12.707031 -53.355469 L 12.707031 -20.742188 C 12.707031 -9.351562 16.1875 1.199219 30.574219 1.199219 C 33.8125 1.199219 36.808594 0.839844 39.804688 -0.839844 C 45.199219 -3.835938 41.242188 -10.910156 36.207031 -8.03125 C 35.007812 -7.3125 32.371094 -6.714844 30.574219 -6.714844 C 22.421875 -6.714844 21.339844 -13.90625 21.339844 -20.742188 L 21.339844 -53.355469 L 34.410156 -53.355469 C 39.804688 -53.355469 39.804688 -60.667969 34.410156 -60.667969 Z M 34.410156 -60.667969 "/></g></g></g><g fill="#fef9ef" fill-opacity="1"><g transform="translate(2293.292629, 441.513079)"><g><path d="M 15.945312 -75.292969 L 15.945312 -75.894531 C 15.945312 -78.652344 13.667969 -80.089844 11.511719 -80.089844 C 9.230469 -80.089844 6.953125 -78.652344 6.953125 -75.894531 L 6.953125 -75.292969 C 6.953125 -72.535156 9.230469 -71.21875 11.390625 -71.21875 C 13.667969 -71.21875 15.945312 -72.535156 15.945312 -75.292969 Z M 7.074219 -56.710938 L 7.074219 -3.957031 C 7.074219 -1.320312 9.230469 0 11.511719 0 C 13.667969 0 15.828125 -1.320312 15.828125 -3.957031 L 15.828125 -56.832031 C 15.828125 -59.347656 13.667969 -60.667969 11.511719 -60.667969 C 9.351562 -60.667969 7.074219 -59.347656 7.074219 -56.710938 Z M 7.074219 -56.710938 "/></g></g></g><g fill="#fef9ef" fill-opacity="1"><g transform="translate(2317.500523, 441.513079)"><g><path d="M 58.03125 -35.007812 L 58.03125 -4.195312 C 58.03125 -1.558594 59.828125 0 62.464844 0 C 65.222656 0 66.78125 -1.558594 66.78125 -4.195312 L 66.78125 -35.007812 C 66.78125 -52.273438 53.472656 -61.867188 39.566406 -61.867188 C 30.214844 -61.867188 20.980469 -58.148438 16.664062 -49.398438 L 16.664062 -56.351562 C 16.664062 -59.226562 14.507812 -60.667969 12.347656 -60.667969 C 10.191406 -60.667969 8.03125 -59.226562 8.03125 -56.472656 L 8.03125 -4.195312 C 8.03125 -1.558594 9.832031 0 12.589844 0 C 15.347656 0 16.90625 -1.558594 16.90625 -4.195312 L 16.90625 -31.054688 C 16.90625 -44.121094 27.816406 -53.714844 39.445312 -53.714844 C 49.15625 -53.714844 58.03125 -46.039062 58.03125 -35.007812 Z M 58.03125 -35.007812 "/></g></g></g><g fill="#fef9ef" fill-opacity="1"><g transform="translate(2394.798019, 441.513079)"><g><path d="M 63.542969 -2.878906 L 63.542969 -56.351562 C 63.542969 -58.988281 61.746094 -60.667969 59.109375 -60.667969 C 56.351562 -60.667969 54.792969 -58.988281 54.792969 -56.351562 L 54.792969 -52.515625 C 50.835938 -59.109375 42.441406 -61.867188 35.128906 -61.867188 C 19.304688 -61.867188 4.675781 -49.875 4.675781 -29.734375 C 4.675781 -17.265625 11.390625 -5.753906 22.898438 -1.078125 C 26.738281 0.480469 30.691406 1.199219 34.890625 1.199219 C 42.324219 1.199219 50.597656 -1.4375 55.03125 -9.351562 L 55.03125 -2.878906 C 55.03125 9.472656 44.839844 14.988281 33.929688 14.988281 C 27.214844 14.988281 22.300781 13.546875 16.90625 8.992188 C 12.347656 5.15625 5.996094 10.191406 11.03125 15.226562 C 17.503906 21.339844 24.820312 23.5 33.929688 23.5 C 50.355469 23.5 63.542969 14.507812 63.542969 -2.878906 Z M 35.128906 -53.472656 C 45.320312 -53.472656 54.792969 -47.480469 54.792969 -35.007812 L 54.792969 -25.539062 C 54.792969 -15.105469 46.640625 -7.554688 35.730469 -7.074219 C 21.222656 -6.835938 13.429688 -17.625 13.429688 -29.855469 C 13.429688 -43.28125 22.539062 -53.472656 35.128906 -53.472656 Z M 35.128906 -53.472656 "/></g></g></g><g fill="#fef9ef" fill-opacity="1"><g transform="translate(2468.859835, 441.513079)"><g/></g></g><g fill="#fef9ef" fill-opacity="1"><g transform="translate(2501.576429, 441.513079)"><g><path d="M 9.230469 -71.097656 L 9.230469 -4.4375 C 9.230469 -1.558594 11.390625 0 13.546875 0 C 15.707031 0 17.863281 -1.558594 17.863281 -4.554688 L 17.863281 -31.171875 L 61.625 -31.171875 C 66.421875 -31.171875 66.421875 -38.605469 61.625 -38.605469 L 17.863281 -38.605469 L 17.863281 -68.699219 L 63.90625 -68.699219 C 68.941406 -68.699219 68.941406 -76.253906 63.90625 -76.253906 L 14.507812 -76.253906 C 11.628906 -76.253906 9.230469 -73.855469 9.230469 -71.097656 Z M 9.230469 -71.097656 "/></g></g></g><g fill="#fef9ef" fill-opacity="1"><g transform="translate(2575.518382, 441.513079)"><g><path d="M 35.609375 1.199219 C 53.714844 1.199219 66.902344 -12.347656 66.902344 -30.574219 C 66.902344 -47.71875 53.832031 -61.867188 35.609375 -61.867188 C 17.625 -61.867188 4.316406 -48.558594 4.316406 -31.171875 C 4.316406 -13.308594 16.546875 1.199219 35.609375 1.199219 Z M 35.488281 -53.714844 C 46.757812 -53.714844 58.148438 -46.160156 58.148438 -29.972656 C 58.148438 -17.984375 49.039062 -7.074219 35.609375 -7.074219 C 22.179688 -7.074219 13.1875 -17.386719 13.1875 -30.214844 C 13.1875 -45.800781 23.980469 -53.714844 35.488281 -53.714844 Z M 35.488281 -53.714844 "/></g></g></g><g fill="#fef9ef" fill-opacity="1"><g transform="translate(2648.501598, 441.513079)"><g><path d="M 3.355469 -13.546875 C 5.753906 -1.558594 21.101562 1.199219 31.054688 1.199219 C 41.003906 1.199219 58.269531 -2.757812 58.269531 -17.863281 C 58.269531 -32.851562 44.242188 -34.050781 31.054688 -35.25 C 21.460938 -35.96875 12.589844 -35.847656 12.589844 -43.523438 C 12.589844 -50.957031 23.019531 -53.953125 29.972656 -53.953125 C 35.371094 -53.953125 45.441406 -53.472656 48.078125 -46.519531 C 49.636719 -41.964844 57.910156 -44.242188 56.230469 -49.636719 C 52.035156 -60.425781 39.207031 -61.867188 29.972656 -61.867188 C 18.464844 -61.867188 3.835938 -56.472656 3.835938 -43.640625 C 3.835938 -28.894531 17.746094 -27.816406 30.691406 -26.617188 C 40.40625 -25.898438 49.515625 -25.539062 49.515625 -17.863281 C 49.515625 -9.589844 36.929688 -6.59375 31.054688 -6.59375 C 22.300781 -6.59375 12.949219 -9.710938 11.75 -15.105469 C 10.671875 -21.101562 1.917969 -18.582031 3.355469 -13.546875 Z M 3.355469 -13.546875 "/></g></g></g><g fill="#fef9ef" fill-opacity="1"><g transform="translate(2712.616579, 441.513079)"><g><path d="M 34.410156 -60.667969 L 21.339844 -60.667969 L 21.339844 -74.933594 C 21.339844 -80.570312 12.707031 -80.691406 12.707031 -74.933594 L 12.707031 -60.667969 L 4.796875 -60.667969 C -0.480469 -60.667969 -0.839844 -53.355469 4.796875 -53.355469 L 12.707031 -53.355469 L 12.707031 -20.742188 C 12.707031 -9.351562 16.1875 1.199219 30.574219 1.199219 C 33.8125 1.199219 36.808594 0.839844 39.804688 -0.839844 C 45.199219 -3.835938 41.242188 -10.910156 36.207031 -8.03125 C 35.007812 -7.3125 32.371094 -6.714844 30.574219 -6.714844 C 22.421875 -6.714844 21.339844 -13.90625 21.339844 -20.742188 L 21.339844 -53.355469 L 34.410156 -53.355469 C 39.804688 -53.355469 39.804688 -60.667969 34.410156 -60.667969 Z M 34.410156 -60.667969 "/></g></g></g><g fill="#fef9ef" fill-opacity="1"><g transform="translate(2758.755422, 441.513079)"><g><path d="M 66.902344 -30.691406 C 66.542969 -52.394531 51.554688 -61.867188 35.371094 -61.867188 C 20.023438 -61.867188 4.796875 -50.835938 4.796875 -30.574219 C 4.796875 -12.46875 17.023438 1.199219 35.96875 1.199219 C 43.761719 1.320312 51.796875 -0.839844 57.308594 -5.996094 C 61.984375 -10.789062 55.75 -15.707031 51.554688 -11.871094 C 46.878906 -8.273438 41.125 -6.835938 35.609375 -6.835938 C 23.621094 -6.835938 15.226562 -15.347656 13.667969 -25.179688 L 61.027344 -25.179688 C 65.941406 -25.179688 66.902344 -28.054688 66.902344 -30.691406 Z M 13.308594 -32.492188 C 14.386719 -46.878906 24.699219 -53.714844 35.96875 -53.714844 C 46.039062 -53.714844 57.308594 -46.878906 58.507812 -32.492188 Z M 13.308594 -32.492188 "/></g></g></g><g fill="#fef9ef" fill-opacity="1"><g transform="translate(2832.937042, 441.513079)"><g><path d="M 16.1875 -51.675781 L 16.1875 -56.472656 C 16.1875 -59.226562 14.148438 -60.667969 12.109375 -60.667969 C 9.953125 -60.667969 7.671875 -59.109375 7.671875 -56.472656 L 7.671875 -4.195312 C 7.671875 -1.679688 9.472656 0 12.109375 0 C 14.386719 0 16.425781 -1.679688 16.425781 -4.195312 L 16.425781 -31.652344 C 16.425781 -43.761719 21.699219 -53.59375 34.050781 -53.59375 C 36.808594 -53.59375 38.605469 -55.03125 38.605469 -57.667969 C 38.605469 -60.425781 36.808594 -61.867188 34.050781 -61.867188 C 27.214844 -61.867188 20.023438 -59.707031 16.1875 -51.675781 Z M 16.1875 -51.675781 "/></g></g></g><g fill="#fef9ef" fill-opacity="1"><g transform="translate(2873.323403, 441.513079)"><g/></g></g><g fill="#fef9ef" fill-opacity="1"><g transform="translate(2906.039934, 441.513079)"><g><path d="M 44.363281 -77.453125 C 28.296875 -77.453125 5.035156 -66.660156 5.035156 -39.207031 C 5.035156 -15.707031 23.257812 1.199219 43.640625 1.199219 C 55.03125 1.199219 67.621094 -4.316406 74.214844 -13.667969 C 77.332031 -18.105469 70.019531 -22.421875 67.382812 -18.464844 C 61.746094 -11.269531 53.113281 -7.074219 43.882812 -7.074219 C 27.457031 -7.074219 13.546875 -20.980469 13.546875 -39.085938 C 13.546875 -62.707031 31.773438 -69.300781 44.601562 -69.300781 C 52.632812 -69.300781 59.949219 -67.023438 66.421875 -60.1875 C 69.777344 -56.589844 76.132812 -61.507812 72.535156 -65.582031 C 64.863281 -73.734375 55.273438 -77.453125 44.363281 -77.453125 Z M 44.363281 -77.453125 "/></g></g></g><g fill="#fef9ef" fill-opacity="1"><g transform="translate(2985.973975, 441.513079)"><g><path d="M 58.03125 -35.007812 L 58.03125 -4.316406 C 58.03125 -1.679688 59.828125 0 62.464844 0 C 65.222656 0 66.78125 -1.679688 66.78125 -4.316406 L 66.78125 -35.007812 C 66.78125 -52.273438 53.472656 -61.867188 39.566406 -61.867188 C 30.574219 -61.867188 21.222656 -58.390625 16.90625 -49.996094 L 16.90625 -76.253906 C 16.90625 -78.769531 14.628906 -80.089844 12.46875 -80.089844 C 10.191406 -80.089844 8.03125 -78.769531 8.03125 -76.253906 L 8.03125 -4.316406 C 8.03125 -1.679688 9.832031 0 12.589844 0 C 15.347656 0 16.90625 -1.679688 16.90625 -4.316406 L 16.90625 -33.210938 C 16.90625 -45.558594 27.816406 -53.714844 39.445312 -53.714844 C 49.15625 -53.714844 58.03125 -46.039062 58.03125 -35.007812 Z M 58.03125 -35.007812 "/></g></g></g><g fill="#fef9ef" fill-opacity="1"><g transform="translate(3063.271472, 441.513079)"><g><path d="M 15.945312 -75.292969 L 15.945312 -75.894531 C 15.945312 -78.652344 13.667969 -80.089844 11.511719 -80.089844 C 9.230469 -80.089844 6.953125 -78.652344 6.953125 -75.894531 L 6.953125 -75.292969 C 6.953125 -72.535156 9.230469 -71.21875 11.390625 -71.21875 C 13.667969 -71.21875 15.945312 -72.535156 15.945312 -75.292969 Z M 7.074219 -56.710938 L 7.074219 -3.957031 C 7.074219 -1.320312 9.230469 0 11.511719 0 C 13.667969 0 15.828125 -1.320312 15.828125 -3.957031 L 15.828125 -56.832031 C 15.828125 -59.347656 13.667969 -60.667969 11.511719 -60.667969 C 9.351562 -60.667969 7.074219 -59.347656 7.074219 -56.710938 Z M 7.074219 -56.710938 "/></g></g></g><g fill="#fef9ef" fill-opacity="1"><g transform="translate(3087.479302, 441.513079)"><g><path d="M 15.828125 -4.078125 L 15.828125 -76.015625 C 15.828125 -78.292969 13.90625 -80.089844 11.511719 -80.089844 C 8.871094 -80.089844 7.074219 -78.292969 7.074219 -76.015625 L 7.074219 -4.078125 C 7.074219 -1.796875 8.871094 0 11.511719 0 C 13.90625 0 15.828125 -1.796875 15.828125 -4.078125 Z M 15.828125 -4.078125 "/></g></g></g><g fill="#fef9ef" fill-opacity="1"><g transform="translate(3111.687133, 441.513079)"><g><path d="M 35.25 -61.746094 C 11.988281 -61.746094 4.554688 -42.804688 4.554688 -30.8125 C 4.554688 -10.070312 18.582031 1.199219 35.25 1.199219 C 42.441406 1.199219 50.835938 -1.679688 54.914062 -9.113281 L 54.914062 -4.195312 C 54.914062 -1.558594 56.230469 0 58.988281 0 C 61.746094 0 63.425781 -1.558594 63.425781 -4.195312 L 63.425781 -75.894531 C 63.425781 -78.652344 61.265625 -80.089844 59.109375 -80.089844 C 56.832031 -80.089844 54.671875 -78.652344 54.671875 -75.894531 L 54.671875 -52.035156 C 51.074219 -58.390625 43.28125 -61.746094 35.25 -61.746094 Z M 35.96875 -7.074219 C 27.214844 -7.074219 13.308594 -12.589844 13.308594 -31.171875 C 13.308594 -38.964844 17.746094 -53.472656 35.609375 -53.472656 C 46.519531 -52.992188 54.671875 -45.558594 54.671875 -35.007812 L 54.671875 -25.539062 C 54.671875 -14.269531 46.28125 -7.671875 35.96875 -7.074219 Z M 35.96875 -7.074219 "/></g></g></g><g fill="#fef9ef" fill-opacity="1"><g transform="translate(3185.629148, 441.513079)"><g><path d="M 16.1875 -51.675781 L 16.1875 -56.472656 C 16.1875 -59.226562 14.148438 -60.667969 12.109375 -60.667969 C 9.953125 -60.667969 7.671875 -59.109375 7.671875 -56.472656 L 7.671875 -4.195312 C 7.671875 -1.679688 9.472656 0 12.109375 0 C 14.386719 0 16.425781 -1.679688 16.425781 -4.195312 L 16.425781 -31.652344 C 16.425781 -43.761719 21.699219 -53.59375 34.050781 -53.59375 C 36.808594 -53.59375 38.605469 -55.03125 38.605469 -57.667969 C 38.605469 -60.425781 36.808594 -61.867188 34.050781 -61.867188 C 27.214844 -61.867188 20.023438 -59.707031 16.1875 -51.675781 Z M 16.1875 -51.675781 "/></g></g></g><g fill="#fef9ef" fill-opacity="1"><g transform="translate(3226.015571, 441.513079)"><g><path d="M 66.902344 -30.691406 C 66.542969 -52.394531 51.554688 -61.867188 35.371094 -61.867188 C 20.023438 -61.867188 4.796875 -50.835938 4.796875 -30.574219 C 4.796875 -12.46875 17.023438 1.199219 35.96875 1.199219 C 43.761719 1.320312 51.796875 -0.839844 57.308594 -5.996094 C 61.984375 -10.789062 55.75 -15.707031 51.554688 -11.871094 C 46.878906 -8.273438 41.125 -6.835938 35.609375 -6.835938 C 23.621094 -6.835938 15.226562 -15.347656 13.667969 -25.179688 L 61.027344 -25.179688 C 65.941406 -25.179688 66.902344 -28.054688 66.902344 -30.691406 Z M 13.308594 -32.492188 C 14.386719 -46.878906 24.699219 -53.714844 35.96875 -53.714844 C 46.039062 -53.714844 57.308594 -46.878906 58.507812 -32.492188 Z M 13.308594 -32.492188 "/></g></g></g><g fill="#fef9ef" fill-opacity="1"><g transform="translate(3300.197191, 441.513079)"><g><path d="M 58.03125 -35.007812 L 58.03125 -4.195312 C 58.03125 -1.558594 59.828125 0 62.464844 0 C 65.222656 0 66.78125 -1.558594 66.78125 -4.195312 L 66.78125 -35.007812 C 66.78125 -52.273438 53.472656 -61.867188 39.566406 -61.867188 C 30.214844 -61.867188 20.980469 -58.148438 16.664062 -49.398438 L 16.664062 -56.351562 C 16.664062 -59.226562 14.507812 -60.667969 12.347656 -60.667969 C 10.191406 -60.667969 8.03125 -59.226562 8.03125 -56.472656 L 8.03125 -4.195312 C 8.03125 -1.558594 9.832031 0 12.589844 0 C 15.347656 0 16.90625 -1.558594 16.90625 -4.195312 L 16.90625 -31.054688 C 16.90625 -44.121094 27.816406 -53.714844 39.445312 -53.714844 C 49.15625 -53.714844 58.03125 -46.039062 58.03125 -35.007812 Z M 58.03125 -35.007812 "/></g></g></g></svg>