<svg xmlns="http://www.w3.org/2000/svg" xmlns:xlink="http://www.w3.org/1999/xlink" width="6912" zoomAndPan="magnify" viewBox="0 0 5184 2592.000001" height="3456" preserveAspectRatio="xMidYMid meet" version="1.0"><defs><g/></defs><g fill="#ff865e" fill-opacity="1"><g transform="translate(971.066893, 2029.506172)"><g><path d="M 68.972656 -9.097656 C 68.070312 -26.089844 67.074219 -44.082031 65.871094 -64.171875 C 65.671875 -67.171875 65.273438 -69.871094 64.671875 -72.371094 C 64.171875 -74.46875 62.574219 -75.769531 60.375 -75.96875 C 57.578125 -76.367188 55.976562 -74.667969 55.175781 -73.171875 C 54.578125 -71.96875 54.078125 -70.570312 53.878906 -69.171875 C 53.476562 -66.273438 53.277344 -63.375 53.078125 -60.773438 C 52.878906 -57.675781 52.777344 -54.675781 52.578125 -51.578125 L 52.277344 -46.28125 L 18.292969 -46.28125 L 17.992188 -50.480469 C 17.894531 -52.078125 17.792969 -53.679688 17.59375 -55.378906 C 17.394531 -59.074219 17.191406 -62.875 16.691406 -66.574219 C 16.292969 -70.070312 14.195312 -72.269531 11.195312 -72.46875 C 8.195312 -72.671875 5.796875 -70.472656 4.996094 -66.972656 C 4.398438 -63.675781 3.5 -59.574219 3.699219 -55.777344 C 4.296875 -40.582031 5.199219 -24.191406 6.496094 -4.097656 C 6.695312 -0.199219 9.097656 2.5 12.394531 2.5 C 12.496094 2.5 12.496094 2.5 12.496094 2.5 C 15.792969 2.398438 17.992188 -0.199219 18.390625 -4.398438 C 18.492188 -5.597656 18.492188 -6.996094 18.492188 -8.195312 L 18.492188 -8.597656 C 18.492188 -12.59375 18.390625 -16.691406 18.390625 -20.792969 L 18.292969 -27.6875 C 18.292969 -28.488281 18.292969 -29.289062 18.292969 -30.289062 L 18.292969 -32.785156 L 52.476562 -32.785156 L 52.378906 -30.386719 C 52.378906 -29.488281 52.378906 -28.589844 52.476562 -27.6875 C 52.476562 -25.890625 52.578125 -24.089844 52.578125 -22.289062 C 52.777344 -17.394531 52.976562 -12.296875 53.378906 -7.296875 C 53.578125 -4.996094 54.378906 -2.398438 55.675781 0 C 57.078125 2.699219 59.476562 4 62.574219 3.597656 C 65.574219 3.199219 67.671875 1.398438 68.371094 -1.5 C 68.871094 -3.699219 69.070312 -6.296875 68.972656 -9.097656 Z M 68.972656 -9.097656 "/></g></g></g><g fill="#ff865e" fill-opacity="1"><g transform="translate(1056.531079, 2029.506172)"><g><path d="M 76.367188 -16.292969 C 76.070312 -17.691406 75.769531 -19.390625 75.269531 -20.992188 C 69.769531 -39.785156 60.273438 -56.777344 50.980469 -72.46875 C 48.679688 -76.367188 45.679688 -78.269531 42.28125 -78.269531 C 40.285156 -78.269531 38.183594 -77.667969 35.886719 -76.367188 C 33.085938 -74.667969 30.6875 -72.570312 29.289062 -70.472656 C 26.289062 -66.171875 23.789062 -61.375 21.792969 -57.175781 C 18.191406 -49.679688 15.394531 -43.382812 12.996094 -37.382812 C 9.296875 -28.089844 6.496094 -20.191406 4.097656 -12.695312 C 2.699219 -8.496094 4.898438 -5.097656 7.496094 -3.898438 C 10.695312 -2.597656 13.792969 -4 16.09375 -7.796875 C 17.191406 -9.695312 18.191406 -11.695312 19.191406 -13.695312 C 20.089844 -15.492188 21.089844 -17.492188 22.191406 -19.292969 C 22.890625 -20.589844 24.789062 -21.890625 26.1875 -21.890625 C 31.386719 -21.792969 36.585938 -21.589844 41.683594 -21.390625 C 45.480469 -21.191406 49.378906 -21.089844 53.179688 -20.890625 C 56.675781 -20.792969 57.675781 -18.792969 58.277344 -16.691406 C 59.074219 -13.695312 59.976562 -11.394531 61.074219 -9.496094 C 63.175781 -5.898438 66.972656 -4.398438 70.671875 -5.496094 C 74.46875 -6.695312 76.667969 -10.195312 76.667969 -15.09375 C 76.570312 -15.492188 76.46875 -15.894531 76.367188 -16.292969 Z M 32.085938 -38.785156 L 40.082031 -60.675781 L 50.777344 -38.785156 Z M 32.085938 -38.785156 "/></g></g></g><g fill="#ff865e" fill-opacity="1"><g transform="translate(1149.791955, 2029.506172)"><g><path d="M 62.574219 -57.875 C 59.976562 -73.171875 48.78125 -81.867188 33.285156 -80.667969 C 27.1875 -80.167969 22.089844 -78.367188 17.292969 -75.070312 L 16.394531 -74.46875 L 15.792969 -75.269531 C 15.59375 -75.570312 15.394531 -75.867188 15.292969 -76.070312 C 14.992188 -76.46875 14.792969 -76.769531 14.59375 -76.96875 C 13.195312 -78.269531 11.496094 -78.96875 9.894531 -78.96875 C 9.296875 -78.96875 8.695312 -78.867188 8.195312 -78.667969 C 5.996094 -77.96875 4.5 -76.167969 4 -73.667969 C 3.597656 -72.070312 3.597656 -70.371094 3.699219 -68.671875 C 3.796875 -61.972656 4.398438 -55.277344 4.996094 -48.679688 C 5.699219 -41.683594 6.398438 -34.484375 6.496094 -27.289062 C 6.496094 -23.289062 6.199219 -19.191406 5.898438 -15.195312 C 5.796875 -13.195312 5.699219 -11.09375 5.597656 -9.097656 C 5.398438 -5.898438 5.398438 -3.296875 7.695312 -2.097656 L 7.996094 -1.800781 C 8.996094 -0.601562 11.496094 0.398438 14.195312 -0.101562 C 16.191406 -0.398438 18.890625 -1.597656 20.589844 -5.597656 C 21.390625 -7.398438 21.390625 -9.796875 21.492188 -11.996094 L 21.492188 -12.894531 C 21.589844 -15.09375 21.390625 -18.890625 21.292969 -21.390625 L 21.089844 -23.890625 L 22.289062 -23.890625 C 23.890625 -23.890625 25.488281 -23.890625 27.1875 -23.789062 C 30.386719 -23.589844 33.6875 -23.492188 36.285156 -23.890625 C 54.277344 -26.988281 65.375 -41.28125 62.574219 -57.875 Z M 40.484375 -45.382812 C 36.386719 -41.484375 31.289062 -39.683594 24.191406 -39.683594 C 23.492188 -39.683594 22.789062 -39.683594 21.992188 -39.785156 L 20.992188 -39.785156 L 20.992188 -40.882812 C 20.992188 -47.582031 22.390625 -53.078125 25.289062 -57.976562 C 27.886719 -62.273438 35.683594 -64.875 40.082031 -62.875 C 41.78125 -62.175781 43.382812 -60.375 43.980469 -58.476562 C 45.679688 -53.777344 44.480469 -49.28125 40.484375 -45.382812 Z M 40.484375 -45.382812 "/></g></g></g><g fill="#ff865e" fill-opacity="1"><g transform="translate(1229.358644, 2029.506172)"><g><path d="M 62.574219 -57.875 C 59.976562 -73.171875 48.78125 -81.867188 33.285156 -80.667969 C 27.1875 -80.167969 22.089844 -78.367188 17.292969 -75.070312 L 16.394531 -74.46875 L 15.792969 -75.269531 C 15.59375 -75.570312 15.394531 -75.867188 15.292969 -76.070312 C 14.992188 -76.46875 14.792969 -76.769531 14.59375 -76.96875 C 13.195312 -78.269531 11.496094 -78.96875 9.894531 -78.96875 C 9.296875 -78.96875 8.695312 -78.867188 8.195312 -78.667969 C 5.996094 -77.96875 4.5 -76.167969 4 -73.667969 C 3.597656 -72.070312 3.597656 -70.371094 3.699219 -68.671875 C 3.796875 -61.972656 4.398438 -55.277344 4.996094 -48.679688 C 5.699219 -41.683594 6.398438 -34.484375 6.496094 -27.289062 C 6.496094 -23.289062 6.199219 -19.191406 5.898438 -15.195312 C 5.796875 -13.195312 5.699219 -11.09375 5.597656 -9.097656 C 5.398438 -5.898438 5.398438 -3.296875 7.695312 -2.097656 L 7.996094 -1.800781 C 8.996094 -0.601562 11.496094 0.398438 14.195312 -0.101562 C 16.191406 -0.398438 18.890625 -1.597656 20.589844 -5.597656 C 21.390625 -7.398438 21.390625 -9.796875 21.492188 -11.996094 L 21.492188 -12.894531 C 21.589844 -15.09375 21.390625 -18.890625 21.292969 -21.390625 L 21.089844 -23.890625 L 22.289062 -23.890625 C 23.890625 -23.890625 25.488281 -23.890625 27.1875 -23.789062 C 30.386719 -23.589844 33.6875 -23.492188 36.285156 -23.890625 C 54.277344 -26.988281 65.375 -41.28125 62.574219 -57.875 Z M 40.484375 -45.382812 C 36.386719 -41.484375 31.289062 -39.683594 24.191406 -39.683594 C 23.492188 -39.683594 22.789062 -39.683594 21.992188 -39.785156 L 20.992188 -39.785156 L 20.992188 -40.882812 C 20.992188 -47.582031 22.390625 -53.078125 25.289062 -57.976562 C 27.886719 -62.273438 35.683594 -64.875 40.082031 -62.875 C 41.78125 -62.175781 43.382812 -60.375 43.980469 -58.476562 C 45.679688 -53.777344 44.480469 -49.28125 40.484375 -45.382812 Z M 40.484375 -45.382812 "/></g></g></g><g fill="#ff865e" fill-opacity="1"><g transform="translate(1308.925332, 2029.506172)"><g><path d="M 61.273438 -74.871094 C 58.175781 -77.066406 54.078125 -76.367188 50.980469 -73.070312 C 49.980469 -71.96875 49.078125 -70.671875 48.179688 -69.371094 C 47.582031 -68.570312 47.082031 -67.871094 46.480469 -67.171875 C 43.78125 -63.574219 40.984375 -59.976562 38.085938 -56.175781 L 33.285156 -49.980469 L 32.386719 -51.378906 C 31.386719 -53.179688 30.386719 -54.878906 29.386719 -56.476562 C 27.1875 -60.074219 25.191406 -63.472656 23.089844 -66.671875 L 22.789062 -67.074219 C 20.292969 -70.871094 17.792969 -74.871094 14.792969 -78.269531 C 13.292969 -79.96875 11.394531 -80.667969 9.695312 -80.667969 C 8.496094 -80.667969 7.398438 -80.265625 6.496094 -79.765625 C 4.097656 -78.269531 3.199219 -75.46875 3.898438 -71.769531 C 4.097656 -71.070312 4.199219 -70.269531 4.5 -69.671875 C 5.296875 -67.773438 5.996094 -65.871094 6.695312 -63.972656 C 8.398438 -59.375 10.195312 -54.777344 12.296875 -50.378906 C 15.792969 -43.082031 20.691406 -37.382812 26.6875 -33.484375 C 27.886719 -32.6875 28.589844 -30.6875 28.488281 -29.289062 C 28.386719 -26.6875 28.089844 -24.191406 27.886719 -21.589844 C 27.589844 -17.792969 27.1875 -13.792969 27.1875 -9.796875 C 27.1875 -6.398438 28.289062 -3.5 30.289062 -1.5 C 31.785156 0 33.6875 0.699219 35.683594 0.699219 C 40.582031 0.601562 43.78125 -3.699219 43.582031 -9.894531 C 43.480469 -16.691406 42.980469 -23.789062 42.082031 -31.6875 C 41.78125 -34.6875 42.28125 -36.683594 44.183594 -39.183594 C 49.878906 -46.679688 56.578125 -55.578125 62.773438 -64.972656 C 65.472656 -69.070312 63.875 -72.96875 61.273438 -74.871094 Z M 61.273438 -74.871094 "/></g></g></g><g fill="#ff865e" fill-opacity="1"><g transform="translate(1389.691517, 2029.506172)"><g/></g></g><g fill="#ff865e" fill-opacity="1"><g transform="translate(1431.174397, 2029.506172)"><g><path d="M 56.675781 -73.570312 C 55.878906 -73.769531 55.078125 -73.96875 54.179688 -74.070312 C 50.777344 -74.46875 47.378906 -74.667969 43.980469 -74.667969 C 37.085938 -74.667969 30.1875 -73.96875 23.492188 -73.171875 C 19.292969 -72.769531 14.992188 -72.269531 10.695312 -71.96875 C 10.59375 -71.96875 10.496094 -71.871094 10.296875 -71.871094 L 9.996094 -71.769531 C 5.796875 -70.570312 3.5 -68.070312 3.699219 -64.574219 C 3.796875 -61.273438 6.097656 -58.976562 10.296875 -57.976562 C 11.296875 -57.777344 12.296875 -57.675781 13.394531 -57.578125 C 15.695312 -57.277344 17.992188 -57.078125 20.292969 -56.875 L 23.589844 -56.476562 L 23.691406 -54.777344 C 23.691406 -54.277344 23.691406 -53.878906 23.691406 -53.378906 C 23.691406 -49.878906 23.589844 -46.382812 23.492188 -42.882812 C 23.289062 -34.285156 23.191406 -25.488281 23.191406 -16.792969 C 23.191406 -13.695312 23.789062 -10.296875 24.988281 -7.195312 C 26.1875 -4.097656 28.886719 -2.300781 32.488281 -2.300781 C 35.984375 -2.300781 38.683594 -4.097656 39.882812 -7.398438 C 40.882812 -9.894531 41.382812 -12.59375 41.28125 -14.992188 C 41.082031 -21.589844 40.382812 -28.089844 39.785156 -33.585938 C 39.183594 -38.683594 38.484375 -43.78125 37.785156 -49.078125 C 37.382812 -51.480469 37.085938 -53.976562 36.785156 -56.476562 L 36.585938 -57.675781 L 45.78125 -57.675781 C 46.78125 -57.675781 47.78125 -57.675781 48.78125 -57.578125 C 50.878906 -57.578125 53.179688 -57.578125 55.277344 -57.675781 C 59.574219 -58.074219 62.773438 -60.976562 63.175781 -64.972656 C 63.472656 -68.871094 60.976562 -72.269531 56.675781 -73.570312 Z M 56.675781 -73.570312 "/></g></g></g><g fill="#ff865e" fill-opacity="1"><g transform="translate(1510.940983, 2029.506172)"><g><path d="M 68.972656 -9.097656 C 68.070312 -26.089844 67.074219 -44.082031 65.871094 -64.171875 C 65.671875 -67.171875 65.273438 -69.871094 64.671875 -72.371094 C 64.171875 -74.46875 62.574219 -75.769531 60.375 -75.96875 C 57.578125 -76.367188 55.976562 -74.667969 55.175781 -73.171875 C 54.578125 -71.96875 54.078125 -70.570312 53.878906 -69.171875 C 53.476562 -66.273438 53.277344 -63.375 53.078125 -60.773438 C 52.878906 -57.675781 52.777344 -54.675781 52.578125 -51.578125 L 52.277344 -46.28125 L 18.292969 -46.28125 L 17.992188 -50.480469 C 17.894531 -52.078125 17.792969 -53.679688 17.59375 -55.378906 C 17.394531 -59.074219 17.191406 -62.875 16.691406 -66.574219 C 16.292969 -70.070312 14.195312 -72.269531 11.195312 -72.46875 C 8.195312 -72.671875 5.796875 -70.472656 4.996094 -66.972656 C 4.398438 -63.675781 3.5 -59.574219 3.699219 -55.777344 C 4.296875 -40.582031 5.199219 -24.191406 6.496094 -4.097656 C 6.695312 -0.199219 9.097656 2.5 12.394531 2.5 C 12.496094 2.5 12.496094 2.5 12.496094 2.5 C 15.792969 2.398438 17.992188 -0.199219 18.390625 -4.398438 C 18.492188 -5.597656 18.492188 -6.996094 18.492188 -8.195312 L 18.492188 -8.597656 C 18.492188 -12.59375 18.390625 -16.691406 18.390625 -20.792969 L 18.292969 -27.6875 C 18.292969 -28.488281 18.292969 -29.289062 18.292969 -30.289062 L 18.292969 -32.785156 L 52.476562 -32.785156 L 52.378906 -30.386719 C 52.378906 -29.488281 52.378906 -28.589844 52.476562 -27.6875 C 52.476562 -25.890625 52.578125 -24.089844 52.578125 -22.289062 C 52.777344 -17.394531 52.976562 -12.296875 53.378906 -7.296875 C 53.578125 -4.996094 54.378906 -2.398438 55.675781 0 C 57.078125 2.699219 59.476562 4 62.574219 3.597656 C 65.574219 3.199219 67.671875 1.398438 68.371094 -1.5 C 68.871094 -3.699219 69.070312 -6.296875 68.972656 -9.097656 Z M 68.972656 -9.097656 "/></g></g></g><g fill="#ff865e" fill-opacity="1"><g transform="translate(1596.405169, 2029.506172)"><g><path d="M 42.484375 -74.46875 C 41.984375 -74.570312 41.484375 -74.570312 40.882812 -74.570312 C 39.882812 -74.570312 38.785156 -74.46875 37.683594 -74.269531 L 36.683594 -74.167969 C 21.191406 -72.171875 10.996094 -63.472656 5.496094 -47.582031 C 2.199219 -38.085938 3.296875 -26.1875 8.296875 -17.394531 C 12.792969 -9.597656 20.191406 -4.398438 29.585938 -2.5 L 29.886719 -2.398438 C 31.386719 -2.097656 32.886719 -1.800781 34.386719 -1.597656 C 44.78125 -0.398438 52.976562 -3.398438 59.375 -10.996094 L 61.375 -13.195312 C 62.972656 -15.09375 64.671875 -17.09375 66.273438 -18.992188 C 70.769531 -24.390625 73.269531 -31.085938 74.070312 -40.183594 C 72.769531 -62.773438 60.476562 -70.171875 42.484375 -74.46875 Z M 55.878906 -38.585938 C 55.476562 -37.683594 55.078125 -36.785156 54.675781 -35.785156 C 53.679688 -33.585938 52.679688 -31.386719 51.378906 -29.1875 C 50.480469 -27.6875 49.28125 -26.488281 48.179688 -25.289062 C 47.679688 -24.789062 47.179688 -24.289062 46.78125 -23.789062 C 43.980469 -20.792969 40.183594 -19.09375 36.085938 -19.09375 C 35.085938 -19.09375 34.1875 -19.191406 33.1875 -19.390625 C 27.886719 -20.390625 23.589844 -24.089844 21.691406 -29.1875 C 18.890625 -36.984375 20.191406 -44.382812 25.6875 -52.578125 C 29.1875 -57.875 33.085938 -58.777344 38.882812 -55.777344 C 41.082031 -54.675781 43.382812 -53.578125 46.28125 -52.476562 C 52.578125 -49.878906 55.175781 -46.382812 55.976562 -39.183594 L 55.976562 -38.882812 Z M 55.878906 -38.585938 "/></g></g></g><g fill="#ff865e" fill-opacity="1"><g transform="translate(1687.067178, 2029.506172)"><g><path d="M 64.972656 -70.070312 C 63.875 -72.769531 61.675781 -74.269531 58.777344 -74.46875 C 55.578125 -74.667969 53.179688 -73.371094 51.878906 -70.671875 C 50.777344 -68.671875 50.078125 -66.371094 49.78125 -63.875 C 49.378906 -61.375 49.179688 -58.777344 48.980469 -56.277344 C 48.78125 -53.378906 48.578125 -50.378906 48.082031 -47.378906 L 47.878906 -45.882812 C 46.878906 -39.183594 45.78125 -32.285156 43.882812 -25.589844 C 42.980469 -22.390625 41.183594 -20.292969 38.785156 -19.390625 C 36.183594 -18.390625 32.988281 -18.992188 29.6875 -21.089844 C 24.589844 -24.488281 21.691406 -29.488281 21.089844 -35.984375 C 20.890625 -38.882812 20.589844 -41.882812 20.390625 -44.78125 C 19.992188 -49.28125 19.59375 -53.878906 19.09375 -58.375 C 18.792969 -61.773438 18.292969 -64.472656 17.59375 -66.871094 C 16.691406 -69.871094 14.394531 -71.671875 11.59375 -71.46875 C 8.796875 -71.269531 6.898438 -69.769531 5.996094 -66.671875 C 5.597656 -65.472656 5.296875 -64.375 5.199219 -63.375 C 4.796875 -58.476562 4.398438 -53.578125 3.898438 -48.578125 L 3.699219 -45.082031 L 4 -45.082031 L 4 -44.082031 C 4 -43.183594 4 -42.28125 4 -41.382812 C 4 -39.582031 4 -37.683594 4.097656 -35.886719 C 4.597656 -22.992188 10.195312 -13.195312 20.589844 -6.695312 C 27.1875 -2.699219 34.585938 -1.5 41.484375 -3.5 C 48.378906 -5.496094 53.976562 -10.394531 57.375 -17.191406 C 58.976562 -20.492188 60.476562 -23.988281 61.074219 -27.390625 C 62.875 -38.285156 64.574219 -49.78125 66.273438 -63.675781 C 66.472656 -65.273438 66.074219 -67.472656 64.972656 -70.070312 Z M 64.972656 -70.070312 "/></g></g></g><g fill="#ff865e" fill-opacity="1"><g transform="translate(1770.03239, 2029.506172)"><g><path d="M 68.671875 -23.988281 C 68.171875 -27.390625 67.671875 -30.988281 66.871094 -34.585938 C 66.472656 -36.585938 65.273438 -40.285156 61.875 -41.28125 C 55.476562 -43.183594 48.980469 -42.382812 43.082031 -38.882812 C 41.78125 -38.085938 41.183594 -36.984375 41.183594 -35.585938 C 41.28125 -33.984375 42.382812 -32.488281 44.082031 -31.785156 C 44.882812 -31.386719 45.882812 -31.289062 46.878906 -31.085938 L 47.679688 -30.886719 C 48.28125 -30.789062 49.078125 -30.789062 49.78125 -30.6875 C 51.679688 -30.585938 53.578125 -30.386719 54.578125 -29.1875 C 55.578125 -27.789062 55.378906 -25.789062 55.277344 -23.890625 C 55.175781 -23.191406 55.175781 -22.492188 55.175781 -21.792969 L 55.175781 -21.589844 C 55.476562 -18.390625 53.378906 -17.394531 51.878906 -16.792969 C 43.683594 -13.996094 35.785156 -14.894531 29.089844 -19.59375 C 22.289062 -24.289062 19.09375 -30.789062 19.992188 -38.382812 C 20.890625 -45.78125 24.191406 -51.777344 29.886719 -56.277344 C 39.984375 -64.273438 50.28125 -66.273438 61.175781 -62.273438 C 62.175781 -61.875 63.175781 -61.875 63.875 -62.375 C 64.472656 -62.773438 64.773438 -63.375 64.875 -64.273438 C 64.972656 -65.871094 64.574219 -67.871094 63.773438 -69.070312 C 61.375 -73.070312 57.277344 -74.570312 53.578125 -75.570312 C 44.882812 -77.96875 33.386719 -75.667969 23.589844 -69.472656 C 13.09375 -62.773438 6.097656 -52.777344 4 -41.082031 C 2.597656 -32.988281 5.398438 -22.589844 11.09375 -14.394531 C 14.695312 -9.296875 20.992188 -2.898438 30.789062 -1.300781 C 38.882812 0.101562 45.082031 -0.199219 50.878906 -2.199219 C 51.578125 -2.398438 52.378906 -2.597656 53.179688 -2.597656 C 53.878906 -2.597656 54.476562 -2.398438 55.078125 -2.097656 C 58.074219 -0.398438 60.773438 0.101562 62.875 -0.800781 C 64.875 -1.597656 66.371094 -3.796875 67.273438 -6.996094 C 67.972656 -9.695312 68.273438 -12.59375 68.671875 -15.59375 C 68.871094 -16.992188 69.070312 -18.390625 69.273438 -19.792969 C 69.070312 -21.191406 68.871094 -22.589844 68.671875 -23.988281 Z M 68.671875 -23.988281 "/></g></g></g><g fill="#ff865e" fill-opacity="1"><g transform="translate(1855.896415, 2029.506172)"><g><path d="M 68.972656 -9.097656 C 68.070312 -26.089844 67.074219 -44.082031 65.871094 -64.171875 C 65.671875 -67.171875 65.273438 -69.871094 64.671875 -72.371094 C 64.171875 -74.46875 62.574219 -75.769531 60.375 -75.96875 C 57.578125 -76.367188 55.976562 -74.667969 55.175781 -73.171875 C 54.578125 -71.96875 54.078125 -70.570312 53.878906 -69.171875 C 53.476562 -66.273438 53.277344 -63.375 53.078125 -60.773438 C 52.878906 -57.675781 52.777344 -54.675781 52.578125 -51.578125 L 52.277344 -46.28125 L 18.292969 -46.28125 L 17.992188 -50.480469 C 17.894531 -52.078125 17.792969 -53.679688 17.59375 -55.378906 C 17.394531 -59.074219 17.191406 -62.875 16.691406 -66.574219 C 16.292969 -70.070312 14.195312 -72.269531 11.195312 -72.46875 C 8.195312 -72.671875 5.796875 -70.472656 4.996094 -66.972656 C 4.398438 -63.675781 3.5 -59.574219 3.699219 -55.777344 C 4.296875 -40.582031 5.199219 -24.191406 6.496094 -4.097656 C 6.695312 -0.199219 9.097656 2.5 12.394531 2.5 C 12.496094 2.5 12.496094 2.5 12.496094 2.5 C 15.792969 2.398438 17.992188 -0.199219 18.390625 -4.398438 C 18.492188 -5.597656 18.492188 -6.996094 18.492188 -8.195312 L 18.492188 -8.597656 C 18.492188 -12.59375 18.390625 -16.691406 18.390625 -20.792969 L 18.292969 -27.6875 C 18.292969 -28.488281 18.292969 -29.289062 18.292969 -30.289062 L 18.292969 -32.785156 L 52.476562 -32.785156 L 52.378906 -30.386719 C 52.378906 -29.488281 52.378906 -28.589844 52.476562 -27.6875 C 52.476562 -25.890625 52.578125 -24.089844 52.578125 -22.289062 C 52.777344 -17.394531 52.976562 -12.296875 53.378906 -7.296875 C 53.578125 -4.996094 54.378906 -2.398438 55.675781 0 C 57.078125 2.699219 59.476562 4 62.574219 3.597656 C 65.574219 3.199219 67.671875 1.398438 68.371094 -1.5 C 68.871094 -3.699219 69.070312 -6.296875 68.972656 -9.097656 Z M 68.972656 -9.097656 "/></g></g></g><g fill="#ff865e" fill-opacity="1"><g transform="translate(1941.360601, 2029.506172)"><g><path d="M 56.675781 -73.570312 C 55.878906 -73.769531 55.078125 -73.96875 54.179688 -74.070312 C 50.777344 -74.46875 47.378906 -74.667969 43.980469 -74.667969 C 37.085938 -74.667969 30.1875 -73.96875 23.492188 -73.171875 C 19.292969 -72.769531 14.992188 -72.269531 10.695312 -71.96875 C 10.59375 -71.96875 10.496094 -71.871094 10.296875 -71.871094 L 9.996094 -71.769531 C 5.796875 -70.570312 3.5 -68.070312 3.699219 -64.574219 C 3.796875 -61.273438 6.097656 -58.976562 10.296875 -57.976562 C 11.296875 -57.777344 12.296875 -57.675781 13.394531 -57.578125 C 15.695312 -57.277344 17.992188 -57.078125 20.292969 -56.875 L 23.589844 -56.476562 L 23.691406 -54.777344 C 23.691406 -54.277344 23.691406 -53.878906 23.691406 -53.378906 C 23.691406 -49.878906 23.589844 -46.382812 23.492188 -42.882812 C 23.289062 -34.285156 23.191406 -25.488281 23.191406 -16.792969 C 23.191406 -13.695312 23.789062 -10.296875 24.988281 -7.195312 C 26.1875 -4.097656 28.886719 -2.300781 32.488281 -2.300781 C 35.984375 -2.300781 38.683594 -4.097656 39.882812 -7.398438 C 40.882812 -9.894531 41.382812 -12.59375 41.28125 -14.992188 C 41.082031 -21.589844 40.382812 -28.089844 39.785156 -33.585938 C 39.183594 -38.683594 38.484375 -43.78125 37.785156 -49.078125 C 37.382812 -51.480469 37.085938 -53.976562 36.785156 -56.476562 L 36.585938 -57.675781 L 45.78125 -57.675781 C 46.78125 -57.675781 47.78125 -57.675781 48.78125 -57.578125 C 50.878906 -57.578125 53.179688 -57.578125 55.277344 -57.675781 C 59.574219 -58.074219 62.773438 -60.976562 63.175781 -64.972656 C 63.472656 -68.871094 60.976562 -72.269531 56.675781 -73.570312 Z M 56.675781 -73.570312 "/></g></g></g><g fill="#ff865e" fill-opacity="1"><g transform="translate(2021.127187, 2029.506172)"><g><path d="M 53.578125 -24.089844 C 51.277344 -33.585938 44.882812 -40.285156 34.085938 -44.582031 C 30.289062 -46.179688 26.589844 -48.378906 23.089844 -50.480469 L 20.890625 -51.878906 C 19.492188 -52.679688 18.792969 -53.777344 18.792969 -54.976562 C 18.792969 -56.277344 19.59375 -57.375 20.992188 -58.175781 C 23.390625 -59.574219 26.289062 -61.074219 29.289062 -61.675781 C 35.785156 -63.175781 41.78125 -61.175781 45.78125 -59.574219 C 47.378906 -58.875 48.679688 -58.875 49.378906 -59.375 C 50.378906 -60.074219 50.578125 -61.574219 50.480469 -62.773438 C 50.378906 -64.472656 49.878906 -66.273438 48.980469 -67.671875 C 46.78125 -71.371094 43.28125 -73.769531 38.683594 -74.871094 C 28.289062 -77.269531 18.792969 -75.070312 10.59375 -68.371094 C 6.398438 -64.875 3.898438 -60.273438 3.699219 -55.378906 C 3.398438 -50.480469 5.398438 -45.480469 9.296875 -41.582031 C 14.894531 -35.886719 20.992188 -32.085938 27.988281 -29.988281 C 31.386719 -28.988281 34.886719 -27.390625 36.585938 -23.191406 L 37.085938 -22.089844 L 33.785156 -21.191406 C 29.789062 -19.992188 26.089844 -20.992188 22.492188 -21.992188 C 21.589844 -22.289062 20.691406 -22.492188 19.792969 -22.691406 C 18.792969 -22.992188 17.792969 -23.089844 16.894531 -23.089844 C 13.394531 -23.089844 10.496094 -21.589844 8.894531 -18.890625 C 6.898438 -15.492188 7.695312 -10.996094 10.894531 -7.496094 C 13.894531 -4.199219 18.792969 -0.300781 25.089844 -0.601562 C 32.085938 -0.898438 37.984375 -1.800781 42.882812 -3.5 C 51.679688 -6.496094 55.878906 -14.59375 53.578125 -24.089844 Z M 53.578125 -24.089844 "/></g></g></g><g fill="#ff865e" fill-opacity="1"><g transform="translate(2091.89761, 2029.506172)"><g><path d="M 11.394531 -21.691406 C 7.398438 -21.792969 3.699219 -17.894531 3.699219 -13.695312 C 3.597656 -9.796875 6.898438 -6.496094 10.796875 -6.695312 C 14.792969 -6.796875 17.894531 -10.394531 17.894531 -14.695312 C 17.792969 -18.691406 15.09375 -21.691406 11.394531 -21.691406 Z M 11.394531 -21.691406 "/></g></g></g><g fill="#ff865e" fill-opacity="1"><g transform="translate(2126.38348, 2029.506172)"><g/></g></g><g fill="#ff865e" fill-opacity="1"><g transform="translate(2167.866314, 2029.506172)"><g><path d="M 68.972656 -9.097656 C 68.070312 -26.089844 67.074219 -44.082031 65.871094 -64.171875 C 65.671875 -67.171875 65.273438 -69.871094 64.671875 -72.371094 C 64.171875 -74.46875 62.574219 -75.769531 60.375 -75.96875 C 57.578125 -76.367188 55.976562 -74.667969 55.175781 -73.171875 C 54.578125 -71.96875 54.078125 -70.570312 53.878906 -69.171875 C 53.476562 -66.273438 53.277344 -63.375 53.078125 -60.773438 C 52.878906 -57.675781 52.777344 -54.675781 52.578125 -51.578125 L 52.277344 -46.28125 L 18.292969 -46.28125 L 17.992188 -50.480469 C 17.894531 -52.078125 17.792969 -53.679688 17.59375 -55.378906 C 17.394531 -59.074219 17.191406 -62.875 16.691406 -66.574219 C 16.292969 -70.070312 14.195312 -72.269531 11.195312 -72.46875 C 8.195312 -72.671875 5.796875 -70.472656 4.996094 -66.972656 C 4.398438 -63.675781 3.5 -59.574219 3.699219 -55.777344 C 4.296875 -40.582031 5.199219 -24.191406 6.496094 -4.097656 C 6.695312 -0.199219 9.097656 2.5 12.394531 2.5 C 12.496094 2.5 12.496094 2.5 12.496094 2.5 C 15.792969 2.398438 17.992188 -0.199219 18.390625 -4.398438 C 18.492188 -5.597656 18.492188 -6.996094 18.492188 -8.195312 L 18.492188 -8.597656 C 18.492188 -12.59375 18.390625 -16.691406 18.390625 -20.792969 L 18.292969 -27.6875 C 18.292969 -28.488281 18.292969 -29.289062 18.292969 -30.289062 L 18.292969 -32.785156 L 52.476562 -32.785156 L 52.378906 -30.386719 C 52.378906 -29.488281 52.378906 -28.589844 52.476562 -27.6875 C 52.476562 -25.890625 52.578125 -24.089844 52.578125 -22.289062 C 52.777344 -17.394531 52.976562 -12.296875 53.378906 -7.296875 C 53.578125 -4.996094 54.378906 -2.398438 55.675781 0 C 57.078125 2.699219 59.476562 4 62.574219 3.597656 C 65.574219 3.199219 67.671875 1.398438 68.371094 -1.5 C 68.871094 -3.699219 69.070312 -6.296875 68.972656 -9.097656 Z M 68.972656 -9.097656 "/></g></g></g><g fill="#ff865e" fill-opacity="1"><g transform="translate(2253.330501, 2029.506172)"><g><path d="M 76.367188 -16.292969 C 76.070312 -17.691406 75.769531 -19.390625 75.269531 -20.992188 C 69.769531 -39.785156 60.273438 -56.777344 50.980469 -72.46875 C 48.679688 -76.367188 45.679688 -78.269531 42.28125 -78.269531 C 40.285156 -78.269531 38.183594 -77.667969 35.886719 -76.367188 C 33.085938 -74.667969 30.6875 -72.570312 29.289062 -70.472656 C 26.289062 -66.171875 23.789062 -61.375 21.792969 -57.175781 C 18.191406 -49.679688 15.394531 -43.382812 12.996094 -37.382812 C 9.296875 -28.089844 6.496094 -20.191406 4.097656 -12.695312 C 2.699219 -8.496094 4.898438 -5.097656 7.496094 -3.898438 C 10.695312 -2.597656 13.792969 -4 16.09375 -7.796875 C 17.191406 -9.695312 18.191406 -11.695312 19.191406 -13.695312 C 20.089844 -15.492188 21.089844 -17.492188 22.191406 -19.292969 C 22.890625 -20.589844 24.789062 -21.890625 26.1875 -21.890625 C 31.386719 -21.792969 36.585938 -21.589844 41.683594 -21.390625 C 45.480469 -21.191406 49.378906 -21.089844 53.179688 -20.890625 C 56.675781 -20.792969 57.675781 -18.792969 58.277344 -16.691406 C 59.074219 -13.695312 59.976562 -11.394531 61.074219 -9.496094 C 63.175781 -5.898438 66.972656 -4.398438 70.671875 -5.496094 C 74.46875 -6.695312 76.667969 -10.195312 76.667969 -15.09375 C 76.570312 -15.492188 76.46875 -15.894531 76.367188 -16.292969 Z M 32.085938 -38.785156 L 40.082031 -60.675781 L 50.777344 -38.785156 Z M 32.085938 -38.785156 "/></g></g></g><g fill="#ff865e" fill-opacity="1"><g transform="translate(2346.59133, 2029.506172)"><g><path d="M 62.574219 -57.875 C 59.976562 -73.171875 48.78125 -81.867188 33.285156 -80.667969 C 27.1875 -80.167969 22.089844 -78.367188 17.292969 -75.070312 L 16.394531 -74.46875 L 15.792969 -75.269531 C 15.59375 -75.570312 15.394531 -75.867188 15.292969 -76.070312 C 14.992188 -76.46875 14.792969 -76.769531 14.59375 -76.96875 C 13.195312 -78.269531 11.496094 -78.96875 9.894531 -78.96875 C 9.296875 -78.96875 8.695312 -78.867188 8.195312 -78.667969 C 5.996094 -77.96875 4.5 -76.167969 4 -73.667969 C 3.597656 -72.070312 3.597656 -70.371094 3.699219 -68.671875 C 3.796875 -61.972656 4.398438 -55.277344 4.996094 -48.679688 C 5.699219 -41.683594 6.398438 -34.484375 6.496094 -27.289062 C 6.496094 -23.289062 6.199219 -19.191406 5.898438 -15.195312 C 5.796875 -13.195312 5.699219 -11.09375 5.597656 -9.097656 C 5.398438 -5.898438 5.398438 -3.296875 7.695312 -2.097656 L 7.996094 -1.800781 C 8.996094 -0.601562 11.496094 0.398438 14.195312 -0.101562 C 16.191406 -0.398438 18.890625 -1.597656 20.589844 -5.597656 C 21.390625 -7.398438 21.390625 -9.796875 21.492188 -11.996094 L 21.492188 -12.894531 C 21.589844 -15.09375 21.390625 -18.890625 21.292969 -21.390625 L 21.089844 -23.890625 L 22.289062 -23.890625 C 23.890625 -23.890625 25.488281 -23.890625 27.1875 -23.789062 C 30.386719 -23.589844 33.6875 -23.492188 36.285156 -23.890625 C 54.277344 -26.988281 65.375 -41.28125 62.574219 -57.875 Z M 40.484375 -45.382812 C 36.386719 -41.484375 31.289062 -39.683594 24.191406 -39.683594 C 23.492188 -39.683594 22.789062 -39.683594 21.992188 -39.785156 L 20.992188 -39.785156 L 20.992188 -40.882812 C 20.992188 -47.582031 22.390625 -53.078125 25.289062 -57.976562 C 27.886719 -62.273438 35.683594 -64.875 40.082031 -62.875 C 41.78125 -62.175781 43.382812 -60.375 43.980469 -58.476562 C 45.679688 -53.777344 44.480469 -49.28125 40.484375 -45.382812 Z M 40.484375 -45.382812 "/></g></g></g><g fill="#ff865e" fill-opacity="1"><g transform="translate(2426.158042, 2029.506172)"><g><path d="M 62.574219 -57.875 C 59.976562 -73.171875 48.78125 -81.867188 33.285156 -80.667969 C 27.1875 -80.167969 22.089844 -78.367188 17.292969 -75.070312 L 16.394531 -74.46875 L 15.792969 -75.269531 C 15.59375 -75.570312 15.394531 -75.867188 15.292969 -76.070312 C 14.992188 -76.46875 14.792969 -76.769531 14.59375 -76.96875 C 13.195312 -78.269531 11.496094 -78.96875 9.894531 -78.96875 C 9.296875 -78.96875 8.695312 -78.867188 8.195312 -78.667969 C 5.996094 -77.96875 4.5 -76.167969 4 -73.667969 C 3.597656 -72.070312 3.597656 -70.371094 3.699219 -68.671875 C 3.796875 -61.972656 4.398438 -55.277344 4.996094 -48.679688 C 5.699219 -41.683594 6.398438 -34.484375 6.496094 -27.289062 C 6.496094 -23.289062 6.199219 -19.191406 5.898438 -15.195312 C 5.796875 -13.195312 5.699219 -11.09375 5.597656 -9.097656 C 5.398438 -5.898438 5.398438 -3.296875 7.695312 -2.097656 L 7.996094 -1.800781 C 8.996094 -0.601562 11.496094 0.398438 14.195312 -0.101562 C 16.191406 -0.398438 18.890625 -1.597656 20.589844 -5.597656 C 21.390625 -7.398438 21.390625 -9.796875 21.492188 -11.996094 L 21.492188 -12.894531 C 21.589844 -15.09375 21.390625 -18.890625 21.292969 -21.390625 L 21.089844 -23.890625 L 22.289062 -23.890625 C 23.890625 -23.890625 25.488281 -23.890625 27.1875 -23.789062 C 30.386719 -23.589844 33.6875 -23.492188 36.285156 -23.890625 C 54.277344 -26.988281 65.375 -41.28125 62.574219 -57.875 Z M 40.484375 -45.382812 C 36.386719 -41.484375 31.289062 -39.683594 24.191406 -39.683594 C 23.492188 -39.683594 22.789062 -39.683594 21.992188 -39.785156 L 20.992188 -39.785156 L 20.992188 -40.882812 C 20.992188 -47.582031 22.390625 -53.078125 25.289062 -57.976562 C 27.886719 -62.273438 35.683594 -64.875 40.082031 -62.875 C 41.78125 -62.175781 43.382812 -60.375 43.980469 -58.476562 C 45.679688 -53.777344 44.480469 -49.28125 40.484375 -45.382812 Z M 40.484375 -45.382812 "/></g></g></g><g fill="#ff865e" fill-opacity="1"><g transform="translate(2505.724754, 2029.506172)"><g><path d="M 61.273438 -74.871094 C 58.175781 -77.066406 54.078125 -76.367188 50.980469 -73.070312 C 49.980469 -71.96875 49.078125 -70.671875 48.179688 -69.371094 C 47.582031 -68.570312 47.082031 -67.871094 46.480469 -67.171875 C 43.78125 -63.574219 40.984375 -59.976562 38.085938 -56.175781 L 33.285156 -49.980469 L 32.386719 -51.378906 C 31.386719 -53.179688 30.386719 -54.878906 29.386719 -56.476562 C 27.1875 -60.074219 25.191406 -63.472656 23.089844 -66.671875 L 22.789062 -67.074219 C 20.292969 -70.871094 17.792969 -74.871094 14.792969 -78.269531 C 13.292969 -79.96875 11.394531 -80.667969 9.695312 -80.667969 C 8.496094 -80.667969 7.398438 -80.265625 6.496094 -79.765625 C 4.097656 -78.269531 3.199219 -75.46875 3.898438 -71.769531 C 4.097656 -71.070312 4.199219 -70.269531 4.5 -69.671875 C 5.296875 -67.773438 5.996094 -65.871094 6.695312 -63.972656 C 8.398438 -59.375 10.195312 -54.777344 12.296875 -50.378906 C 15.792969 -43.082031 20.691406 -37.382812 26.6875 -33.484375 C 27.886719 -32.6875 28.589844 -30.6875 28.488281 -29.289062 C 28.386719 -26.6875 28.089844 -24.191406 27.886719 -21.589844 C 27.589844 -17.792969 27.1875 -13.792969 27.1875 -9.796875 C 27.1875 -6.398438 28.289062 -3.5 30.289062 -1.5 C 31.785156 0 33.6875 0.699219 35.683594 0.699219 C 40.582031 0.601562 43.78125 -3.699219 43.582031 -9.894531 C 43.480469 -16.691406 42.980469 -23.789062 42.082031 -31.6875 C 41.78125 -34.6875 42.28125 -36.683594 44.183594 -39.183594 C 49.878906 -46.679688 56.578125 -55.578125 62.773438 -64.972656 C 65.472656 -69.070312 63.875 -72.96875 61.273438 -74.871094 Z M 61.273438 -74.871094 "/></g></g></g><g fill="#ff865e" fill-opacity="1"><g transform="translate(2586.490893, 2029.506172)"><g/></g></g><g fill="#ff865e" fill-opacity="1"><g transform="translate(2627.973728, 2029.506172)"><g><path d="M 92.660156 -21.292969 C 92.164062 -29.488281 91.261719 -37.882812 90.460938 -45.980469 L 89.863281 -52.078125 C 88.761719 -62.175781 86.863281 -70.070312 83.765625 -77.066406 C 81.964844 -80.765625 79.265625 -83.265625 76.070312 -83.867188 C 72.871094 -84.566406 69.472656 -83.367188 66.371094 -80.566406 C 64.671875 -78.96875 63.175781 -77.066406 61.972656 -75.269531 C 59.675781 -71.371094 57.675781 -67.570312 56.078125 -63.875 C 54.578125 -60.675781 53.277344 -57.277344 51.878906 -53.777344 C 51.277344 -52.179688 50.679688 -50.578125 49.980469 -48.980469 L 49.179688 -46.78125 L 48.082031 -48.878906 C 47.082031 -50.578125 46.28125 -52.179688 45.382812 -53.878906 C 43.480469 -57.578125 41.683594 -61.074219 39.582031 -64.375 C 35.984375 -69.769531 33.085938 -73.46875 29.886719 -76.367188 C 27.988281 -78.066406 25.789062 -78.96875 23.691406 -78.96875 C 23.289062 -78.96875 22.789062 -78.867188 22.390625 -78.867188 C 19.792969 -78.367188 17.394531 -76.570312 15.894531 -73.769531 C 14.09375 -70.472656 12.792969 -66.871094 12.09375 -63.472656 C 9.195312 -48.179688 6.496094 -33.085938 4.097656 -18.390625 C 3.5 -15.09375 3.5 -11.296875 4.097656 -7.195312 C 4.597656 -3.097656 7.796875 -0.101562 11.796875 0 C 15.695312 0.199219 18.890625 -2.398438 20.089844 -6.496094 C 20.691406 -8.695312 20.890625 -11.09375 21.191406 -13.394531 C 21.890625 -20.492188 22.589844 -27.488281 23.390625 -34.484375 C 23.890625 -39.582031 24.390625 -44.582031 24.890625 -49.578125 C 24.988281 -50.980469 25.289062 -52.378906 25.488281 -53.679688 L 25.988281 -57.578125 L 27.488281 -56.277344 C 28.789062 -55.175781 29.386719 -54.078125 29.789062 -53.078125 C 30.6875 -51.078125 31.585938 -48.980469 32.488281 -46.878906 C 34.1875 -42.882812 35.886719 -38.683594 37.785156 -34.585938 C 39.484375 -30.988281 41.183594 -27.1875 43.480469 -23.988281 C 45.480469 -21.191406 48.28125 -19.691406 51.277344 -19.792969 C 54.277344 -19.992188 57.078125 -21.792969 58.875 -24.890625 C 60.273438 -27.1875 61.175781 -29.886719 62.175781 -32.488281 L 62.273438 -32.785156 C 63.875 -37.285156 65.472656 -41.78125 67.074219 -46.382812 C 67.972656 -48.980469 68.871094 -51.578125 69.769531 -54.179688 C 70.070312 -54.878906 70.371094 -55.578125 70.671875 -56.175781 L 71.96875 -59.175781 L 72.96875 -56.976562 C 73.667969 -55.578125 73.769531 -54.277344 73.769531 -53.078125 C 73.769531 -50.878906 73.769531 -48.679688 73.769531 -46.582031 C 73.667969 -41.984375 73.570312 -37.285156 73.871094 -32.6875 C 74.46875 -23.890625 75.367188 -16.691406 76.667969 -9.996094 C 77.566406 -5.699219 81.167969 -3.796875 84.265625 -3.898438 C 87.863281 -4 90.761719 -6.496094 91.664062 -10.394531 C 92.5625 -14.09375 92.960938 -17.894531 92.660156 -21.292969 Z M 92.660156 -21.292969 "/></g></g></g><g fill="#ff865e" fill-opacity="1"><g transform="translate(2737.427833, 2029.506172)"><g><path d="M 44.382812 -18.09375 C 42.980469 -17.992188 41.582031 -17.691406 40.183594 -17.292969 C 39.082031 -16.894531 37.882812 -16.59375 36.785156 -16.394531 C 32.1875 -15.695312 28.089844 -15.195312 24.289062 -14.992188 C 23.390625 -14.894531 22.492188 -15.59375 22.089844 -15.992188 C 21.691406 -16.394531 20.890625 -17.09375 20.890625 -17.992188 C 20.691406 -20.792969 20.691406 -23.691406 20.691406 -26.488281 C 20.691406 -27.488281 20.691406 -28.488281 20.691406 -29.386719 L 20.691406 -30.488281 L 21.792969 -30.488281 C 23.691406 -30.585938 25.589844 -30.6875 27.488281 -30.789062 C 32.085938 -30.988281 36.484375 -31.1875 40.882812 -31.585938 C 42.980469 -31.785156 45.382812 -32.488281 47.679688 -33.585938 C 49.578125 -34.484375 51.679688 -36.386719 51.480469 -39.683594 C 51.179688 -42.484375 49.480469 -44.480469 46.78125 -45.082031 C 43.683594 -45.78125 40.082031 -45.980469 36.386719 -45.679688 C 33.484375 -45.382812 30.488281 -44.78125 27.390625 -44.183594 C 25.988281 -43.882812 24.589844 -43.582031 23.089844 -43.382812 L 21.792969 -43.183594 L 21.792969 -48.082031 C 21.792969 -50.679688 21.792969 -53.179688 21.890625 -55.675781 C 21.890625 -58.277344 21.890625 -59.574219 22.789062 -60.476562 C 23.691406 -61.273438 24.988281 -61.273438 27.488281 -61.175781 L 30.085938 -60.976562 C 34.1875 -60.773438 38.382812 -60.574219 42.484375 -60.773438 C 48.980469 -61.175781 53.277344 -64.875 53.078125 -69.871094 C 53.078125 -72.070312 52.078125 -74.167969 50.378906 -75.667969 C 48.480469 -77.367188 45.882812 -78.367188 42.882812 -78.367188 C 42.582031 -78.367188 42.28125 -78.367188 42.082031 -78.367188 C 35.785156 -77.96875 29.386719 -77.066406 23.289062 -76.167969 L 18.890625 -75.570312 C 17.394531 -75.367188 15.695312 -74.570312 14.394531 -73.871094 C 10.296875 -71.570312 8.796875 -68.871094 9.597656 -65.074219 C 9.695312 -64.273438 9.597656 -63.375 9.394531 -62.574219 L 9.394531 -62.074219 C 8.894531 -59.277344 8.296875 -56.375 7.796875 -53.476562 C 6.796875 -47.480469 5.597656 -41.28125 4.796875 -35.085938 C 3.699219 -27.789062 2.800781 -19.292969 5.097656 -10.996094 C 6.898438 -4.5 10.796875 -0.601562 16.691406 0.601562 C 26.789062 2.699219 36.183594 1.597656 44.683594 -2.597656 C 46.582031 -3.5 48.378906 -4.898438 49.878906 -6.496094 C 52.179688 -8.996094 52.777344 -11.695312 51.480469 -14.394531 C 49.878906 -17.792969 46.679688 -18.292969 44.382812 -18.09375 Z M 44.382812 -18.09375 "/></g></g></g><g fill="#ff865e" fill-opacity="1"><g transform="translate(2807.098766, 2029.506172)"><g><path d="M 92.660156 -21.292969 C 92.164062 -29.488281 91.261719 -37.882812 90.460938 -45.980469 L 89.863281 -52.078125 C 88.761719 -62.175781 86.863281 -70.070312 83.765625 -77.066406 C 81.964844 -80.765625 79.265625 -83.265625 76.070312 -83.867188 C 72.871094 -84.566406 69.472656 -83.367188 66.371094 -80.566406 C 64.671875 -78.96875 63.175781 -77.066406 61.972656 -75.269531 C 59.675781 -71.371094 57.675781 -67.570312 56.078125 -63.875 C 54.578125 -60.675781 53.277344 -57.277344 51.878906 -53.777344 C 51.277344 -52.179688 50.679688 -50.578125 49.980469 -48.980469 L 49.179688 -46.78125 L 48.082031 -48.878906 C 47.082031 -50.578125 46.28125 -52.179688 45.382812 -53.878906 C 43.480469 -57.578125 41.683594 -61.074219 39.582031 -64.375 C 35.984375 -69.769531 33.085938 -73.46875 29.886719 -76.367188 C 27.988281 -78.066406 25.789062 -78.96875 23.691406 -78.96875 C 23.289062 -78.96875 22.789062 -78.867188 22.390625 -78.867188 C 19.792969 -78.367188 17.394531 -76.570312 15.894531 -73.769531 C 14.09375 -70.472656 12.792969 -66.871094 12.09375 -63.472656 C 9.195312 -48.179688 6.496094 -33.085938 4.097656 -18.390625 C 3.5 -15.09375 3.5 -11.296875 4.097656 -7.195312 C 4.597656 -3.097656 7.796875 -0.101562 11.796875 0 C 15.695312 0.199219 18.890625 -2.398438 20.089844 -6.496094 C 20.691406 -8.695312 20.890625 -11.09375 21.191406 -13.394531 C 21.890625 -20.492188 22.589844 -27.488281 23.390625 -34.484375 C 23.890625 -39.582031 24.390625 -44.582031 24.890625 -49.578125 C 24.988281 -50.980469 25.289062 -52.378906 25.488281 -53.679688 L 25.988281 -57.578125 L 27.488281 -56.277344 C 28.789062 -55.175781 29.386719 -54.078125 29.789062 -53.078125 C 30.6875 -51.078125 31.585938 -48.980469 32.488281 -46.878906 C 34.1875 -42.882812 35.886719 -38.683594 37.785156 -34.585938 C 39.484375 -30.988281 41.183594 -27.1875 43.480469 -23.988281 C 45.480469 -21.191406 48.28125 -19.691406 51.277344 -19.792969 C 54.277344 -19.992188 57.078125 -21.792969 58.875 -24.890625 C 60.273438 -27.1875 61.175781 -29.886719 62.175781 -32.488281 L 62.273438 -32.785156 C 63.875 -37.285156 65.472656 -41.78125 67.074219 -46.382812 C 67.972656 -48.980469 68.871094 -51.578125 69.769531 -54.179688 C 70.070312 -54.878906 70.371094 -55.578125 70.671875 -56.175781 L 71.96875 -59.175781 L 72.96875 -56.976562 C 73.667969 -55.578125 73.769531 -54.277344 73.769531 -53.078125 C 73.769531 -50.878906 73.769531 -48.679688 73.769531 -46.582031 C 73.667969 -41.984375 73.570312 -37.285156 73.871094 -32.6875 C 74.46875 -23.890625 75.367188 -16.691406 76.667969 -9.996094 C 77.566406 -5.699219 81.167969 -3.796875 84.265625 -3.898438 C 87.863281 -4 90.761719 -6.496094 91.664062 -10.394531 C 92.5625 -14.09375 92.960938 -17.894531 92.660156 -21.292969 Z M 92.660156 -21.292969 "/></g></g></g><g fill="#ff865e" fill-opacity="1"><g transform="translate(2916.552689, 2029.506172)"><g><path d="M 42.484375 -74.46875 C 41.984375 -74.570312 41.484375 -74.570312 40.882812 -74.570312 C 39.882812 -74.570312 38.785156 -74.46875 37.683594 -74.269531 L 36.683594 -74.167969 C 21.191406 -72.171875 10.996094 -63.472656 5.496094 -47.582031 C 2.199219 -38.085938 3.296875 -26.1875 8.296875 -17.394531 C 12.792969 -9.597656 20.191406 -4.398438 29.585938 -2.5 L 29.886719 -2.398438 C 31.386719 -2.097656 32.886719 -1.800781 34.386719 -1.597656 C 44.78125 -0.398438 52.976562 -3.398438 59.375 -10.996094 L 61.375 -13.195312 C 62.972656 -15.09375 64.671875 -17.09375 66.273438 -18.992188 C 70.769531 -24.390625 73.269531 -31.085938 74.070312 -40.183594 C 72.769531 -62.773438 60.476562 -70.171875 42.484375 -74.46875 Z M 55.878906 -38.585938 C 55.476562 -37.683594 55.078125 -36.785156 54.675781 -35.785156 C 53.679688 -33.585938 52.679688 -31.386719 51.378906 -29.1875 C 50.480469 -27.6875 49.28125 -26.488281 48.179688 -25.289062 C 47.679688 -24.789062 47.179688 -24.289062 46.78125 -23.789062 C 43.980469 -20.792969 40.183594 -19.09375 36.085938 -19.09375 C 35.085938 -19.09375 34.1875 -19.191406 33.1875 -19.390625 C 27.886719 -20.390625 23.589844 -24.089844 21.691406 -29.1875 C 18.890625 -36.984375 20.191406 -44.382812 25.6875 -52.578125 C 29.1875 -57.875 33.085938 -58.777344 38.882812 -55.777344 C 41.082031 -54.675781 43.382812 -53.578125 46.28125 -52.476562 C 52.578125 -49.878906 55.175781 -46.382812 55.976562 -39.183594 L 55.976562 -38.882812 Z M 55.878906 -38.585938 "/></g></g></g><g fill="#ff865e" fill-opacity="1"><g transform="translate(3007.214607, 2029.506172)"><g><path d="M 58.175781 -20.589844 C 54.976562 -22.390625 51.980469 -24.289062 48.78125 -26.289062 C 47.378906 -27.1875 45.882812 -28.089844 44.480469 -28.988281 L 42.980469 -29.886719 L 44.480469 -30.886719 C 45.582031 -31.488281 46.582031 -32.1875 47.582031 -32.785156 C 49.578125 -33.984375 51.480469 -35.183594 53.179688 -36.484375 C 60.476562 -42.082031 63.175781 -49.179688 61.476562 -57.476562 C 59.574219 -66.371094 53.878906 -72.269531 45.082031 -74.371094 C 36.785156 -76.367188 28.886719 -75.96875 21.691406 -73.070312 C 21.089844 -72.871094 19.390625 -72.269531 17.894531 -72.769531 C 16.292969 -73.371094 14.894531 -73.667969 13.792969 -73.667969 C 12.792969 -73.667969 11.894531 -73.371094 11.195312 -72.96875 C 9.695312 -72.171875 8.695312 -70.269531 8.097656 -67.371094 C 4.097656 -46.28125 2.800781 -27.1875 4.199219 -9.195312 C 4.5 -4.5 7.195312 -1.398438 10.996094 -1.300781 C 14.992188 -1.199219 17.59375 -4.097656 18.191406 -8.894531 C 18.59375 -11.59375 18.792969 -14.394531 19.09375 -17.292969 L 19.691406 -23.089844 L 21.089844 -22.390625 C 21.589844 -22.089844 22.089844 -21.890625 22.492188 -21.691406 C 23.289062 -21.292969 23.988281 -20.992188 24.589844 -20.589844 C 26.789062 -19.390625 28.886719 -18.09375 30.988281 -16.792969 C 34.984375 -14.292969 39.082031 -11.796875 43.183594 -9.394531 C 46.28125 -7.597656 49.480469 -5.796875 52.777344 -4.898438 C 57.277344 -3.597656 61.875 -5.996094 63.375 -10.394531 C 65.074219 -15.59375 61.476562 -18.792969 58.175781 -20.589844 Z M 21.792969 -43.683594 L 20.390625 -43.480469 L 20.492188 -44.882812 C 20.691406 -46.082031 20.691406 -47.378906 20.589844 -48.578125 C 20.589844 -52.277344 20.492188 -56.078125 24.589844 -58.875 C 29.789062 -62.273438 35.683594 -62.875 42.28125 -60.675781 C 44.382812 -59.976562 45.679688 -58.574219 45.882812 -56.875 C 46.179688 -54.976562 45.179688 -52.976562 43.183594 -51.679688 C 37.085938 -47.378906 30.085938 -44.78125 21.792969 -43.683594 Z M 21.792969 -43.683594 "/></g></g></g><g fill="#ff865e" fill-opacity="1"><g transform="translate(3087.580997, 2029.506172)"><g><path d="M 23.691406 -59.277344 C 23.492188 -62.875 22.890625 -65.972656 21.992188 -68.671875 C 20.890625 -72.269531 18.292969 -74.371094 14.492188 -74.46875 C 10.894531 -74.667969 7.695312 -72.46875 6.496094 -68.871094 C 5.597656 -66.171875 4.996094 -63.175781 4.699219 -60.074219 C 4.296875 -55.078125 4.097656 -50.078125 3.898438 -45.082031 C 3.796875 -43.480469 3.699219 -41.78125 3.699219 -40.183594 L 4.097656 -40.183594 L 4.097656 -39.082031 C 4.097656 -36.886719 4.097656 -34.6875 4 -32.488281 C 4 -27.390625 3.898438 -21.992188 4.199219 -16.792969 C 4.398438 -12.996094 5.496094 -9.195312 7.097656 -6.199219 C 8.398438 -3.898438 10.59375 -2.5 12.894531 -2.5 C 12.996094 -2.5 12.996094 -2.5 12.996094 -2.5 C 15.492188 -2.5 17.894531 -4 19.292969 -6.597656 C 20.191406 -8.195312 20.792969 -9.695312 20.890625 -11.09375 L 21.589844 -16.992188 C 23.089844 -30.789062 24.691406 -45.082031 23.691406 -59.277344 Z M 23.691406 -59.277344 "/></g></g></g><g fill="#ff865e" fill-opacity="1"><g transform="translate(3128.264153, 2029.506172)"><g><path d="M 44.382812 -18.09375 C 42.980469 -17.992188 41.582031 -17.691406 40.183594 -17.292969 C 39.082031 -16.894531 37.882812 -16.59375 36.785156 -16.394531 C 32.1875 -15.695312 28.089844 -15.195312 24.289062 -14.992188 C 23.390625 -14.894531 22.492188 -15.59375 22.089844 -15.992188 C 21.691406 -16.394531 20.890625 -17.09375 20.890625 -17.992188 C 20.691406 -20.792969 20.691406 -23.691406 20.691406 -26.488281 C 20.691406 -27.488281 20.691406 -28.488281 20.691406 -29.386719 L 20.691406 -30.488281 L 21.792969 -30.488281 C 23.691406 -30.585938 25.589844 -30.6875 27.488281 -30.789062 C 32.085938 -30.988281 36.484375 -31.1875 40.882812 -31.585938 C 42.980469 -31.785156 45.382812 -32.488281 47.679688 -33.585938 C 49.578125 -34.484375 51.679688 -36.386719 51.480469 -39.683594 C 51.179688 -42.484375 49.480469 -44.480469 46.78125 -45.082031 C 43.683594 -45.78125 40.082031 -45.980469 36.386719 -45.679688 C 33.484375 -45.382812 30.488281 -44.78125 27.390625 -44.183594 C 25.988281 -43.882812 24.589844 -43.582031 23.089844 -43.382812 L 21.792969 -43.183594 L 21.792969 -48.082031 C 21.792969 -50.679688 21.792969 -53.179688 21.890625 -55.675781 C 21.890625 -58.277344 21.890625 -59.574219 22.789062 -60.476562 C 23.691406 -61.273438 24.988281 -61.273438 27.488281 -61.175781 L 30.085938 -60.976562 C 34.1875 -60.773438 38.382812 -60.574219 42.484375 -60.773438 C 48.980469 -61.175781 53.277344 -64.875 53.078125 -69.871094 C 53.078125 -72.070312 52.078125 -74.167969 50.378906 -75.667969 C 48.480469 -77.367188 45.882812 -78.367188 42.882812 -78.367188 C 42.582031 -78.367188 42.28125 -78.367188 42.082031 -78.367188 C 35.785156 -77.96875 29.386719 -77.066406 23.289062 -76.167969 L 18.890625 -75.570312 C 17.394531 -75.367188 15.695312 -74.570312 14.394531 -73.871094 C 10.296875 -71.570312 8.796875 -68.871094 9.597656 -65.074219 C 9.695312 -64.273438 9.597656 -63.375 9.394531 -62.574219 L 9.394531 -62.074219 C 8.894531 -59.277344 8.296875 -56.375 7.796875 -53.476562 C 6.796875 -47.480469 5.597656 -41.28125 4.796875 -35.085938 C 3.699219 -27.789062 2.800781 -19.292969 5.097656 -10.996094 C 6.898438 -4.5 10.796875 -0.601562 16.691406 0.601562 C 26.789062 2.699219 36.183594 1.597656 44.683594 -2.597656 C 46.582031 -3.5 48.378906 -4.898438 49.878906 -6.496094 C 52.179688 -8.996094 52.777344 -11.695312 51.480469 -14.394531 C 49.878906 -17.792969 46.679688 -18.292969 44.382812 -18.09375 Z M 44.382812 -18.09375 "/></g></g></g><g fill="#ff865e" fill-opacity="1"><g transform="translate(3197.935086, 2029.506172)"><g><path d="M 53.578125 -24.089844 C 51.277344 -33.585938 44.882812 -40.285156 34.085938 -44.582031 C 30.289062 -46.179688 26.589844 -48.378906 23.089844 -50.480469 L 20.890625 -51.878906 C 19.492188 -52.679688 18.792969 -53.777344 18.792969 -54.976562 C 18.792969 -56.277344 19.59375 -57.375 20.992188 -58.175781 C 23.390625 -59.574219 26.289062 -61.074219 29.289062 -61.675781 C 35.785156 -63.175781 41.78125 -61.175781 45.78125 -59.574219 C 47.378906 -58.875 48.679688 -58.875 49.378906 -59.375 C 50.378906 -60.074219 50.578125 -61.574219 50.480469 -62.773438 C 50.378906 -64.472656 49.878906 -66.273438 48.980469 -67.671875 C 46.78125 -71.371094 43.28125 -73.769531 38.683594 -74.871094 C 28.289062 -77.269531 18.792969 -75.070312 10.59375 -68.371094 C 6.398438 -64.875 3.898438 -60.273438 3.699219 -55.378906 C 3.398438 -50.480469 5.398438 -45.480469 9.296875 -41.582031 C 14.894531 -35.886719 20.992188 -32.085938 27.988281 -29.988281 C 31.386719 -28.988281 34.886719 -27.390625 36.585938 -23.191406 L 37.085938 -22.089844 L 33.785156 -21.191406 C 29.789062 -19.992188 26.089844 -20.992188 22.492188 -21.992188 C 21.589844 -22.289062 20.691406 -22.492188 19.792969 -22.691406 C 18.792969 -22.992188 17.792969 -23.089844 16.894531 -23.089844 C 13.394531 -23.089844 10.496094 -21.589844 8.894531 -18.890625 C 6.898438 -15.492188 7.695312 -10.996094 10.894531 -7.496094 C 13.894531 -4.199219 18.792969 -0.300781 25.089844 -0.601562 C 32.085938 -0.898438 37.984375 -1.800781 42.882812 -3.5 C 51.679688 -6.496094 55.878906 -14.59375 53.578125 -24.089844 Z M 53.578125 -24.089844 "/></g></g></g><g fill="#ff865e" fill-opacity="1"><g transform="translate(3268.705509, 2029.506172)"><g><path d="M 11.394531 -21.691406 C 7.398438 -21.792969 3.699219 -17.894531 3.699219 -13.695312 C 3.597656 -9.796875 6.898438 -6.496094 10.796875 -6.695312 C 14.792969 -6.796875 17.894531 -10.394531 17.894531 -14.695312 C 17.792969 -18.691406 15.09375 -21.691406 11.394531 -21.691406 Z M 11.394531 -21.691406 "/></g></g></g><g fill="#ff865e" fill-opacity="1"><g transform="translate(3303.191287, 2029.506172)"><g/></g></g><g fill="#ff865e" fill-opacity="1"><g transform="translate(3344.674122, 2029.506172)"><g><path d="M 68.972656 -9.097656 C 68.070312 -26.089844 67.074219 -44.082031 65.871094 -64.171875 C 65.671875 -67.171875 65.273438 -69.871094 64.671875 -72.371094 C 64.171875 -74.46875 62.574219 -75.769531 60.375 -75.96875 C 57.578125 -76.367188 55.976562 -74.667969 55.175781 -73.171875 C 54.578125 -71.96875 54.078125 -70.570312 53.878906 -69.171875 C 53.476562 -66.273438 53.277344 -63.375 53.078125 -60.773438 C 52.878906 -57.675781 52.777344 -54.675781 52.578125 -51.578125 L 52.277344 -46.28125 L 18.292969 -46.28125 L 17.992188 -50.480469 C 17.894531 -52.078125 17.792969 -53.679688 17.59375 -55.378906 C 17.394531 -59.074219 17.191406 -62.875 16.691406 -66.574219 C 16.292969 -70.070312 14.195312 -72.269531 11.195312 -72.46875 C 8.195312 -72.671875 5.796875 -70.472656 4.996094 -66.972656 C 4.398438 -63.675781 3.5 -59.574219 3.699219 -55.777344 C 4.296875 -40.582031 5.199219 -24.191406 6.496094 -4.097656 C 6.695312 -0.199219 9.097656 2.5 12.394531 2.5 C 12.496094 2.5 12.496094 2.5 12.496094 2.5 C 15.792969 2.398438 17.992188 -0.199219 18.390625 -4.398438 C 18.492188 -5.597656 18.492188 -6.996094 18.492188 -8.195312 L 18.492188 -8.597656 C 18.492188 -12.59375 18.390625 -16.691406 18.390625 -20.792969 L 18.292969 -27.6875 C 18.292969 -28.488281 18.292969 -29.289062 18.292969 -30.289062 L 18.292969 -32.785156 L 52.476562 -32.785156 L 52.378906 -30.386719 C 52.378906 -29.488281 52.378906 -28.589844 52.476562 -27.6875 C 52.476562 -25.890625 52.578125 -24.089844 52.578125 -22.289062 C 52.777344 -17.394531 52.976562 -12.296875 53.378906 -7.296875 C 53.578125 -4.996094 54.378906 -2.398438 55.675781 0 C 57.078125 2.699219 59.476562 4 62.574219 3.597656 C 65.574219 3.199219 67.671875 1.398438 68.371094 -1.5 C 68.871094 -3.699219 69.070312 -6.296875 68.972656 -9.097656 Z M 68.972656 -9.097656 "/></g></g></g><g fill="#ff865e" fill-opacity="1"><g transform="translate(3430.138216, 2029.506172)"><g><path d="M 76.367188 -16.292969 C 76.070312 -17.691406 75.769531 -19.390625 75.269531 -20.992188 C 69.769531 -39.785156 60.273438 -56.777344 50.980469 -72.46875 C 48.679688 -76.367188 45.679688 -78.269531 42.28125 -78.269531 C 40.285156 -78.269531 38.183594 -77.667969 35.886719 -76.367188 C 33.085938 -74.667969 30.6875 -72.570312 29.289062 -70.472656 C 26.289062 -66.171875 23.789062 -61.375 21.792969 -57.175781 C 18.191406 -49.679688 15.394531 -43.382812 12.996094 -37.382812 C 9.296875 -28.089844 6.496094 -20.191406 4.097656 -12.695312 C 2.699219 -8.496094 4.898438 -5.097656 7.496094 -3.898438 C 10.695312 -2.597656 13.792969 -4 16.09375 -7.796875 C 17.191406 -9.695312 18.191406 -11.695312 19.191406 -13.695312 C 20.089844 -15.492188 21.089844 -17.492188 22.191406 -19.292969 C 22.890625 -20.589844 24.789062 -21.890625 26.1875 -21.890625 C 31.386719 -21.792969 36.585938 -21.589844 41.683594 -21.390625 C 45.480469 -21.191406 49.378906 -21.089844 53.179688 -20.890625 C 56.675781 -20.792969 57.675781 -18.792969 58.277344 -16.691406 C 59.074219 -13.695312 59.976562 -11.394531 61.074219 -9.496094 C 63.175781 -5.898438 66.972656 -4.398438 70.671875 -5.496094 C 74.46875 -6.695312 76.667969 -10.195312 76.667969 -15.09375 C 76.570312 -15.492188 76.46875 -15.894531 76.367188 -16.292969 Z M 32.085938 -38.785156 L 40.082031 -60.675781 L 50.777344 -38.785156 Z M 32.085938 -38.785156 "/></g></g></g><g fill="#ff865e" fill-opacity="1"><g transform="translate(3523.399046, 2029.506172)"><g><path d="M 62.574219 -57.875 C 59.976562 -73.171875 48.78125 -81.867188 33.285156 -80.667969 C 27.1875 -80.167969 22.089844 -78.367188 17.292969 -75.070312 L 16.394531 -74.46875 L 15.792969 -75.269531 C 15.59375 -75.570312 15.394531 -75.867188 15.292969 -76.070312 C 14.992188 -76.46875 14.792969 -76.769531 14.59375 -76.96875 C 13.195312 -78.269531 11.496094 -78.96875 9.894531 -78.96875 C 9.296875 -78.96875 8.695312 -78.867188 8.195312 -78.667969 C 5.996094 -77.96875 4.5 -76.167969 4 -73.667969 C 3.597656 -72.070312 3.597656 -70.371094 3.699219 -68.671875 C 3.796875 -61.972656 4.398438 -55.277344 4.996094 -48.679688 C 5.699219 -41.683594 6.398438 -34.484375 6.496094 -27.289062 C 6.496094 -23.289062 6.199219 -19.191406 5.898438 -15.195312 C 5.796875 -13.195312 5.699219 -11.09375 5.597656 -9.097656 C 5.398438 -5.898438 5.398438 -3.296875 7.695312 -2.097656 L 7.996094 -1.800781 C 8.996094 -0.601562 11.496094 0.398438 14.195312 -0.101562 C 16.191406 -0.398438 18.890625 -1.597656 20.589844 -5.597656 C 21.390625 -7.398438 21.390625 -9.796875 21.492188 -11.996094 L 21.492188 -12.894531 C 21.589844 -15.09375 21.390625 -18.890625 21.292969 -21.390625 L 21.089844 -23.890625 L 22.289062 -23.890625 C 23.890625 -23.890625 25.488281 -23.890625 27.1875 -23.789062 C 30.386719 -23.589844 33.6875 -23.492188 36.285156 -23.890625 C 54.277344 -26.988281 65.375 -41.28125 62.574219 -57.875 Z M 40.484375 -45.382812 C 36.386719 -41.484375 31.289062 -39.683594 24.191406 -39.683594 C 23.492188 -39.683594 22.789062 -39.683594 21.992188 -39.785156 L 20.992188 -39.785156 L 20.992188 -40.882812 C 20.992188 -47.582031 22.390625 -53.078125 25.289062 -57.976562 C 27.886719 -62.273438 35.683594 -64.875 40.082031 -62.875 C 41.78125 -62.175781 43.382812 -60.375 43.980469 -58.476562 C 45.679688 -53.777344 44.480469 -49.28125 40.484375 -45.382812 Z M 40.484375 -45.382812 "/></g></g></g><g fill="#ff865e" fill-opacity="1"><g transform="translate(3602.965758, 2029.506172)"><g><path d="M 62.574219 -57.875 C 59.976562 -73.171875 48.78125 -81.867188 33.285156 -80.667969 C 27.1875 -80.167969 22.089844 -78.367188 17.292969 -75.070312 L 16.394531 -74.46875 L 15.792969 -75.269531 C 15.59375 -75.570312 15.394531 -75.867188 15.292969 -76.070312 C 14.992188 -76.46875 14.792969 -76.769531 14.59375 -76.96875 C 13.195312 -78.269531 11.496094 -78.96875 9.894531 -78.96875 C 9.296875 -78.96875 8.695312 -78.867188 8.195312 -78.667969 C 5.996094 -77.96875 4.5 -76.167969 4 -73.667969 C 3.597656 -72.070312 3.597656 -70.371094 3.699219 -68.671875 C 3.796875 -61.972656 4.398438 -55.277344 4.996094 -48.679688 C 5.699219 -41.683594 6.398438 -34.484375 6.496094 -27.289062 C 6.496094 -23.289062 6.199219 -19.191406 5.898438 -15.195312 C 5.796875 -13.195312 5.699219 -11.09375 5.597656 -9.097656 C 5.398438 -5.898438 5.398438 -3.296875 7.695312 -2.097656 L 7.996094 -1.800781 C 8.996094 -0.601562 11.496094 0.398438 14.195312 -0.101562 C 16.191406 -0.398438 18.890625 -1.597656 20.589844 -5.597656 C 21.390625 -7.398438 21.390625 -9.796875 21.492188 -11.996094 L 21.492188 -12.894531 C 21.589844 -15.09375 21.390625 -18.890625 21.292969 -21.390625 L 21.089844 -23.890625 L 22.289062 -23.890625 C 23.890625 -23.890625 25.488281 -23.890625 27.1875 -23.789062 C 30.386719 -23.589844 33.6875 -23.492188 36.285156 -23.890625 C 54.277344 -26.988281 65.375 -41.28125 62.574219 -57.875 Z M 40.484375 -45.382812 C 36.386719 -41.484375 31.289062 -39.683594 24.191406 -39.683594 C 23.492188 -39.683594 22.789062 -39.683594 21.992188 -39.785156 L 20.992188 -39.785156 L 20.992188 -40.882812 C 20.992188 -47.582031 22.390625 -53.078125 25.289062 -57.976562 C 27.886719 -62.273438 35.683594 -64.875 40.082031 -62.875 C 41.78125 -62.175781 43.382812 -60.375 43.980469 -58.476562 C 45.679688 -53.777344 44.480469 -49.28125 40.484375 -45.382812 Z M 40.484375 -45.382812 "/></g></g></g><g fill="#ff865e" fill-opacity="1"><g transform="translate(3682.53247, 2029.506172)"><g><path d="M 61.273438 -74.871094 C 58.175781 -77.066406 54.078125 -76.367188 50.980469 -73.070312 C 49.980469 -71.96875 49.078125 -70.671875 48.179688 -69.371094 C 47.582031 -68.570312 47.082031 -67.871094 46.480469 -67.171875 C 43.78125 -63.574219 40.984375 -59.976562 38.085938 -56.175781 L 33.285156 -49.980469 L 32.386719 -51.378906 C 31.386719 -53.179688 30.386719 -54.878906 29.386719 -56.476562 C 27.1875 -60.074219 25.191406 -63.472656 23.089844 -66.671875 L 22.789062 -67.074219 C 20.292969 -70.871094 17.792969 -74.871094 14.792969 -78.269531 C 13.292969 -79.96875 11.394531 -80.667969 9.695312 -80.667969 C 8.496094 -80.667969 7.398438 -80.265625 6.496094 -79.765625 C 4.097656 -78.269531 3.199219 -75.46875 3.898438 -71.769531 C 4.097656 -71.070312 4.199219 -70.269531 4.5 -69.671875 C 5.296875 -67.773438 5.996094 -65.871094 6.695312 -63.972656 C 8.398438 -59.375 10.195312 -54.777344 12.296875 -50.378906 C 15.792969 -43.082031 20.691406 -37.382812 26.6875 -33.484375 C 27.886719 -32.6875 28.589844 -30.6875 28.488281 -29.289062 C 28.386719 -26.6875 28.089844 -24.191406 27.886719 -21.589844 C 27.589844 -17.792969 27.1875 -13.792969 27.1875 -9.796875 C 27.1875 -6.398438 28.289062 -3.5 30.289062 -1.5 C 31.785156 0 33.6875 0.699219 35.683594 0.699219 C 40.582031 0.601562 43.78125 -3.699219 43.582031 -9.894531 C 43.480469 -16.691406 42.980469 -23.789062 42.082031 -31.6875 C 41.78125 -34.6875 42.28125 -36.683594 44.183594 -39.183594 C 49.878906 -46.679688 56.578125 -55.578125 62.773438 -64.972656 C 65.472656 -69.070312 63.875 -72.96875 61.273438 -74.871094 Z M 61.273438 -74.871094 "/></g></g></g><g fill="#ff865e" fill-opacity="1"><g transform="translate(3763.298609, 2029.506172)"><g/></g></g><g fill="#ff865e" fill-opacity="1"><g transform="translate(3804.781443, 2029.506172)"><g><path d="M 75.96875 -15.492188 C 74.371094 -17.992188 71.871094 -19.09375 68.773438 -18.691406 C 66.773438 -18.492188 64.671875 -17.792969 62.875 -17.191406 C 54.179688 -14.394531 43.78125 -12.195312 32.886719 -17.492188 C 23.789062 -21.992188 18.992188 -30.886719 20.792969 -40.183594 C 21.390625 -43.183594 22.289062 -47.082031 24.289062 -50.179688 C 33.484375 -64.875 43.78125 -68.972656 57.675781 -63.375 C 59.574219 -62.675781 61.273438 -62.175781 62.773438 -61.972656 C 64.773438 -61.773438 66.472656 -62.375 67.472656 -63.773438 C 68.371094 -65.074219 68.472656 -66.773438 67.671875 -68.472656 C 66.773438 -70.371094 65.273438 -72.269531 63.273438 -73.96875 C 57.976562 -78.367188 51.277344 -80.566406 44.480469 -80.566406 C 38.585938 -80.566406 32.585938 -78.867188 27.289062 -75.46875 C 15.695312 -68.070312 8.398438 -58.375 5.296875 -46.582031 C 1.300781 -30.988281 4.597656 -18.191406 14.992188 -8.496094 C 22.789062 -1.199219 33.1875 3 45.78125 4 C 54.378906 3.5 62.074219 1.699219 69.371094 -1.597656 C 71.570312 -2.597656 73.871094 -4.699219 75.96875 -7.398438 C 77.769531 -9.796875 77.769531 -12.792969 75.96875 -15.492188 Z M 75.96875 -15.492188 "/></g></g></g><g fill="#ff865e" fill-opacity="1"><g transform="translate(3898.642079, 2029.506172)"><g><path d="M 68.972656 -9.097656 C 68.070312 -26.089844 67.074219 -44.082031 65.871094 -64.171875 C 65.671875 -67.171875 65.273438 -69.871094 64.671875 -72.371094 C 64.171875 -74.46875 62.574219 -75.769531 60.375 -75.96875 C 57.578125 -76.367188 55.976562 -74.667969 55.175781 -73.171875 C 54.578125 -71.96875 54.078125 -70.570312 53.878906 -69.171875 C 53.476562 -66.273438 53.277344 -63.375 53.078125 -60.773438 C 52.878906 -57.675781 52.777344 -54.675781 52.578125 -51.578125 L 52.277344 -46.28125 L 18.292969 -46.28125 L 17.992188 -50.480469 C 17.894531 -52.078125 17.792969 -53.679688 17.59375 -55.378906 C 17.394531 -59.074219 17.191406 -62.875 16.691406 -66.574219 C 16.292969 -70.070312 14.195312 -72.269531 11.195312 -72.46875 C 8.195312 -72.671875 5.796875 -70.472656 4.996094 -66.972656 C 4.398438 -63.675781 3.5 -59.574219 3.699219 -55.777344 C 4.296875 -40.582031 5.199219 -24.191406 6.496094 -4.097656 C 6.695312 -0.199219 9.097656 2.5 12.394531 2.5 C 12.496094 2.5 12.496094 2.5 12.496094 2.5 C 15.792969 2.398438 17.992188 -0.199219 18.390625 -4.398438 C 18.492188 -5.597656 18.492188 -6.996094 18.492188 -8.195312 L 18.492188 -8.597656 C 18.492188 -12.59375 18.390625 -16.691406 18.390625 -20.792969 L 18.292969 -27.6875 C 18.292969 -28.488281 18.292969 -29.289062 18.292969 -30.289062 L 18.292969 -32.785156 L 52.476562 -32.785156 L 52.378906 -30.386719 C 52.378906 -29.488281 52.378906 -28.589844 52.476562 -27.6875 C 52.476562 -25.890625 52.578125 -24.089844 52.578125 -22.289062 C 52.777344 -17.394531 52.976562 -12.296875 53.378906 -7.296875 C 53.578125 -4.996094 54.378906 -2.398438 55.675781 0 C 57.078125 2.699219 59.476562 4 62.574219 3.597656 C 65.574219 3.199219 67.671875 1.398438 68.371094 -1.5 C 68.871094 -3.699219 69.070312 -6.296875 68.972656 -9.097656 Z M 68.972656 -9.097656 "/></g></g></g><g fill="#ff865e" fill-opacity="1"><g transform="translate(3984.106356, 2029.506172)"><g><path d="M 23.691406 -59.277344 C 23.492188 -62.875 22.890625 -65.972656 21.992188 -68.671875 C 20.890625 -72.269531 18.292969 -74.371094 14.492188 -74.46875 C 10.894531 -74.667969 7.695312 -72.46875 6.496094 -68.871094 C 5.597656 -66.171875 4.996094 -63.175781 4.699219 -60.074219 C 4.296875 -55.078125 4.097656 -50.078125 3.898438 -45.082031 C 3.796875 -43.480469 3.699219 -41.78125 3.699219 -40.183594 L 4.097656 -40.183594 L 4.097656 -39.082031 C 4.097656 -36.886719 4.097656 -34.6875 4 -32.488281 C 4 -27.390625 3.898438 -21.992188 4.199219 -16.792969 C 4.398438 -12.996094 5.496094 -9.195312 7.097656 -6.199219 C 8.398438 -3.898438 10.59375 -2.5 12.894531 -2.5 C 12.996094 -2.5 12.996094 -2.5 12.996094 -2.5 C 15.492188 -2.5 17.894531 -4 19.292969 -6.597656 C 20.191406 -8.195312 20.792969 -9.695312 20.890625 -11.09375 L 21.589844 -16.992188 C 23.089844 -30.789062 24.691406 -45.082031 23.691406 -59.277344 Z M 23.691406 -59.277344 "/></g></g></g><g fill="#ff865e" fill-opacity="1"><g transform="translate(4024.789512, 2029.506172)"><g><path d="M 47.980469 -14.59375 C 47.179688 -16.59375 45.28125 -18.09375 42.882812 -18.59375 C 41.484375 -18.890625 39.882812 -18.992188 37.984375 -18.792969 C 36.484375 -18.691406 34.886719 -18.492188 33.386719 -18.292969 C 31.988281 -18.09375 30.585938 -17.894531 29.089844 -17.691406 C 27.089844 -17.492188 25.390625 -17.394531 24.289062 -18.390625 C 23.390625 -19.292969 23.089844 -20.691406 23.089844 -22.890625 C 22.992188 -28.386719 22.992188 -34.085938 22.992188 -40.082031 C 22.992188 -42.683594 23.089844 -45.480469 23.089844 -48.378906 C 22.992188 -50.378906 22.890625 -52.578125 22.789062 -54.878906 C 22.589844 -60.773438 22.390625 -67.472656 21.992188 -73.96875 C 21.691406 -77.867188 19.492188 -80.46875 16.191406 -80.765625 C 15.992188 -80.765625 15.792969 -80.765625 15.695312 -80.765625 C 12.695312 -80.765625 10.496094 -78.667969 9.496094 -74.871094 C 8.195312 -69.671875 7.097656 -65.375 6.695312 -60.875 L 6.296875 -57.476562 C 5.199219 -45.28125 4 -32.585938 3.699219 -20.191406 C 3.5 -14.292969 4.898438 -4 15.894531 -0.199219 C 25.589844 3.097656 35.386719 0.898438 45.882812 -6.796875 C 46.179688 -6.996094 46.480469 -7.398438 46.78125 -7.796875 C 48.378906 -10.195312 48.78125 -12.59375 47.980469 -14.59375 Z M 47.980469 -14.59375 "/></g></g></g><g fill="#ff865e" fill-opacity="1"><g transform="translate(4089.662552, 2029.506172)"><g><path d="M 54.675781 -65.773438 C 47.78125 -72.46875 38.382812 -75.867188 28.289062 -75.570312 L 27.390625 -75.46875 L 27.1875 -76.070312 C 26.089844 -75.867188 25.089844 -75.667969 23.988281 -75.46875 C 20.890625 -74.769531 17.691406 -74.070312 14.695312 -73.171875 C 9.097656 -71.371094 8.097656 -69.871094 7.898438 -63.773438 C 7.796875 -58.074219 7.695312 -52.277344 7.695312 -46.480469 C 7.496094 -38.085938 7.398438 -29.6875 7.195312 -21.191406 C 7.195312 -19.09375 6.398438 -16.691406 5.199219 -14.695312 C 3.796875 -12.296875 3.296875 -9.695312 3.898438 -7.398438 C 4.398438 -5.496094 5.597656 -3.898438 7.398438 -2.898438 C 10.195312 -1.300781 13.59375 -0.398438 16.492188 -0.601562 C 29.488281 -1.199219 41.683594 -5.496094 52.578125 -13.59375 C 61.175781 -19.890625 65.574219 -28.488281 65.574219 -39.382812 C 65.574219 -49.480469 61.574219 -59.074219 54.675781 -65.773438 Z M 40.082031 -28.886719 C 36.984375 -26.988281 33.785156 -25.390625 30.289062 -23.691406 C 28.6875 -22.890625 26.988281 -22.089844 25.289062 -21.191406 L 23.789062 -20.492188 L 21.992188 -60.675781 L 23.289062 -60.476562 C 24.191406 -60.375 25.191406 -60.273438 26.089844 -60.175781 C 30.6875 -59.574219 35.386719 -59.074219 39.582031 -56.476562 C 44.382812 -53.578125 47.28125 -48.378906 47.378906 -42.582031 C 47.378906 -36.886719 44.683594 -31.785156 40.082031 -28.886719 Z M 40.082031 -28.886719 "/></g></g></g><g fill="#ff865e" fill-opacity="1"><g transform="translate(4171.827992, 2029.506172)"><g><path d="M 11.394531 -21.691406 C 7.398438 -21.792969 3.699219 -17.894531 3.699219 -13.695312 C 3.597656 -9.796875 6.898438 -6.496094 10.796875 -6.695312 C 14.792969 -6.796875 17.894531 -10.394531 17.894531 -14.695312 C 17.792969 -18.691406 15.09375 -21.691406 11.394531 -21.691406 Z M 11.394531 -21.691406 "/></g></g></g></svg>