<svg xmlns="http://www.w3.org/2000/svg" xmlns:xlink="http://www.w3.org/1999/xlink" width="6912" zoomAndPan="magnify" viewBox="0 0 5184 2592.000001" height="3456" preserveAspectRatio="xMidYMid meet" version="1.0"><defs><clipPath id="3925a1e553"><path d="M 699.238281 1171.007812 L 981.472656 1171.007812 L 981.472656 1419.796875 L 699.238281 1419.796875 Z M 699.238281 1171.007812 " clip-rule="nonzero"/></clipPath></defs><path fill="#5186cd" d="M 825.617188 1277.308594 C 825.855469 1277.699219 825.785156 1278.015625 825.628906 1278.433594 C 825.042969 1277.789062 825.246094 1277.519531 825.617188 1277.308594 " fill-opacity="1" fill-rule="nonzero"/><path fill="#5186cd" d="M 908.058594 1359.308594 C 908.394531 1359.636719 908.304688 1359.984375 908.101562 1360.46875 C 907.316406 1359.949219 907.574219 1359.625 908.058594 1359.308594 " fill-opacity="1" fill-rule="nonzero"/><g clip-path="url(#3925a1e553)"><path fill="#5186cd" d="M 770.792969 1323.0625 C 772.300781 1323.546875 775.667969 1324.007812 779.246094 1324.054688 C 784.503906 1324.246094 789.941406 1323.511719 790.550781 1323.445312 C 798.046875 1322.644531 806.378906 1320.9375 813.425781 1319.765625 C 820 1318.683594 826.640625 1317.929688 833.046875 1316.601562 C 840.421875 1315.09375 844.542969 1313.484375 851.363281 1313.710938 C 858.691406 1314.003906 866.585938 1311.246094 873.957031 1310.933594 C 882.503906 1310.515625 890.925781 1310.335938 899.503906 1310.222656 C 907.890625 1310.007812 915.082031 1310.742188 918.597656 1314.542969 C 920.351562 1316.378906 921.488281 1319.023438 921.578125 1322.140625 C 921.679688 1325.222656 920.882812 1328.609375 919.214844 1331.535156 C 918.425781 1333.042969 917.414062 1334.40625 916.445312 1335.710938 C 915.332031 1336.996094 914.453125 1338.03125 913.011719 1339.210938 C 910.378906 1341.550781 907.238281 1343.519531 903.804688 1345.289062 C 896.835938 1348.789062 888.648438 1351.105469 879.867188 1353.019531 C 871.144531 1354.976562 861.664062 1358.332031 853.03125 1364.136719 C 848.683594 1367.074219 844.800781 1370.460938 841.289062 1374.863281 C 837.898438 1379.316406 835.558594 1384.234375 833.871094 1389.480469 C 832.945312 1392.191406 831.707031 1400.148438 834.726562 1407.652344 C 836.15625 1411.34375 838.453125 1414.6875 840.625 1416.710938 C 841.625 1417.816406 842.660156 1418.457031 843.304688 1419.007812 C 843.980469 1419.515625 844.363281 1419.796875 844.363281 1419.796875 L 853.265625 1405.414062 C 853.265625 1405.414062 852.671875 1405.269531 851.894531 1405.078125 C 851.171875 1404.773438 850.226562 1404.289062 849.6875 1403.667969 C 848.664062 1402.554688 847.726562 1401.023438 847.230469 1399.191406 C 846.75 1397.367188 846.613281 1395.355469 846.816406 1393.472656 C 847.421875 1388.859375 849.574219 1385.550781 851.488281 1382.796875 C 852.578125 1381.320312 853.660156 1379.859375 854.796875 1378.328125 C 856.023438 1376.671875 857.273438 1374.738281 858.839844 1372.417969 C 861.035156 1376.019531 864.332031 1372.464844 866.628906 1371.789062 C 868.296875 1370.496094 870.277344 1369.863281 872.449219 1370 C 873.148438 1368.492188 874.058594 1367.097656 875.140625 1365.800781 C 875.90625 1368.378906 882.152344 1367.839844 889.425781 1366.511719 C 896.652344 1365.230469 904.648438 1362.191406 906.628906 1361.03125 C 906.089844 1360.253906 906.019531 1359.421875 906.371094 1358.523438 C 907.191406 1358.332031 907.765625 1358.53125 908.113281 1359.21875 C 910.792969 1360.175781 912.652344 1359.128906 913.160156 1356.328125 C 915.476562 1355.539062 917.367188 1355.527344 918.921875 1354.988281 C 920.453125 1354.46875 921.679688 1353.335938 922.175781 1350.339844 C 922.828125 1350.691406 923.707031 1350.519531 924.707031 1350.015625 C 925.699219 1349.496094 926.882812 1348.484375 927.929688 1347.382812 C 930.023438 1345.109375 931.632812 1342.214844 932.511719 1340.785156 C 936.507812 1334.777344 937.023438 1326.910156 934.535156 1320.171875 C 935.347656 1318.449219 936.539062 1321.632812 937.519531 1319.800781 C 936.269531 1318.394531 935.5625 1314.859375 933.851562 1311.246094 C 932.230469 1307.613281 929.59375 1304.234375 927.949219 1302.796875 C 924.609375 1299.859375 922.863281 1299.027344 921.445312 1298.6875 C 920.015625 1298.394531 918.675781 1298.753906 915.972656 1299.9375 C 916.648438 1298.566406 916.355469 1297.203125 914.9375 1296.011719 C 914.207031 1296.742188 913.328125 1297.339844 912.324219 1297.800781 C 911.910156 1295.1875 909.117188 1295.570312 906.269531 1295.121094 L 904.003906 1293.464844 C 902.789062 1294.46875 901.425781 1295.109375 899.988281 1295.4375 C 898.164062 1295.132812 895.484375 1293.421875 893.953125 1293.242188 C 891.25 1292.894531 891.058594 1294.863281 889.777344 1294.875 C 885.125 1294.941406 879.734375 1292.644531 874.835938 1293.972656 C 874.960938 1295.390625 874.65625 1296.71875 873.957031 1297.957031 C 872.316406 1297.347656 871.085938 1296.28125 870.277344 1294.785156 C 869.488281 1295.167969 868.871094 1295.71875 868.417969 1296.4375 C 866.234375 1295.367188 863.917969 1295.074219 861.496094 1295.527344 C 856.609375 1295.582031 855.914062 1295.988281 854.820312 1298.914062 C 851.339844 1300.738281 847.828125 1296.773438 844.40625 1297.597656 C 842.078125 1298.328125 840.207031 1299.679688 838.835938 1301.613281 C 838.25 1300.613281 837.40625 1300.074219 836.289062 1300.027344 C 833.160156 1300.859375 833.507812 1299.046875 830.773438 1301.953125 C 828.058594 1304.808594 831.414062 1303.066406 831.402344 1305.460938 C 830.34375 1305.574219 829.613281 1306.105469 829.207031 1307.050781 C 830.402344 1307.726562 831.683594 1308.050781 833.070312 1307.996094 C 827.746094 1311.71875 830.1875 1307.320312 826.945312 1305.269531 C 824.976562 1304.382812 822.914062 1303.652344 820.832031 1303.054688 C 818.875 1301.703125 817.804688 1302.300781 817.613281 1304.867188 C 817.996094 1304.796875 810.519531 1306.96875 812.523438 1305.652344 C 809.777344 1307.433594 811.871094 1307.714844 809.777344 1310.84375 C 809.261719 1308.691406 808.539062 1304.335938 805.523438 1305.855469 C 806.039062 1306.871094 806.289062 1307.9375 806.277344 1309.074219 C 803.328125 1309.90625 801.210938 1308.671875 797.597656 1310.121094 C 794.804688 1304.765625 796.269531 1309.433594 793.039062 1309.988281 C 788.882812 1310.617188 784.953125 1309.289062 781.136719 1308.828125 C 779.71875 1308.648438 777.277344 1308.289062 774.957031 1307.847656 C 772.59375 1307.535156 770.410156 1306.960938 769.011719 1307.285156 C 768.246094 1307.375 767.5625 1307.714844 766.898438 1308.097656 C 766.503906 1308.265625 766.367188 1308.523438 766.199219 1308.761719 C 766.03125 1308.996094 765.839844 1309.210938 765.636719 1309.390625 C 764.902344 1310.15625 763.699219 1310.042969 764.261719 1308.523438 C 764.207031 1308.5 764.703125 1308.828125 765.277344 1308.78125 C 765.917969 1308.75 766.242188 1308.1875 766.695312 1306.789062 C 766.726562 1306.667969 766.492188 1306.722656 766.03125 1306.746094 C 765.601562 1306.746094 764.925781 1306.679688 764.925781 1306.679688 L 764.554688 1306.789062 C 764.53125 1306.871094 763.328125 1306.554688 763.496094 1305.902344 C 763.574219 1305.363281 763.8125 1304.753906 764.296875 1304.089844 L 764.65625 1303.605469 L 765.578125 1302.671875 C 766.210938 1302.03125 766.851562 1301.410156 767.550781 1300.894531 C 770.847656 1298.273438 774.136719 1296.898438 777.097656 1295.15625 C 780.101562 1293.433594 782.847656 1291.351562 785.855469 1287.421875 C 787.566406 1291.304688 790.796875 1288.289062 792.753906 1287.785156 C 794.1875 1286.625 795.886719 1286.140625 797.753906 1286.308594 C 798.285156 1284.871094 798.949219 1283.519531 799.734375 1282.257812 C 800.601562 1284.878906 805.960938 1284.117188 811.589844 1282.832031 C 817.175781 1281.449219 823.039062 1279.433594 824.523438 1278.726562 C 824.132812 1277.890625 824.0625 1277.070312 824.355469 1276.25 C 824.988281 1276.191406 825.414062 1276.519531 825.652344 1277.238281 C 827.632812 1278.667969 828.949219 1278.183594 829.582031 1275.710938 C 833.148438 1275.5625 834.90625 1278.453125 836.941406 1273.796875 C 838.371094 1276.28125 844.058594 1273.773438 846.183594 1273.539062 C 850.710938 1273.042969 854.707031 1270.792969 858.546875 1267.921875 C 859.75 1268.652344 858.027344 1269.902344 859.324219 1270.8125 C 860.503906 1268.328125 867.394531 1267.503906 869.757812 1266.863281 C 874.613281 1265.535156 874.160156 1266.1875 876.132812 1261.574219 C 876.367188 1263.09375 877.109375 1264.097656 878.382812 1264.578125 C 878.484375 1263.613281 878.753906 1262.734375 879.195312 1261.945312 C 880.453125 1264.152344 881.972656 1262.835938 884.101562 1262.488281 L 886.171875 1263.441406 C 886.734375 1262.195312 887.523438 1261.238281 888.546875 1260.585938 C 890.011719 1260.414062 892.523438 1261.417969 893.75 1261.261719 C 895.890625 1260.980469 895.507812 1259.078125 896.496094 1258.785156 C 900.054688 1257.703125 904.804688 1258.863281 908.285156 1256.734375 C 907.84375 1255.386719 907.742188 1254.046875 908.003906 1252.71875 C 909.441406 1253.023438 910.660156 1253.832031 911.648438 1255.148438 C 912.179688 1254.65625 912.527344 1254.023438 912.71875 1253.246094 C 914.6875 1253.921875 916.59375 1253.898438 918.394531 1253.089844 C 922.242188 1252.28125 922.714844 1251.851562 922.941406 1248.847656 C 925.339844 1246.640625 928.996094 1250.0625 931.566406 1248.859375 C 933.277344 1247.867188 934.515625 1246.371094 935.234375 1244.367188 C 935.898438 1245.28125 936.710938 1245.71875 937.621094 1245.664062 C 939.972656 1244.515625 940.054688 1246.316406 941.730469 1243.230469 C 943.363281 1240.183594 940.964844 1242.207031 940.492188 1239.878906 C 941.335938 1239.675781 941.820312 1239.089844 941.96875 1238.132812 C 940.851562 1237.582031 939.738281 1237.402344 938.613281 1237.582031 C 942.203125 1233.464844 941.101562 1237.964844 944.195312 1239.640625 C 946.03125 1240.339844 947.867188 1240.8125 949.734375 1241.117188 C 951.671875 1242.1875 952.449219 1241.453125 952.019531 1238.957031 C 951.726562 1239.070312 957.480469 1235.960938 956.128906 1237.503906 C 958.019531 1235.332031 956.207031 1235.398438 957.085938 1232.046875 C 958.144531 1233.960938 959.992188 1238.066406 962.308594 1235.75 C 961.523438 1234.9375 960.957031 1233.992188 960.597656 1232.925781 C 962.816406 1231.371094 965.203125 1231.820312 967.644531 1228.882812 C 972.757812 1232.070312 969.234375 1228.78125 971.542969 1226.441406 C 973.050781 1224.867188 974.714844 1223.394531 976.324219 1221.625 C 977.957031 1219.902344 979.445312 1217.710938 980.324219 1215.15625 C 981.019531 1213.277344 981.707031 1209.789062 981.402344 1206.253906 C 981.109375 1202.640625 979.546875 1199.332031 978.195312 1197.996094 C 976.605469 1196.464844 974.738281 1196.296875 973.273438 1195.980469 C 971.8125 1195.597656 970.820312 1195.023438 970.292969 1192.414062 C 970.203125 1192.332031 971.351562 1193.527344 972.488281 1194.359375 C 973.589844 1195.238281 974.839844 1195.777344 974.964844 1193.660156 C 974.90625 1193.347656 972.746094 1191.164062 970.484375 1189.679688 C 968.230469 1188.113281 965.96875 1187.042969 965.96875 1187.042969 L 965.84375 1187.257812 C 965.84375 1187.257812 962.085938 1186.179688 959.742188 1185.503906 C 955.613281 1184.085938 950.847656 1182.835938 946.941406 1181.789062 C 937.722656 1179.132812 932.039062 1175.792969 922.300781 1179.019531 C 922.964844 1174.800781 918.246094 1175.65625 916.199219 1175.160156 C 914.273438 1175.441406 912.460938 1175.160156 910.761719 1174.160156 C 909.601562 1175.230469 908.394531 1176.164062 907.113281 1176.972656 C 907.460938 1174.25 902.023438 1172.585938 896.035156 1171.808594 C 890.046875 1171.007812 883.5625 1171.269531 881.863281 1171.460938 C 882.007812 1172.382812 881.816406 1173.179688 881.296875 1173.867188 C 880.65625 1173.742188 880.332031 1173.316406 880.296875 1172.550781 C 878.742188 1170.613281 877.269531 1170.761719 875.972656 1172.976562 C 872.40625 1172.167969 871.300781 1168.972656 868.125 1173.023438 C 867.28125 1170.230469 860.945312 1171.503906 858.738281 1171.367188 C 854.042969 1170.964844 849.539062 1172.617188 845.238281 1174.925781 C 844.125 1174.035156 846.050781 1173.011719 844.867188 1171.941406 C 843.292969 1174.238281 836.175781 1174.214844 833.710938 1174.675781 C 828.632812 1175.5 829.128906 1174.957031 826.753906 1179.402344 C 826.640625 1177.875 825.957031 1176.816406 824.714844 1176.230469 C 824.535156 1177.1875 824.1875 1178.042969 823.679688 1178.808594 C 822.566406 1176.488281 820.921875 1177.714844 818.75 1177.976562 L 816.691406 1176.917969 C 816.046875 1178.144531 815.191406 1179.054688 814.125 1179.652344 C 812.625 1179.742188 810.125 1178.671875 808.878906 1178.796875 C 806.683594 1179.019531 806.996094 1180.921875 805.996094 1181.183594 C 802.382812 1182.21875 797.585938 1180.921875 794.050781 1183.082031 C 794.476562 1184.421875 794.558594 1185.761719 794.285156 1187.089844 C 792.835938 1186.761719 791.617188 1185.917969 790.640625 1184.601562 C 790.109375 1185.097656 789.738281 1185.738281 789.546875 1186.503906 C 787.589844 1185.828125 785.675781 1185.886719 783.851562 1186.664062 C 780 1187.4375 779.527344 1187.867188 779.292969 1190.882812 C 776.882812 1193.078125 773.257812 1189.6875 770.691406 1190.816406 C 768.96875 1191.761719 767.753906 1193.277344 767.019531 1195.28125 C 766.355469 1194.371094 765.566406 1193.933594 764.65625 1193.976562 C 762.292969 1195.046875 762.234375 1193.246094 760.535156 1196.296875 C 758.871094 1199.300781 761.277344 1197.332031 761.71875 1199.671875 C 760.875 1199.863281 760.378906 1200.4375 760.210938 1201.394531 C 761.3125 1201.957031 762.425781 1202.15625 763.542969 1202 C 759.882812 1206.0625 761.066406 1201.574219 758.035156 1199.839844 C 756.234375 1199.121094 754.410156 1198.566406 752.578125 1198.183594 C 750.695312 1197.039062 749.910156 1197.722656 750.257812 1200.234375 C 750.539062 1200.109375 744.773438 1203 746.160156 1201.515625 C 744.257812 1203.574219 746.046875 1203.609375 745.011719 1206.871094 C 744.097656 1204.871094 742.546875 1200.695312 740.339844 1202.609375 C 741.003906 1203.507812 741.464844 1204.511719 741.710938 1205.601562 C 739.472656 1206.816406 737.402344 1205.996094 734.777344 1208.042969 C 730.949219 1203.496094 733.460938 1207.683594 730.972656 1208.898438 C 727.730469 1210.472656 724.0625 1210.382812 720.695312 1211.429688 C 718.21875 1212.207031 711.992188 1213.941406 710.191406 1215.875 C 708.109375 1218.105469 709.449219 1222.515625 704.96875 1221.0625 C 704.777344 1221.140625 710.089844 1219.285156 706.859375 1217.519531 C 706.398438 1217.441406 699.238281 1221.660156 699.238281 1221.660156 L 706.070312 1236.492188 C 706.070312 1236.492188 710.855469 1234.070312 713.757812 1232.84375 C 714.625 1232.472656 722.710938 1229.355469 719.941406 1228.1875 C 722.742188 1227.625 732.707031 1222.515625 733.425781 1222.1875 C 738.59375 1219.722656 744.59375 1216.921875 749.941406 1215.097656 C 754.90625 1213.378906 760.128906 1212.183594 765.128906 1210.394531 C 770.894531 1208.324219 774.011719 1206.308594 779.640625 1205.726562 C 785.695312 1205.09375 791.496094 1201.269531 797.316406 1199.695312 C 804.058594 1197.824219 810.691406 1196.058594 817.398438 1194.089844 C 830.71875 1190.332031 843.789062 1187.101562 857.769531 1187.460938 C 871.851562 1187.898438 885.769531 1185.863281 899.804688 1187.507812 C 906.730469 1188.226562 913.992188 1188.417969 921.242188 1189.070312 C 928.445312 1189.871094 935.628906 1191.117188 941.933594 1194.3125 C 942.722656 1194.742188 944.433594 1195.316406 946.054688 1195.992188 C 947.71875 1196.632812 949.589844 1197.464844 951.277344 1198.296875 C 954.710938 1199.964844 957.121094 1201.753906 957.121094 1201.753906 L 957.546875 1201.042969 C 957.546875 1201.042969 957.785156 1201.167969 958.15625 1201.371094 C 958.503906 1201.59375 959 1201.898438 959.550781 1202.238281 C 960.554688 1202.980469 961.714844 1203.902344 962.253906 1204.65625 C 962.488281 1204.890625 963.300781 1206.1875 963.839844 1206.953125 C 964.257812 1207.59375 964.921875 1208.191406 965.730469 1207.4375 C 965.621094 1208.089844 965.800781 1209.394531 965.640625 1210.824219 C 965.496094 1211.824219 965.136719 1212.882812 964.71875 1213.769531 C 964.300781 1214.648438 963.820312 1215.324219 963.75 1215.460938 C 961.476562 1218.757812 956.476562 1222.246094 951.636719 1224.15625 C 946.886719 1225.949219 941.785156 1227.445312 936.878906 1229.222656 C 931.25 1231.425781 928.097656 1233.339844 922.546875 1234.027344 C 916.492188 1234.625 910.703125 1238.507812 904.851562 1240.136719 C 898.0625 1242.050781 891.375 1244.042969 884.621094 1246.304688 C 871.179688 1250.804688 858.320312 1255.25 844.148438 1257.523438 C 829.726562 1259.84375 816.296875 1265.535156 802.234375 1269.65625 C 795.3125 1271.769531 788.308594 1274.796875 781.328125 1278.363281 C 774.339844 1281.875 767.570312 1285.691406 760.402344 1289.4375 C 759.476562 1290.011719 757.800781 1290.992188 756.011719 1292.53125 C 755.558594 1292.902344 755.085938 1293.296875 754.601562 1293.703125 C 754.074219 1294.175781 753.285156 1295.097656 752.609375 1295.808594 C 751.914062 1296.574219 751.191406 1297.347656 750.484375 1298.125 C 749.820312 1298.9375 749.246094 1299.800781 748.636719 1300.636719 C 748.027344 1301.480469 747.421875 1302.324219 746.847656 1303.132812 C 746.304688 1303.953125 745.867188 1304.777344 745.40625 1305.554688 C 744.480469 1307.152344 743.636719 1308.613281 742.929688 1309.851562 C 741.453125 1312.449219 740.507812 1314.105469 740.507812 1314.105469 L 745.890625 1312.472656 L 741.621094 1313.769531 C 741.621094 1313.769531 744.246094 1315.128906 747.625 1316.894531 C 749.253906 1317.832031 751.25 1318.683594 753.207031 1319.507812 C 755.144531 1320.363281 757.046875 1321.195312 758.65625 1321.902344 C 758.9375 1321.992188 759.488281 1322.242188 760.277344 1322.476562 C 761.007812 1322.679688 761.921875 1322.9375 762.945312 1323.230469 C 764.320312 1323.636719 765.984375 1324.042969 767.472656 1324.15625 C 770.046875 1324.4375 771.953125 1324.3125 770.792969 1323.0625 " fill-opacity="1" fill-rule="nonzero"/></g><path fill="#5186cd" d="M 931.035156 1336.183594 C 931.339844 1337.355469 930.921875 1337.949219 929.820312 1337.851562 C 929.378906 1336.714844 929.761719 1336.207031 931.035156 1336.183594 " fill-opacity="1" fill-rule="nonzero"/><path fill="#5186cd" d="M 929.773438 1341.394531 C 929.683594 1342.394531 929.210938 1342.914062 928.433594 1342.867188 C 926.8125 1342.328125 929.773438 1341.394531 929.773438 1341.394531 " fill-opacity="1" fill-rule="nonzero"/><path fill="#5186cd" d="M 925.777344 1314.53125 C 925.585938 1314.039062 925.472656 1313.519531 925.441406 1312.96875 C 926.800781 1311.539062 925.675781 1314.757812 925.777344 1314.53125 " fill-opacity="1" fill-rule="nonzero"/><path fill="#5186cd" d="M 911.535156 1299.667969 C 911.503906 1299.632812 909.925781 1304.640625 909.386719 1300.625 C 909.960938 1300.074219 910.691406 1299.769531 911.535156 1299.667969 " fill-opacity="1" fill-rule="nonzero"/><path fill="#5186cd" d="M 905.253906 1297.191406 C 905.378906 1298.519531 904.996094 1299.160156 903.621094 1299.105469 C 902.8125 1297.730469 903.441406 1297.246094 905.253906 1297.191406 " fill-opacity="1" fill-rule="nonzero"/><path fill="#5186cd" d="M 890.957031 1300.050781 C 890.5625 1301.996094 890.101562 1302.941406 888.414062 1302.570312 C 888.515625 1301.320312 889.550781 1300.917969 890.957031 1300.050781 " fill-opacity="1" fill-rule="nonzero"/><path fill="#5186cd" d="M 878.910156 1299.722656 C 877.246094 1301.320312 877.257812 1301.308594 875.566406 1299.757812 C 876.648438 1299.195312 877.730469 1299.429688 878.910156 1299.722656 " fill-opacity="1" fill-rule="nonzero"/><path fill="#5186cd" d="M 868.429688 1303.257812 C 867.945312 1303.976562 867.597656 1304.449219 866.652344 1303.910156 C 866.789062 1303.007812 867.441406 1303.042969 868.429688 1303.257812 " fill-opacity="1" fill-rule="nonzero"/><path fill="#5186cd" d="M 866.089844 1300.140625 C 864.917969 1300.488281 864.265625 1300.074219 864.128906 1298.890625 C 866.089844 1297.246094 866.652344 1299.914062 866.089844 1300.140625 " fill-opacity="1" fill-rule="nonzero"/><path fill="#5186cd" d="M 861.066406 1300.871094 C 859.71875 1299.972656 857.757812 1299.960938 856.8125 1298.304688 C 860.101562 1298.183594 860.292969 1298.316406 861.066406 1300.871094 " fill-opacity="1" fill-rule="nonzero"/><path fill="#5186cd" d="M 855.257812 1302.132812 C 853.941406 1303.089844 853.03125 1302.773438 851.78125 1302.46875 C 853.121094 1301.230469 854.019531 1301.851562 855.257812 1302.132812 " fill-opacity="1" fill-rule="nonzero"/><path fill="#5186cd" d="M 825.414062 1307.152344 C 825.179688 1307.925781 824.707031 1308.0625 824.007812 1307.625 C 824.253906 1306.890625 824.707031 1306.722656 825.414062 1307.152344 " fill-opacity="1" fill-rule="nonzero"/><path fill="#5186cd" d="M 821.171875 1305.753906 C 822.363281 1306.160156 822.105469 1306.722656 821.980469 1307.386719 C 820.742188 1306.992188 821.058594 1306.417969 821.171875 1305.753906 " fill-opacity="1" fill-rule="nonzero"/><path fill="#5186cd" d="M 805.421875 1316.535156 C 802.742188 1316.863281 802.730469 1316.804688 802.222656 1314.003906 C 803.742188 1314.984375 804.789062 1315.46875 805.421875 1316.535156 " fill-opacity="1" fill-rule="nonzero"/><path fill="#5186cd" d="M 797.527344 1310.3125 C 797.890625 1311.011719 797.902344 1311.71875 797.585938 1312.441406 C 796.808594 1312.6875 796.246094 1312.449219 795.90625 1311.71875 C 796.167969 1310.898438 796.695312 1310.449219 797.527344 1310.3125 " fill-opacity="1" fill-rule="nonzero"/><path fill="#5186cd" d="M 785.730469 1313.171875 C 783.691406 1312.824219 782.625 1312.316406 782.195312 1310.652344 C 784.042969 1310.257812 784.875 1311.089844 785.730469 1313.171875 " fill-opacity="1" fill-rule="nonzero"/><path fill="#5186cd" d="M 783.523438 1315.128906 C 782.433594 1315.140625 782.003906 1314.78125 782.050781 1313.957031 C 783.074219 1313.476562 783.457031 1313.867188 783.523438 1315.128906 " fill-opacity="1" fill-rule="nonzero"/><path fill="#5186cd" d="M 973.5 1215.820312 C 973.871094 1214.886719 974.332031 1214.59375 975.097656 1214.875 C 975.234375 1216.023438 974.683594 1216.257812 973.5 1215.820312 " fill-opacity="1" fill-rule="nonzero"/><path fill="#5186cd" d="M 974.277344 1218.632812 C 975.59375 1216.96875 976.460938 1216.023438 978.207031 1216.03125 C 977.84375 1218.363281 976.4375 1218.902344 974.277344 1218.632812 " fill-opacity="1" fill-rule="nonzero"/><path fill="#5186cd" d="M 979.332031 1209.84375 C 979.589844 1212.914062 977.9375 1211.417969 976.796875 1211.5 C 977.722656 1210.945312 978.339844 1210.070312 979.332031 1209.84375 " fill-opacity="1" fill-rule="nonzero"/><path fill="#5186cd" d="M 977.148438 1200.277344 C 976.414062 1199.953125 976.144531 1199.457031 976.28125 1198.691406 C 977.191406 1198.242188 977.53125 1198.839844 977.148438 1200.277344 " fill-opacity="1" fill-rule="nonzero"/><path fill="#5186cd" d="M 973.285156 1205.398438 C 973.523438 1204.386719 973.9375 1203.363281 974.636719 1203.082031 C 975.257812 1202.832031 976.515625 1203.261719 977.597656 1205.738281 C 976.078125 1206.964844 974.367188 1205.09375 973.039062 1206.671875 C 972.453125 1207.4375 975.109375 1207.15625 973.996094 1208.257812 C 973.164062 1209.042969 972.8125 1208.761719 972.800781 1208.132812 C 972.800781 1207.503906 972.902344 1206.457031 973.285156 1205.398438 " fill-opacity="1" fill-rule="nonzero"/><path fill="#5186cd" d="M 702.929688 1221.804688 C 703.109375 1221.140625 704.4375 1221.277344 704.933594 1221.074219 C 704.425781 1221.726562 703.75 1221.964844 702.929688 1221.804688 " fill-opacity="1" fill-rule="nonzero"/><path fill="#5186cd" d="M 710.808594 1217.824219 C 710.449219 1216.867188 710.832031 1216.675781 711.957031 1217.25 C 711.777344 1217.890625 711.394531 1218.082031 710.808594 1217.824219 " fill-opacity="1" fill-rule="nonzero"/><path fill="#5186cd" d="M 716 1216.855469 C 717.40625 1218.105469 716.269531 1220.074219 717.957031 1221.074219 C 718.847656 1221.421875 717.847656 1219.058594 719.117188 1219.746094 C 722.992188 1221.792969 709.933594 1222.246094 716 1216.855469 " fill-opacity="1" fill-rule="nonzero"/><path fill="#5186cd" d="M 718.230469 1214.367188 C 719.972656 1213.117188 719.839844 1215.042969 720.4375 1216.03125 C 719.613281 1215.449219 718.804688 1215.246094 718.230469 1214.367188 " fill-opacity="1" fill-rule="nonzero"/><path fill="#5186cd" d="M 723.53125 1215.75 C 724.117188 1214.953125 724.601562 1215.222656 725.140625 1216.359375 C 724.296875 1216.6875 723.824219 1216.515625 723.53125 1215.75 " fill-opacity="1" fill-rule="nonzero"/><path fill="#5186cd" d="M 722.304688 1212.679688 C 723.644531 1211.699219 724.667969 1212.207031 726.109375 1213.871094 C 724.386719 1214.1875 723.316406 1214.042969 722.304688 1212.679688 " fill-opacity="1" fill-rule="nonzero"/><path fill="#5186cd" d="M 733.855469 1209.921875 C 733.820312 1209.089844 734.125 1208.527344 734.777344 1208.234375 C 735.261719 1208.84375 735.476562 1209.507812 735.410156 1210.25 C 734.855469 1210.664062 734.339844 1210.554688 733.855469 1209.921875 " fill-opacity="1" fill-rule="nonzero"/><path fill="#5186cd" d="M 739.609375 1210.96875 C 741.082031 1211.644531 742.050781 1212.003906 742.816406 1212.9375 C 740.746094 1213.589844 740.746094 1213.589844 739.609375 1210.96875 " fill-opacity="1" fill-rule="nonzero"/><path fill="#5186cd" d="M 753.363281 1200.785156 C 754.421875 1201.066406 754.308594 1201.640625 754.34375 1202.304688 C 753.253906 1202.023438 753.398438 1201.4375 753.363281 1200.785156 " fill-opacity="1" fill-rule="nonzero"/><path fill="#5186cd" d="M 756.054688 1202.359375 C 756.121094 1201.617188 756.460938 1201.414062 757.125 1201.785156 C 757.070312 1202.550781 756.707031 1202.730469 756.054688 1202.359375 " fill-opacity="1" fill-rule="nonzero"/><path fill="#5186cd" d="M 777.613281 1194.71875 C 778.414062 1193.335938 779.28125 1193.839844 780.339844 1193.953125 C 779.484375 1195.058594 778.671875 1194.84375 777.613281 1194.71875 " fill-opacity="1" fill-rule="nonzero"/><path fill="#5186cd" d="M 780.753906 1190.027344 C 783.34375 1189.476562 783.511719 1189.542969 784.695312 1191.917969 C 783.433594 1191.253906 781.871094 1191.511719 780.753906 1190.027344 " fill-opacity="1" fill-rule="nonzero"/><path fill="#5186cd" d="M 788.546875 1190.476562 C 787.691406 1190.996094 787.082031 1190.691406 786.699219 1189.554688 C 787.890625 1187.664062 788.949219 1190.171875 788.546875 1190.476562 " fill-opacity="1" fill-rule="nonzero"/><path fill="#5186cd" d="M 789.851562 1194.066406 C 789.75 1193.15625 790.289062 1193.097656 791.125 1193.144531 C 790.910156 1193.933594 790.730469 1194.449219 789.851562 1194.066406 " fill-opacity="1" fill-rule="nonzero"/><path fill="#5186cd" d="M 795.988281 1188.574219 C 796.707031 1187.832031 797.609375 1187.867188 798.621094 1187.933594 C 797.675781 1189.789062 797.6875 1189.789062 795.988281 1188.574219 " fill-opacity="1" fill-rule="nonzero"/><path fill="#5186cd" d="M 806.792969 1188.933594 C 806.582031 1187.707031 807.289062 1187.078125 808.179688 1185.988281 C 808.359375 1187.957031 808.210938 1188.945312 806.792969 1188.933594 " fill-opacity="1" fill-rule="nonzero"/><path fill="#5186cd" d="M 817.839844 1182.441406 C 816.871094 1181.292969 817.242188 1180.699219 818.558594 1180.214844 C 819.007812 1181.472656 818.894531 1182.171875 817.839844 1182.441406 " fill-opacity="1" fill-rule="nonzero"/><path fill="#5186cd" d="M 822.542969 1182.386719 C 822.804688 1181.6875 823.21875 1181.171875 823.769531 1180.808594 C 823.769531 1180.808594 824.222656 1186 822.542969 1182.386719 " fill-opacity="1" fill-rule="nonzero"/><path fill="#5186cd" d="M 839.171875 1182.375 C 838.453125 1180.574219 840.613281 1182.824219 840.511719 1182.667969 C 840.0625 1182.644531 839.609375 1182.53125 839.171875 1182.375 " fill-opacity="1" fill-rule="nonzero"/><path fill="#5186cd" d="M 856.578125 1174.8125 C 857.195312 1174.035156 857.679688 1174.148438 858.039062 1175.171875 C 857.5 1176.074219 857.015625 1175.949219 856.578125 1174.8125 " fill-opacity="1" fill-rule="nonzero"/><path fill="#5186cd" d="M 860.121094 1173.394531 C 860.707031 1172.898438 861.160156 1172.976562 861.472656 1173.640625 C 861.878906 1175.273438 860.121094 1173.394531 860.121094 1173.394531 " fill-opacity="1" fill-rule="nonzero"/><path fill="#5186cd" d="M 970.257812 1192.367188 C 969.324219 1192.097656 968.703125 1191.546875 968.34375 1190.625 C 969.097656 1190.542969 969.785156 1191.953125 970.257812 1192.367188 " fill-opacity="1" fill-rule="nonzero"/><path fill="#5186cd" d="M 968.199219 1226.691406 C 968.445312 1227.511719 968.242188 1228.175781 967.601562 1228.683594 C 966.960938 1228.253906 966.597656 1227.636719 966.496094 1226.882812 C 966.96875 1226.320312 967.523438 1226.261719 968.199219 1226.691406 " fill-opacity="1" fill-rule="nonzero"/><path fill="#5186cd" d="M 962.097656 1227.21875 C 960.519531 1226.824219 959.527344 1226.601562 958.640625 1225.777344 C 960.519531 1224.867188 960.496094 1224.832031 962.097656 1227.21875 " fill-opacity="1" fill-rule="nonzero"/><path fill="#5186cd" d="M 948.867188 1238.539062 C 947.789062 1238.292969 947.886719 1237.71875 947.832031 1237.054688 C 948.945312 1237.289062 948.8125 1237.875 948.867188 1238.539062 " fill-opacity="1" fill-rule="nonzero"/><path fill="#5186cd" d="M 946.121094 1237.066406 C 946.074219 1237.808594 945.75 1238.035156 945.074219 1237.683594 C 945.109375 1236.917969 945.457031 1236.714844 946.121094 1237.066406 " fill-opacity="1" fill-rule="nonzero"/><path fill="#5186cd" d="M 924.609375 1245.011719 C 923.796875 1246.371094 922.941406 1245.886719 921.882812 1245.777344 C 922.726562 1244.671875 923.539062 1244.863281 924.609375 1245.011719 " fill-opacity="1" fill-rule="nonzero"/><path fill="#5186cd" d="M 921.476562 1249.703125 C 918.886719 1250.265625 918.71875 1250.199219 917.527344 1247.824219 C 918.796875 1248.488281 920.363281 1248.21875 921.476562 1249.703125 " fill-opacity="1" fill-rule="nonzero"/><path fill="#5186cd" d="M 913.6875 1249.285156 C 914.542969 1248.78125 915.164062 1249.082031 915.542969 1250.210938 C 914.363281 1252.101562 913.292969 1249.589844 913.6875 1249.285156 " fill-opacity="1" fill-rule="nonzero"/><path fill="#5186cd" d="M 912.371094 1245.707031 C 912.472656 1246.621094 911.941406 1246.664062 911.109375 1246.628906 C 911.3125 1245.84375 911.492188 1245.324219 912.371094 1245.707031 " fill-opacity="1" fill-rule="nonzero"/><path fill="#5186cd" d="M 906.289062 1251.253906 C 905.582031 1252.011719 904.667969 1251.976562 903.667969 1251.910156 C 904.589844 1250.050781 904.578125 1250.0625 906.289062 1251.253906 " fill-opacity="1" fill-rule="nonzero"/><path fill="#5186cd" d="M 895.484375 1251.074219 C 895.730469 1252.300781 895.03125 1252.921875 894.175781 1254.046875 C 893.941406 1252.089844 894.066406 1251.085938 895.484375 1251.074219 " fill-opacity="1" fill-rule="nonzero"/><path fill="#5186cd" d="M 884.730469 1257.996094 C 885.757812 1259.089844 885.417969 1259.707031 884.148438 1260.246094 C 883.628906 1259.019531 883.707031 1258.300781 884.730469 1257.996094 " fill-opacity="1" fill-rule="nonzero"/><path fill="#5186cd" d="M 880.058594 1258.277344 C 879.847656 1258.988281 879.484375 1259.539062 878.957031 1259.941406 C 878.957031 1259.941406 878.15625 1254.777344 880.058594 1258.277344 " fill-opacity="1" fill-rule="nonzero"/><path fill="#5186cd" d="M 863.554688 1259.761719 C 864.46875 1261.460938 862.070312 1259.472656 862.183594 1259.640625 C 862.632812 1259.59375 863.09375 1259.640625 863.554688 1259.761719 " fill-opacity="1" fill-rule="nonzero"/><path fill="#5186cd" d="M 847.605469 1269.746094 C 847.152344 1270.632812 846.660156 1270.613281 846.128906 1269.667969 C 846.488281 1268.6875 846.972656 1268.710938 847.605469 1269.746094 " fill-opacity="1" fill-rule="nonzero"/><path fill="#5186cd" d="M 844.472656 1271.804688 C 844.023438 1272.402344 843.574219 1272.410156 843.132812 1271.828125 C 842.425781 1270.308594 844.472656 1271.804688 844.472656 1271.804688 " fill-opacity="1" fill-rule="nonzero"/><path fill="#5186cd" d="M 763.597656 1308.039062 C 764.328125 1307.78125 764.003906 1308.410156 764.25 1308.511719 C 763.621094 1308.703125 763.292969 1308.5 763.597656 1308.039062 " fill-opacity="1" fill-rule="nonzero"/><path fill="#5186cd" d="M 778.628906 1312.855469 C 778.074219 1311.988281 777.355469 1311.4375 777.242188 1310.371094 C 779.617188 1310.066406 778.539062 1311.695312 778.628906 1312.855469 " fill-opacity="1" fill-rule="nonzero"/><path fill="#5186cd" d="M 773.71875 1311.394531 C 774.417969 1313.183594 772.0625 1314.296875 773.210938 1316.019531 C 773.957031 1316.785156 774.28125 1314.230469 775.226562 1315.46875 C 776.726562 1317.335938 773.832031 1316.738281 771.917969 1315.367188 C 770.003906 1313.878906 769.226562 1311.957031 773.71875 1311.394531 " fill-opacity="1" fill-rule="nonzero"/><path fill="#5186cd" d="M 768.328125 1309.199219 C 768.617188 1308.242188 769.046875 1308.320312 769.710938 1309.425781 C 769.160156 1309.828125 768.664062 1309.804688 768.328125 1309.199219 " fill-opacity="1" fill-rule="nonzero"/></svg>