<svg xmlns="http://www.w3.org/2000/svg" xmlns:xlink="http://www.w3.org/1999/xlink" width="6912" zoomAndPan="magnify" viewBox="0 0 5184 2592.000001" height="3456" preserveAspectRatio="xMidYMid meet" version="1.0"><defs><g/></defs><g fill="#fef9ef" fill-opacity="1"><g transform="translate(1009.716289, 1063.526938)"><g><path d="M 143.914062 -116.476562 C 133.066406 -118.359375 122.683594 -120.730469 111.636719 -123.183594 C 106.78125 -124.324219 101.636719 -125.367188 96.78125 -126.511719 L 91.640625 -127.554688 L 94.878906 -131.882812 C 97.386719 -134.679688 99.515625 -137.660156 101.742188 -140.355469 C 106.195312 -145.75 110.363281 -151.042969 113.871094 -156.421875 C 128.902344 -179.554688 129.429688 -202.328125 116.320312 -224.09375 C 102.042969 -247.351562 80.023438 -258.324219 53.046875 -255.457031 C 27.582031 -252.804688 5.648438 -243.769531 -11.804688 -228.367188 C -13.300781 -227.199219 -17.507812 -223.800781 -22.246094 -223.714844 C -27.371094 -223.808594 -31.628906 -223.257812 -34.738281 -222.15625 C -37.566406 -221.15625 -39.808594 -219.40625 -41.386719 -217.574219 C -44.828125 -213.8125 -45.753906 -207.441406 -44.546875 -198.640625 C -34.742188 -134.992188 -19.304688 -79.695312 2.667969 -30.210938 C 8.21875 -17.222656 18.953125 -11.164062 29.796875 -14.683594 C 41.203125 -18.402344 45.652344 -29.203125 42.542969 -43.371094 C 40.972656 -51.40625 38.738281 -59.519531 36.683594 -68.019531 L 32.574219 -85.015625 L 37.234375 -84.4375 C 38.949219 -84.089844 40.5625 -84.027344 41.890625 -83.859375 C 44.554688 -83.53125 46.832031 -83.382812 48.929688 -82.851562 C 56.347656 -81.660156 63.585938 -80.085938 70.824219 -78.515625 C 84.632812 -75.449219 98.726562 -72.484375 112.71875 -69.804688 C 123.28125 -67.816406 134.128906 -65.929688 144.359375 -66.6875 C 158.382812 -67.515625 168.984375 -78.902344 168.820312 -92.84375 C 168.425781 -109.246094 155.046875 -114.6875 143.914062 -116.476562 Z M 17.898438 -145.351562 L 14.140625 -143.386719 L 13.023438 -147.445312 C 12.386719 -151.035156 11.085938 -154.710938 9.601562 -158.003906 C 5.898438 -168.464844 1.816406 -179.105469 10.601562 -191.125 C 21.902344 -205.941406 37.980469 -213.539062 58.839844 -213.925781 C 65.476562 -214.046875 70.550781 -211.390625 72.820312 -206.785156 C 75.566406 -201.714844 74.742188 -195.058594 70.390625 -189.382812 C 57.449219 -171.125 40.261719 -156.769531 17.898438 -145.351562 Z M 17.898438 -145.351562 "/></g></g></g><g fill="#fef9ef" fill-opacity="1"><g transform="translate(1190.804125, 999.537917)"><g><path d="M 111.0625 -91.324219 C 107.140625 -89.792969 103.398438 -87.6875 99.746094 -85.296875 C 96.949219 -83.175781 93.78125 -81.246094 90.808594 -79.695312 C 78.257812 -73.601562 66.957031 -68.523438 56.253906 -64.570312 C 53.765625 -63.484375 50.566406 -64.6875 49.0625 -65.476562 C 47.5625 -66.265625 44.648438 -67.5625 43.847656 -70.136719 C 40.785156 -77.980469 38.207031 -86.285156 35.714844 -94.304688 C 34.828125 -97.167969 33.9375 -100.03125 33.136719 -102.609375 L 32.160156 -105.757812 L 35.308594 -106.738281 C 40.660156 -108.714844 46.015625 -110.691406 51.367188 -112.667969 C 64.363281 -117.328125 76.785156 -121.816406 89.03125 -126.875 C 94.867188 -129.316406 101.117188 -133.453125 106.726562 -138.648438 C 111.367188 -142.917969 115.691406 -150.226562 112.183594 -159.5 C 108.835938 -167.25 102.1875 -171.46875 93.921875 -170.785156 C 84.421875 -170.03125 73.933594 -167.402344 63.605469 -163.253906 C 55.566406 -159.816406 47.507812 -155.429688 39.164062 -150.953125 C 35.417969 -148.851562 31.675781 -146.746094 27.558594 -144.839844 L 24.015625 -143.109375 L 19.65625 -157.144531 C 17.34375 -164.589844 15.121094 -171.75 13.183594 -178.996094 C 10.871094 -186.445312 9.714844 -190.167969 11.492188 -193.546875 C 13.359375 -196.636719 17.082031 -197.792969 24.328125 -199.730469 L 31.953125 -201.46875 C 43.875 -204.542969 56.082031 -207.707031 67.644531 -211.925781 C 85.90625 -218.851562 94.929688 -233.273438 89.910156 -247.414062 C 87.953125 -253.714844 83.222656 -258.839844 77.019531 -261.621094 C 70.066406 -264.800781 61.730469 -265.355469 53.136719 -262.683594 C 52.277344 -262.417969 51.417969 -262.152344 50.847656 -261.972656 C 33.160156 -255.226562 15.628906 -246.957031 -1.039062 -238.953125 L -13.105469 -233.320312 C -17.222656 -231.414062 -21.382812 -227.613281 -24.480469 -224.453125 C -34.179688 -214.21875 -36.074219 -205.152344 -30.402344 -194.980469 C -29.40625 -192.777344 -28.890625 -190.109375 -28.753906 -187.640625 L -28.308594 -186.210938 C -27.25 -177.746094 -26.386719 -168.90625 -25.242188 -160.15625 C -22.769531 -142.085938 -20.691406 -123.261719 -17.46875 -104.792969 C -14.128906 -82.90625 -9.144531 -57.765625 4.824219 -36.039062 C 15.757812 -19.023438 30.398438 -11.324219 48.359375 -13.132812 C 79.15625 -16.101562 105.097656 -27.613281 125.707031 -47.199219 C 130.347656 -51.46875 134.257812 -57.078125 137.128906 -62.992188 C 141.492188 -72.199219 140.808594 -80.464844 134.6875 -87.042969 C 127.078125 -95.355469 117.46875 -93.941406 111.0625 -91.324219 Z M 111.0625 -91.324219 "/></g></g></g><g fill="#fef9ef" fill-opacity="1"><g transform="translate(1343.806856, 951.797941)"><g><path d="M 136.1875 -111.863281 C 122.066406 -137.546875 98.28125 -151.910156 63.644531 -155.871094 C 51.390625 -157.515625 38.953125 -160.972656 27.175781 -164.300781 L 19.707031 -166.625 C 15.027344 -167.839844 12.136719 -170.472656 11.195312 -173.945312 C 10.171875 -177.707031 11.625 -181.519531 15.046875 -184.9375 C 20.890625 -190.875 28.105469 -197.492188 36.316406 -201.585938 C 53.949219 -211.035156 72.886719 -209.960938 85.71875 -208.472656 C 90.898438 -207.703125 94.664062 -208.726562 96.296875 -210.722656 C 98.640625 -213.535156 98.039062 -218.03125 96.808594 -221.425781 C 95.183594 -226.269531 92.320312 -231.085938 88.617188 -234.429688 C 79.34375 -243.410156 67.328125 -247.605469 53.148438 -247.175781 C 21.164062 -245.949219 -4.597656 -232.117188 -23.066406 -206.285156 C -32.472656 -192.855469 -36.09375 -177.578125 -32.820312 -163.238281 C -29.839844 -148.824219 -20.121094 -135.921875 -5.769531 -127.699219 C 14.914062 -115.605469 35.554688 -109.398438 57.460938 -108.824219 C 68.089844 -108.601562 79.472656 -106.71875 87.695312 -95.898438 L 90.003906 -93.109375 L 81.164062 -87.910156 C 70.527344 -81.296875 59.035156 -81.28125 47.832031 -81.347656 C 44.992188 -81.507812 42.230469 -81.382812 39.464844 -81.253906 C 36.335938 -81.335938 33.363281 -80.839844 30.757812 -80.132812 C 20.628906 -77.382812 13.417969 -70.761719 10.90625 -61.691406 C 7.789062 -50.28125 13.640625 -37.886719 25.652344 -30.269531 C 36.925781 -23.078125 54.171875 -15.640625 72.171875 -21.457031 C 92.191406 -27.828125 108.5625 -35.066406 121.40625 -43.835938 C 144.515625 -59.433594 150.308594 -86.175781 136.1875 -111.863281 Z M 136.1875 -111.863281 "/></g></g></g><g fill="#fef9ef" fill-opacity="1"><g transform="translate(1500.69978, 908.163301)"><g><path d="M 212.160156 -95.359375 C 205.832031 -101.621094 197.792969 -103.191406 188.988281 -99.984375 C 183.269531 -98.082031 177.585938 -94.652344 172.710938 -91.710938 C 149.101562 -77.792969 120.121094 -64.515625 84.742188 -72.847656 C 55.15625 -80.027344 35.257812 -102.90625 34.402344 -131.300781 C 34.1875 -140.472656 34.253906 -152.476562 38.0625 -162.863281 C 55.308594 -211.925781 82.746094 -230.699219 127.097656 -223.460938 C 133.117188 -222.664062 138.421875 -222.316406 142.941406 -222.71875 C 148.925781 -223.449219 153.503906 -226.324219 155.507812 -231.078125 C 157.285156 -235.476562 156.460938 -240.515625 153 -244.960938 C 149.117188 -249.929688 143.480469 -254.5 136.507812 -258.15625 C 118.105469 -267.542969 97.054688 -269.570312 77.160156 -265.097656 C 59.898438 -261.214844 43.464844 -252.292969 30.195312 -238.859375 C 1.125 -209.574219 -13.851562 -176.390625 -15.15625 -139.828125 C -16.59375 -91.554688 1.484375 -56.277344 38.292969 -34.738281 C 65.917969 -18.511719 99.109375 -13.070312 136.632812 -18.433594 C 161.464844 -25.554688 182.808594 -35.886719 201.996094 -50.347656 C 207.773438 -54.71875 213.121094 -62.378906 217.488281 -71.660156 C 221.175781 -79.863281 219.203125 -88.640625 212.160156 -95.359375 Z M 212.160156 -95.359375 "/></g></g></g><g fill="#fef9ef" fill-opacity="1"><g transform="translate(1726.796027, 857.433501)"><g><path d="M 155.742188 -240.691406 C 151.097656 -248.097656 143.824219 -251.390625 135.152344 -250.480469 C 125.597656 -249.414062 119.179688 -244.335938 116.738281 -235.6875 C 114.523438 -229.210938 113.644531 -222.054688 114.050781 -214.511719 C 114.164062 -206.921875 114.917969 -199.136719 115.621094 -191.648438 C 116.527344 -182.980469 117.488281 -174.015625 117.5625 -164.894531 L 117.75 -160.359375 C 118.261719 -140.050781 118.582031 -119.101562 116.433594 -98.328125 C 115.429688 -88.410156 111.199219 -81.273438 104.578125 -77.375 C 97.414062 -73.078125 87.652344 -73.195312 76.816406 -77.691406 C 59.992188 -85.09375 48.839844 -98.363281 43.707031 -117.253906 C 41.613281 -125.71875 39.175781 -134.421875 37.085938 -142.886719 C 33.578125 -155.972656 30.015625 -169.351562 26.210938 -182.386719 C 23.566406 -192.273438 20.691406 -199.992188 17.382812 -206.71875 C 13.171875 -215.117188 5.449219 -219.242188 -2.71875 -217.203125 C -10.886719 -215.164062 -15.722656 -209.75 -16.777344 -200.128906 C -17.339844 -196.375 -17.65625 -192.972656 -17.433594 -189.964844 C -16.082031 -175.285156 -14.726562 -160.605469 -13.617188 -145.578125 L -12.398438 -135.132812 L -11.511719 -135.289062 L -10.996094 -132.335938 C -10.53125 -129.675781 -10.066406 -127.019531 -9.597656 -124.359375 C -8.667969 -119.042969 -7.683594 -113.429688 -6.457031 -108.164062 C 1.691406 -70.320312 23.300781 -44.265625 57.382812 -30.445312 C 78.949219 -22.046875 101.429688 -22.328125 120.777344 -31.804688 C 140.125 -41.28125 154.132812 -58.652344 160.65625 -80.496094 C 163.675781 -91.074219 166.296875 -102.1875 166.308594 -112.542969 C 165.988281 -145.667969 165.0625 -180.519531 162.894531 -222.457031 C 162.65625 -227.289062 160.335938 -233.578125 155.742188 -240.691406 Z M 155.742188 -240.691406 "/></g></g></g><g fill="#fef9ef" fill-opacity="1"><g transform="translate(1923.609289, 823.155454)"><g><path d="M 124.746094 -71.503906 C 120.625 -70.648438 116.585938 -69.199219 112.582031 -67.453125 C 109.472656 -65.824219 106.027344 -64.453125 102.835938 -63.421875 C 89.445312 -59.503906 77.457031 -56.382812 66.242188 -54.273438 C 63.605469 -53.617188 60.652344 -55.339844 59.304688 -56.367188 C 57.957031 -57.398438 55.300781 -59.160156 54.941406 -61.835938 C 53.230469 -70.078125 52.074219 -78.695312 50.957031 -87.019531 C 50.558594 -89.992188 50.160156 -92.964844 49.800781 -95.636719 L 49.359375 -98.90625 L 52.628906 -99.347656 C 58.238281 -100.402344 63.84375 -101.457031 69.453125 -102.511719 C 83.042969 -104.941406 96.042969 -107.289062 108.960938 -110.234375 C 115.121094 -111.664062 121.976562 -114.703125 128.375 -118.890625 C 133.664062 -122.320312 139.144531 -128.808594 137.234375 -138.535156 C 135.226562 -146.738281 129.378906 -152.003906 121.113281 -152.710938 C 111.621094 -153.554688 100.839844 -152.714844 89.960938 -150.347656 C 81.460938 -148.296875 72.785156 -145.320312 63.8125 -142.300781 C 59.769531 -140.847656 55.726562 -139.398438 51.347656 -138.207031 L 47.566406 -137.09375 L 45.609375 -151.65625 C 44.574219 -159.386719 43.578125 -166.816406 42.878906 -174.285156 C 41.839844 -182.011719 41.320312 -185.878906 43.636719 -188.910156 C 45.992188 -191.648438 49.859375 -192.167969 57.328125 -192.867188 L 65.136719 -193.308594 C 77.402344 -194.347656 89.964844 -195.429688 102.070312 -197.660156 C 121.230469 -201.441406 132.535156 -214.152344 129.945312 -228.933594 C 129.070312 -235.472656 125.261719 -241.316406 119.609375 -245.097656 C 113.285156 -249.390625 105.15625 -251.328125 96.242188 -250.128906 C 95.347656 -250.011719 94.457031 -249.890625 93.863281 -249.8125 C 75.296875 -246.109375 56.632812 -240.882812 38.863281 -235.773438 L 26.023438 -232.238281 C 21.644531 -231.042969 16.914062 -227.988281 13.328125 -225.390625 C 2.058594 -216.917969 -1.324219 -208.292969 2.570312 -197.320312 C 3.1875 -194.980469 3.25 -192.265625 2.972656 -189.808594 L 3.171875 -188.324219 C 2.804688 -179.800781 2.175781 -170.941406 1.847656 -162.125 C 1.265625 -143.890625 0.171875 -124.984375 0.269531 -106.238281 C -0.0898438 -84.101562 0.625 -58.480469 10.769531 -34.726562 C 18.714844 -16.125 31.859375 -6.089844 49.875 -4.875 C 80.730469 -2.664062 108.230469 -9.679688 131.820312 -25.554688 C 137.109375 -28.988281 141.902344 -33.867188 145.722656 -39.21875 C 151.558594 -47.566406 152.265625 -55.832031 147.324219 -63.339844 C 141.214844 -72.804688 131.503906 -73.015625 124.746094 -71.503906 Z M 124.746094 -71.503906 "/></g></g></g><g fill="#fef9ef" fill-opacity="1"><g transform="translate(2083.417006, 802.150187)"><g/></g></g><g fill="#fef9ef" fill-opacity="1"><g transform="translate(2159.193449, 793.009962)"><g><path d="M 152.5 -233.175781 C 150.058594 -233.589844 147.621094 -234 144.90625 -234.09375 C 134.648438 -234.5 124.4375 -234.3125 114.273438 -233.527344 C 93.640625 -231.929688 73.171875 -228.242188 53.328125 -224.296875 C 40.859375 -222.128906 28.121094 -219.640625 15.332031 -217.75 C 15.035156 -217.726562 14.757812 -217.402344 14.160156 -217.355469 L 13.285156 -216.988281 C 1.007812 -212.429688 -5.292969 -204.421875 -3.882812 -194.003906 C -2.820312 -184.160156 4.585938 -177.816406 17.375 -175.796875 C 20.414062 -175.429688 23.425781 -175.363281 26.738281 -175.320312 C 33.683594 -174.953125 40.605469 -174.886719 47.53125 -174.824219 L 57.488281 -174.390625 L 58.179688 -169.332031 C 58.296875 -167.835938 58.390625 -166.640625 58.503906 -165.144531 C 59.316406 -154.679688 59.824219 -144.191406 60.335938 -133.703125 C 61.730469 -107.945312 63.464844 -81.609375 65.480469 -55.597656 C 66.195312 -46.328125 68.777344 -36.300781 73.082031 -27.3125 C 77.386719 -18.320312 85.875 -13.5625 96.640625 -14.394531 C 107.105469 -15.207031 114.761719 -21.210938 117.585938 -31.355469 C 119.996094 -39.0625 120.867188 -47.25 120.011719 -54.402344 C 117.886719 -74.089844 114.289062 -93.363281 111.222656 -109.667969 C 108.25 -124.777344 104.976562 -139.867188 101.65625 -155.550781 C 99.90625 -162.632812 98.429688 -170.039062 96.957031 -177.445312 L 96.082031 -180.984375 L 123.585938 -183.113281 C 126.578125 -183.347656 129.566406 -183.578125 132.582031 -183.507812 C 138.859375 -183.996094 145.734375 -184.527344 151.992188 -185.3125 C 164.753906 -187.503906 173.652344 -196.914062 173.921875 -208.964844 C 173.917969 -220.695312 165.65625 -230.285156 152.5 -233.175781 Z M 152.5 -233.175781 "/></g></g></g><g fill="#fef9ef" fill-opacity="1"><g transform="translate(2348.39747, 777.933489)"><g><path d="M 205.902344 -34.132812 C 201.515625 -84.996094 196.730469 -138.84375 191.132812 -198.96875 C 190.238281 -207.941406 188.769531 -215.996094 186.722656 -223.429688 C 185.015625 -229.671875 180.089844 -233.410156 173.476562 -233.789062 C 165.042969 -234.710938 160.417969 -229.457031 158.167969 -224.882812 C 156.492188 -221.226562 155.132812 -216.980469 154.671875 -212.761719 C 153.761719 -204.03125 153.449219 -195.320312 153.109375 -187.507812 C 152.816406 -178.195312 152.816406 -169.195312 152.523438 -159.882812 L 152.152344 -143.96875 L 50.246094 -140.589844 L 48.929688 -153.148438 C 48.472656 -157.933594 48.011719 -162.71875 47.246094 -167.792969 C 46.277344 -178.863281 45.300781 -190.234375 43.433594 -201.273438 C 41.886719 -211.722656 35.375 -218.109375 26.363281 -218.410156 C 17.351562 -218.710938 10.375 -211.878906 8.328125 -201.308594 C 6.855469 -191.359375 4.566406 -178.980469 5.542969 -167.609375 C 8.851562 -122.113281 13.179688 -73.050781 19.074219 -12.933594 C 20.0625 -1.265625 27.523438 6.589844 37.414062 6.261719 C 37.714844 6.25 37.714844 6.25 37.714844 6.25 C 47.59375 5.621094 53.929688 -2.386719 54.710938 -15.015625 C 54.890625 -18.625 54.753906 -22.820312 54.632812 -26.414062 L 54.59375 -27.613281 C 54.195312 -39.601562 53.488281 -51.882812 53.082031 -64.171875 L 52.09375 -84.839844 C 52.015625 -87.238281 51.9375 -89.636719 51.835938 -92.632812 L 51.589844 -100.125 L 154.09375 -103.527344 L 154.03125 -96.324219 C 154.121094 -93.625 154.210938 -90.929688 154.597656 -88.242188 C 154.777344 -82.84375 155.257812 -77.460938 155.4375 -72.066406 C 156.523438 -57.398438 157.628906 -42.132812 159.324219 -27.1875 C 160.152344 -20.3125 162.808594 -12.601562 166.945312 -5.535156 C 171.410156 2.417969 178.730469 6.074219 187.980469 4.566406 C 196.933594 3.070312 203.050781 -2.53125 204.859375 -11.292969 C 206.140625 -17.9375 206.480469 -25.75 205.902344 -34.132812 Z M 205.902344 -34.132812 "/></g></g></g><g fill="#fef9ef" fill-opacity="1"><g transform="translate(2555.486337, 771.328644)"><g><path d="M 133.558594 -53.261719 C 129.359375 -52.992188 125.152344 -52.125 120.945312 -50.957031 C 117.636719 -49.785156 114.03125 -48.910156 110.730469 -48.335938 C 96.917969 -46.34375 84.613281 -44.9375 73.214844 -44.425781 C 70.511719 -44.144531 67.828125 -46.265625 66.640625 -47.472656 C 65.449219 -48.683594 63.066406 -50.800781 63.085938 -53.5 C 62.550781 -61.898438 62.617188 -70.597656 62.679688 -78.992188 C 62.703125 -81.992188 62.726562 -84.992188 62.746094 -87.691406 L 62.773438 -90.988281 L 66.070312 -90.964844 C 71.769531 -91.21875 77.472656 -91.476562 83.171875 -91.730469 C 96.96875 -92.226562 110.167969 -92.726562 123.371094 -93.824219 C 129.675781 -94.375 136.886719 -96.421875 143.808594 -99.667969 C 149.527344 -102.320312 155.867188 -107.972656 155.34375 -117.871094 C 154.507812 -126.273438 149.457031 -132.3125 141.375 -134.171875 C 132.09375 -136.34375 121.304688 -137.023438 110.199219 -136.210938 C 101.496094 -135.375 92.488281 -133.644531 83.179688 -131.917969 C 78.972656 -131.050781 74.769531 -130.183594 70.265625 -129.617188 L 66.363281 -129.046875 L 66.472656 -143.742188 C 66.535156 -151.539062 66.589844 -159.035156 66.949219 -166.527344 C 67.007812 -174.324219 67.039062 -178.222656 69.757812 -180.902344 C 72.472656 -183.28125 76.371094 -183.25 83.867188 -182.894531 L 91.660156 -182.234375 C 103.949219 -181.542969 116.539062 -180.84375 128.839844 -181.351562 C 148.339844 -182.402344 161.320312 -193.398438 160.835938 -208.398438 C 160.882812 -214.996094 157.933594 -221.316406 152.871094 -225.851562 C 147.210938 -230.992188 139.4375 -234.050781 130.441406 -234.121094 C 129.542969 -234.128906 128.640625 -234.132812 128.042969 -234.136719 C 109.140625 -233.082031 89.929688 -230.53125 71.617188 -227.972656 L 58.40625 -226.273438 C 53.90625 -225.707031 48.789062 -223.347656 44.875 -221.277344 C 32.527344 -214.476562 27.964844 -206.414062 30.277344 -195 C 30.558594 -192.597656 30.238281 -189.902344 29.621094 -187.507812 L 29.609375 -186.007812 C 28.046875 -177.621094 26.179688 -168.941406 24.613281 -160.253906 C 21.480469 -142.285156 17.738281 -123.71875 15.199219 -105.144531 C 11.730469 -83.28125 8.839844 -57.8125 15.546875 -32.871094 C 20.792969 -13.335938 32.398438 -1.550781 50.066406 2.179688 C 80.304688 8.710938 108.519531 5.625 134.105469 -6.773438 C 139.820312 -9.429688 145.253906 -13.585938 149.785156 -18.347656 C 156.742188 -25.792969 158.601562 -33.875 154.765625 -42.003906 C 150.046875 -52.234375 140.460938 -53.808594 133.558594 -53.261719 Z M 133.558594 -53.261719 "/></g></g></g><g fill="#fef9ef" fill-opacity="1"><g transform="translate(2716.659956, 772.993087)"><g/></g></g><g fill="#fef9ef" fill-opacity="1"><g transform="translate(2792.55866, 774.05529)"><g><path d="M 230.554688 -30.800781 C 226.28125 -38.605469 219.027344 -42.410156 209.671875 -41.847656 C 203.644531 -41.660156 197.21875 -39.996094 191.710938 -38.570312 C 165.109375 -31.976562 133.542969 -27.523438 102.015625 -45.613281 C 75.714844 -60.941406 63.175781 -88.554688 70.46875 -116.007812 C 72.878906 -124.863281 76.371094 -136.34375 82.988281 -145.210938 C 113.527344 -187.304688 145.183594 -197.460938 185.621094 -177.859375 C 191.164062 -175.375 196.144531 -173.53125 200.59375 -172.625 C 206.535156 -171.617188 211.746094 -173.0625 215.023438 -177.046875 C 217.980469 -180.75 218.628906 -185.816406 216.585938 -191.066406 C 214.28125 -196.9375 210.183594 -202.929688 204.546875 -208.421875 C 189.59375 -222.675781 170 -230.628906 149.652344 -232.023438 C 132 -233.230469 113.703125 -229.375 97.148438 -220.289062 C 60.925781 -200.527344 37.097656 -173 25.40625 -138.332031 C 10.242188 -92.480469 17.492188 -53.507812 46.621094 -22.355469 C 68.460938 1.082031 98.714844 15.777344 136.207031 21.351562 C 162.039062 21.621094 185.445312 17.8125 207.960938 9.433594 C 214.75 6.894531 222.058594 1.082031 228.894531 -6.566406 C 234.773438 -13.375 235.386719 -22.351562 230.554688 -30.800781 Z M 230.554688 -30.800781 "/></g></g></g><g fill="#fef9ef" fill-opacity="1"><g transform="translate(3023.658592, 789.90929)"><g><path d="M 208.691406 -2.933594 C 211.964844 -53.878906 215.292969 -107.839844 218.757812 -168.125 C 219.214844 -177.128906 218.96875 -185.3125 218.058594 -192.96875 C 217.304688 -199.398438 212.992188 -203.828125 206.511719 -205.195312 C 198.3125 -207.367188 192.949219 -202.863281 190.042969 -198.675781 C 187.835938 -195.3125 185.855469 -191.320312 184.769531 -187.21875 C 182.5625 -178.722656 180.953125 -170.15625 179.445312 -162.480469 C 177.765625 -153.320312 176.414062 -144.417969 174.734375 -135.257812 L 171.984375 -119.578125 L 70.722656 -131.484375 L 71.296875 -144.101562 C 71.5625 -148.902344 71.824219 -153.699219 71.824219 -158.832031 C 72.523438 -169.921875 73.257812 -181.3125 73.066406 -192.507812 C 73.101562 -203.070312 67.617188 -210.359375 58.75 -212.003906 C 49.886719 -213.652344 41.96875 -207.941406 38.359375 -197.796875 C 35.417969 -188.175781 31.300781 -176.28125 30.566406 -164.894531 C 27.027344 -119.414062 23.964844 -70.253906 20.796875 -9.933594 C 20.023438 1.75 26.226562 10.632812 36.054688 11.789062 C 36.351562 11.824219 36.351562 11.824219 36.351562 11.824219 C 46.214844 12.683594 53.679688 5.710938 56.34375 -6.660156 C 57.058594 -10.199219 57.550781 -14.367188 57.972656 -17.941406 L 58.109375 -19.132812 C 59.511719 -31.046875 60.652344 -43.292969 62.085938 -55.503906 L 64.207031 -76.089844 C 64.484375 -78.472656 64.765625 -80.855469 65.117188 -83.832031 L 65.992188 -91.277344 L 167.851562 -79.300781 L 166.710938 -72.1875 C 166.398438 -69.507812 166.082031 -66.824219 166.0625 -64.109375 C 165.433594 -58.75 165.101562 -53.351562 164.46875 -47.992188 C 163.351562 -33.328125 162.160156 -18.070312 161.597656 -3.039062 C 161.390625 3.882812 162.859375 11.90625 165.890625 19.511719 C 169.117188 28.042969 175.808594 32.753906 185.179688 32.648438 C 194.257812 32.507812 201.140625 27.882812 204.242188 19.492188 C 206.503906 13.113281 208.007812 5.441406 208.691406 -2.933594 Z M 208.691406 -2.933594 "/></g></g></g><g fill="#fef9ef" fill-opacity="1"><g transform="translate(3230.215955, 815.105055)"><g><path d="M 96.582031 -165.367188 C 97.585938 -176.136719 97.179688 -185.59375 95.710938 -194.003906 C 94.042969 -205.167969 87.261719 -212.546875 76.035156 -214.53125 C 65.449219 -216.71875 54.980469 -211.613281 49.828125 -201.46875 C 45.960938 -193.859375 42.851562 -185.226562 40.585938 -176.164062 C 37.183594 -161.515625 34.375 -146.773438 31.5625 -132.03125 C 30.558594 -127.332031 29.507812 -122.332031 28.796875 -117.589844 L 29.984375 -117.410156 L 29.496094 -114.148438 C 28.519531 -107.625 27.546875 -101.097656 26.273438 -94.617188 C 24.011719 -79.492188 21.320312 -63.519531 19.90625 -47.964844 C 18.8125 -36.605469 20.390625 -24.847656 23.808594 -15.242188 C 26.644531 -7.84375 32.546875 -2.714844 39.367188 -1.695312 C 39.664062 -1.652344 39.664062 -1.652344 39.664062 -1.652344 C 47.078125 -0.542969 54.863281 -3.925781 60.167969 -11.019531 C 63.546875 -15.363281 65.992188 -19.546875 66.910156 -23.65625 L 71.601562 -40.84375 C 82.167969 -81.105469 93.253906 -122.808594 96.582031 -165.367188 Z M 96.582031 -165.367188 "/></g></g></g><g fill="#fef9ef" fill-opacity="1"><g transform="translate(3303.884262, 825.551328)"><g><path d="M 149.332031 -18.351562 C 148 -24.671875 143.164062 -30.085938 136.332031 -32.800781 C 132.351562 -34.410156 127.675781 -35.53125 121.960938 -35.921875 C 117.476562 -36.398438 112.648438 -36.636719 108.113281 -36.820312 C 103.875 -36.949219 99.636719 -37.082031 95.101562 -37.265625 C 89.089844 -37.707031 84.015625 -38.289062 81.28125 -41.8125 C 79.089844 -44.933594 78.925781 -49.226562 80.058594 -55.722656 C 82.605469 -72.023438 85.546875 -88.863281 88.644531 -106.585938 C 89.984375 -114.265625 91.726562 -122.488281 93.222656 -131.054688 C 93.960938 -137.011719 94.800781 -143.5625 95.691406 -150.410156 C 98.148438 -167.941406 101.015625 -187.835938 103.1875 -207.246094 C 104.316406 -218.921875 99.160156 -227.738281 89.566406 -230.328125 C 88.972656 -230.429688 88.382812 -230.535156 88.089844 -230.585938 C 79.226562 -232.132812 71.644531 -227.066406 66.726562 -216.355469 C 60.203125 -201.667969 54.734375 -189.53125 51.230469 -176.445312 L 48.292969 -166.609375 C 38.746094 -131.136719 28.644531 -94.238281 21.355469 -57.761719 C 17.722656 -40.4375 16.539062 -9.285156 47.074219 7.617188 C 74.023438 22.371094 104.109375 20.933594 139.101562 3.605469 C 140.09375 3.167969 141.183594 2.144531 142.277344 1.117188 C 148.242188 -5.148438 150.664062 -12.03125 149.332031 -18.351562 Z M 149.332031 -18.351562 "/></g></g></g><g fill="#fef9ef" fill-opacity="1"><g transform="translate(3447.517216, 849.942997)"><g><path d="M 201.746094 -158.566406 C 185.726562 -182.546875 160.300781 -198.425781 130.496094 -203.890625 L 127.792969 -204.164062 L 127.582031 -206.050781 C 124.234375 -206.15625 121.175781 -206.195312 117.824219 -206.300781 C 108.292969 -206.195312 98.46875 -206.15625 89.109375 -205.402344 C 71.554688 -203.644531 67.679688 -199.875 63.261719 -182.113281 C 59.386719 -165.460938 55.449219 -148.515625 51.800781 -131.511719 C 45.9375 -107.003906 40.363281 -82.4375 34.4375 -57.636719 C 33.117188 -51.480469 29.261719 -44.945312 24.484375 -39.835938 C 18.871094 -33.679688 15.773438 -26.367188 16.085938 -19.246094 C 16.359375 -13.363281 18.871094 -7.917969 23.519531 -3.851562 C 30.726562 2.597656 40.128906 7.375 48.757812 8.609375 C 87.253906 15.019531 125.730469 10.078125 162.785156 -6.820312 C 191.960938 -19.890625 210.265625 -42.339844 217.117188 -74.304688 C 223.464844 -103.917969 217.769531 -134.582031 201.746094 -158.566406 Z M 135.746094 -59.539062 C 125.460938 -55.917969 115.074219 -53.238281 103.742188 -50.453125 C 98.546875 -49.109375 93.058594 -47.832031 87.507812 -46.261719 L 82.671875 -45.152344 L 102.65625 -164.160156 L 106.34375 -162.757812 C 108.921875 -161.898438 111.789062 -160.976562 114.367188 -160.117188 C 127.476562 -155.46875 140.945312 -151.046875 151.625 -140.785156 C 163.878906 -129.265625 169.113281 -112.195312 165.761719 -95.125 C 162.179688 -78.410156 151.058594 -65.152344 135.746094 -59.539062 Z M 135.746094 -59.539062 "/></g></g></g><g fill="#fef9ef" fill-opacity="1"><g transform="translate(3640.25659, 891.068599)"><g><path d="M 184.460938 -15.875 C 176.53125 -23.515625 169.257812 -31.292969 161.480469 -39.511719 C 158.09375 -43.179688 154.421875 -46.925781 151.035156 -50.59375 L 147.363281 -54.335938 L 152.46875 -56.105469 C 156.117188 -57.019531 159.546875 -58.296875 162.902344 -59.28125 C 169.609375 -61.257812 176.03125 -63.304688 181.945312 -65.796875 C 207.359375 -76.542969 220.550781 -95.109375 221.878906 -120.484375 C 223.082031 -147.75 210.988281 -169.171875 187.035156 -181.90625 C 164.453125 -193.976562 141.222656 -198.773438 118.136719 -195.789062 C 116.246094 -195.664062 110.859375 -195.203125 106.882812 -197.785156 C 102.691406 -200.734375 98.851562 -202.664062 95.660156 -203.492188 C 92.757812 -204.246094 89.921875 -204.054688 87.585938 -203.421875 C 82.628906 -202.230469 78.292969 -197.472656 74.363281 -189.507812 C 46.832031 -131.285156 28.648438 -76.832031 19.132812 -23.53125 C 16.457031 -9.664062 21.953125 1.371094 32.90625 4.527344 C 44.441406 7.835938 54.175781 1.378906 59.539062 -12.097656 C 62.738281 -19.632812 65.429688 -27.609375 68.488281 -35.800781 L 74.605469 -52.179688 L 78.140625 -49.09375 C 79.367188 -47.84375 80.667969 -46.886719 81.675781 -46.003906 C 83.695312 -44.238281 85.5 -42.839844 86.941406 -41.226562 C 92.421875 -36.085938 97.535156 -30.726562 102.648438 -25.371094 C 112.371094 -15.097656 122.386719 -4.746094 132.476562 5.3125 C 140.113281 12.875 148.042969 20.515625 156.941406 25.617188 C 169.023438 32.785156 184.183594 29.289062 191.855469 17.652344 C 200.714844 3.84375 192.679688 -8.160156 184.460938 -15.875 Z M 96.246094 -110.386719 L 92.03125 -110.859375 L 93.375 -114.847656 C 94.863281 -118.179688 95.84375 -121.953125 96.457031 -125.511719 C 99.25 -136.25 101.828125 -147.355469 115.839844 -152.386719 C 133.496094 -158.332031 151.074219 -155.621094 168.570312 -144.257812 C 174.136719 -140.640625 176.851562 -135.597656 176.152344 -130.511719 C 175.589844 -124.773438 171.175781 -119.722656 164.390625 -117.457031 C 143.441406 -109.578125 121.164062 -107.316406 96.246094 -110.386719 Z M 96.246094 -110.386719 "/></g></g></g><g fill="#fef9ef" fill-opacity="1"><g transform="translate(3826.112545, 939.493799)"><g><path d="M 143.15625 -13.445312 C 139.050781 -14.371094 134.773438 -14.722656 130.40625 -14.789062 C 126.902344 -14.597656 123.195312 -14.777344 119.867188 -15.15625 C 106.054688 -17.136719 93.851562 -19.257812 82.769531 -21.980469 C 80.097656 -22.472656 78.121094 -25.265625 77.320312 -26.757812 C 76.519531 -28.253906 74.828125 -30.957031 75.609375 -33.542969 C 77.464844 -41.753906 79.980469 -50.078125 82.410156 -58.117188 C 83.277344 -60.984375 84.144531 -63.855469 84.925781 -66.441406 L 85.878906 -69.597656 L 89.039062 -68.644531 C 94.578125 -67.28125 100.121094 -65.921875 105.660156 -64.5625 C 119.039062 -61.144531 131.84375 -57.902344 144.820312 -55.234375 C 151.023438 -53.984375 158.519531 -53.914062 166.074219 -55.074219 C 172.3125 -56.011719 179.988281 -59.644531 182.277344 -69.289062 C 183.84375 -77.589844 180.699219 -84.804688 173.46875 -88.867188 C 165.175781 -93.566406 155.015625 -97.265625 144.132812 -99.613281 C 135.550781 -101.265625 126.417969 -102.148438 116.996094 -103.113281 C 112.71875 -103.46875 108.4375 -103.820312 103.960938 -104.546875 L 100.054688 -105.101562 L 104.304688 -119.167969 C 106.558594 -126.632812 108.730469 -133.808594 111.183594 -140.898438 C 113.441406 -148.359375 114.566406 -152.09375 117.933594 -153.894531 C 121.210938 -155.410156 124.941406 -154.285156 132.03125 -151.828125 L 139.320312 -149 C 150.917969 -144.867188 162.800781 -140.652344 174.742188 -137.667969 C 193.75 -133.179688 209.304688 -140.070312 213.066406 -154.597656 C 214.976562 -160.910156 213.925781 -167.808594 210.347656 -173.585938 C 206.367188 -180.117188 199.769531 -185.242188 191.160156 -187.84375 C 190.296875 -188.105469 189.4375 -188.363281 188.863281 -188.539062 C 170.429688 -192.855469 151.277344 -195.824219 132.984375 -198.53125 L 119.835938 -200.625 C 115.355469 -201.351562 109.78125 -200.53125 105.441406 -199.648438 C 91.675781 -196.601562 85.03125 -190.152344 84.03125 -178.550781 C 83.621094 -176.167969 82.554688 -173.671875 81.285156 -171.546875 L 80.851562 -170.113281 C 76.988281 -162.507812 72.75 -154.703125 68.800781 -146.8125 C 60.722656 -130.457031 51.902344 -113.699219 44.226562 -96.59375 C 34.738281 -76.59375 24.78125 -52.972656 24.183594 -27.152344 C 23.710938 -6.933594 31.523438 7.644531 47.417969 16.207031 C 74.589844 31 102.527344 35.996094 130.574219 31.3125 C 136.808594 30.375 143.191406 27.917969 148.882812 24.628906 C 157.65625 19.445312 161.71875 12.214844 160.328125 3.335938 C 158.6875 -7.8125 149.933594 -12.023438 143.15625 -13.445312 Z M 143.15625 -13.445312 "/></g></g></g><g fill="#fef9ef" fill-opacity="1"><g transform="translate(3979.199007, 984.754153)"><g><path d="M 282.800781 -128.257812 C 284.296875 -139.804688 279.328125 -150.121094 269.816406 -154.71875 C 259.554688 -159.894531 247.851562 -157.316406 240.421875 -148.792969 C 234.535156 -141.957031 229.585938 -134.15625 226.53125 -126.332031 C 217.777344 -104.929688 209.488281 -83.046875 201.398438 -61.730469 C 198.046875 -53.054688 194.695312 -44.378906 191.34375 -35.703125 C 190.554688 -33.4375 189.476562 -31.273438 188.6875 -29.007812 L 186.621094 -24.011719 L 178.269531 -23.753906 L 170.734375 -46.722656 C 165.550781 -61.878906 160.550781 -76.652344 155.652344 -91.707031 C 152.929688 -100.285156 150.3125 -109.144531 147.308594 -117.816406 C 142.507812 -133.15625 137.519531 -148.878906 132.054688 -164.132812 C 129.96875 -170.898438 126.175781 -177.308594 121.417969 -182.785156 C 118.25 -186.433594 114.214844 -189.433594 109.96875 -190.917969 C 107.421875 -191.808594 104.675781 -192.132812 101.828125 -192.175781 C 94.242188 -192.285156 86.984375 -188.789062 81.296875 -182.519531 C 78.015625 -178.582031 75.398438 -174.734375 73.730469 -170.867188 C 53.828125 -126.679688 38.21875 -77.496094 24.707031 -16.140625 C 23.785156 -11.695312 23.800781 -6.289062 25.050781 -0.769531 C 26.382812 5.414062 30.203125 9.925781 34.832031 11.226562 C 39.742188 12.628906 45.175781 10.714844 49.890625 6.328125 C 53.355469 2.773438 56.453125 -1.542969 57.839844 -5.507812 C 67.285156 -28.890625 76.550781 -52.652344 85.515625 -75.570312 L 92.617188 -94.054688 C 93.589844 -95.9375 94.101562 -98.300781 94.792969 -100.28125 L 98.058594 -109.625 L 101.867188 -104.160156 C 104.742188 -99.664062 106.101562 -95.375 106.996094 -91.566406 L 107.816406 -89.375 C 109.800781 -82.328125 111.683594 -74.996094 113.949219 -67.851562 C 118.726562 -50.613281 123.867188 -32.613281 130.453125 -16.015625 C 135.933594 -1.707031 144.925781 18.910156 158.546875 34.472656 C 171.695312 49.554688 185.15625 56.488281 197.609375 54.488281 C 210.164062 52.207031 220.859375 40.699219 228.441406 21.746094 C 242.625 -14.277344 256.160156 -51.160156 269.578125 -86.816406 L 277.980469 -109.929688 C 280.441406 -116.058594 281.953125 -122.199219 282.800781 -128.257812 Z M 282.800781 -128.257812 "/></g></g></g><g fill="#05668d" fill-opacity="1"><g transform="translate(995.561799, 1046.047906)"><g><path d="M 143.914062 -116.476562 C 133.066406 -118.359375 122.683594 -120.730469 111.636719 -123.183594 C 106.78125 -124.324219 101.636719 -125.367188 96.78125 -126.511719 L 91.640625 -127.554688 L 94.878906 -131.882812 C 97.386719 -134.679688 99.515625 -137.660156 101.742188 -140.355469 C 106.195312 -145.75 110.363281 -151.042969 113.871094 -156.421875 C 128.902344 -179.554688 129.429688 -202.328125 116.320312 -224.09375 C 102.042969 -247.351562 80.023438 -258.324219 53.046875 -255.457031 C 27.582031 -252.804688 5.648438 -243.769531 -11.804688 -228.367188 C -13.300781 -227.199219 -17.507812 -223.800781 -22.246094 -223.714844 C -27.371094 -223.808594 -31.628906 -223.257812 -34.738281 -222.15625 C -37.566406 -221.15625 -39.808594 -219.40625 -41.386719 -217.574219 C -44.828125 -213.8125 -45.753906 -207.441406 -44.546875 -198.640625 C -34.742188 -134.992188 -19.304688 -79.695312 2.667969 -30.210938 C 8.21875 -17.222656 18.953125 -11.164062 29.796875 -14.683594 C 41.203125 -18.402344 45.652344 -29.203125 42.542969 -43.371094 C 40.972656 -51.40625 38.738281 -59.519531 36.683594 -68.019531 L 32.574219 -85.015625 L 37.234375 -84.4375 C 38.949219 -84.089844 40.5625 -84.027344 41.890625 -83.859375 C 44.554688 -83.53125 46.832031 -83.382812 48.929688 -82.851562 C 56.347656 -81.660156 63.585938 -80.085938 70.824219 -78.515625 C 84.632812 -75.449219 98.726562 -72.484375 112.71875 -69.804688 C 123.28125 -67.816406 134.128906 -65.929688 144.359375 -66.6875 C 158.382812 -67.515625 168.984375 -78.902344 168.820312 -92.84375 C 168.425781 -109.246094 155.046875 -114.6875 143.914062 -116.476562 Z M 17.898438 -145.351562 L 14.140625 -143.386719 L 13.023438 -147.445312 C 12.386719 -151.035156 11.085938 -154.710938 9.601562 -158.003906 C 5.898438 -168.464844 1.816406 -179.105469 10.601562 -191.125 C 21.902344 -205.941406 37.980469 -213.539062 58.839844 -213.925781 C 65.476562 -214.046875 70.550781 -211.390625 72.820312 -206.785156 C 75.566406 -201.714844 74.742188 -195.058594 70.390625 -189.382812 C 57.449219 -171.125 40.261719 -156.769531 17.898438 -145.351562 Z M 17.898438 -145.351562 "/></g></g></g><g fill="#05668d" fill-opacity="1"><g transform="translate(1176.649682, 982.058886)"><g><path d="M 111.0625 -91.324219 C 107.140625 -89.792969 103.398438 -87.6875 99.746094 -85.296875 C 96.949219 -83.175781 93.78125 -81.246094 90.808594 -79.695312 C 78.257812 -73.601562 66.957031 -68.523438 56.253906 -64.570312 C 53.765625 -63.484375 50.566406 -64.6875 49.0625 -65.476562 C 47.5625 -66.265625 44.648438 -67.5625 43.847656 -70.136719 C 40.785156 -77.980469 38.207031 -86.285156 35.714844 -94.304688 C 34.828125 -97.167969 33.9375 -100.03125 33.136719 -102.609375 L 32.160156 -105.757812 L 35.308594 -106.738281 C 40.660156 -108.714844 46.015625 -110.691406 51.367188 -112.667969 C 64.363281 -117.328125 76.785156 -121.816406 89.03125 -126.875 C 94.867188 -129.316406 101.117188 -133.453125 106.726562 -138.648438 C 111.367188 -142.917969 115.691406 -150.226562 112.183594 -159.5 C 108.835938 -167.25 102.1875 -171.46875 93.921875 -170.785156 C 84.421875 -170.03125 73.933594 -167.402344 63.605469 -163.253906 C 55.566406 -159.816406 47.507812 -155.429688 39.164062 -150.953125 C 35.417969 -148.851562 31.675781 -146.746094 27.558594 -144.839844 L 24.015625 -143.109375 L 19.65625 -157.144531 C 17.34375 -164.589844 15.121094 -171.75 13.183594 -178.996094 C 10.871094 -186.445312 9.714844 -190.167969 11.492188 -193.546875 C 13.359375 -196.636719 17.082031 -197.792969 24.328125 -199.730469 L 31.953125 -201.46875 C 43.875 -204.542969 56.082031 -207.707031 67.644531 -211.925781 C 85.90625 -218.851562 94.929688 -233.273438 89.910156 -247.414062 C 87.953125 -253.714844 83.222656 -258.839844 77.019531 -261.621094 C 70.066406 -264.800781 61.730469 -265.355469 53.136719 -262.683594 C 52.277344 -262.417969 51.417969 -262.152344 50.847656 -261.972656 C 33.160156 -255.226562 15.628906 -246.957031 -1.039062 -238.953125 L -13.105469 -233.320312 C -17.222656 -231.414062 -21.382812 -227.613281 -24.480469 -224.453125 C -34.179688 -214.21875 -36.074219 -205.152344 -30.402344 -194.980469 C -29.40625 -192.777344 -28.890625 -190.109375 -28.753906 -187.640625 L -28.308594 -186.210938 C -27.25 -177.746094 -26.386719 -168.90625 -25.242188 -160.15625 C -22.769531 -142.085938 -20.691406 -123.261719 -17.46875 -104.792969 C -14.128906 -82.90625 -9.144531 -57.765625 4.824219 -36.039062 C 15.757812 -19.023438 30.398438 -11.324219 48.359375 -13.132812 C 79.15625 -16.101562 105.097656 -27.613281 125.707031 -47.199219 C 130.347656 -51.46875 134.257812 -57.078125 137.128906 -62.992188 C 141.492188 -72.199219 140.808594 -80.464844 134.6875 -87.042969 C 127.078125 -95.355469 117.46875 -93.941406 111.0625 -91.324219 Z M 111.0625 -91.324219 "/></g></g></g><g fill="#05668d" fill-opacity="1"><g transform="translate(1329.652438, 934.318909)"><g><path d="M 136.1875 -111.863281 C 122.066406 -137.546875 98.28125 -151.910156 63.644531 -155.871094 C 51.390625 -157.515625 38.953125 -160.972656 27.175781 -164.300781 L 19.707031 -166.625 C 15.027344 -167.839844 12.136719 -170.472656 11.195312 -173.945312 C 10.171875 -177.707031 11.625 -181.519531 15.046875 -184.9375 C 20.890625 -190.875 28.105469 -197.492188 36.316406 -201.585938 C 53.949219 -211.035156 72.886719 -209.960938 85.71875 -208.472656 C 90.898438 -207.703125 94.664062 -208.726562 96.296875 -210.722656 C 98.640625 -213.535156 98.039062 -218.03125 96.808594 -221.425781 C 95.183594 -226.269531 92.320312 -231.085938 88.617188 -234.429688 C 79.34375 -243.410156 67.328125 -247.605469 53.148438 -247.175781 C 21.164062 -245.949219 -4.597656 -232.117188 -23.066406 -206.285156 C -32.472656 -192.855469 -36.09375 -177.578125 -32.820312 -163.238281 C -29.839844 -148.824219 -20.121094 -135.921875 -5.769531 -127.699219 C 14.914062 -115.605469 35.554688 -109.398438 57.460938 -108.824219 C 68.089844 -108.601562 79.472656 -106.71875 87.695312 -95.898438 L 90.003906 -93.109375 L 81.164062 -87.910156 C 70.527344 -81.296875 59.035156 -81.28125 47.832031 -81.347656 C 44.992188 -81.507812 42.230469 -81.382812 39.464844 -81.253906 C 36.335938 -81.335938 33.363281 -80.839844 30.757812 -80.132812 C 20.628906 -77.382812 13.417969 -70.761719 10.90625 -61.691406 C 7.789062 -50.28125 13.640625 -37.886719 25.652344 -30.269531 C 36.925781 -23.078125 54.171875 -15.640625 72.171875 -21.457031 C 92.191406 -27.828125 108.5625 -35.066406 121.40625 -43.835938 C 144.515625 -59.433594 150.308594 -86.175781 136.1875 -111.863281 Z M 136.1875 -111.863281 "/></g></g></g><g fill="#05668d" fill-opacity="1"><g transform="translate(1486.545361, 890.684269)"><g><path d="M 212.160156 -95.359375 C 205.832031 -101.621094 197.792969 -103.191406 188.988281 -99.984375 C 183.269531 -98.082031 177.585938 -94.652344 172.710938 -91.710938 C 149.101562 -77.792969 120.121094 -64.515625 84.742188 -72.847656 C 55.15625 -80.027344 35.257812 -102.90625 34.402344 -131.300781 C 34.1875 -140.472656 34.253906 -152.476562 38.0625 -162.863281 C 55.308594 -211.925781 82.746094 -230.699219 127.097656 -223.460938 C 133.117188 -222.664062 138.421875 -222.316406 142.941406 -222.71875 C 148.925781 -223.449219 153.503906 -226.324219 155.507812 -231.078125 C 157.285156 -235.476562 156.460938 -240.515625 153 -244.960938 C 149.117188 -249.929688 143.480469 -254.5 136.507812 -258.15625 C 118.105469 -267.542969 97.054688 -269.570312 77.160156 -265.097656 C 59.898438 -261.214844 43.464844 -252.292969 30.195312 -238.859375 C 1.125 -209.574219 -13.851562 -176.390625 -15.15625 -139.828125 C -16.59375 -91.554688 1.484375 -56.277344 38.292969 -34.738281 C 65.917969 -18.511719 99.109375 -13.070312 136.632812 -18.433594 C 161.464844 -25.554688 182.808594 -35.886719 201.996094 -50.347656 C 207.773438 -54.71875 213.121094 -62.378906 217.488281 -71.660156 C 221.175781 -79.863281 219.203125 -88.640625 212.160156 -95.359375 Z M 212.160156 -95.359375 "/></g></g></g><g fill="#05668d" fill-opacity="1"><g transform="translate(1712.641609, 839.954469)"><g><path d="M 155.742188 -240.691406 C 151.097656 -248.097656 143.824219 -251.390625 135.152344 -250.480469 C 125.597656 -249.414062 119.179688 -244.335938 116.738281 -235.6875 C 114.523438 -229.210938 113.644531 -222.054688 114.050781 -214.511719 C 114.164062 -206.921875 114.917969 -199.136719 115.621094 -191.648438 C 116.527344 -182.980469 117.488281 -174.015625 117.5625 -164.894531 L 117.75 -160.359375 C 118.261719 -140.050781 118.582031 -119.101562 116.433594 -98.328125 C 115.429688 -88.410156 111.199219 -81.273438 104.578125 -77.375 C 97.414062 -73.078125 87.652344 -73.195312 76.816406 -77.691406 C 59.992188 -85.09375 48.839844 -98.363281 43.707031 -117.253906 C 41.613281 -125.71875 39.175781 -134.421875 37.085938 -142.886719 C 33.578125 -155.972656 30.015625 -169.351562 26.210938 -182.386719 C 23.566406 -192.273438 20.691406 -199.992188 17.382812 -206.71875 C 13.171875 -215.117188 5.449219 -219.242188 -2.71875 -217.203125 C -10.886719 -215.164062 -15.722656 -209.75 -16.777344 -200.128906 C -17.339844 -196.375 -17.65625 -192.972656 -17.433594 -189.964844 C -16.082031 -175.285156 -14.726562 -160.605469 -13.617188 -145.578125 L -12.398438 -135.132812 L -11.511719 -135.289062 L -10.996094 -132.335938 C -10.53125 -129.675781 -10.066406 -127.019531 -9.597656 -124.359375 C -8.667969 -119.042969 -7.683594 -113.429688 -6.457031 -108.164062 C 1.691406 -70.320312 23.300781 -44.265625 57.382812 -30.445312 C 78.949219 -22.046875 101.429688 -22.328125 120.777344 -31.804688 C 140.125 -41.28125 154.132812 -58.652344 160.65625 -80.496094 C 163.675781 -91.074219 166.296875 -102.1875 166.308594 -112.542969 C 165.988281 -145.667969 165.0625 -180.519531 162.894531 -222.457031 C 162.65625 -227.289062 160.335938 -233.578125 155.742188 -240.691406 Z M 155.742188 -240.691406 "/></g></g></g><g fill="#05668d" fill-opacity="1"><g transform="translate(1909.454871, 805.676422)"><g><path d="M 124.746094 -71.503906 C 120.625 -70.648438 116.585938 -69.199219 112.582031 -67.453125 C 109.472656 -65.824219 106.027344 -64.453125 102.835938 -63.421875 C 89.445312 -59.503906 77.457031 -56.382812 66.242188 -54.273438 C 63.605469 -53.617188 60.652344 -55.339844 59.304688 -56.367188 C 57.957031 -57.398438 55.300781 -59.160156 54.941406 -61.835938 C 53.230469 -70.078125 52.074219 -78.695312 50.957031 -87.019531 C 50.558594 -89.992188 50.160156 -92.964844 49.800781 -95.636719 L 49.359375 -98.90625 L 52.628906 -99.347656 C 58.238281 -100.402344 63.84375 -101.457031 69.453125 -102.511719 C 83.042969 -104.941406 96.042969 -107.289062 108.960938 -110.234375 C 115.121094 -111.664062 121.976562 -114.703125 128.375 -118.890625 C 133.664062 -122.320312 139.144531 -128.808594 137.234375 -138.535156 C 135.226562 -146.738281 129.378906 -152.003906 121.113281 -152.710938 C 111.621094 -153.554688 100.839844 -152.714844 89.960938 -150.347656 C 81.460938 -148.296875 72.785156 -145.320312 63.8125 -142.300781 C 59.769531 -140.847656 55.726562 -139.398438 51.347656 -138.207031 L 47.566406 -137.09375 L 45.609375 -151.65625 C 44.574219 -159.386719 43.578125 -166.816406 42.878906 -174.285156 C 41.839844 -182.011719 41.320312 -185.878906 43.636719 -188.910156 C 45.992188 -191.648438 49.859375 -192.167969 57.328125 -192.867188 L 65.136719 -193.308594 C 77.402344 -194.347656 89.964844 -195.429688 102.070312 -197.660156 C 121.230469 -201.441406 132.535156 -214.152344 129.945312 -228.933594 C 129.070312 -235.472656 125.261719 -241.316406 119.609375 -245.097656 C 113.285156 -249.390625 105.15625 -251.328125 96.242188 -250.128906 C 95.347656 -250.011719 94.457031 -249.890625 93.863281 -249.8125 C 75.296875 -246.109375 56.632812 -240.882812 38.863281 -235.773438 L 26.023438 -232.238281 C 21.644531 -231.042969 16.914062 -227.988281 13.328125 -225.390625 C 2.058594 -216.917969 -1.324219 -208.292969 2.570312 -197.320312 C 3.1875 -194.980469 3.25 -192.265625 2.972656 -189.808594 L 3.171875 -188.324219 C 2.804688 -179.800781 2.175781 -170.941406 1.847656 -162.125 C 1.265625 -143.890625 0.171875 -124.984375 0.269531 -106.238281 C -0.0898438 -84.101562 0.625 -58.480469 10.769531 -34.726562 C 18.714844 -16.125 31.859375 -6.089844 49.875 -4.875 C 80.730469 -2.664062 108.230469 -9.679688 131.820312 -25.554688 C 137.109375 -28.988281 141.902344 -33.867188 145.722656 -39.21875 C 151.558594 -47.566406 152.265625 -55.832031 147.324219 -63.339844 C 141.214844 -72.804688 131.503906 -73.015625 124.746094 -71.503906 Z M 124.746094 -71.503906 "/></g></g></g><g fill="#05668d" fill-opacity="1"><g transform="translate(2069.262468, 784.671155)"><g/></g></g><g fill="#05668d" fill-opacity="1"><g transform="translate(2145.03891, 775.53093)"><g><path d="M 152.5 -233.175781 C 150.058594 -233.589844 147.621094 -234 144.90625 -234.09375 C 134.648438 -234.5 124.4375 -234.3125 114.273438 -233.527344 C 93.640625 -231.929688 73.171875 -228.242188 53.328125 -224.296875 C 40.859375 -222.128906 28.121094 -219.640625 15.332031 -217.75 C 15.035156 -217.726562 14.757812 -217.402344 14.160156 -217.355469 L 13.285156 -216.988281 C 1.007812 -212.429688 -5.292969 -204.421875 -3.882812 -194.003906 C -2.820312 -184.160156 4.585938 -177.816406 17.375 -175.796875 C 20.414062 -175.429688 23.425781 -175.363281 26.738281 -175.320312 C 33.683594 -174.953125 40.605469 -174.886719 47.53125 -174.824219 L 57.488281 -174.390625 L 58.179688 -169.332031 C 58.296875 -167.835938 58.390625 -166.640625 58.503906 -165.144531 C 59.316406 -154.679688 59.824219 -144.191406 60.335938 -133.703125 C 61.730469 -107.945312 63.464844 -81.609375 65.480469 -55.597656 C 66.195312 -46.328125 68.777344 -36.300781 73.082031 -27.3125 C 77.386719 -18.320312 85.875 -13.5625 96.640625 -14.394531 C 107.105469 -15.207031 114.761719 -21.210938 117.585938 -31.355469 C 119.996094 -39.0625 120.867188 -47.25 120.011719 -54.402344 C 117.886719 -74.089844 114.289062 -93.363281 111.222656 -109.667969 C 108.25 -124.777344 104.976562 -139.867188 101.65625 -155.550781 C 99.90625 -162.632812 98.429688 -170.039062 96.957031 -177.445312 L 96.082031 -180.984375 L 123.585938 -183.113281 C 126.578125 -183.347656 129.566406 -183.578125 132.582031 -183.507812 C 138.859375 -183.996094 145.734375 -184.527344 151.992188 -185.3125 C 164.753906 -187.503906 173.652344 -196.914062 173.921875 -208.964844 C 173.917969 -220.695312 165.65625 -230.285156 152.5 -233.175781 Z M 152.5 -233.175781 "/></g></g></g><g fill="#05668d" fill-opacity="1"><g transform="translate(2334.243171, 760.454457)"><g><path d="M 205.902344 -34.132812 C 201.515625 -84.996094 196.730469 -138.84375 191.132812 -198.96875 C 190.238281 -207.941406 188.769531 -215.996094 186.722656 -223.429688 C 185.015625 -229.671875 180.089844 -233.410156 173.476562 -233.789062 C 165.042969 -234.710938 160.417969 -229.457031 158.167969 -224.882812 C 156.492188 -221.226562 155.132812 -216.980469 154.671875 -212.761719 C 153.761719 -204.03125 153.449219 -195.320312 153.109375 -187.507812 C 152.816406 -178.195312 152.816406 -169.195312 152.523438 -159.882812 L 152.152344 -143.96875 L 50.246094 -140.589844 L 48.929688 -153.148438 C 48.472656 -157.933594 48.011719 -162.71875 47.246094 -167.792969 C 46.277344 -178.863281 45.300781 -190.234375 43.433594 -201.273438 C 41.886719 -211.722656 35.375 -218.109375 26.363281 -218.410156 C 17.351562 -218.710938 10.375 -211.878906 8.328125 -201.308594 C 6.855469 -191.359375 4.566406 -178.980469 5.542969 -167.609375 C 8.851562 -122.113281 13.179688 -73.050781 19.074219 -12.933594 C 20.0625 -1.265625 27.523438 6.589844 37.414062 6.261719 C 37.714844 6.25 37.714844 6.25 37.714844 6.25 C 47.59375 5.621094 53.929688 -2.386719 54.710938 -15.015625 C 54.890625 -18.625 54.753906 -22.820312 54.632812 -26.414062 L 54.59375 -27.613281 C 54.195312 -39.601562 53.488281 -51.882812 53.082031 -64.171875 L 52.09375 -84.839844 C 52.015625 -87.238281 51.9375 -89.636719 51.835938 -92.632812 L 51.589844 -100.125 L 154.09375 -103.527344 L 154.03125 -96.324219 C 154.121094 -93.625 154.210938 -90.929688 154.597656 -88.242188 C 154.777344 -82.84375 155.257812 -77.460938 155.4375 -72.066406 C 156.523438 -57.398438 157.628906 -42.132812 159.324219 -27.1875 C 160.152344 -20.3125 162.808594 -12.601562 166.945312 -5.535156 C 171.410156 2.417969 178.730469 6.074219 187.980469 4.566406 C 196.933594 3.070312 203.050781 -2.53125 204.859375 -11.292969 C 206.140625 -17.9375 206.480469 -25.75 205.902344 -34.132812 Z M 205.902344 -34.132812 "/></g></g></g><g fill="#05668d" fill-opacity="1"><g transform="translate(2541.331798, 753.849612)"><g><path d="M 133.558594 -53.261719 C 129.359375 -52.992188 125.152344 -52.125 120.945312 -50.957031 C 117.636719 -49.785156 114.03125 -48.910156 110.730469 -48.335938 C 96.917969 -46.34375 84.613281 -44.9375 73.214844 -44.425781 C 70.511719 -44.144531 67.828125 -46.265625 66.640625 -47.472656 C 65.449219 -48.683594 63.066406 -50.800781 63.085938 -53.5 C 62.550781 -61.898438 62.617188 -70.597656 62.679688 -78.992188 C 62.703125 -81.992188 62.726562 -84.992188 62.746094 -87.691406 L 62.773438 -90.988281 L 66.070312 -90.964844 C 71.769531 -91.21875 77.472656 -91.476562 83.171875 -91.730469 C 96.96875 -92.226562 110.167969 -92.726562 123.371094 -93.824219 C 129.675781 -94.375 136.886719 -96.421875 143.808594 -99.667969 C 149.527344 -102.320312 155.867188 -107.972656 155.34375 -117.871094 C 154.507812 -126.273438 149.457031 -132.3125 141.375 -134.171875 C 132.09375 -136.34375 121.304688 -137.023438 110.199219 -136.210938 C 101.496094 -135.375 92.488281 -133.644531 83.179688 -131.917969 C 78.972656 -131.050781 74.769531 -130.183594 70.265625 -129.617188 L 66.363281 -129.046875 L 66.472656 -143.742188 C 66.535156 -151.539062 66.589844 -159.035156 66.949219 -166.527344 C 67.007812 -174.324219 67.039062 -178.222656 69.757812 -180.902344 C 72.472656 -183.28125 76.371094 -183.25 83.867188 -182.894531 L 91.660156 -182.234375 C 103.949219 -181.542969 116.539062 -180.84375 128.839844 -181.351562 C 148.339844 -182.402344 161.320312 -193.398438 160.835938 -208.398438 C 160.882812 -214.996094 157.933594 -221.316406 152.871094 -225.851562 C 147.210938 -230.992188 139.4375 -234.050781 130.441406 -234.121094 C 129.542969 -234.128906 128.640625 -234.132812 128.042969 -234.136719 C 109.140625 -233.082031 89.929688 -230.53125 71.617188 -227.972656 L 58.40625 -226.273438 C 53.90625 -225.707031 48.789062 -223.347656 44.875 -221.277344 C 32.527344 -214.476562 27.964844 -206.414062 30.277344 -195 C 30.558594 -192.597656 30.238281 -189.902344 29.621094 -187.507812 L 29.609375 -186.007812 C 28.046875 -177.621094 26.179688 -168.941406 24.613281 -160.253906 C 21.480469 -142.285156 17.738281 -123.71875 15.199219 -105.144531 C 11.730469 -83.28125 8.839844 -57.8125 15.546875 -32.871094 C 20.792969 -13.335938 32.398438 -1.550781 50.066406 2.179688 C 80.304688 8.710938 108.519531 5.625 134.105469 -6.773438 C 139.820312 -9.429688 145.253906 -13.585938 149.785156 -18.347656 C 156.742188 -25.792969 158.601562 -33.875 154.765625 -42.003906 C 150.046875 -52.234375 140.460938 -53.808594 133.558594 -53.261719 Z M 133.558594 -53.261719 "/></g></g></g><g fill="#05668d" fill-opacity="1"><g transform="translate(2702.505657, 755.514055)"><g/></g></g><g fill="#05668d" fill-opacity="1"><g transform="translate(2778.404362, 756.576258)"><g><path d="M 230.554688 -30.800781 C 226.28125 -38.605469 219.027344 -42.410156 209.671875 -41.847656 C 203.644531 -41.660156 197.21875 -39.996094 191.710938 -38.570312 C 165.109375 -31.976562 133.542969 -27.523438 102.015625 -45.613281 C 75.714844 -60.941406 63.175781 -88.554688 70.46875 -116.007812 C 72.878906 -124.863281 76.371094 -136.34375 82.988281 -145.210938 C 113.527344 -187.304688 145.183594 -197.460938 185.621094 -177.859375 C 191.164062 -175.375 196.144531 -173.53125 200.59375 -172.625 C 206.535156 -171.617188 211.746094 -173.0625 215.023438 -177.046875 C 217.980469 -180.75 218.628906 -185.816406 216.585938 -191.066406 C 214.28125 -196.9375 210.183594 -202.929688 204.546875 -208.421875 C 189.59375 -222.675781 170 -230.628906 149.652344 -232.023438 C 132 -233.230469 113.703125 -229.375 97.148438 -220.289062 C 60.925781 -200.527344 37.097656 -173 25.40625 -138.332031 C 10.242188 -92.480469 17.492188 -53.507812 46.621094 -22.355469 C 68.460938 1.082031 98.714844 15.777344 136.207031 21.351562 C 162.039062 21.621094 185.445312 17.8125 207.960938 9.433594 C 214.75 6.894531 222.058594 1.082031 228.894531 -6.566406 C 234.773438 -13.375 235.386719 -22.351562 230.554688 -30.800781 Z M 230.554688 -30.800781 "/></g></g></g><g fill="#05668d" fill-opacity="1"><g transform="translate(3009.504053, 772.430258)"><g><path d="M 208.691406 -2.933594 C 211.964844 -53.878906 215.292969 -107.839844 218.757812 -168.125 C 219.214844 -177.128906 218.96875 -185.3125 218.058594 -192.96875 C 217.304688 -199.398438 212.992188 -203.828125 206.511719 -205.195312 C 198.3125 -207.367188 192.949219 -202.863281 190.042969 -198.675781 C 187.835938 -195.3125 185.855469 -191.320312 184.769531 -187.21875 C 182.5625 -178.722656 180.953125 -170.15625 179.445312 -162.480469 C 177.765625 -153.320312 176.414062 -144.417969 174.734375 -135.257812 L 171.984375 -119.578125 L 70.722656 -131.484375 L 71.296875 -144.101562 C 71.5625 -148.902344 71.824219 -153.699219 71.824219 -158.832031 C 72.523438 -169.921875 73.257812 -181.3125 73.066406 -192.507812 C 73.101562 -203.070312 67.617188 -210.359375 58.75 -212.003906 C 49.886719 -213.652344 41.96875 -207.941406 38.359375 -197.796875 C 35.417969 -188.175781 31.300781 -176.28125 30.566406 -164.894531 C 27.027344 -119.414062 23.964844 -70.253906 20.796875 -9.933594 C 20.023438 1.75 26.226562 10.632812 36.054688 11.789062 C 36.351562 11.824219 36.351562 11.824219 36.351562 11.824219 C 46.214844 12.683594 53.679688 5.710938 56.34375 -6.660156 C 57.058594 -10.199219 57.550781 -14.367188 57.972656 -17.941406 L 58.109375 -19.132812 C 59.511719 -31.046875 60.652344 -43.292969 62.085938 -55.503906 L 64.207031 -76.089844 C 64.484375 -78.472656 64.765625 -80.855469 65.117188 -83.832031 L 65.992188 -91.277344 L 167.851562 -79.300781 L 166.710938 -72.1875 C 166.398438 -69.507812 166.082031 -66.824219 166.0625 -64.109375 C 165.433594 -58.75 165.101562 -53.351562 164.46875 -47.992188 C 163.351562 -33.328125 162.160156 -18.070312 161.597656 -3.039062 C 161.390625 3.882812 162.859375 11.90625 165.890625 19.511719 C 169.117188 28.042969 175.808594 32.753906 185.179688 32.648438 C 194.257812 32.507812 201.140625 27.882812 204.242188 19.492188 C 206.503906 13.113281 208.007812 5.441406 208.691406 -2.933594 Z M 208.691406 -2.933594 "/></g></g></g><g fill="#05668d" fill-opacity="1"><g transform="translate(3216.061417, 797.626023)"><g><path d="M 96.582031 -165.367188 C 97.585938 -176.136719 97.179688 -185.59375 95.710938 -194.003906 C 94.042969 -205.167969 87.261719 -212.546875 76.035156 -214.53125 C 65.449219 -216.71875 54.980469 -211.613281 49.828125 -201.46875 C 45.960938 -193.859375 42.851562 -185.226562 40.585938 -176.164062 C 37.183594 -161.515625 34.375 -146.773438 31.5625 -132.03125 C 30.558594 -127.332031 29.507812 -122.332031 28.796875 -117.589844 L 29.984375 -117.410156 L 29.496094 -114.148438 C 28.519531 -107.625 27.546875 -101.097656 26.273438 -94.617188 C 24.011719 -79.492188 21.320312 -63.519531 19.90625 -47.964844 C 18.8125 -36.605469 20.390625 -24.847656 23.808594 -15.242188 C 26.644531 -7.84375 32.546875 -2.714844 39.367188 -1.695312 C 39.664062 -1.652344 39.664062 -1.652344 39.664062 -1.652344 C 47.078125 -0.542969 54.863281 -3.925781 60.167969 -11.019531 C 63.546875 -15.363281 65.992188 -19.546875 66.910156 -23.65625 L 71.601562 -40.84375 C 82.167969 -81.105469 93.253906 -122.808594 96.582031 -165.367188 Z M 96.582031 -165.367188 "/></g></g></g><g fill="#05668d" fill-opacity="1"><g transform="translate(3289.729723, 808.072296)"><g><path d="M 149.332031 -18.351562 C 148 -24.671875 143.164062 -30.085938 136.332031 -32.800781 C 132.351562 -34.410156 127.675781 -35.53125 121.960938 -35.921875 C 117.476562 -36.398438 112.648438 -36.636719 108.113281 -36.820312 C 103.875 -36.949219 99.636719 -37.082031 95.101562 -37.265625 C 89.089844 -37.707031 84.015625 -38.289062 81.28125 -41.8125 C 79.089844 -44.933594 78.925781 -49.226562 80.058594 -55.722656 C 82.605469 -72.023438 85.546875 -88.863281 88.644531 -106.585938 C 89.984375 -114.265625 91.726562 -122.488281 93.222656 -131.054688 C 93.960938 -137.011719 94.800781 -143.5625 95.691406 -150.410156 C 98.148438 -167.941406 101.015625 -187.835938 103.1875 -207.246094 C 104.316406 -218.921875 99.160156 -227.738281 89.566406 -230.328125 C 88.972656 -230.429688 88.382812 -230.535156 88.089844 -230.585938 C 79.226562 -232.132812 71.644531 -227.066406 66.726562 -216.355469 C 60.203125 -201.667969 54.734375 -189.53125 51.230469 -176.445312 L 48.292969 -166.609375 C 38.746094 -131.136719 28.644531 -94.238281 21.355469 -57.761719 C 17.722656 -40.4375 16.539062 -9.285156 47.074219 7.617188 C 74.023438 22.371094 104.109375 20.933594 139.101562 3.605469 C 140.09375 3.167969 141.183594 2.144531 142.277344 1.117188 C 148.242188 -5.148438 150.664062 -12.03125 149.332031 -18.351562 Z M 149.332031 -18.351562 "/></g></g></g><g fill="#05668d" fill-opacity="1"><g transform="translate(3433.362677, 832.463965)"><g><path d="M 201.746094 -158.566406 C 185.726562 -182.546875 160.300781 -198.425781 130.496094 -203.890625 L 127.792969 -204.164062 L 127.582031 -206.050781 C 124.234375 -206.15625 121.175781 -206.195312 117.824219 -206.300781 C 108.292969 -206.195312 98.46875 -206.15625 89.109375 -205.402344 C 71.554688 -203.644531 67.679688 -199.875 63.261719 -182.113281 C 59.386719 -165.460938 55.449219 -148.515625 51.800781 -131.511719 C 45.9375 -107.003906 40.363281 -82.4375 34.4375 -57.636719 C 33.117188 -51.480469 29.261719 -44.945312 24.484375 -39.835938 C 18.871094 -33.679688 15.773438 -26.367188 16.085938 -19.246094 C 16.359375 -13.363281 18.871094 -7.917969 23.519531 -3.851562 C 30.726562 2.597656 40.128906 7.375 48.757812 8.609375 C 87.253906 15.019531 125.730469 10.078125 162.785156 -6.820312 C 191.960938 -19.890625 210.265625 -42.339844 217.117188 -74.304688 C 223.464844 -103.917969 217.769531 -134.582031 201.746094 -158.566406 Z M 135.746094 -59.539062 C 125.460938 -55.917969 115.074219 -53.238281 103.742188 -50.453125 C 98.546875 -49.109375 93.058594 -47.832031 87.507812 -46.261719 L 82.671875 -45.152344 L 102.65625 -164.160156 L 106.34375 -162.757812 C 108.921875 -161.898438 111.789062 -160.976562 114.367188 -160.117188 C 127.476562 -155.46875 140.945312 -151.046875 151.625 -140.785156 C 163.878906 -129.265625 169.113281 -112.195312 165.761719 -95.125 C 162.179688 -78.410156 151.058594 -65.152344 135.746094 -59.539062 Z M 135.746094 -59.539062 "/></g></g></g><g fill="#05668d" fill-opacity="1"><g transform="translate(3626.102267, 873.589567)"><g><path d="M 184.460938 -15.875 C 176.53125 -23.515625 169.257812 -31.292969 161.480469 -39.511719 C 158.09375 -43.179688 154.421875 -46.925781 151.035156 -50.59375 L 147.363281 -54.335938 L 152.46875 -56.105469 C 156.117188 -57.019531 159.546875 -58.296875 162.902344 -59.28125 C 169.609375 -61.257812 176.03125 -63.304688 181.945312 -65.796875 C 207.359375 -76.542969 220.550781 -95.109375 221.878906 -120.484375 C 223.082031 -147.75 210.988281 -169.171875 187.035156 -181.90625 C 164.453125 -193.976562 141.222656 -198.773438 118.136719 -195.789062 C 116.246094 -195.664062 110.859375 -195.203125 106.882812 -197.785156 C 102.691406 -200.734375 98.851562 -202.664062 95.660156 -203.492188 C 92.757812 -204.246094 89.921875 -204.054688 87.585938 -203.421875 C 82.628906 -202.230469 78.292969 -197.472656 74.363281 -189.507812 C 46.832031 -131.285156 28.648438 -76.832031 19.132812 -23.53125 C 16.457031 -9.664062 21.953125 1.371094 32.90625 4.527344 C 44.441406 7.835938 54.175781 1.378906 59.539062 -12.097656 C 62.738281 -19.632812 65.429688 -27.609375 68.488281 -35.800781 L 74.605469 -52.179688 L 78.140625 -49.09375 C 79.367188 -47.84375 80.667969 -46.886719 81.675781 -46.003906 C 83.695312 -44.238281 85.5 -42.839844 86.941406 -41.226562 C 92.421875 -36.085938 97.535156 -30.726562 102.648438 -25.371094 C 112.371094 -15.097656 122.386719 -4.746094 132.476562 5.3125 C 140.113281 12.875 148.042969 20.515625 156.941406 25.617188 C 169.023438 32.785156 184.183594 29.289062 191.855469 17.652344 C 200.714844 3.84375 192.679688 -8.160156 184.460938 -15.875 Z M 96.246094 -110.386719 L 92.03125 -110.859375 L 93.375 -114.847656 C 94.863281 -118.179688 95.84375 -121.953125 96.457031 -125.511719 C 99.25 -136.25 101.828125 -147.355469 115.839844 -152.386719 C 133.496094 -158.332031 151.074219 -155.621094 168.570312 -144.257812 C 174.136719 -140.640625 176.851562 -135.597656 176.152344 -130.511719 C 175.589844 -124.773438 171.175781 -119.722656 164.390625 -117.457031 C 143.441406 -109.578125 121.164062 -107.316406 96.246094 -110.386719 Z M 96.246094 -110.386719 "/></g></g></g><g fill="#05668d" fill-opacity="1"><g transform="translate(3811.958246, 922.014743)"><g><path d="M 143.15625 -13.445312 C 139.050781 -14.371094 134.773438 -14.722656 130.40625 -14.789062 C 126.902344 -14.597656 123.195312 -14.777344 119.867188 -15.15625 C 106.054688 -17.136719 93.851562 -19.257812 82.769531 -21.980469 C 80.097656 -22.472656 78.121094 -25.265625 77.320312 -26.757812 C 76.519531 -28.253906 74.828125 -30.957031 75.609375 -33.542969 C 77.464844 -41.753906 79.980469 -50.078125 82.410156 -58.117188 C 83.277344 -60.984375 84.144531 -63.855469 84.925781 -66.441406 L 85.878906 -69.597656 L 89.039062 -68.644531 C 94.578125 -67.28125 100.121094 -65.921875 105.660156 -64.5625 C 119.039062 -61.144531 131.84375 -57.902344 144.820312 -55.234375 C 151.023438 -53.984375 158.519531 -53.914062 166.074219 -55.074219 C 172.3125 -56.011719 179.988281 -59.644531 182.277344 -69.289062 C 183.84375 -77.589844 180.699219 -84.804688 173.46875 -88.867188 C 165.175781 -93.566406 155.015625 -97.265625 144.132812 -99.613281 C 135.550781 -101.265625 126.417969 -102.148438 116.996094 -103.113281 C 112.71875 -103.46875 108.4375 -103.820312 103.960938 -104.546875 L 100.054688 -105.101562 L 104.304688 -119.167969 C 106.558594 -126.632812 108.730469 -133.808594 111.183594 -140.898438 C 113.441406 -148.359375 114.566406 -152.09375 117.933594 -153.894531 C 121.210938 -155.410156 124.941406 -154.285156 132.03125 -151.828125 L 139.320312 -149 C 150.917969 -144.867188 162.800781 -140.652344 174.742188 -137.667969 C 193.75 -133.179688 209.304688 -140.070312 213.066406 -154.597656 C 214.976562 -160.910156 213.925781 -167.808594 210.347656 -173.585938 C 206.367188 -180.117188 199.769531 -185.242188 191.160156 -187.84375 C 190.296875 -188.105469 189.4375 -188.363281 188.863281 -188.539062 C 170.429688 -192.855469 151.277344 -195.824219 132.984375 -198.53125 L 119.835938 -200.625 C 115.355469 -201.351562 109.78125 -200.53125 105.441406 -199.648438 C 91.675781 -196.601562 85.03125 -190.152344 84.03125 -178.550781 C 83.621094 -176.167969 82.554688 -173.671875 81.285156 -171.546875 L 80.851562 -170.113281 C 76.988281 -162.507812 72.75 -154.703125 68.800781 -146.8125 C 60.722656 -130.457031 51.902344 -113.699219 44.226562 -96.59375 C 34.738281 -76.59375 24.78125 -52.972656 24.183594 -27.152344 C 23.710938 -6.933594 31.523438 7.644531 47.417969 16.207031 C 74.589844 31 102.527344 35.996094 130.574219 31.3125 C 136.808594 30.375 143.191406 27.917969 148.882812 24.628906 C 157.65625 19.445312 161.71875 12.214844 160.328125 3.335938 C 158.6875 -7.8125 149.933594 -12.023438 143.15625 -13.445312 Z M 143.15625 -13.445312 "/></g></g></g><g fill="#05668d" fill-opacity="1"><g transform="translate(3965.044469, 967.275121)"><g><path d="M 282.800781 -128.257812 C 284.296875 -139.804688 279.328125 -150.121094 269.816406 -154.71875 C 259.554688 -159.894531 247.851562 -157.316406 240.421875 -148.792969 C 234.535156 -141.957031 229.585938 -134.15625 226.53125 -126.332031 C 217.777344 -104.929688 209.488281 -83.046875 201.398438 -61.730469 C 198.046875 -53.054688 194.695312 -44.378906 191.34375 -35.703125 C 190.554688 -33.4375 189.476562 -31.273438 188.6875 -29.007812 L 186.621094 -24.011719 L 178.269531 -23.753906 L 170.734375 -46.722656 C 165.550781 -61.878906 160.550781 -76.652344 155.652344 -91.707031 C 152.929688 -100.285156 150.3125 -109.144531 147.308594 -117.816406 C 142.507812 -133.15625 137.519531 -148.878906 132.054688 -164.132812 C 129.96875 -170.898438 126.175781 -177.308594 121.417969 -182.785156 C 118.25 -186.433594 114.214844 -189.433594 109.96875 -190.917969 C 107.421875 -191.808594 104.675781 -192.132812 101.828125 -192.175781 C 94.242188 -192.285156 86.984375 -188.789062 81.296875 -182.519531 C 78.015625 -178.582031 75.398438 -174.734375 73.730469 -170.867188 C 53.828125 -126.679688 38.21875 -77.496094 24.707031 -16.140625 C 23.785156 -11.695312 23.800781 -6.289062 25.050781 -0.769531 C 26.382812 5.414062 30.203125 9.925781 34.832031 11.226562 C 39.742188 12.628906 45.175781 10.714844 49.890625 6.328125 C 53.355469 2.773438 56.453125 -1.542969 57.839844 -5.507812 C 67.285156 -28.890625 76.550781 -52.652344 85.515625 -75.570312 L 92.617188 -94.054688 C 93.589844 -95.9375 94.101562 -98.300781 94.792969 -100.28125 L 98.058594 -109.625 L 101.867188 -104.160156 C 104.742188 -99.664062 106.101562 -95.375 106.996094 -91.566406 L 107.816406 -89.375 C 109.800781 -82.328125 111.683594 -74.996094 113.949219 -67.851562 C 118.726562 -50.613281 123.867188 -32.613281 130.453125 -16.015625 C 135.933594 -1.707031 144.925781 18.910156 158.546875 34.472656 C 171.695312 49.554688 185.15625 56.488281 197.609375 54.488281 C 210.164062 52.207031 220.859375 40.699219 228.441406 21.746094 C 242.625 -14.277344 256.160156 -51.160156 269.578125 -86.816406 L 277.980469 -109.929688 C 280.441406 -116.058594 281.953125 -122.199219 282.800781 -128.257812 Z M 282.800781 -128.257812 "/></g></g></g></svg>