<svg xmlns="http://www.w3.org/2000/svg" xmlns:xlink="http://www.w3.org/1999/xlink" width="6912" zoomAndPan="magnify" viewBox="0 0 5184 2592.000001" height="3456" preserveAspectRatio="xMidYMid meet" version="1.0"><defs><g/></defs><g fill="#fef9ef" fill-opacity="1"><g transform="translate(2184.878864, 2323.398631)"><g><path d="M 67.175781 -59.527344 C 65.375 -65.972656 60.726562 -70.472656 54.730469 -73.621094 C 45.132812 -78.417969 35.6875 -78.121094 26.238281 -73.023438 C 24.890625 -76.171875 24.441406 -79.46875 22.492188 -81.570312 C 20.390625 -83.816406 16.945312 -86.214844 14.246094 -85.917969 C 11.695312 -85.765625 8.996094 -82.46875 7.046875 -80.070312 C 5.996094 -78.871094 5.996094 -76.46875 5.996094 -74.671875 C 5.699219 -56.828125 5.546875 -38.835938 5.546875 -20.992188 C 5.398438 -19.191406 5.847656 -17.242188 6.296875 -15.445312 C 7.945312 -8.246094 13.644531 -3.75 20.691406 -4.199219 C 27.4375 -4.648438 32.835938 -9.894531 33.585938 -17.09375 C 33.886719 -20.542969 32.835938 -24.140625 33.585938 -27.289062 C 35.238281 -34.488281 37.335938 -41.683594 39.734375 -48.582031 C 41.085938 -52.480469 44.234375 -53.230469 48.132812 -51.429688 C 50.980469 -49.929688 53.980469 -48.132812 57.128906 -47.980469 C 59.976562 -47.679688 64.175781 -48.28125 65.824219 -50.230469 C 67.472656 -52.328125 68.074219 -56.679688 67.175781 -59.527344 Z M 67.175781 -59.527344 "/></g></g></g><g fill="#fef9ef" fill-opacity="1"><g transform="translate(2258.200587, 2323.398631)"><g><path d="M 52.78125 -70.324219 C 49.332031 -70.773438 45.882812 -71.371094 42.433594 -72.273438 C 36.285156 -74.070312 30.4375 -73.320312 25.039062 -70.023438 C 12.59375 -62.527344 4.648438 -51.730469 2.550781 -37.1875 C 0.75 -24.742188 6.296875 -14.996094 18.144531 -10.945312 C 24.140625 -8.847656 30.4375 -8.097656 36.585938 -6.746094 C 45.882812 -6.597656 53.53125 -9.597656 59.976562 -15.894531 C 67.773438 -23.390625 71.824219 -32.835938 73.320312 -43.484375 C 75.121094 -56.976562 66.425781 -68.375 52.78125 -70.324219 Z M 48.429688 -41.535156 C 45.582031 -33.289062 42.734375 -30.589844 36.886719 -30.886719 C 25.191406 -31.488281 23.390625 -34.785156 29.238281 -45.132812 C 29.6875 -45.882812 30.136719 -46.632812 30.589844 -47.382812 C 36.285156 -55.777344 37.484375 -55.777344 45.730469 -50.082031 C 49.03125 -47.679688 49.78125 -45.28125 48.429688 -41.535156 Z M 48.429688 -41.535156 "/></g></g></g><g fill="#fef9ef" fill-opacity="1"><g transform="translate(2335.420815, 2323.398631)"><g><path d="M 44.382812 -28.339844 C 41.382812 -28.339844 38.535156 -28.039062 35.6875 -28.488281 C 30.289062 -29.238281 26.988281 -32.835938 27.140625 -38.234375 C 27.289062 -47.980469 30.4375 -56.679688 38.386719 -62.976562 C 44.082031 -67.324219 46.78125 -65.375 50.832031 -59.527344 C 51.878906 -58.027344 54.128906 -56.527344 56.527344 -57.726562 C 57.878906 -58.476562 59.378906 -57.578125 61.027344 -61.476562 C 63.875 -67.921875 59.527344 -76.019531 53.230469 -79.917969 C 46.632812 -84.117188 39.734375 -83.816406 32.6875 -80.820312 C 16.042969 -73.472656 4.949219 -55.480469 5.546875 -36.285156 C 5.847656 -22.339844 14.996094 -11.097656 28.640625 -8.097656 C 43.035156 -4.949219 55.179688 -10.347656 66.125 -18.894531 C 67.773438 -20.242188 68.824219 -23.839844 68.222656 -25.941406 C 67.773438 -27.589844 64.324219 -29.089844 62.226562 -29.089844 C 56.226562 -29.238281 50.230469 -28.640625 44.382812 -28.1875 C 44.382812 -28.339844 44.382812 -28.339844 44.382812 -28.339844 Z M 44.382812 -28.339844 "/></g></g></g><g fill="#fef9ef" fill-opacity="1"><g transform="translate(2409.642201, 2323.398631)"><g><path d="M 52.78125 -70.324219 C 49.332031 -70.773438 45.882812 -71.371094 42.433594 -72.273438 C 36.285156 -74.070312 30.4375 -73.320312 25.039062 -70.023438 C 12.59375 -62.527344 4.648438 -51.730469 2.550781 -37.1875 C 0.75 -24.742188 6.296875 -14.996094 18.144531 -10.945312 C 24.140625 -8.847656 30.4375 -8.097656 36.585938 -6.746094 C 45.882812 -6.597656 53.53125 -9.597656 59.976562 -15.894531 C 67.773438 -23.390625 71.824219 -32.835938 73.320312 -43.484375 C 75.121094 -56.976562 66.425781 -68.375 52.78125 -70.324219 Z M 48.429688 -41.535156 C 45.582031 -33.289062 42.734375 -30.589844 36.886719 -30.886719 C 25.191406 -31.488281 23.390625 -34.785156 29.238281 -45.132812 C 29.6875 -45.882812 30.136719 -46.632812 30.589844 -47.382812 C 36.285156 -55.777344 37.484375 -55.777344 45.730469 -50.082031 C 49.03125 -47.679688 49.78125 -45.28125 48.429688 -41.535156 Z M 48.429688 -41.535156 "/></g></g></g><g fill="#fef9ef" fill-opacity="1"><g transform="translate(2486.862429, 2323.398631)"><g><path d="M 73.472656 -25.191406 C 70.324219 -38.835938 67.472656 -52.480469 69.421875 -66.574219 C 69.574219 -67.625 69.421875 -68.671875 69.421875 -69.722656 C 69.125 -75.570312 65.523438 -79.621094 60.277344 -80.21875 C 54.878906 -80.820312 50.378906 -77.820312 48.882812 -72.121094 C 46.632812 -63.875 45.132812 -55.480469 42.882812 -47.382812 C 41.535156 -43.035156 39.734375 -38.683594 37.035156 -35.085938 C 33.886719 -30.589844 30.738281 -31.1875 29.089844 -36.4375 C 27.738281 -40.933594 26.839844 -45.582031 26.390625 -50.378906 C 25.789062 -56.226562 25.789062 -62.226562 25.488281 -68.222656 C 25.191406 -72.273438 23.992188 -75.722656 19.492188 -76.46875 C 15.292969 -77.21875 12.445312 -74.820312 11.097656 -71.222656 C 4.648438 -55.328125 3.148438 -39.136719 9.894531 -23.089844 C 15.894531 -9.144531 30.289062 -4.5 43.632812 -11.546875 C 47.382812 -13.496094 50.679688 -16.195312 54.429688 -18.742188 C 54.878906 -18.292969 55.027344 -18.144531 55.328125 -17.84375 C 59.078125 -11.394531 63.425781 -9.296875 68.375 -11.246094 C 73.320312 -13.34375 75.121094 -18.441406 73.472656 -25.191406 Z M 73.472656 -25.191406 "/></g></g></g><g fill="#fef9ef" fill-opacity="1"><g transform="translate(2566.631668, 2323.398631)"><g><path d="M 57.128906 -43.332031 C 51.429688 -48.582031 43.78125 -51.878906 36.886719 -56.078125 C 34.9375 -57.277344 32.835938 -58.027344 30.289062 -59.378906 C 35.6875 -65.675781 40.933594 -66.574219 48.132812 -62.675781 C 51.429688 -61.027344 55.027344 -59.527344 57.578125 -62.527344 C 59.527344 -64.773438 60.726562 -68.671875 60.425781 -71.523438 C 59.527344 -79.019531 54.578125 -83.667969 47.53125 -85.917969 C 33.289062 -90.414062 15.292969 -82.917969 8.398438 -69.722656 C 3.75 -60.726562 4.5 -51.128906 12.144531 -44.53125 C 17.09375 -40.335938 23.390625 -37.933594 29.238281 -35.085938 C 32.6875 -33.289062 36.4375 -32.386719 40.035156 -31.039062 C 39.882812 -30.4375 39.734375 -29.839844 39.585938 -29.089844 C 34.785156 -29.539062 30.136719 -29.988281 25.488281 -30.589844 C 18.59375 -31.339844 13.195312 -29.089844 11.097656 -24.289062 C 8.847656 -19.191406 10.195312 -12.445312 15.742188 -8.996094 C 20.542969 -5.996094 26.238281 -3.597656 31.636719 -3.148438 C 37.636719 -2.847656 43.933594 -4.347656 49.628906 -6.449219 C 67.175781 -13.046875 70.921875 -30.589844 57.128906 -43.332031 Z M 57.128906 -43.332031 "/></g></g><g transform="translate(2637.854191, 2323.398631)"><g><path d="M 77.070312 -29.988281 C 74.820312 -40.335938 73.171875 -50.980469 70.921875 -61.476562 C 70.171875 -64.773438 69.273438 -69.125 66.875 -71.074219 C 59.675781 -76.621094 51.730469 -81.417969 41.683594 -79.769531 C 24.140625 -76.621094 7.046875 -57.429688 5.546875 -38.683594 C 4.199219 -21.441406 17.992188 -9.445312 35.085938 -13.496094 C 39.585938 -14.695312 43.78125 -17.242188 47.980469 -19.34375 C 49.480469 -20.09375 50.679688 -21.292969 52.179688 -22.339844 C 52.929688 -21.292969 53.53125 -20.691406 53.980469 -19.941406 C 58.925781 -12.445312 65.375 -9.597656 71.371094 -12.144531 C 77.21875 -14.695312 79.019531 -20.992188 77.070312 -29.988281 Z M 33.585938 -35.238281 C 31.9375 -34.636719 29.539062 -34.488281 28.039062 -35.238281 C 27.140625 -35.6875 27.140625 -38.835938 27.738281 -40.335938 C 31.039062 -49.628906 36.285156 -57.128906 46.332031 -61.328125 C 48.132812 -49.78125 42.734375 -38.835938 33.585938 -35.238281 Z M 33.585938 -35.238281 "/></g></g></g><g fill="#fef9ef" fill-opacity="1"><g transform="translate(2721.371978, 2323.398631)"><g><path d="M 17.09375 -32.539062 C 11.097656 -32.6875 5.546875 -26.839844 5.546875 -20.542969 C 5.398438 -14.695312 10.347656 -9.746094 16.195312 -10.046875 C 22.191406 -10.195312 26.839844 -15.59375 26.839844 -22.042969 C 26.691406 -28.039062 22.640625 -32.539062 17.09375 -32.539062 Z M 17.09375 -32.539062 "/></g></g></g><g fill="#fef9ef" fill-opacity="1"><g transform="translate(2753.909442, 2323.398631)"><g><path d="M 52.78125 -70.324219 C 49.332031 -70.773438 45.882812 -71.371094 42.433594 -72.273438 C 36.285156 -74.070312 30.4375 -73.320312 25.039062 -70.023438 C 12.59375 -62.527344 4.648438 -51.730469 2.550781 -37.1875 C 0.75 -24.742188 6.296875 -14.996094 18.144531 -10.945312 C 24.140625 -8.847656 30.4375 -8.097656 36.585938 -6.746094 C 45.882812 -6.597656 53.53125 -9.597656 59.976562 -15.894531 C 67.773438 -23.390625 71.824219 -32.835938 73.320312 -43.484375 C 75.121094 -56.976562 66.425781 -68.375 52.78125 -70.324219 Z M 48.429688 -41.535156 C 45.582031 -33.289062 42.734375 -30.589844 36.886719 -30.886719 C 25.191406 -31.488281 23.390625 -34.785156 29.238281 -45.132812 C 29.6875 -45.882812 30.136719 -46.632812 30.589844 -47.382812 C 36.285156 -55.777344 37.484375 -55.777344 45.730469 -50.082031 C 49.03125 -47.679688 49.78125 -45.28125 48.429688 -41.535156 Z M 48.429688 -41.535156 "/></g></g></g><g fill="#fef9ef" fill-opacity="1"><g transform="translate(2831.129692, 2323.398631)"><g><path d="M 67.175781 -59.527344 C 65.375 -65.972656 60.726562 -70.472656 54.730469 -73.621094 C 45.132812 -78.417969 35.6875 -78.121094 26.238281 -73.023438 C 24.890625 -76.171875 24.441406 -79.46875 22.492188 -81.570312 C 20.390625 -83.816406 16.945312 -86.214844 14.246094 -85.917969 C 11.695312 -85.765625 8.996094 -82.46875 7.046875 -80.070312 C 5.996094 -78.871094 5.996094 -76.46875 5.996094 -74.671875 C 5.699219 -56.828125 5.546875 -38.835938 5.546875 -20.992188 C 5.398438 -19.191406 5.847656 -17.242188 6.296875 -15.445312 C 7.945312 -8.246094 13.644531 -3.75 20.691406 -4.199219 C 27.4375 -4.648438 32.835938 -9.894531 33.585938 -17.09375 C 33.886719 -20.542969 32.835938 -24.140625 33.585938 -27.289062 C 35.238281 -34.488281 37.335938 -41.683594 39.734375 -48.582031 C 41.085938 -52.480469 44.234375 -53.230469 48.132812 -51.429688 C 50.980469 -49.929688 53.980469 -48.132812 57.128906 -47.980469 C 59.976562 -47.679688 64.175781 -48.28125 65.824219 -50.230469 C 67.472656 -52.328125 68.074219 -56.679688 67.175781 -59.527344 Z M 67.175781 -59.527344 "/></g></g></g><g fill="#fef9ef" fill-opacity="1"><g transform="translate(2904.451438, 2323.398631)"><g><path d="M 68.074219 -64.175781 C 67.773438 -70.921875 64.175781 -73.621094 57.277344 -74.820312 C 55.777344 -75.121094 54.429688 -75.871094 53.230469 -76.621094 C 47.679688 -80.21875 41.683594 -81.117188 35.535156 -79.46875 C 21.292969 -75.421875 11.097656 -66.722656 6.746094 -52.328125 C 3.296875 -40.785156 7.347656 -28.789062 16.945312 -21.292969 C 26.390625 -13.945312 36.4375 -12.894531 46.78125 -19.34375 C 47.382812 -19.640625 48.132812 -19.792969 48.730469 -20.09375 C 48.582031 -8.847656 39.136719 4.5 29.089844 7.945312 C 19.640625 11.246094 15.742188 18.59375 19.941406 25.339844 C 23.242188 30.589844 28.339844 31.9375 34.1875 31.339844 C 43.183594 30.289062 50.378906 25.640625 56.378906 18.894531 C 64.324219 9.597656 69.125 -1.347656 69.421875 -13.195312 C 70.023438 -30.136719 68.972656 -47.230469 68.074219 -64.175781 Z M 36.136719 -39.433594 C 33.585938 -37.636719 30.4375 -40.335938 29.988281 -43.933594 C 29.386719 -50.980469 40.632812 -60.125 47.980469 -57.878906 C 47.082031 -49.78125 42.734375 -43.933594 36.136719 -39.433594 Z M 36.136719 -39.433594 "/></g></g></g></svg>