<svg xmlns="http://www.w3.org/2000/svg" xmlns:xlink="http://www.w3.org/1999/xlink" width="6912" zoomAndPan="magnify" viewBox="0 0 5184 2592.000001" height="3456" preserveAspectRatio="xMidYMid meet" version="1.0"><defs><clipPath id="264ec55baf"><path d="M 549 259.101562 L 579 259.101562 L 579 282 L 549 282 Z M 549 259.101562 " clip-rule="nonzero"/></clipPath></defs><path fill="#fef9ef" d="M 413.316406 401.199219 C 402.28125 368.660156 365.210938 309.519531 327.859375 353.945312 C 312.011719 372.902344 313.144531 397.804688 321.917969 419.308594 C 339.460938 462.605469 379.078125 501.652344 407.089844 538.441406 C 408.222656 539.855469 410.769531 540.988281 412.183594 539.003906 C 438.78125 505.332031 461.421875 469.113281 478.683594 429.496094 C 487.453125 409.121094 512.921875 363 497.640625 339.796875 C 468.777344 295.933594 412.75 368.660156 407.089844 396.390625 C 406.242188 400.632812 412.75 402.332031 413.597656 398.085938 C 415.578125 382.808594 422.085938 369.222656 433.125 357.621094 C 449.820312 335.832031 470.191406 335.550781 495.09375 357.054688 C 497.921875 373.1875 484.058594 399.503906 478.117188 414.214844 C 466.796875 442.796875 448.6875 492.882812 424.351562 512.691406 C 397.46875 534.761719 388.132812 502.503906 373.699219 483.261719 C 364.644531 471.375 355.308594 459.773438 346.816406 447.605469 C 333.234375 428.363281 313.425781 400.351562 324.179688 375.167969 C 360.683594 349.980469 384.734375 350.265625 396.335938 375.734375 C 400.863281 384.503906 404.542969 393.558594 407.375 403.179688 C 408.503906 406.859375 414.730469 405.160156 413.316406 401.199219 Z M 413.316406 401.199219 " fill-opacity="1" fill-rule="nonzero"/><path fill="#fef9ef" d="M 607.148438 619.367188 C 613.375 610.597656 623.5625 603.238281 632.898438 598.144531 C 637.992188 595.882812 643.085938 593.902344 648.179688 591.636719 C 652.140625 599.5625 656.101562 607.484375 660.066406 615.40625 C 661.195312 628.140625 641.390625 649.648438 634.316406 659.832031 C 624.976562 673.132812 615.355469 686.433594 605.734375 700.015625 C 601.207031 706.523438 596.960938 714.445312 591.585938 720.105469 C 581.117188 731.140625 581.964844 734.820312 568.949219 722.9375 C 547.726562 703.695312 529.617188 663.796875 522.542969 637.195312 C 520.277344 628.988281 518.015625 618.804688 519.996094 610.3125 C 523.109375 595.882812 548.574219 581.734375 562.441406 584.847656 C 579.136719 588.527344 593.851562 605.21875 601.492188 619.652344 C 603.472656 623.332031 609.128906 620.21875 607.148438 616.257812 C 592.433594 587.675781 538.386719 551.171875 517.164062 593.054688 C 493.113281 640.308594 549.707031 711.617188 578.003906 743.875 C 579.417969 745.574219 581.964844 744.722656 583.097656 743.308594 C 604.320312 713.316406 626.390625 683.601562 647.046875 653.324219 C 657.234375 638.328125 673.363281 615.972656 667.421875 596.449219 C 657.519531 564.757812 611.675781 602.390625 601.207031 616.539062 C 598.945312 619.652344 604.601562 622.765625 607.148438 619.367188 Z M 607.148438 619.367188 " fill-opacity="1" fill-rule="nonzero"/><path fill="#fef9ef" d="M 635.730469 383.9375 C 619.035156 406.578125 606.582031 431.476562 598.945312 458.640625 C 597.8125 462.605469 604.035156 464.585938 605.453125 460.339844 C 613.09375 433.742188 625.261719 409.40625 641.671875 387.335938 C 643.9375 383.9375 638.277344 380.542969 635.730469 383.9375 Z M 635.730469 383.9375 " fill-opacity="1" fill-rule="nonzero"/><path fill="#fef9ef" d="M 593 414.5 C 614.222656 415.347656 633.75 422.421875 650.445312 435.722656 C 653.839844 438.269531 658.367188 433.742188 655.253906 430.910156 C 637.144531 416.480469 616.203125 408.558594 593 407.992188 C 588.757812 407.707031 588.757812 414.214844 593 414.5 Z M 593 414.5 " fill-opacity="1" fill-rule="nonzero"/><path fill="#fef9ef" d="M 759.953125 502.21875 C 760.800781 507.878906 754.011719 512.125 749.484375 508.726562 C 750.050781 509.578125 750.613281 510.707031 751.179688 511.558594 C 750.898438 504.765625 750.332031 498.257812 750.050781 491.46875 C 749.765625 487.222656 743.257812 487.222656 743.539062 491.46875 C 743.824219 494.863281 743.824219 498.257812 744.105469 501.371094 C 744.390625 504.484375 743.824219 508.445312 744.671875 511.273438 C 745.523438 514.953125 749.484375 516.367188 752.878906 516.367188 C 760.234375 516.367188 767.875 509.859375 766.746094 501.9375 C 766.179688 498.257812 759.386719 498.257812 759.953125 502.21875 Z M 759.953125 502.21875 " fill-opacity="1" fill-rule="nonzero"/><path fill="#fef9ef" d="M 408.789062 655.589844 C 413.597656 655.871094 417.84375 660.964844 416.144531 665.777344 C 414.730469 670.304688 409.636719 672 405.394531 670.585938 C 405.957031 671.152344 406.808594 671.71875 407.375 672 C 405.394531 668.890625 406.242188 664.078125 409.921875 662.664062 C 413.882812 661.25 412.183594 654.738281 408.222656 656.15625 C 402.5625 658.417969 398.882812 664.078125 399.734375 670.304688 C 400.863281 677.660156 407.9375 679.074219 414.164062 676.246094 C 428.3125 670.019531 423.503906 649.648438 408.789062 648.796875 C 404.261719 648.796875 404.542969 655.304688 408.789062 655.589844 Z M 408.789062 655.589844 " fill-opacity="1" fill-rule="nonzero"/><path fill="#fef9ef" d="M 320.5 576.074219 C 302.957031 597.296875 285.695312 618.519531 268.152344 639.742188 C 265.605469 643.136719 270.132812 647.664062 272.964844 644.554688 C 290.507812 623.332031 307.769531 602.109375 325.3125 580.886719 C 327.859375 577.488281 323.332031 572.679688 320.5 576.074219 Z M 320.5 576.074219 " fill-opacity="1" fill-rule="nonzero"/><path fill="#fef9ef" d="M 261.644531 591.355469 C 279.472656 607.203125 297.015625 622.765625 314.84375 638.609375 C 317.957031 641.441406 322.765625 636.914062 319.652344 633.800781 C 301.824219 617.953125 284.28125 602.390625 266.453125 586.542969 C 263.058594 583.714844 258.25 588.527344 261.644531 591.355469 Z M 261.644531 591.355469 " fill-opacity="1" fill-rule="nonzero"/><g clip-path="url(#264ec55baf)"><path fill="#fef9ef" d="M 573.195312 271.316406 C 569.515625 273.863281 561.308594 277.824219 557.347656 273.582031 C 555.648438 271.601562 555.648438 266.222656 559.046875 266.222656 C 563.289062 266.507812 563.289062 259.714844 559.046875 259.714844 C 550.839844 259.433594 547.726562 269.054688 550.839844 275.5625 C 555.648438 285.75 569.230469 281.785156 576.589844 277.257812 C 579.984375 274.710938 576.871094 268.769531 573.195312 271.316406 Z M 573.195312 271.316406 " fill-opacity="1" fill-rule="nonzero"/></g><path fill="#fef9ef" d="M 396.335938 784.339844 C 363.511719 756.042969 304.371094 750.101562 299.84375 806.695312 C 295.601562 861.308594 366.625 912.808594 408.503906 935.445312 C 410.203125 936.292969 411.902344 935.730469 413.03125 934.3125 C 435.671875 901.488281 451.515625 866.117188 462.269531 827.917969 C 468.210938 806.128906 482.359375 767.929688 469.34375 745.574219 C 441.894531 698.882812 394.921875 755.195312 385.019531 784.339844 C 383.605469 788.300781 390.113281 790 391.527344 786.039062 C 394.355469 777.265625 398.320312 769.058594 403.410156 761.703125 C 417.277344 735.101562 438.5 737.085938 467.363281 767.363281 C 469.910156 780.378906 462.550781 800.1875 459.15625 813.484375 C 451.234375 844.894531 441.328125 891.300781 418.125 914.789062 C 395.207031 938.273438 361.53125 893.847656 343.421875 876.304688 C 328.707031 861.875 312.578125 845.460938 307.769531 824.804688 C 294.75 769.34375 355.589844 758.589844 391.527344 789.433594 C 394.640625 791.699219 399.449219 787.167969 396.335938 784.339844 Z M 396.335938 784.339844 " fill-opacity="1" fill-rule="nonzero"/></svg>