<svg xmlns="http://www.w3.org/2000/svg" xmlns:xlink="http://www.w3.org/1999/xlink" width="6912" zoomAndPan="magnify" viewBox="0 0 5184 2592.000001" height="3456" preserveAspectRatio="xMidYMid meet" version="1.0"><defs><clipPath id="bb68ae2931"><path d="M 1533 209.574219 L 3652 209.574219 L 3652 892 L 1533 892 Z M 1533 209.574219 " clip-rule="nonzero"/></clipPath></defs><g clip-path="url(#bb68ae2931)"><path fill="#ff865e" d="M 1535.996094 431.050781 L 1610.09375 787.738281 C 1610.472656 789.558594 1610.890625 791.367188 1611.347656 793.171875 C 1611.808594 794.972656 1612.300781 796.761719 1612.835938 798.542969 C 1613.371094 800.324219 1613.941406 802.09375 1614.550781 803.847656 C 1615.160156 805.605469 1615.804688 807.347656 1616.488281 809.078125 C 1617.171875 810.804688 1617.890625 812.519531 1618.648438 814.21875 C 1619.402344 815.914062 1620.195312 817.597656 1621.023438 819.261719 C 1621.851562 820.925781 1622.714844 822.570312 1623.613281 824.199219 C 1624.511719 825.824219 1625.445312 827.433594 1626.410156 829.019531 C 1627.375 830.609375 1628.375 832.175781 1629.410156 833.722656 C 1630.441406 835.265625 1631.507812 836.789062 1632.605469 838.289062 C 1633.703125 839.789062 1634.835938 841.265625 1635.996094 842.714844 C 1637.15625 844.167969 1638.347656 845.59375 1639.570312 846.996094 C 1640.792969 848.394531 1642.042969 849.769531 1643.324219 851.117188 C 1644.601562 852.464844 1645.910156 853.785156 1647.25 855.078125 C 1648.585938 856.367188 1649.949219 857.632812 1651.339844 858.863281 C 1652.730469 860.097656 1654.144531 861.300781 1655.585938 862.476562 C 1657.027344 863.648438 1658.496094 864.792969 1659.984375 865.902344 C 1661.476562 867.011719 1662.988281 868.09375 1664.523438 869.140625 C 1666.0625 870.183594 1667.617188 871.199219 1669.199219 872.179688 C 1670.777344 873.160156 1672.378906 874.105469 1673.996094 875.015625 C 1675.617188 875.929688 1677.253906 876.804688 1678.914062 877.648438 C 1680.570312 878.492188 1682.242188 879.296875 1683.933594 880.066406 C 1685.628906 880.839844 1687.335938 881.574219 1689.058594 882.269531 C 1690.78125 882.96875 1692.515625 883.628906 1694.269531 884.253906 C 1696.019531 884.878906 1697.78125 885.464844 1699.558594 886.015625 C 1701.335938 886.5625 1703.121094 887.074219 1704.917969 887.546875 C 1706.714844 888.019531 1708.523438 888.453125 1710.339844 888.851562 C 1712.15625 889.246094 1713.980469 889.601562 1715.8125 889.921875 C 1717.640625 890.238281 1719.480469 890.519531 1721.324219 890.757812 C 1723.167969 890.996094 1725.015625 891.199219 1726.867188 891.359375 C 1728.71875 891.519531 1730.570312 891.640625 1732.429688 891.722656 C 1734.285156 891.804688 1736.144531 891.847656 1738.003906 891.851562 L 3448.96875 891.851562 C 3450.871094 891.847656 3452.769531 891.804688 3454.671875 891.71875 C 3456.570312 891.632812 3458.46875 891.507812 3460.363281 891.339844 C 3462.257812 891.171875 3464.148438 890.960938 3466.035156 890.710938 C 3467.921875 890.460938 3469.800781 890.167969 3471.671875 889.835938 C 3473.546875 889.503906 3475.410156 889.128906 3477.265625 888.714844 C 3479.125 888.300781 3480.96875 887.847656 3482.808594 887.355469 C 3484.644531 886.859375 3486.46875 886.324219 3488.28125 885.75 C 3490.097656 885.175781 3491.898438 884.5625 3493.683594 883.910156 C 3495.46875 883.257812 3497.242188 882.566406 3499 881.839844 C 3500.753906 881.109375 3502.496094 880.339844 3504.21875 879.535156 C 3505.941406 878.730469 3507.648438 877.886719 3509.332031 877.007812 C 3511.019531 876.128906 3512.6875 875.210938 3514.332031 874.257812 C 3515.980469 873.304688 3517.605469 872.316406 3519.207031 871.292969 C 3520.8125 870.269531 3522.390625 869.214844 3523.949219 868.121094 C 3525.507812 867.027344 3527.039062 865.902344 3528.546875 864.742188 C 3530.054688 863.585938 3531.539062 862.394531 3532.996094 861.167969 C 3534.449219 859.945312 3535.878906 858.691406 3537.28125 857.40625 C 3538.683594 856.117188 3540.054688 854.800781 3541.398438 853.457031 C 3542.746094 852.109375 3544.058594 850.734375 3545.34375 849.332031 C 3546.628906 847.929688 3547.878906 846.5 3549.101562 845.039062 C 3550.324219 843.582031 3551.515625 842.097656 3552.671875 840.589844 C 3553.828125 839.078125 3554.953125 837.546875 3556.042969 835.988281 C 3557.132812 834.429688 3558.1875 832.847656 3559.210938 831.242188 C 3560.230469 829.636719 3561.21875 828.011719 3562.167969 826.363281 C 3563.117188 824.714844 3564.03125 823.046875 3564.910156 821.359375 C 3565.789062 819.671875 3566.628906 817.964844 3567.429688 816.242188 C 3568.234375 814.515625 3569 812.777344 3569.726562 811.019531 C 3570.453125 809.261719 3571.144531 807.488281 3571.792969 805.699219 C 3572.445312 803.914062 3573.054688 802.113281 3573.625 800.296875 C 3574.199219 798.484375 3574.730469 796.65625 3575.222656 794.820312 C 3575.714844 792.984375 3576.164062 791.136719 3576.578125 789.277344 C 3576.988281 787.421875 3577.359375 785.554688 3577.6875 783.683594 L 3649.621094 362.09375 C 3650.023438 359.714844 3650.355469 357.324219 3650.625 354.925781 C 3650.890625 352.527344 3651.09375 350.121094 3651.230469 347.710938 C 3651.363281 345.300781 3651.433594 342.890625 3651.433594 340.476562 C 3651.433594 338.0625 3651.371094 335.652344 3651.238281 333.242188 C 3651.105469 330.832031 3650.90625 328.425781 3650.644531 326.027344 C 3650.378906 323.628906 3650.046875 321.238281 3649.648438 318.859375 C 3649.253906 316.476562 3648.789062 314.109375 3648.261719 311.753906 C 3647.734375 309.402344 3647.140625 307.0625 3646.484375 304.738281 C 3645.828125 302.417969 3645.105469 300.113281 3644.320312 297.832031 C 3643.535156 295.550781 3642.6875 293.289062 3641.78125 291.054688 C 3640.871094 288.820312 3639.898438 286.609375 3638.867188 284.429688 C 3637.835938 282.246094 3636.742188 280.097656 3635.59375 277.972656 C 3634.441406 275.851562 3633.234375 273.765625 3631.964844 271.710938 C 3630.699219 269.65625 3629.378906 267.636719 3628 265.65625 C 3626.621094 263.675781 3625.191406 261.734375 3623.703125 259.832031 C 3622.21875 257.929688 3620.679688 256.070312 3619.09375 254.25 C 3617.503906 252.433594 3615.867188 250.664062 3614.179688 248.9375 C 3612.496094 247.210938 3610.761719 245.53125 3608.980469 243.898438 C 3607.203125 242.269531 3605.378906 240.6875 3603.511719 239.160156 C 3601.644531 237.628906 3599.738281 236.152344 3597.789062 234.726562 C 3595.839844 233.304688 3593.855469 231.933594 3591.832031 230.621094 C 3589.808594 229.304688 3587.746094 228.046875 3585.65625 226.847656 C 3583.558594 225.648438 3581.433594 224.503906 3579.277344 223.421875 C 3577.121094 222.339844 3574.9375 221.316406 3572.722656 220.355469 C 3570.507812 219.390625 3568.269531 218.492188 3566.007812 217.652344 C 3563.742188 216.816406 3561.460938 216.039062 3559.152344 215.328125 C 3556.847656 214.617188 3554.523438 213.96875 3552.179688 213.386719 C 3549.839844 212.800781 3547.480469 212.285156 3545.113281 211.832031 C 3542.742188 211.378906 3540.359375 210.992188 3537.96875 210.671875 C 3535.574219 210.347656 3533.175781 210.09375 3530.769531 209.90625 C 3528.363281 209.71875 3525.953125 209.59375 3523.542969 209.539062 C 3521.128906 209.484375 3518.714844 209.496094 3516.304688 209.574219 L 1659.582031 273.933594 C 1657.210938 274.011719 1654.84375 274.15625 1652.480469 274.363281 C 1650.117188 274.570312 1647.761719 274.839844 1645.414062 275.175781 C 1643.066406 275.511719 1640.730469 275.910156 1638.402344 276.375 C 1636.078125 276.835938 1633.765625 277.359375 1631.46875 277.949219 C 1629.171875 278.539062 1626.890625 279.1875 1624.628906 279.902344 C 1622.367188 280.613281 1620.125 281.386719 1617.90625 282.222656 C 1615.6875 283.058594 1613.492188 283.953125 1611.320312 284.90625 C 1609.148438 285.859375 1607.003906 286.875 1604.886719 287.945312 C 1602.773438 289.015625 1600.6875 290.144531 1598.632812 291.328125 C 1596.578125 292.515625 1594.558594 293.753906 1592.570312 295.046875 C 1590.582031 296.34375 1588.632812 297.691406 1586.71875 299.09375 C 1584.804688 300.492188 1582.929688 301.945312 1581.097656 303.449219 C 1579.261719 304.953125 1577.46875 306.503906 1575.71875 308.105469 C 1573.96875 309.707031 1572.265625 311.351562 1570.605469 313.046875 C 1568.945312 314.738281 1567.332031 316.476562 1565.765625 318.257812 C 1564.199219 320.039062 1562.683594 321.863281 1561.21875 323.726562 C 1559.753906 325.59375 1558.335938 327.496094 1556.976562 329.4375 C 1555.613281 331.378906 1554.304688 333.355469 1553.050781 335.367188 C 1551.792969 337.378906 1550.59375 339.425781 1549.449219 341.5 C 1548.308594 343.578125 1547.222656 345.6875 1546.191406 347.824219 C 1545.164062 349.960938 1544.195312 352.125 1543.285156 354.3125 C 1542.371094 356.503906 1541.523438 358.71875 1540.730469 360.953125 C 1539.941406 363.1875 1539.210938 365.445312 1538.542969 367.722656 C 1537.878906 369.996094 1537.273438 372.289062 1536.730469 374.597656 C 1536.1875 376.90625 1535.707031 379.230469 1535.292969 381.5625 C 1534.875 383.898438 1534.523438 386.242188 1534.234375 388.597656 C 1533.945312 390.949219 1533.722656 393.3125 1533.5625 395.675781 C 1533.402344 398.042969 1533.308594 400.414062 1533.277344 402.785156 C 1533.246094 405.15625 1533.28125 407.527344 1533.378906 409.894531 C 1533.476562 412.265625 1533.640625 414.632812 1533.867188 416.992188 C 1534.09375 419.351562 1534.386719 421.707031 1534.742188 424.050781 C 1535.097656 426.394531 1535.515625 428.730469 1535.996094 431.050781 Z M 1535.996094 431.050781 " fill-opacity="1" fill-rule="nonzero"/></g></svg>