<svg xmlns="http://www.w3.org/2000/svg" xmlns:xlink="http://www.w3.org/1999/xlink" width="6912" zoomAndPan="magnify" viewBox="0 0 5184 2592.000001" height="3456" preserveAspectRatio="xMidYMid meet" version="1.0"><defs><clipPath id="1ce4992458"><path d="M 4531 266 L 4916 266 L 4916 620 L 4531 620 Z M 4531 266 " clip-rule="nonzero"/></clipPath><clipPath id="5d41106e00"><path d="M 4578.488281 93.988281 L 5089.367188 349.648438 L 4867.929688 792.144531 L 4357.050781 536.480469 Z M 4578.488281 93.988281 " clip-rule="nonzero"/></clipPath><clipPath id="d3002f0319"><path d="M 4578.488281 93.988281 L 5089.367188 349.648438 L 4867.929688 792.144531 L 4357.050781 536.480469 Z M 4578.488281 93.988281 " clip-rule="nonzero"/></clipPath><clipPath id="7e7e734995"><path d="M 4697 416 L 4750 416 L 4750 469 L 4697 469 Z M 4697 416 " clip-rule="nonzero"/></clipPath><clipPath id="a2065a92d8"><path d="M 4578.488281 93.988281 L 5089.367188 349.648438 L 4867.929688 792.144531 L 4357.050781 536.480469 Z M 4578.488281 93.988281 " clip-rule="nonzero"/></clipPath><clipPath id="41b5ea96e3"><path d="M 4578.488281 93.988281 L 5089.367188 349.648438 L 4867.929688 792.144531 L 4357.050781 536.480469 Z M 4578.488281 93.988281 " clip-rule="nonzero"/></clipPath></defs><g clip-path="url(#1ce4992458)"><g clip-path="url(#5d41106e00)"><g clip-path="url(#d3002f0319)"><path fill="#ffffff" d="M 4749.640625 425.441406 C 4961.472656 285.683594 4706.15625 157.914062 4721.273438 411.246094 C 4706.15625 157.917969 4467.84375 315.144531 4694.792969 428.714844 C 4467.84375 315.144531 4484.851562 600.140625 4696.683594 460.382812 C 4484.851562 600.140625 4740.167969 727.910156 4725.050781 474.578125 C 4740.167969 727.90625 4978.480469 570.679688 4751.53125 457.109375 C 4978.480469 570.679688 4961.472656 285.6875 4749.640625 425.441406 Z M 4749.640625 425.441406 " fill-opacity="1" fill-rule="nonzero"/></g></g></g><g clip-path="url(#7e7e734995)"><g clip-path="url(#a2065a92d8)"><g clip-path="url(#41b5ea96e3)"><path fill="#d34a24" d="M 4746.371094 454.527344 C 4745.992188 455.289062 4745.574219 456.027344 4745.121094 456.746094 C 4744.667969 457.464844 4744.183594 458.160156 4743.660156 458.832031 C 4743.140625 459.503906 4742.585938 460.148438 4742 460.765625 C 4741.417969 461.382812 4740.804688 461.96875 4740.160156 462.523438 C 4739.519531 463.082031 4738.851562 463.605469 4738.15625 464.097656 C 4737.460938 464.589844 4736.746094 465.042969 4736.007812 465.464844 C 4735.269531 465.886719 4734.511719 466.269531 4733.734375 466.613281 C 4732.960938 466.960938 4732.167969 467.269531 4731.359375 467.539062 C 4730.554688 467.804688 4729.738281 468.035156 4728.90625 468.222656 C 4728.078125 468.410156 4727.242188 468.558594 4726.398438 468.664062 C 4725.554688 468.769531 4724.710938 468.835938 4723.859375 468.855469 C 4723.011719 468.878906 4722.160156 468.859375 4721.3125 468.800781 C 4720.464844 468.738281 4719.621094 468.636719 4718.785156 468.496094 C 4717.945312 468.351562 4717.117188 468.167969 4716.296875 467.941406 C 4715.480469 467.71875 4714.671875 467.453125 4713.878906 467.148438 C 4713.085938 466.84375 4712.308594 466.503906 4711.546875 466.121094 C 4710.789062 465.742188 4710.046875 465.324219 4709.328125 464.871094 C 4708.609375 464.417969 4707.914062 463.933594 4707.242188 463.410156 C 4706.570312 462.890625 4705.925781 462.335938 4705.308594 461.75 C 4704.691406 461.167969 4704.105469 460.554688 4703.550781 459.910156 C 4702.992188 459.269531 4702.46875 458.601562 4701.976562 457.90625 C 4701.488281 457.210938 4701.03125 456.496094 4700.609375 455.757812 C 4700.191406 455.019531 4699.804688 454.261719 4699.460938 453.484375 C 4699.113281 452.710938 4698.804688 451.917969 4698.539062 451.109375 C 4698.269531 450.304688 4698.039062 449.488281 4697.851562 448.65625 C 4697.664062 447.828125 4697.515625 446.992188 4697.410156 446.148438 C 4697.304688 445.304688 4697.242188 444.460938 4697.21875 443.609375 C 4697.195312 442.761719 4697.214844 441.910156 4697.273438 441.0625 C 4697.335938 440.214844 4697.4375 439.371094 4697.582031 438.535156 C 4697.722656 437.695312 4697.90625 436.867188 4698.132812 436.046875 C 4698.355469 435.230469 4698.621094 434.421875 4698.925781 433.628906 C 4699.230469 432.835938 4699.570312 432.058594 4699.953125 431.296875 C 4700.332031 430.539062 4700.75 429.796875 4701.203125 429.078125 C 4701.65625 428.359375 4702.144531 427.664062 4702.664062 426.992188 C 4703.1875 426.320312 4703.738281 425.675781 4704.324219 425.058594 C 4704.910156 424.441406 4705.523438 423.855469 4706.164062 423.300781 C 4706.804688 422.742188 4707.472656 422.21875 4708.167969 421.726562 C 4708.863281 421.238281 4709.578125 420.78125 4710.316406 420.359375 C 4711.054688 419.941406 4711.8125 419.554688 4712.589844 419.210938 C 4713.367188 418.863281 4714.15625 418.554688 4714.964844 418.289062 C 4715.769531 418.019531 4716.585938 417.789062 4717.417969 417.601562 C 4718.246094 417.414062 4719.082031 417.265625 4719.925781 417.160156 C 4720.769531 417.054688 4721.613281 416.992188 4722.464844 416.96875 C 4723.316406 416.945312 4724.164062 416.964844 4725.011719 417.023438 C 4725.859375 417.085938 4726.703125 417.1875 4727.539062 417.332031 C 4728.378906 417.472656 4729.207031 417.65625 4730.027344 417.882812 C 4730.847656 418.105469 4731.652344 418.371094 4732.445312 418.675781 C 4733.242188 418.980469 4734.015625 419.320312 4734.777344 419.703125 C 4735.539062 420.082031 4736.277344 420.5 4736.996094 420.953125 C 4737.714844 421.40625 4738.410156 421.894531 4739.082031 422.414062 C 4739.753906 422.9375 4740.398438 423.488281 4741.015625 424.074219 C 4741.632812 424.660156 4742.21875 425.273438 4742.773438 425.914062 C 4743.332031 426.554688 4743.855469 427.222656 4744.347656 427.917969 C 4744.839844 428.613281 4745.292969 429.328125 4745.714844 430.066406 C 4746.136719 430.804688 4746.519531 431.5625 4746.863281 432.339844 C 4747.210938 433.117188 4747.519531 433.90625 4747.789062 434.714844 C 4748.054688 435.519531 4748.285156 436.335938 4748.472656 437.167969 C 4748.660156 437.996094 4748.808594 438.832031 4748.914062 439.675781 C 4749.019531 440.519531 4749.085938 441.363281 4749.105469 442.214844 C 4749.128906 443.066406 4749.109375 443.914062 4749.050781 444.761719 C 4748.988281 445.609375 4748.886719 446.453125 4748.746094 447.289062 C 4748.601562 448.128906 4748.417969 448.957031 4748.191406 449.777344 C 4747.96875 450.597656 4747.703125 451.402344 4747.398438 452.195312 C 4747.09375 452.992188 4746.753906 453.765625 4746.371094 454.527344 Z M 4746.371094 454.527344 " fill-opacity="1" fill-rule="nonzero"/></g></g></g></svg>