<svg xmlns="http://www.w3.org/2000/svg" xmlns:xlink="http://www.w3.org/1999/xlink" width="6912" zoomAndPan="magnify" viewBox="0 0 5184 2592.000001" height="3456" preserveAspectRatio="xMidYMid meet" version="1.0"><defs><clipPath id="3577f17b7e"><path d="M 1849 2247.679688 L 1955.363281 2247.679688 L 1955.363281 2416 L 1849 2416 Z M 1849 2247.679688 " clip-rule="nonzero"/></clipPath><clipPath id="c9a2599029"><path d="M 1725 2247.679688 L 1833 2247.679688 L 1833 2416 L 1725 2416 Z M 1725 2247.679688 " clip-rule="nonzero"/></clipPath><clipPath id="3da7f05c51"><path d="M 1602 2247.679688 L 1709 2247.679688 L 1709 2416 L 1602 2416 Z M 1602 2247.679688 " clip-rule="nonzero"/></clipPath><clipPath id="8a2d4c7f30"><path d="M 1479.296875 2247.679688 L 1586 2247.679688 L 1586 2416 L 1479.296875 2416 Z M 1479.296875 2247.679688 " clip-rule="nonzero"/></clipPath></defs><g clip-path="url(#3577f17b7e)"><path fill="#009688" d="M 1849.710938 2268.703125 C 1849.558594 2268.855469 1849.441406 2269.03125 1849.359375 2269.230469 C 1849.277344 2269.425781 1849.234375 2269.632812 1849.234375 2269.847656 C 1849.234375 2270.0625 1849.277344 2270.269531 1849.359375 2270.46875 C 1849.441406 2270.667969 1849.558594 2270.84375 1849.710938 2270.992188 L 1910.59375 2331.875 L 1849.710938 2392.753906 C 1849.390625 2393.066406 1849.230469 2393.449219 1849.238281 2393.898438 C 1849.234375 2394.347656 1849.394531 2394.726562 1849.710938 2395.042969 L 1870.140625 2415.46875 C 1870.289062 2415.621094 1870.464844 2415.738281 1870.664062 2415.824219 C 1870.863281 2415.90625 1871.066406 2415.945312 1871.28125 2415.945312 C 1871.5 2415.945312 1871.703125 2415.90625 1871.902344 2415.824219 C 1872.101562 2415.738281 1872.277344 2415.621094 1872.425781 2415.46875 L 1954.890625 2333.019531 C 1955.042969 2332.867188 1955.160156 2332.691406 1955.242188 2332.492188 C 1955.324219 2332.296875 1955.367188 2332.089844 1955.367188 2331.875 C 1955.367188 2331.660156 1955.324219 2331.453125 1955.242188 2331.253906 C 1955.160156 2331.054688 1955.042969 2330.878906 1954.890625 2330.730469 L 1872.425781 2248.269531 C 1872.277344 2248.113281 1872.101562 2247.996094 1871.902344 2247.914062 C 1871.703125 2247.832031 1871.5 2247.789062 1871.28125 2247.789062 C 1871.066406 2247.789062 1870.863281 2247.832031 1870.664062 2247.914062 C 1870.464844 2247.996094 1870.289062 2248.113281 1870.140625 2248.269531 Z M 1951.457031 2331.875 L 1871.28125 2412.035156 L 1853.144531 2393.898438 L 1914.023438 2333.019531 C 1914.339844 2332.699219 1914.496094 2332.320312 1914.5 2331.875 C 1914.5 2331.425781 1914.34375 2331.042969 1914.023438 2330.730469 L 1853.144531 2269.847656 L 1871.28125 2251.699219 Z M 1951.457031 2331.875 " fill-opacity="1" fill-rule="nonzero"/></g><g clip-path="url(#c9a2599029)"><path fill="#009688" d="M 1831.617188 2333.019531 C 1831.769531 2332.867188 1831.882812 2332.691406 1831.964844 2332.492188 C 1832.046875 2332.292969 1832.085938 2332.085938 1832.085938 2331.875 C 1832.085938 2331.660156 1832.046875 2331.453125 1831.964844 2331.253906 C 1831.882812 2331.058594 1831.769531 2330.882812 1831.617188 2330.730469 L 1749.15625 2248.269531 C 1749.003906 2248.113281 1748.832031 2247.996094 1748.632812 2247.914062 C 1748.433594 2247.832031 1748.226562 2247.789062 1748.011719 2247.789062 C 1747.796875 2247.789062 1747.589844 2247.832031 1747.390625 2247.914062 C 1747.195312 2247.996094 1747.019531 2248.113281 1746.867188 2248.269531 L 1726.429688 2268.703125 C 1726.28125 2268.859375 1726.164062 2269.03125 1726.082031 2269.230469 C 1726 2269.429688 1725.960938 2269.636719 1725.960938 2269.847656 C 1725.960938 2270.0625 1726 2270.269531 1726.082031 2270.46875 C 1726.164062 2270.664062 1726.28125 2270.839844 1726.429688 2270.992188 L 1787.308594 2331.875 L 1726.429688 2392.753906 C 1726.113281 2393.070312 1725.953125 2393.449219 1725.957031 2393.898438 C 1725.960938 2394.34375 1726.117188 2394.726562 1726.429688 2395.042969 L 1746.867188 2415.46875 C 1747.019531 2415.621094 1747.191406 2415.738281 1747.390625 2415.824219 C 1747.589844 2415.90625 1747.796875 2415.945312 1748.011719 2415.945312 C 1748.226562 2415.945312 1748.433594 2415.90625 1748.632812 2415.824219 C 1748.832031 2415.738281 1749.003906 2415.621094 1749.15625 2415.46875 Z M 1729.863281 2393.898438 L 1790.742188 2333.019531 C 1791.0625 2332.703125 1791.21875 2332.320312 1791.21875 2331.875 C 1791.222656 2331.425781 1791.066406 2331.042969 1790.742188 2330.730469 L 1729.863281 2269.847656 L 1748.011719 2251.699219 L 1828.171875 2331.875 L 1748.011719 2412.035156 Z M 1729.863281 2393.898438 " fill-opacity="1" fill-rule="nonzero"/></g><g clip-path="url(#3da7f05c51)"><path fill="#009688" d="M 1708.335938 2333.019531 C 1708.488281 2332.867188 1708.605469 2332.691406 1708.691406 2332.492188 C 1708.773438 2332.296875 1708.8125 2332.089844 1708.8125 2331.875 C 1708.8125 2331.660156 1708.773438 2331.453125 1708.691406 2331.253906 C 1708.605469 2331.054688 1708.488281 2330.878906 1708.335938 2330.730469 L 1625.875 2248.269531 C 1625.558594 2247.953125 1625.175781 2247.792969 1624.730469 2247.792969 C 1624.285156 2247.796875 1623.902344 2247.953125 1623.585938 2248.269531 L 1603.160156 2268.703125 C 1603.007812 2268.855469 1602.886719 2269.03125 1602.804688 2269.230469 C 1602.722656 2269.425781 1602.679688 2269.632812 1602.679688 2269.847656 C 1602.679688 2270.0625 1602.722656 2270.269531 1602.804688 2270.46875 C 1602.886719 2270.667969 1603.007812 2270.84375 1603.160156 2270.992188 L 1664.039062 2331.875 L 1603.160156 2392.753906 C 1602.835938 2393.066406 1602.679688 2393.449219 1602.683594 2393.898438 C 1602.683594 2394.347656 1602.839844 2394.726562 1603.160156 2395.042969 L 1623.585938 2415.46875 C 1623.902344 2415.78125 1624.285156 2415.941406 1624.730469 2415.945312 C 1625.175781 2415.941406 1625.558594 2415.785156 1625.875 2415.46875 Z M 1606.59375 2393.898438 L 1667.472656 2333.019531 C 1667.785156 2332.699219 1667.941406 2332.320312 1667.945312 2331.875 C 1667.949219 2331.425781 1667.789062 2331.042969 1667.472656 2330.730469 L 1606.59375 2269.847656 L 1624.730469 2251.699219 L 1704.890625 2331.875 L 1624.71875 2412.035156 Z M 1606.59375 2393.898438 " fill-opacity="1" fill-rule="nonzero"/></g><g clip-path="url(#8a2d4c7f30)"><path fill="#009688" d="M 1585.054688 2333.019531 C 1585.207031 2332.867188 1585.324219 2332.691406 1585.40625 2332.492188 C 1585.492188 2332.296875 1585.53125 2332.089844 1585.53125 2331.875 C 1585.53125 2331.660156 1585.492188 2331.453125 1585.40625 2331.253906 C 1585.324219 2331.054688 1585.207031 2330.878906 1585.054688 2330.730469 L 1502.601562 2248.269531 C 1502.285156 2247.953125 1501.90625 2247.796875 1501.457031 2247.792969 C 1501.011719 2247.792969 1500.628906 2247.953125 1500.3125 2248.269531 L 1479.878906 2268.703125 C 1479.726562 2268.859375 1479.609375 2269.03125 1479.53125 2269.230469 C 1479.449219 2269.429688 1479.40625 2269.636719 1479.40625 2269.847656 C 1479.40625 2270.0625 1479.449219 2270.269531 1479.53125 2270.46875 C 1479.609375 2270.664062 1479.726562 2270.839844 1479.878906 2270.992188 L 1540.789062 2331.875 L 1479.910156 2392.753906 C 1479.59375 2393.070312 1479.433594 2393.449219 1479.433594 2393.898438 C 1479.4375 2394.34375 1479.597656 2394.726562 1479.910156 2395.042969 L 1500.347656 2415.46875 C 1500.664062 2415.785156 1501.042969 2415.941406 1501.492188 2415.945312 C 1501.9375 2415.941406 1502.320312 2415.78125 1502.636719 2415.46875 Z M 1483.308594 2393.898438 L 1544.191406 2333.019531 C 1544.507812 2332.703125 1544.667969 2332.320312 1544.664062 2331.875 C 1544.671875 2331.425781 1544.511719 2331.042969 1544.191406 2330.730469 L 1483.308594 2269.847656 L 1501.457031 2251.699219 L 1581.621094 2331.875 L 1501.457031 2412.035156 Z M 1483.308594 2393.898438 " fill-opacity="1" fill-rule="nonzero"/></g></svg>