<svg xmlns="http://www.w3.org/2000/svg" xmlns:xlink="http://www.w3.org/1999/xlink" width="6912" zoomAndPan="magnify" viewBox="0 0 5184 2592.000001" height="3456" preserveAspectRatio="xMidYMid meet" version="1.0"><defs><filter x="0%" y="0%" width="100%" height="100%" id="db245e6f07"><feColorMatrix values="0 0 0 0 1 0 0 0 0 1 0 0 0 0 1 0 0 0 1 0" color-interpolation-filters="sRGB"/></filter><mask id="07362e75e0"><g filter="url(#db245e6f07)"><rect x="-518.4" width="6220.8" fill="#000000" y="-259.2" height="3110.400001" fill-opacity="0.15"/></g></mask><clipPath id="3567ea21a2"><path d="M 1837 6 L 2364.992188 6 L 2364.992188 842 L 1837 842 Z M 1837 6 " clip-rule="nonzero"/></clipPath><clipPath id="c85f3e41e7"><rect x="0" width="2365" y="0" height="842"/></clipPath></defs><g mask="url(#07362e75e0)"><g transform="matrix(1, 0, 0, 1, 2818, 1749)"><g clip-path="url(#c85f3e41e7)"><g clip-path="url(#3567ea21a2)"><path fill="#009688" d="M 1840.355469 110.03125 C 1839.976562 110.402344 1839.640625 110.808594 1839.347656 111.246094 C 1839.050781 111.683594 1838.800781 112.148438 1838.597656 112.636719 C 1838.394531 113.125 1838.238281 113.625 1838.136719 114.144531 C 1838.03125 114.664062 1837.980469 115.1875 1837.980469 115.714844 C 1837.980469 116.242188 1838.03125 116.765625 1838.136719 117.285156 C 1838.238281 117.804688 1838.394531 118.308594 1838.597656 118.792969 C 1838.800781 119.28125 1839.050781 119.746094 1839.347656 120.183594 C 1839.640625 120.621094 1839.976562 121.027344 1840.355469 121.398438 L 2142.667969 423.710938 L 1840.355469 726.023438 C 1839.585938 726.769531 1839 727.632812 1838.589844 728.621094 C 1838.179688 729.609375 1837.980469 730.636719 1837.996094 731.707031 C 1837.992188 732.773438 1838.191406 733.800781 1838.601562 734.785156 C 1839.011719 735.769531 1839.59375 736.640625 1840.355469 737.390625 L 1941.785156 838.820312 C 1942.15625 839.195312 1942.5625 839.53125 1943 839.828125 C 1943.4375 840.125 1943.902344 840.375 1944.390625 840.578125 C 1944.878906 840.78125 1945.378906 840.933594 1945.898438 841.039062 C 1946.417969 841.144531 1946.941406 841.195312 1947.46875 841.195312 C 1947.996094 841.195312 1948.519531 841.144531 1949.039062 841.039062 C 1949.558594 840.933594 1950.0625 840.78125 1950.546875 840.578125 C 1951.035156 840.375 1951.5 840.125 1951.9375 839.828125 C 1952.375 839.53125 1952.78125 839.195312 1953.152344 838.820312 L 2362.632812 429.394531 C 2363.007812 429.023438 2363.34375 428.617188 2363.640625 428.179688 C 2363.9375 427.742188 2364.1875 427.277344 2364.390625 426.789062 C 2364.59375 426.300781 2364.746094 425.800781 2364.851562 425.28125 C 2364.957031 424.761719 2365.007812 424.238281 2365.007812 423.710938 C 2365.007812 423.183594 2364.957031 422.660156 2364.851562 422.140625 C 2364.746094 421.621094 2364.59375 421.117188 2364.390625 420.632812 C 2364.1875 420.144531 2363.9375 419.679688 2363.640625 419.242188 C 2363.34375 418.804688 2363.007812 418.398438 2362.632812 418.027344 L 1953.152344 8.546875 C 1952.78125 8.171875 1952.375 7.835938 1951.9375 7.539062 C 1951.5 7.242188 1951.035156 6.992188 1950.546875 6.789062 C 1950.0625 6.585938 1949.558594 6.433594 1949.039062 6.328125 C 1948.519531 6.222656 1947.996094 6.171875 1947.46875 6.171875 C 1946.941406 6.171875 1946.417969 6.222656 1945.898438 6.328125 C 1945.378906 6.433594 1944.878906 6.585938 1944.390625 6.789062 C 1943.902344 6.992188 1943.4375 7.242188 1943 7.539062 C 1942.5625 7.835938 1942.15625 8.171875 1941.785156 8.546875 Z M 2345.585938 423.710938 L 1947.46875 821.773438 L 1857.402344 731.707031 L 2159.714844 429.394531 C 2160.460938 428.636719 2161.039062 427.765625 2161.449219 426.78125 C 2161.855469 425.796875 2162.066406 424.773438 2162.074219 423.710938 C 2162.078125 422.644531 2161.871094 421.617188 2161.464844 420.632812 C 2161.054688 419.648438 2160.472656 418.78125 2159.714844 418.027344 L 1857.402344 115.714844 L 1947.46875 25.59375 Z M 2345.585938 423.710938 " fill-opacity="1" fill-rule="nonzero"/></g><path fill="#009688" d="M 1750.503906 429.394531 C 1750.871094 429.019531 1751.203125 428.609375 1751.492188 428.171875 C 1751.78125 427.730469 1752.027344 427.269531 1752.226562 426.78125 C 1752.425781 426.292969 1752.578125 425.792969 1752.679688 425.277344 C 1752.78125 424.757812 1752.832031 424.238281 1752.832031 423.710938 C 1752.832031 423.183594 1752.78125 422.664062 1752.679688 422.144531 C 1752.578125 421.628906 1752.425781 421.125 1752.226562 420.640625 C 1752.027344 420.152344 1751.78125 419.6875 1751.492188 419.25 C 1751.203125 418.808594 1750.871094 418.402344 1750.503906 418.027344 L 1341.019531 8.546875 C 1340.648438 8.171875 1340.246094 7.835938 1339.804688 7.539062 C 1339.367188 7.242188 1338.90625 6.992188 1338.417969 6.789062 C 1337.929688 6.585938 1337.425781 6.433594 1336.910156 6.328125 C 1336.390625 6.222656 1335.867188 6.171875 1335.339844 6.171875 C 1334.808594 6.171875 1334.285156 6.222656 1333.769531 6.328125 C 1333.25 6.433594 1332.746094 6.585938 1332.257812 6.789062 C 1331.769531 6.992188 1331.308594 7.242188 1330.871094 7.539062 C 1330.433594 7.835938 1330.027344 8.171875 1329.65625 8.546875 L 1228.167969 110.03125 C 1227.800781 110.40625 1227.46875 110.816406 1227.179688 111.253906 C 1226.890625 111.695312 1226.644531 112.15625 1226.445312 112.644531 C 1226.246094 113.132812 1226.09375 113.632812 1225.992188 114.148438 C 1225.890625 114.667969 1225.839844 115.1875 1225.839844 115.714844 C 1225.839844 116.242188 1225.890625 116.761719 1225.992188 117.28125 C 1226.09375 117.796875 1226.246094 118.296875 1226.445312 118.785156 C 1226.644531 119.273438 1226.890625 119.738281 1227.179688 120.175781 C 1227.46875 120.617188 1227.800781 121.023438 1228.167969 121.398438 L 1530.484375 423.710938 L 1228.167969 726.023438 C 1227.414062 726.773438 1226.828125 727.644531 1226.421875 728.628906 C 1226.011719 729.613281 1225.808594 730.640625 1225.8125 731.707031 C 1225.820312 732.769531 1226.027344 733.792969 1226.4375 734.777344 C 1226.84375 735.761719 1227.421875 736.628906 1228.167969 737.390625 L 1329.65625 838.820312 C 1330.027344 839.195312 1330.433594 839.53125 1330.871094 839.828125 C 1331.308594 840.125 1331.769531 840.375 1332.257812 840.578125 C 1332.746094 840.78125 1333.25 840.933594 1333.769531 841.039062 C 1334.285156 841.144531 1334.808594 841.195312 1335.339844 841.195312 C 1335.867188 841.195312 1336.390625 841.144531 1336.910156 841.039062 C 1337.425781 840.933594 1337.929688 840.78125 1338.417969 840.578125 C 1338.90625 840.375 1339.367188 840.125 1339.804688 839.828125 C 1340.246094 839.53125 1340.648438 839.195312 1341.019531 838.820312 Z M 1245.21875 731.707031 L 1547.53125 429.394531 C 1548.289062 428.644531 1548.875 427.777344 1549.285156 426.789062 C 1549.691406 425.804688 1549.894531 424.777344 1549.890625 423.710938 C 1549.902344 422.640625 1549.707031 421.613281 1549.296875 420.625 C 1548.886719 419.636719 1548.296875 418.773438 1547.53125 418.027344 L 1245.21875 115.714844 L 1335.339844 25.59375 L 1733.398438 423.710938 L 1335.339844 821.773438 Z M 1245.21875 731.707031 " fill-opacity="1" fill-rule="nonzero"/><path fill="#009688" d="M 1138.316406 429.394531 C 1138.695312 429.023438 1139.03125 428.617188 1139.324219 428.179688 C 1139.621094 427.742188 1139.871094 427.277344 1140.074219 426.789062 C 1140.277344 426.300781 1140.433594 425.800781 1140.535156 425.28125 C 1140.640625 424.761719 1140.691406 424.238281 1140.691406 423.710938 C 1140.691406 423.183594 1140.640625 422.660156 1140.535156 422.140625 C 1140.433594 421.621094 1140.277344 421.117188 1140.074219 420.632812 C 1139.871094 420.144531 1139.621094 419.679688 1139.324219 419.242188 C 1139.03125 418.804688 1138.695312 418.398438 1138.316406 418.027344 L 728.835938 8.546875 C 728.082031 7.792969 727.214844 7.210938 726.230469 6.800781 C 725.246094 6.394531 724.21875 6.1875 723.152344 6.1875 C 722.089844 6.195312 721.066406 6.402344 720.082031 6.808594 C 719.097656 7.21875 718.226562 7.796875 717.46875 8.546875 L 616.039062 110.03125 C 615.664062 110.402344 615.328125 110.808594 615.03125 111.246094 C 614.734375 111.683594 614.484375 112.148438 614.28125 112.636719 C 614.078125 113.125 613.925781 113.625 613.820312 114.144531 C 613.714844 114.664062 613.664062 115.1875 613.664062 115.714844 C 613.664062 116.242188 613.714844 116.765625 613.820312 117.285156 C 613.925781 117.804688 614.078125 118.308594 614.28125 118.792969 C 614.484375 119.28125 614.734375 119.746094 615.03125 120.183594 C 615.328125 120.621094 615.664062 121.027344 616.039062 121.398438 L 918.351562 423.710938 L 616.039062 726.023438 C 615.269531 726.769531 614.683594 727.632812 614.273438 728.621094 C 613.863281 729.609375 613.664062 730.636719 613.679688 731.707031 C 613.675781 732.773438 613.875 733.800781 614.285156 734.785156 C 614.695312 735.769531 615.277344 736.640625 616.039062 737.390625 L 717.46875 838.820312 C 718.226562 839.570312 719.097656 840.148438 720.082031 840.558594 C 721.0625 840.964844 722.089844 841.171875 723.152344 841.179688 C 724.21875 841.179688 725.246094 840.972656 726.230469 840.566406 C 727.214844 840.15625 728.082031 839.574219 728.835938 838.820312 Z M 633.085938 731.707031 L 935.398438 429.394531 C 936.148438 428.636719 936.722656 427.765625 937.132812 426.78125 C 937.539062 425.796875 937.75 424.773438 937.757812 423.710938 C 937.761719 422.644531 937.558594 421.617188 937.148438 420.632812 C 936.738281 419.648438 936.15625 418.78125 935.398438 418.027344 L 633.085938 115.714844 L 723.152344 25.59375 L 1121.214844 423.710938 L 723.101562 821.773438 Z M 633.085938 731.707031 " fill-opacity="1" fill-rule="nonzero"/><path fill="#009688" d="M 526.132812 429.394531 C 526.507812 429.023438 526.84375 428.617188 527.140625 428.179688 C 527.4375 427.742188 527.6875 427.277344 527.890625 426.789062 C 528.09375 426.300781 528.246094 425.800781 528.351562 425.28125 C 528.457031 424.761719 528.507812 424.238281 528.507812 423.710938 C 528.507812 423.183594 528.457031 422.660156 528.351562 422.140625 C 528.246094 421.621094 528.09375 421.117188 527.890625 420.632812 C 527.6875 420.144531 527.4375 419.679688 527.140625 419.242188 C 526.84375 418.804688 526.507812 418.398438 526.132812 418.027344 L 116.707031 8.546875 C 115.949219 7.796875 115.078125 7.21875 114.09375 6.808594 C 113.113281 6.402344 112.085938 6.195312 111.023438 6.1875 C 109.957031 6.1875 108.929688 6.394531 107.945312 6.800781 C 106.960938 7.210938 106.09375 7.792969 105.339844 8.546875 L 3.855469 110.03125 C 3.484375 110.40625 3.15625 110.816406 2.863281 111.253906 C 2.574219 111.695312 2.328125 112.15625 2.128906 112.644531 C 1.929688 113.132812 1.777344 113.632812 1.675781 114.148438 C 1.574219 114.667969 1.523438 115.1875 1.523438 115.714844 C 1.523438 116.242188 1.574219 116.761719 1.675781 117.28125 C 1.777344 117.796875 1.929688 118.296875 2.128906 118.785156 C 2.328125 119.273438 2.574219 119.738281 2.863281 120.175781 C 3.15625 120.617188 3.484375 121.023438 3.855469 121.398438 L 306.328125 423.710938 L 4.015625 726.023438 C 3.257812 726.773438 2.675781 727.644531 2.265625 728.628906 C 1.855469 729.613281 1.652344 730.640625 1.65625 731.707031 C 1.664062 732.769531 1.875 733.792969 2.28125 734.777344 C 2.691406 735.761719 3.269531 736.628906 4.015625 737.390625 L 105.5 838.820312 C 106.253906 839.574219 107.121094 840.15625 108.105469 840.566406 C 109.09375 840.972656 110.117188 841.179688 111.183594 841.179688 C 112.246094 841.171875 113.273438 840.964844 114.253906 840.558594 C 115.238281 840.148438 116.109375 839.570312 116.867188 838.820312 Z M 20.902344 731.707031 L 323.214844 429.394531 C 323.972656 428.644531 324.558594 427.777344 324.96875 426.789062 C 325.375 425.804688 325.578125 424.777344 325.574219 423.710938 C 325.589844 422.640625 325.390625 421.613281 324.980469 420.625 C 324.570312 419.636719 323.980469 418.773438 323.214844 418.027344 L 20.902344 115.714844 L 111.023438 25.59375 L 509.085938 423.710938 L 111.023438 821.773438 Z M 20.902344 731.707031 " fill-opacity="1" fill-rule="nonzero"/></g></g></g></svg>