<svg xmlns="http://www.w3.org/2000/svg" xmlns:xlink="http://www.w3.org/1999/xlink" width="6912" zoomAndPan="magnify" viewBox="0 0 5184 2592.000001" height="3456" preserveAspectRatio="xMidYMid meet" version="1.0"><defs><clipPath id="c59c297edb"><path d="M 2403 650 L 2510.078125 650 L 2510.078125 818.59375 L 2403 818.59375 Z M 2403 650 " clip-rule="nonzero"/></clipPath><clipPath id="3bee74e484"><path d="M 2280 650 L 2387 650 L 2387 818.59375 L 2280 818.59375 Z M 2280 650 " clip-rule="nonzero"/></clipPath><clipPath id="f8a0118789"><path d="M 2157 650 L 2264 650 L 2264 818.59375 L 2157 818.59375 Z M 2157 650 " clip-rule="nonzero"/></clipPath><clipPath id="ab065defbe"><path d="M 2034.011719 650 L 2141 650 L 2141 818.59375 L 2034.011719 818.59375 Z M 2034.011719 650 " clip-rule="nonzero"/></clipPath></defs><g clip-path="url(#c59c297edb)"><path fill="#009688" d="M 2404.425781 670.933594 C 2404.273438 671.085938 2404.15625 671.257812 2404.074219 671.457031 C 2403.988281 671.65625 2403.949219 671.863281 2403.949219 672.078125 C 2403.949219 672.292969 2403.988281 672.5 2404.074219 672.699219 C 2404.15625 672.894531 2404.273438 673.070312 2404.425781 673.222656 L 2465.304688 734.101562 L 2404.425781 794.980469 C 2404.105469 795.292969 2403.945312 795.675781 2403.953125 796.125 C 2403.949219 796.574219 2404.109375 796.957031 2404.425781 797.269531 L 2424.851562 817.695312 C 2425.003906 817.851562 2425.179688 817.96875 2425.378906 818.050781 C 2425.574219 818.132812 2425.78125 818.175781 2425.996094 818.175781 C 2426.210938 818.175781 2426.417969 818.132812 2426.617188 818.050781 C 2426.816406 817.96875 2426.992188 817.851562 2427.140625 817.695312 L 2509.601562 735.246094 C 2509.757812 735.09375 2509.875 734.921875 2509.957031 734.722656 C 2510.039062 734.523438 2510.082031 734.316406 2510.082031 734.101562 C 2510.082031 733.886719 2510.039062 733.679688 2509.957031 733.480469 C 2509.875 733.285156 2509.757812 733.109375 2509.601562 732.957031 L 2427.140625 650.496094 C 2426.992188 650.34375 2426.816406 650.226562 2426.617188 650.140625 C 2426.417969 650.058594 2426.210938 650.019531 2425.996094 650.019531 C 2425.78125 650.019531 2425.574219 650.058594 2425.378906 650.140625 C 2425.179688 650.226562 2425.003906 650.34375 2424.851562 650.496094 Z M 2506.167969 734.101562 L 2425.996094 814.265625 L 2407.859375 796.125 L 2468.738281 735.246094 C 2469.050781 734.929688 2469.210938 734.546875 2469.214844 734.101562 C 2469.214844 733.652344 2469.058594 733.273438 2468.738281 732.957031 L 2407.859375 672.078125 L 2425.996094 653.929688 Z M 2506.167969 734.101562 " fill-opacity="1" fill-rule="nonzero"/></g><g clip-path="url(#3bee74e484)"><path fill="#009688" d="M 2386.332031 735.246094 C 2386.480469 735.09375 2386.597656 734.917969 2386.679688 734.71875 C 2386.761719 734.523438 2386.800781 734.316406 2386.800781 734.101562 C 2386.800781 733.886719 2386.761719 733.679688 2386.679688 733.484375 C 2386.597656 733.285156 2386.480469 733.109375 2386.332031 732.957031 L 2303.871094 650.496094 C 2303.71875 650.34375 2303.542969 650.226562 2303.347656 650.140625 C 2303.148438 650.058594 2302.941406 650.019531 2302.726562 650.019531 C 2302.511719 650.019531 2302.304688 650.058594 2302.105469 650.140625 C 2301.90625 650.226562 2301.734375 650.34375 2301.582031 650.496094 L 2281.144531 670.933594 C 2280.992188 671.085938 2280.878906 671.261719 2280.796875 671.460938 C 2280.714844 671.65625 2280.675781 671.863281 2280.675781 672.078125 C 2280.675781 672.292969 2280.714844 672.496094 2280.796875 672.695312 C 2280.878906 672.894531 2280.992188 673.070312 2281.144531 673.222656 L 2342.023438 734.101562 L 2281.144531 794.980469 C 2280.828125 795.296875 2280.667969 795.679688 2280.667969 796.125 C 2280.671875 796.570312 2280.832031 796.953125 2281.144531 797.269531 L 2301.582031 817.695312 C 2301.734375 817.851562 2301.90625 817.96875 2302.105469 818.050781 C 2302.304688 818.132812 2302.511719 818.175781 2302.726562 818.175781 C 2302.941406 818.175781 2303.148438 818.132812 2303.347656 818.050781 C 2303.542969 817.96875 2303.71875 817.851562 2303.871094 817.695312 Z M 2284.578125 796.125 L 2345.457031 735.246094 C 2345.777344 734.929688 2345.933594 734.550781 2345.933594 734.101562 C 2345.9375 733.652344 2345.78125 733.269531 2345.457031 732.957031 L 2284.578125 672.078125 L 2302.726562 653.929688 L 2382.886719 734.101562 L 2302.726562 814.265625 Z M 2284.578125 796.125 " fill-opacity="1" fill-rule="nonzero"/></g><g clip-path="url(#f8a0118789)"><path fill="#009688" d="M 2263.050781 735.246094 C 2263.203125 735.09375 2263.320312 734.921875 2263.402344 734.722656 C 2263.488281 734.523438 2263.527344 734.316406 2263.527344 734.101562 C 2263.527344 733.886719 2263.488281 733.679688 2263.402344 733.480469 C 2263.320312 733.285156 2263.203125 733.109375 2263.050781 732.957031 L 2180.589844 650.496094 C 2180.273438 650.179688 2179.890625 650.019531 2179.445312 650.019531 C 2178.996094 650.023438 2178.617188 650.183594 2178.300781 650.496094 L 2157.871094 670.933594 C 2157.71875 671.085938 2157.601562 671.257812 2157.519531 671.457031 C 2157.4375 671.65625 2157.394531 671.863281 2157.394531 672.078125 C 2157.394531 672.292969 2157.4375 672.5 2157.519531 672.699219 C 2157.601562 672.894531 2157.71875 673.070312 2157.871094 673.222656 L 2218.753906 734.101562 L 2157.871094 794.980469 C 2157.550781 795.292969 2157.390625 795.675781 2157.398438 796.125 C 2157.394531 796.574219 2157.554688 796.957031 2157.871094 797.269531 L 2178.300781 817.695312 C 2178.617188 818.011719 2178.996094 818.167969 2179.445312 818.171875 C 2179.890625 818.171875 2180.273438 818.011719 2180.589844 817.695312 Z M 2161.304688 796.125 L 2222.1875 735.246094 C 2222.5 734.929688 2222.65625 734.546875 2222.660156 734.101562 C 2222.660156 733.652344 2222.503906 733.273438 2222.1875 732.957031 L 2161.304688 672.078125 L 2179.445312 653.929688 L 2259.605469 734.101562 L 2179.433594 814.265625 Z M 2161.304688 796.125 " fill-opacity="1" fill-rule="nonzero"/></g><g clip-path="url(#ab065defbe)"><path fill="#009688" d="M 2139.769531 735.246094 C 2139.921875 735.09375 2140.039062 734.921875 2140.121094 734.722656 C 2140.203125 734.523438 2140.246094 734.316406 2140.246094 734.101562 C 2140.246094 733.886719 2140.203125 733.679688 2140.121094 733.480469 C 2140.039062 733.285156 2139.921875 733.109375 2139.769531 732.957031 L 2057.316406 650.496094 C 2057 650.183594 2056.617188 650.023438 2056.171875 650.019531 C 2055.726562 650.019531 2055.34375 650.179688 2055.027344 650.496094 L 2034.589844 670.933594 C 2034.441406 671.085938 2034.324219 671.261719 2034.242188 671.460938 C 2034.164062 671.65625 2034.121094 671.863281 2034.121094 672.078125 C 2034.121094 672.292969 2034.164062 672.496094 2034.242188 672.695312 C 2034.324219 672.894531 2034.441406 673.070312 2034.589844 673.222656 L 2095.503906 734.101562 L 2034.625 794.980469 C 2034.304688 795.296875 2034.148438 795.679688 2034.148438 796.125 C 2034.152344 796.570312 2034.3125 796.953125 2034.625 797.269531 L 2055.0625 817.695312 C 2055.375 818.011719 2055.757812 818.171875 2056.203125 818.171875 C 2056.652344 818.167969 2057.03125 818.011719 2057.347656 817.695312 Z M 2038.023438 796.125 L 2098.902344 735.246094 C 2099.222656 734.929688 2099.382812 734.550781 2099.378906 734.101562 C 2099.386719 733.652344 2099.226562 733.269531 2098.902344 732.957031 L 2038.023438 672.078125 L 2056.171875 653.929688 L 2136.335938 734.101562 L 2056.171875 814.265625 Z M 2038.023438 796.125 " fill-opacity="1" fill-rule="nonzero"/></g></svg>