<svg xmlns="http://www.w3.org/2000/svg" xmlns:xlink="http://www.w3.org/1999/xlink" width="6912" zoomAndPan="magnify" viewBox="0 0 5184 2592.000001" height="3456" preserveAspectRatio="xMidYMid meet" version="1.0"><defs><filter x="0%" y="0%" width="100%" height="100%" id="3caafb1f02"><feColorMatrix values="0 0 0 0 1 0 0 0 0 1 0 0 0 0 1 0 0 0 1 0" color-interpolation-filters="sRGB"/></filter><mask id="e8cb89b5ea"><g filter="url(#3caafb1f02)"><rect x="-518.4" width="6220.8" fill="#000000" y="-259.2" height="3110.400001" fill-opacity="0.15"/></g></mask><clipPath id="36770b7144"><path d="M 1837 0 L 2364.25 0 L 2364.25 836 L 1837 836 Z M 1837 0 " clip-rule="nonzero"/></clipPath><clipPath id="3b698d531c"><rect x="0" width="2370" y="0" height="838"/></clipPath></defs><g mask="url(#e8cb89b5ea)"><g transform="matrix(1, 0, 0, 1, 1, -0.000000000000208807)"><g clip-path="url(#3b698d531c)"><g clip-path="url(#36770b7144)"><path fill="#009688" d="M 1839.609375 104.386719 C 1839.234375 104.757812 1838.898438 105.164062 1838.601562 105.601562 C 1838.308594 106.039062 1838.058594 106.503906 1837.855469 106.992188 C 1837.648438 107.480469 1837.496094 107.980469 1837.394531 108.5 C 1837.289062 109.019531 1837.238281 109.542969 1837.238281 110.070312 C 1837.238281 110.597656 1837.289062 111.121094 1837.390625 111.640625 C 1837.496094 112.160156 1837.648438 112.664062 1837.855469 113.148438 C 1838.058594 113.636719 1838.308594 114.101562 1838.601562 114.539062 C 1838.898438 114.976562 1839.234375 115.382812 1839.609375 115.753906 L 2141.921875 418.066406 L 1839.609375 720.378906 C 1838.84375 721.125 1838.253906 721.988281 1837.84375 722.976562 C 1837.433594 723.964844 1837.238281 724.992188 1837.253906 726.0625 C 1837.246094 727.128906 1837.449219 728.15625 1837.859375 729.140625 C 1838.265625 730.125 1838.851562 730.996094 1839.609375 731.746094 L 1941.042969 833.175781 C 1941.414062 833.550781 1941.820312 833.886719 1942.257812 834.183594 C 1942.695312 834.480469 1943.160156 834.730469 1943.644531 834.933594 C 1944.132812 835.136719 1944.636719 835.292969 1945.15625 835.394531 C 1945.671875 835.5 1946.195312 835.550781 1946.726562 835.550781 C 1947.253906 835.550781 1947.777344 835.5 1948.296875 835.394531 C 1948.8125 835.292969 1949.316406 835.136719 1949.804688 834.933594 C 1950.292969 834.730469 1950.753906 834.480469 1951.195312 834.183594 C 1951.632812 833.886719 1952.035156 833.550781 1952.410156 833.175781 L 2361.890625 423.75 C 2362.265625 423.378906 2362.601562 422.972656 2362.898438 422.535156 C 2363.191406 422.097656 2363.441406 421.632812 2363.648438 421.144531 C 2363.851562 420.65625 2364.003906 420.15625 2364.109375 419.636719 C 2364.210938 419.117188 2364.265625 418.59375 2364.265625 418.066406 C 2364.265625 417.539062 2364.210938 417.015625 2364.109375 416.496094 C 2364.003906 415.976562 2363.851562 415.472656 2363.648438 414.988281 C 2363.441406 414.5 2363.191406 414.035156 2362.898438 413.597656 C 2362.601562 413.160156 2362.265625 412.753906 2361.890625 412.382812 L 1952.410156 2.902344 C 1952.039062 2.527344 1951.632812 2.191406 1951.195312 1.894531 C 1950.757812 1.597656 1950.292969 1.347656 1949.804688 1.144531 C 1949.316406 0.941406 1948.8125 0.789062 1948.296875 0.683594 C 1947.777344 0.578125 1947.253906 0.527344 1946.726562 0.527344 C 1946.195312 0.527344 1945.671875 0.578125 1945.15625 0.683594 C 1944.636719 0.789062 1944.132812 0.941406 1943.644531 1.144531 C 1943.160156 1.347656 1942.695312 1.597656 1942.257812 1.894531 C 1941.820312 2.191406 1941.414062 2.527344 1941.042969 2.902344 Z M 2344.839844 418.066406 L 1946.726562 816.128906 L 1856.660156 726.0625 L 2158.972656 423.75 C 2159.71875 422.992188 2160.296875 422.121094 2160.703125 421.136719 C 2161.113281 420.152344 2161.320312 419.128906 2161.332031 418.066406 C 2161.332031 417 2161.128906 415.972656 2160.71875 414.988281 C 2160.3125 414.003906 2159.730469 413.136719 2158.972656 412.382812 L 1856.660156 110.070312 L 1946.726562 19.949219 Z M 2344.839844 418.066406 " fill-opacity="1" fill-rule="nonzero"/></g><path fill="#009688" d="M 1749.757812 423.75 C 1750.128906 423.375 1750.457031 422.964844 1750.75 422.527344 C 1751.039062 422.085938 1751.285156 421.625 1751.484375 421.136719 C 1751.683594 420.648438 1751.835938 420.148438 1751.9375 419.632812 C 1752.039062 419.113281 1752.089844 418.59375 1752.089844 418.066406 C 1752.089844 417.539062 1752.039062 417.019531 1751.9375 416.5 C 1751.835938 415.984375 1751.683594 415.484375 1751.484375 414.996094 C 1751.285156 414.507812 1751.039062 414.042969 1750.75 413.605469 C 1750.457031 413.164062 1750.128906 412.757812 1749.757812 412.382812 L 1340.277344 2.902344 C 1339.90625 2.527344 1339.5 2.191406 1339.0625 1.894531 C 1338.625 1.597656 1338.160156 1.347656 1337.675781 1.144531 C 1337.1875 0.941406 1336.683594 0.789062 1336.164062 0.683594 C 1335.648438 0.578125 1335.125 0.527344 1334.59375 0.527344 C 1334.066406 0.527344 1333.542969 0.578125 1333.023438 0.683594 C 1332.507812 0.789062 1332.003906 0.941406 1331.515625 1.144531 C 1331.027344 1.347656 1330.566406 1.597656 1330.125 1.894531 C 1329.6875 2.191406 1329.285156 2.527344 1328.910156 2.902344 L 1227.425781 104.386719 C 1227.054688 104.761719 1226.726562 105.171875 1226.4375 105.609375 C 1226.144531 106.050781 1225.902344 106.511719 1225.703125 107 C 1225.5 107.488281 1225.351562 107.988281 1225.25 108.503906 C 1225.148438 109.023438 1225.097656 109.542969 1225.097656 110.070312 C 1225.097656 110.597656 1225.148438 111.117188 1225.25 111.636719 C 1225.351562 112.152344 1225.5 112.65625 1225.703125 113.140625 C 1225.902344 113.628906 1226.144531 114.09375 1226.4375 114.53125 C 1226.726562 114.972656 1227.054688 115.378906 1227.425781 115.753906 L 1529.738281 418.066406 L 1227.425781 720.378906 C 1226.667969 721.128906 1226.085938 722 1225.675781 722.984375 C 1225.269531 723.96875 1225.066406 724.996094 1225.066406 726.0625 C 1225.078125 727.125 1225.285156 728.148438 1225.695312 729.132812 C 1226.101562 730.117188 1226.679688 730.984375 1227.425781 731.746094 L 1328.910156 833.175781 C 1329.285156 833.554688 1329.6875 833.886719 1330.125 834.183594 C 1330.566406 834.480469 1331.027344 834.730469 1331.515625 834.933594 C 1332.003906 835.136719 1332.507812 835.292969 1333.023438 835.394531 C 1333.542969 835.5 1334.066406 835.550781 1334.59375 835.550781 C 1335.125 835.550781 1335.648438 835.5 1336.164062 835.394531 C 1336.683594 835.292969 1337.1875 835.136719 1337.675781 834.933594 C 1338.160156 834.730469 1338.625 834.480469 1339.0625 834.183594 C 1339.5 833.886719 1339.90625 833.554688 1340.277344 833.175781 Z M 1244.472656 726.0625 L 1546.789062 423.75 C 1547.546875 423 1548.128906 422.132812 1548.539062 421.144531 C 1548.949219 420.160156 1549.152344 419.132812 1549.144531 418.066406 C 1549.160156 416.996094 1548.960938 415.96875 1548.554688 414.980469 C 1548.144531 413.992188 1547.554688 413.128906 1546.789062 412.382812 L 1244.472656 110.070312 L 1334.59375 19.949219 L 1732.65625 418.066406 L 1334.59375 816.128906 Z M 1244.472656 726.0625 " fill-opacity="1" fill-rule="nonzero"/><path fill="#009688" d="M 1137.574219 423.75 C 1137.949219 423.378906 1138.285156 422.972656 1138.582031 422.535156 C 1138.878906 422.097656 1139.128906 421.632812 1139.332031 421.144531 C 1139.535156 420.65625 1139.6875 420.15625 1139.792969 419.636719 C 1139.894531 419.117188 1139.949219 418.59375 1139.949219 418.066406 C 1139.949219 417.539062 1139.894531 417.015625 1139.792969 416.496094 C 1139.6875 415.976562 1139.535156 415.472656 1139.332031 414.988281 C 1139.128906 414.5 1138.878906 414.035156 1138.582031 413.597656 C 1138.285156 413.160156 1137.949219 412.753906 1137.574219 412.382812 L 728.09375 2.902344 C 727.339844 2.148438 726.46875 1.566406 725.484375 1.15625 C 724.5 0.75 723.476562 0.542969 722.410156 0.542969 C 721.34375 0.550781 720.320312 0.757812 719.335938 1.164062 C 718.355469 1.574219 717.484375 2.152344 716.726562 2.902344 L 615.296875 104.386719 C 614.917969 104.757812 614.582031 105.164062 614.289062 105.601562 C 613.992188 106.039062 613.742188 106.503906 613.539062 106.992188 C 613.335938 107.480469 613.179688 107.980469 613.078125 108.5 C 612.972656 109.019531 612.921875 109.542969 612.921875 110.070312 C 612.921875 110.597656 612.972656 111.121094 613.078125 111.640625 C 613.179688 112.160156 613.335938 112.664062 613.539062 113.148438 C 613.742188 113.636719 613.992188 114.101562 614.289062 114.539062 C 614.582031 114.976562 614.917969 115.382812 615.296875 115.753906 L 917.609375 418.066406 L 615.292969 720.378906 C 614.527344 721.125 613.9375 721.988281 613.53125 722.976562 C 613.121094 723.964844 612.921875 724.992188 612.9375 726.0625 C 612.929688 727.128906 613.132812 728.15625 613.542969 729.140625 C 613.953125 730.125 614.535156 730.996094 615.292969 731.746094 L 716.726562 833.175781 C 717.484375 833.925781 718.355469 834.503906 719.335938 834.914062 C 720.320312 835.320312 721.34375 835.527344 722.410156 835.535156 C 723.476562 835.535156 724.5 835.328125 725.484375 834.921875 C 726.46875 834.511719 727.339844 833.929688 728.09375 833.175781 Z M 632.34375 726.0625 L 934.65625 423.75 C 935.402344 422.992188 935.980469 422.121094 936.386719 421.136719 C 936.796875 420.152344 937.003906 419.128906 937.015625 418.066406 C 937.015625 417 936.8125 415.972656 936.40625 414.988281 C 935.996094 414.003906 935.414062 413.136719 934.65625 412.382812 L 632.34375 110.070312 L 722.410156 19.949219 L 1120.472656 418.066406 L 722.355469 816.128906 Z M 632.34375 726.0625 " fill-opacity="1" fill-rule="nonzero"/><path fill="#009688" d="M 525.390625 423.75 C 525.765625 423.378906 526.101562 422.972656 526.398438 422.535156 C 526.691406 422.097656 526.941406 421.632812 527.144531 421.144531 C 527.351562 420.65625 527.503906 420.15625 527.609375 419.636719 C 527.710938 419.117188 527.761719 418.59375 527.761719 418.066406 C 527.761719 417.539062 527.710938 417.015625 527.609375 416.496094 C 527.503906 415.976562 527.351562 415.472656 527.144531 414.988281 C 526.941406 414.5 526.691406 414.035156 526.398438 413.597656 C 526.101562 413.160156 525.765625 412.753906 525.390625 412.382812 L 115.960938 2.902344 C 115.203125 2.152344 114.335938 1.574219 113.351562 1.164062 C 112.367188 0.757812 111.34375 0.550781 110.277344 0.542969 C 109.210938 0.542969 108.1875 0.75 107.203125 1.15625 C 106.21875 1.566406 105.347656 2.148438 104.597656 2.902344 L 3.109375 104.386719 C 2.742188 104.761719 2.410156 105.171875 2.121094 105.609375 C 1.832031 106.050781 1.585938 106.511719 1.386719 107 C 1.1875 107.488281 1.035156 107.988281 0.933594 108.503906 C 0.832031 109.023438 0.78125 109.542969 0.78125 110.070312 C 0.78125 110.597656 0.832031 111.117188 0.933594 111.636719 C 1.035156 112.152344 1.1875 112.65625 1.386719 113.140625 C 1.585938 113.628906 1.832031 114.09375 2.121094 114.53125 C 2.410156 114.972656 2.742188 115.378906 3.109375 115.753906 L 305.582031 418.066406 L 3.269531 720.378906 C 2.515625 721.128906 1.933594 722 1.523438 722.984375 C 1.113281 723.96875 0.910156 724.996094 0.914062 726.0625 C 0.921875 727.125 1.128906 728.148438 1.539062 729.132812 C 1.945312 730.117188 2.523438 730.984375 3.269531 731.746094 L 104.757812 833.175781 C 105.511719 833.929688 106.378906 834.511719 107.363281 834.921875 C 108.347656 835.328125 109.375 835.535156 110.441406 835.535156 C 111.503906 835.527344 112.527344 835.320312 113.511719 834.914062 C 114.496094 834.503906 115.367188 833.925781 116.121094 833.175781 Z M 20.160156 726.0625 L 322.472656 423.75 C 323.230469 423 323.816406 422.132812 324.222656 421.144531 C 324.632812 420.160156 324.835938 419.132812 324.832031 418.066406 C 324.84375 416.996094 324.648438 415.96875 324.238281 414.980469 C 323.828125 413.992188 323.238281 413.128906 322.472656 412.382812 L 20.160156 110.070312 L 110.277344 19.949219 L 508.339844 418.066406 L 110.277344 816.128906 Z M 20.160156 726.0625 " fill-opacity="1" fill-rule="nonzero"/></g></g></g></svg>