<svg xmlns="http://www.w3.org/2000/svg" xmlns:xlink="http://www.w3.org/1999/xlink" width="6912" zoomAndPan="magnify" viewBox="0 0 5184 2592.000001" height="3456" preserveAspectRatio="xMidYMid meet" version="1.0"><defs><clipPath id="7b1e32c54b"><path d="M 4806 259.097656 L 4923.894531 259.097656 L 4923.894531 445.773438 L 4806 445.773438 Z M 4806 259.097656 " clip-rule="nonzero"/></clipPath><clipPath id="bdbdee1003"><path d="M 4669 259.097656 L 4788 259.097656 L 4788 445.773438 L 4669 445.773438 Z M 4669 259.097656 " clip-rule="nonzero"/></clipPath><clipPath id="d5ac09e70d"><path d="M 4532 259.097656 L 4651 259.097656 L 4651 445.773438 L 4532 445.773438 Z M 4532 259.097656 " clip-rule="nonzero"/></clipPath><clipPath id="87076c69a0"><path d="M 4395.347656 259.097656 L 4514 259.097656 L 4514 445.773438 L 4395.347656 445.773438 Z M 4395.347656 259.097656 " clip-rule="nonzero"/></clipPath></defs><g clip-path="url(#7b1e32c54b)"><path fill="#009688" d="M 4806.683594 282.417969 C 4806.511719 282.585938 4806.382812 282.78125 4806.289062 283 C 4806.195312 283.21875 4806.152344 283.449219 4806.152344 283.6875 C 4806.152344 283.925781 4806.195312 284.15625 4806.289062 284.375 C 4806.382812 284.597656 4806.511719 284.789062 4806.683594 284.957031 L 4874.222656 352.5 L 4806.683594 420.039062 C 4806.324219 420.386719 4806.148438 420.8125 4806.15625 421.308594 C 4806.152344 421.808594 4806.328125 422.230469 4806.683594 422.578125 L 4829.34375 445.242188 C 4829.511719 445.410156 4829.703125 445.542969 4829.925781 445.632812 C 4830.144531 445.726562 4830.375 445.769531 4830.613281 445.769531 C 4830.851562 445.769531 4831.082031 445.726562 4831.300781 445.632812 C 4831.519531 445.542969 4831.714844 445.410156 4831.882812 445.242188 L 4923.367188 353.769531 C 4923.535156 353.601562 4923.667969 353.40625 4923.757812 353.1875 C 4923.851562 352.96875 4923.898438 352.738281 4923.898438 352.5 C 4923.898438 352.261719 4923.851562 352.03125 4923.757812 351.8125 C 4923.667969 351.589844 4923.535156 351.398438 4923.367188 351.230469 L 4831.882812 259.746094 C 4831.714844 259.574219 4831.519531 259.445312 4831.300781 259.351562 C 4831.082031 259.261719 4830.851562 259.214844 4830.613281 259.214844 C 4830.375 259.214844 4830.144531 259.261719 4829.925781 259.351562 C 4829.703125 259.445312 4829.511719 259.574219 4829.34375 259.746094 Z M 4919.558594 352.5 L 4830.613281 441.433594 L 4810.492188 421.308594 L 4878.03125 353.769531 C 4878.378906 353.417969 4878.554688 352.992188 4878.558594 352.5 C 4878.558594 352.003906 4878.382812 351.578125 4878.03125 351.230469 L 4810.492188 283.6875 L 4830.613281 263.554688 Z M 4919.558594 352.5 " fill-opacity="1" fill-rule="nonzero"/></g><g clip-path="url(#bdbdee1003)"><path fill="#009688" d="M 4786.609375 353.769531 C 4786.773438 353.597656 4786.902344 353.40625 4786.992188 353.183594 C 4787.082031 352.964844 4787.128906 352.738281 4787.128906 352.5 C 4787.128906 352.261719 4787.082031 352.03125 4786.992188 351.8125 C 4786.902344 351.59375 4786.773438 351.398438 4786.609375 351.230469 L 4695.125 259.746094 C 4694.957031 259.574219 4694.761719 259.445312 4694.542969 259.351562 C 4694.320312 259.261719 4694.09375 259.214844 4693.855469 259.214844 C 4693.617188 259.214844 4693.386719 259.261719 4693.164062 259.351562 C 4692.945312 259.445312 4692.753906 259.574219 4692.585938 259.746094 L 4669.910156 282.417969 C 4669.746094 282.589844 4669.617188 282.78125 4669.527344 283.003906 C 4669.433594 283.222656 4669.390625 283.449219 4669.390625 283.6875 C 4669.390625 283.925781 4669.433594 284.15625 4669.527344 284.375 C 4669.617188 284.59375 4669.746094 284.789062 4669.910156 284.957031 L 4737.453125 352.5 L 4669.910156 420.039062 C 4669.558594 420.390625 4669.382812 420.8125 4669.382812 421.308594 C 4669.386719 421.804688 4669.5625 422.226562 4669.910156 422.578125 L 4692.585938 445.242188 C 4692.753906 445.410156 4692.945312 445.542969 4693.164062 445.632812 C 4693.386719 445.726562 4693.617188 445.769531 4693.855469 445.769531 C 4694.09375 445.769531 4694.320312 445.726562 4694.542969 445.632812 C 4694.761719 445.542969 4694.957031 445.410156 4695.125 445.242188 Z M 4673.71875 421.308594 L 4741.261719 353.769531 C 4741.613281 353.417969 4741.789062 352.996094 4741.789062 352.5 C 4741.792969 352 4741.617188 351.578125 4741.261719 351.230469 L 4673.71875 283.6875 L 4693.855469 263.554688 L 4782.785156 352.5 L 4693.855469 441.433594 Z M 4673.71875 421.308594 " fill-opacity="1" fill-rule="nonzero"/></g><g clip-path="url(#d5ac09e70d)"><path fill="#009688" d="M 4649.835938 353.769531 C 4650.007812 353.601562 4650.136719 353.40625 4650.230469 353.1875 C 4650.320312 352.96875 4650.367188 352.738281 4650.367188 352.5 C 4650.367188 352.261719 4650.320312 352.03125 4650.230469 351.8125 C 4650.136719 351.589844 4650.007812 351.398438 4649.835938 351.230469 L 4558.351562 259.746094 C 4558.003906 259.394531 4557.578125 259.21875 4557.082031 259.21875 C 4556.589844 259.222656 4556.164062 259.398438 4555.8125 259.746094 L 4533.152344 282.417969 C 4532.984375 282.585938 4532.851562 282.78125 4532.757812 283 C 4532.667969 283.21875 4532.621094 283.449219 4532.621094 283.6875 C 4532.621094 283.925781 4532.667969 284.15625 4532.757812 284.375 C 4532.851562 284.597656 4532.984375 284.789062 4533.152344 284.957031 L 4600.691406 352.5 L 4533.152344 420.039062 C 4532.792969 420.386719 4532.617188 420.8125 4532.625 421.308594 C 4532.621094 421.808594 4532.796875 422.230469 4533.152344 422.578125 L 4555.8125 445.242188 C 4556.164062 445.589844 4556.589844 445.765625 4557.082031 445.765625 C 4557.578125 445.765625 4558.003906 445.589844 4558.351562 445.242188 Z M 4536.960938 421.308594 L 4604.503906 353.769531 C 4604.847656 353.417969 4605.023438 352.992188 4605.027344 352.5 C 4605.03125 352.003906 4604.855469 351.578125 4604.503906 351.230469 L 4536.960938 283.6875 L 4557.082031 263.554688 L 4646.015625 352.5 L 4557.070312 441.433594 Z M 4536.960938 421.308594 " fill-opacity="1" fill-rule="nonzero"/></g><g clip-path="url(#87076c69a0)"><path fill="#009688" d="M 4513.066406 353.769531 C 4513.234375 353.601562 4513.367188 353.40625 4513.457031 353.1875 C 4513.550781 352.96875 4513.597656 352.738281 4513.597656 352.5 C 4513.597656 352.261719 4513.550781 352.03125 4513.457031 351.8125 C 4513.367188 351.589844 4513.234375 351.398438 4513.066406 351.230469 L 4421.59375 259.746094 C 4421.242188 259.398438 4420.820312 259.222656 4420.324219 259.21875 C 4419.828125 259.21875 4419.40625 259.394531 4419.054688 259.746094 L 4396.382812 282.417969 C 4396.214844 282.589844 4396.085938 282.78125 4395.996094 283.003906 C 4395.90625 283.222656 4395.859375 283.449219 4395.859375 283.6875 C 4395.859375 283.925781 4395.90625 284.15625 4395.996094 284.375 C 4396.085938 284.59375 4396.214844 284.789062 4396.382812 284.957031 L 4463.957031 352.5 L 4396.417969 420.039062 C 4396.066406 420.390625 4395.890625 420.8125 4395.890625 421.308594 C 4395.894531 421.804688 4396.070312 422.226562 4396.417969 422.578125 L 4419.089844 445.242188 C 4419.441406 445.589844 4419.863281 445.765625 4420.359375 445.765625 C 4420.855469 445.765625 4421.277344 445.589844 4421.628906 445.242188 Z M 4400.191406 421.308594 L 4467.730469 353.769531 C 4468.085938 353.417969 4468.261719 352.996094 4468.257812 352.5 C 4468.265625 352 4468.089844 351.578125 4467.730469 351.230469 L 4400.191406 283.6875 L 4420.324219 263.554688 L 4509.257812 352.5 L 4420.324219 441.433594 Z M 4400.191406 421.308594 " fill-opacity="1" fill-rule="nonzero"/></g></svg>